<?xml version="1.0" encoding="UTF-8" standalone="no"?>
<svg
  version="1.1"
  id="files_compressed"
  xmlns="http://www.w3.org/2000/svg"
  xmlns:xlink="http://www.w3.org/1999/xlink"
  viewBox="0 0 16 16">
  <path
    d="M 5.8368256,0 5.6376069,0.12890621 C 5.3187685,0.33192982
    5.1607965,0.56143268 5.1512793,0.83789037 V 0.9843748 H 0.85049912 L
    0.7118272,1.0546871 a 1.0469327,0.95032328 0 0 0 -0.41406229,0.40625 l
    -0.0664062,0.1289063 -0.0195315,0.6484372 c -0.009518,0.3542115
    -0.0125713,0.6476105 -0.007813,0.6562498 0.004759,0
    2.93005689,-3.005e-4 6.50390459,-0.017576 L 10.7587,2.8613284 V 3.939452 L
    9.5594809,4.4277331 V 5.3613266 L 10.7587,4.8730455 V 5.6249984 L
    9.6454182,6.0781229 V 7.0117168 L 10.7587,6.5566384 V 7.3085913 L
    9.59659,7.7832008 v 0.929687 L 10.7587,8.2382787 v 0.767578 L
    6.5087006,8.9882805 C 2.9348531,8.9710067 0.00284316,8.9683608
    0.00284316,8.9726698 a 13.181834,11.965434 0 0 0 0.00585937,0.6562497 l
    0.01757811,0.6425775 0.06640621,0.130861 a 1.0516915,0.95464293 0 0 0
    0.41992178,0.410139 l 0.13867192,0.06836 H 4.9481542 l 0.00389,0.142579 c
    0.00953,0.280777 0.162729,0.509866 0.486328,0.71289 l 0.1992194,0.124998
    1.5410154,-0.0039 c 1.4228754,-0.0043 1.5620965,-0.0037 1.7714837,-0.04687 L
    10.758704,11.466806 V 13.85743 H 9.7294028 a 1.6560571,1.6241889 0 0 0
    -1.5703123,-1.109387 1.6560571,1.6241889 0 0 0 -1.6601558,1.623047
    1.6560571,1.6241889 0 0 0 1.6601558,1.628905 1.6560571,1.6241889 0 0 0
    1.599609,-1.208984 h 3.0019525 a 1.6560571,1.6241889 0 0 0 1.576171,1.123046
    1.6560571,1.6241889 0 0 0 1.660156,-1.624999 1.6560571,1.6241889 0 0 0
    -1.660156,-1.623046 1.6560571,1.6241889 0 0 0 -1.593749,1.191406 H 11.723542
    V 11.2832 l 1.927735,-0.367188 0.05273,-0.01368 -0.0098,-0.630846 c
    -0.0048,-0.6263473 -0.0045,-0.6349083 -0.06641,-0.7558588 A
    1.0231388,0.92872502 0 0 0 13.174714,9.1015596 l -0.169922,-0.085937
    -1.28125,-0.00586 V 7.8437475 L 12.946199,7.3476539 V 6.4140605 L
    11.723542,6.9121071 V 6.1640606 L 12.989167,5.6464825 V 4.7128891 L
    11.723542,5.2304672 V 4.4746078 L 12.909089,3.9921862 V 3.0624991 L
    11.719636,3.5429677 V 2.857421 l 1.484375,-0.00586 0.17578,-0.087891 a
    1.01838,0.92440536 0 0 0 0.453125,-0.4179677 c 0.05711,-0.1166306
    0.05689,-0.1256035 0.06641,-0.7519529 l 0.0039,-0.63476537
    -0.05274,-0.0136716 L 9.1551705,0.05273576 C 8.9410385,0.00953782
    8.8026705,0.00781248 7.3797939,0.00781248 Z M 1.475499,3.0624991 c
    -0.3517841,0 -0.63476547,0.2829818 -0.63476547,0.6347653 v 4.4492175 c
    0,0.3517845 0.28298177,0.6347655 0.63476547,0.6347655 h 5.6503887 c
    0.3517844,0 0.6347655,-0.2829803 0.6347655,-0.6347655 V 3.6972644 c
    0,-0.3517836 -0.2829803,-0.6347653 -0.6347655,-0.6347653 z"
  />
</svg>
