<?xml version="1.0" encoding="UTF-8" standalone="no"?>
<svg
  version="1.1"
  id="files_disc"
  xmlns="http://www.w3.org/2000/svg"
  xmlns:xlink="http://www.w3.org/1999/xlink"
  viewBox="0 0 16 16">
  <path
    d="M 7.954664,3.0656482e-5 A 8.0000141,8.0000141 0 0 0 1.5300001e-5,7.9987901 8.0000141,8.0000141 0 0 0 7.9987747,16 8.0000141,8.0000141 0 0 0 15.999985,7.9987901 8.0000141,8.0000141 0 0 0 7.9987747,3.0656482e-5 a 8.0000141,8.0000141 0 0 0 -0.044111,0 z M 2.2937772,2.658932 C 3.5033151,3.9249317 5.0330583,5.3819409 6.4132364,6.7244779 6.2639262,6.9842023 6.1735873,7.4941623 5.9427212,7.6949155 3.6804837,7.3448522 1.9297161,6.8454395 0.210767,6.4941214 A 8.2434273,8.2434273 0 0 1 0.9631013,4.4478701 C 1.3329526,3.8072124 1.7273603,3.1543999 2.2937772,2.658932 Z M 7.9987747,6.153488 A 1.8456745,1.8456745 0 0 1 9.8465277,7.9987901 1.8456745,1.8456745 0 0 1 7.9987747,9.8465427 1.8456745,1.8456745 0 0 1 6.1534727,7.9987901 1.8456745,1.8456745 0 0 1 7.9987747,6.153488 Z m 1.945777,2.2766077 c 1.8908443,0.368884 3.9600523,0.794994 5.6902933,1.066011 -0.08446,0.7481423 -0.397276,1.4418673 -0.713124,2.1124183 a 8.2434273,8.2434273 0 0 1 -1.252257,1.784037 C 12.3997,12.180514 10.993644,11.02985 9.4152217,9.3711267 c 0.03388,-0.304894 0.40135,-0.670014 0.52933,-0.941031 z"
  />
</svg>
