<?xml version="1.0" encoding="UTF-8" standalone="no"?>
<svg
  version="1.1"
  id="files_unknown"
  xmlns="http://www.w3.org/2000/svg"
  xmlns:xlink="http://www.w3.org/1999/xlink"
  viewBox="0 0 16 16">
  <path
    d="M 8.130711,10.829652 C 8.2178518,9.3434191 8.4986384,8.9803328
    10.226929,7.9588502 12.405447,6.7001514 12.662028,6.5549165
    12.860515,6.4290469 a 3.1757942,3.1757942 0 0 0 1.55885,-2.6384265 C
    14.419365,1.4668683 11.926173,-1.22e-8 7.9612709,-1.22e-8
    4.2190621,-1.22e-8 1.5806354,1.3652042 1.5806354,3.3210287 c 0,1.1473525
    1.1328291,1.9800303 2.6916792,1.9800303 1.4475041,0 2.4350983,-0.7019669
    2.4350983,-1.7234494 0,-0.5567322 -0.3098323,-1.0456883 -0.905295,-1.3652042
    C 5.2695916,1.8977308 5.2695916,1.8977308 5.2695916,1.7524962 c 0,-0.3195158
    0.6245084,-0.5325265 1.5007565,-0.5325265 1.6992435,0 2.6626325,0.8278366
    2.6626325,2.3382754 0,0.8714069 -0.4260219,1.9606656 -1.1328291,2.9143722 C
    6.7413013,8.559153 6.5137672,8.985174 6.5137672,9.9437218 c 0,0.2130122
    0.029029,0.5518912 0.08714,0.8907712 z M 7.4239033,12.00121 c -1.4765509,0
    -2.6626324,0.895612 -2.6626324,1.999395 0,1.084418 1.1860815,1.999395
    2.6335856,1.999395 1.5007561,0 2.6916795,-0.890771 2.6916795,-1.999395
    0,-1.103783 -1.1909234,-1.999395 -2.6626327,-1.999395 z"
  />
</svg>
