<?xml version="1.0" encoding="UTF-8" standalone="no"?>
<svg
  version="1.1"
  id="files_text"
  xmlns="http://www.w3.org/2000/svg"
  xmlns:xlink="http://www.w3.org/1999/xlink"
  viewBox="0 0 16 16">
  <path
    d="M 2.5 0 A 2.49984 1.96224 0 0 0 0 1.9628906 L 0 13.736328 A 2.49984
    1.96224 0 0 0 2.5 15.697266 L 13.498047 15.697266 A 2.49984 1.96224 0 0 0
    15.998047 13.736328 L 15.998047 4.7089844 L 10.003906 0 L 2.5 0 z M 2.5
    0.78515625 L 9.5 0.78515625 L 9.5 3.1386719 A 2.49984 1.96224 0 0 0 12
    5.1015625 L 14.998047 5.1015625 L 14.998047 13.736328 A 1.5014664 1.1785704
    0 0 1 13.498047 14.912109 L 2.5 14.912109 A 1.5014664 1.1785704 0 0 1 1
    13.736328 L 1 1.9628906 A 1.5014664 1.1785704 0 0 1 2.5 0.78515625 z M 10.5
    1.5039062 L 14.072266 4.3164062 L 12 4.3164062 A 1.5014664 1.1785704 0 0 1
    10.5 3.1386719 L 10.5 1.5039062 z M 3.6582031 4.1035156 A 0.499968 0.392448
    0 1 0 3.6582031 4.8886719 L 6.6582031 4.8886719 A 0.499968 0.392448 0 0 0
    6.6582031 4.1035156 L 3.6582031 4.1035156 z M 3.6582031 5.9414062 A 0.499968
    0.392448 0 1 0 3.6582031 6.7265625 L 10.658203 6.7265625 A 0.499968 0.392448
    0 0 0 10.658203 5.9414062 L 3.6582031 5.9414062 z M 3.6582031 7.7792969 A
    0.499968 0.392448 0 1 0 3.6582031 8.5644531 L 10.658203 8.5644531 A 0.499968
    0.392448 0 0 0 10.658203 7.7792969 L 3.6582031 7.7792969 z M 3.6582031
    9.6171875 A 0.499968 0.392448 0 1 0 3.6582031 10.402344 L 10.658203
    10.402344 A 0.499968 0.392448 0 0 0 10.658203 9.6171875 L 3.6582031
    9.6171875 z M 3.6582031 11.455078 A 0.499968 0.392448 0 1 0 3.6582031
    12.240234 L 10.658203 12.240234 A 0.499968 0.392448 0 0 0 10.658203
    11.455078 L 3.6582031 11.455078 z M 3.6582031 13.292969 A 0.499968 0.392448
    0 1 0 3.6582031 14.078125 L 10.658203 14.078125 A 0.499968 0.392448 0 0 0
    10.658203 13.292969 L 3.6582031 13.292969 z "
  />
</svg>
