<?xml version="1.0" encoding="UTF-8" standalone="no"?>
<svg
  version="1.1"
  id="files_audio"
  xmlns="http://www.w3.org/2000/svg"
  xmlns:xlink="http://www.w3.org/1999/xlink"
  viewBox="0 0 16 16">
  <path
    d="M 14.972964,0.01130075 C 9.5606151,-0.16637351 5.127517,1.8098439
    5.127517,1.8098439 L 5.1244641,11.843534 C 4.5737615,11.627709
    3.9029438,11.575388 3.2229645,11.739982 1.7551054,12.093151
    0.79417671,13.310709 1.0761441,14.460687 1.3591295,15.610665
    2.776092,16.255961 4.2439512,15.903882 5.6283401,15.570334
    6.5607666,14.468317 6.4263994,13.380471 V 5.8832716 c 0,0
    3.1352337,-1.0856661 7.2008576,-1.3581726 v 5.575484 a 3.413129,3.6548577 0
    0 0 -1.870962,-0.09265 c -1.46684,0.353168 -2.4277689,1.570727
    -2.1458019,2.720704 0.281968,1.149978 1.6999479,1.796364 3.1678079,1.443195
    1.280559,-0.308477 2.17634,-1.27642 2.194663,-2.282515 z"
  />
</svg>
