<?xml version="1.0" encoding="UTF-8" standalone="no"?>
<svg
  version="1.1"
  id="files_image"
  xmlns="http://www.w3.org/2000/svg"
  xmlns:xlink="http://www.w3.org/1999/xlink"
  viewBox="0 0 16 16">
  <path
    d="M 1.5,-0.00195313 C 0.73749058,-0.01813812 0.06768527,0.58554476
    0.00585938,1.3457031 v 0.00977 0.00977 C -0.00907965,5.6391775
    0.00426354,9.9130907 0,14.185547 c -0.0517189,0.410096 0.04742509,0.828547
    0.2734375,1.166015 0.23247193,0.347115 0.61162112,0.609201 1.078125,0.640626
    h 0.00781 0.00781 C 5.6411295,16.00709 9.9150452,15.995701 14.1875,16 l
    -0.03711,-0.0039 c 0.421249,0.06226 0.85406,-0.03706 1.201171,-0.269532
    0.347114,-0.232471 0.609205,-0.611623 0.640626,-1.078124 l 0.002,-0.0078 v
    -0.0098 C 16.009044,10.356918 15.995701,6.0849549 16,1.8125
    16.051719,1.4024045 15.952575,0.98395237 15.726562,0.64648438
    15.494091,0.29937142 15.114939,0.0372798 14.648438,0.00585938 h -0.0078
    -0.0078 C 10.254601,-0.0090758 5.8767689,0.00229883 1.5,-0.00195313 Z M
    1.4902344,0.5 h 0.00195 0.00195 c 4.3754672,0.004261 8.7515076,-0.007057
    13.1250006,0.007813 0.299774,0.0217233 0.53,0.17988303 0.689453,0.41796875
    C 15.468907,1.1651524 15.543087,1.4838677 15.5,1.7753906 l -0.002,0.017578
    v 0.017578 c -0.0043,4.2679343 0.0089,8.5368154 -0.0059,12.8027344
    -0.02035,0.302145 -0.180551,0.534999 -0.419922,0.695313 -0.239371,0.160314
    -0.556134,0.234493 -0.847657,0.191406 l -0.01953,-0.002 H 14.1875 c
    -0.162148,-1.63e-4 -0.324183,1.2e-4 -0.486328,0 0.13344,-2.500774
    -1.026226,-5.185274 -3.291016,-6.40425 C 10.031891,8.8954937
    9.6288178,8.7453394 9.2128906,8.6484375 10.928694,7.4617162
    10.895252,4.478472 9.1132812,3.3691406 8.8091456,3.1901665
    8.4571657,3.0896298 8.1035156,3.0917969 6.7696756,3.102479
    5.859988,4.4327404 5.765625,5.6621094 5.6484583,6.7709408
    6.051348,8.0007722 7.0019531,8.6445312 5.0990608,9.1054889
    3.6302499,10.66074 2.9785156,12.466797 c -0.3584913,0.962209
    -0.5097013,1.998352 -0.4609375,3.023437 -0.3788324,-9.33e-4
    -0.7579023,0.0013 -1.1367187,0 C 1.0810771,15.468512
    0.84890819,15.310355 0.68945312,15.072266 0.52913884,14.832894
    0.45496018,14.514179 0.49804688,14.222656 l 0.003906,-0.01758
    V 14.1875 C 0.50621151,9.9202187 0.49298806,5.6519865 0.5078125,1.3867188
    0.54684187,0.90684697 1.0085892,0.48977662 1.4902344,0.5 Z"
  />
</svg>
