<?xml version="1.0" encoding="UTF-8" standalone="no"?>
<svg
  version="1.1"
  id="files_video"
  xmlns="http://www.w3.org/2000/svg"
  xmlns:xlink="http://www.w3.org/1999/xlink"
  viewBox="0 0 16 16">
  <path
    d="M 0.82320971,0.01466385 V 0.91473336 H 2.4150181 V 0.01466385 H 3.2382277
    V 2.1687629 H 12.761773 V 0.01365253 h 0.823209 v 0.90006953 h 1.591809 V
    0.01365253 H 16 V 15.986347 h -0.823209 v -1.039632 h -1.591809 v 1.039632
    H 12.761773 V 13.73415 H 3.2382277 v 2.252197 H 2.4150181 V 14.946715
    H 0.82320971 v 1.039632 H 8.5e-8 V 0.01466385 Z M 12.761773,3.0840021
    H 3.2382277 v 9.7359199 h 9.5235453 z m 2.415018,10.9484849 v -1.709121
    h -1.591809 v 1.709121 z m 0,-2.624359 V 9.7000185 h -1.591809 v 1.7091195
    z m 0,-2.6233486 V 7.0766699 h -1.591809 v 1.7091208 z m 0,-2.6223374
    V 4.4533212 H 13.584982 V 6.162442 Z m 0,-2.6233486 V 1.8299726 H 13.584982
    V 3.5390934 Z M 2.4150181,14.032487 V 12.323366 H 0.82320971 v 1.709121
    z m 0,-2.624359 V 9.7000185 H 0.82320971 v 1.7091195 z m 0,-2.6233486
    V 7.0766699 H 0.82320971 v 1.7091208 z m 0,-2.6223374 V 4.4533212
    H 0.82320971 V 6.162442 Z m 0,-2.6233486 V 1.8299726 H 0.82320971
    v 1.7091208 z"
  />
</svg>
