<?xml version="1.0" encoding="UTF-8" standalone="no"?>
<svg
  version="1.1"
  id="files_executable"
  xmlns="http://www.w3.org/2000/svg"
  xmlns:xlink="http://www.w3.org/1999/xlink"
  viewBox="0 0 16 16">
  <path
    d="M 6.841724,0.0021 6.5620242,2.4702611 5.2655782,3.0485591
    3.2434248,1.4005986 1.5425482,3.1392726 3.1640506,5.187884
    2.5706336,6.4125152 0.0117591,6.5939421 c 0,0 -0.02645809,2.1544438
    0,2.5777731 0.75594519,0.037797 2.5135178,0.359074 2.5135178,0.359074 l
    0.5669589,1.2624288 -1.6063835,1.965457 1.7008767,1.79537
    1.9654575,-1.587485 1.2586487,0.627435 0.5064833,2.403905 h 2.3056328 c 0,0
    0.1776471,-2.313192 0.4271091,-2.392566 0.2532416,-0.07559
    1.3077846,-0.578298 1.3077846,-0.578298 l 1.874745,1.51567 c 0,0
    1.632841,-1.621503 1.617722,-1.806709 -0.01134,-0.181427 -1.409838,-1.772692
    -1.409838,-1.772692 0,0 0.589638,-1.1868336 0.589638,-1.334243 C
    13.630112,9.4854325 16,9.2359705 16,9.2359705 V 6.8169459 c 0,0
    -2.328311,-0.2154444 -2.392567,-0.3590739 -0.06804,-0.1474094
    -0.343955,-0.9298126 -0.555619,-1.3682608 0.449787,-0.5027036
    1.549687,-1.889863 1.549687,-1.889863 L 12.877946,1.5215498
    10.935167,3.0183213 9.6047036,2.4362435 9.2909864,0.0021 Z m
    1.1906136,5.420127 a 2.5645469,2.5645469 0 1 1 0.00756,5.129088
    2.5645469,2.5645469 0 0 1 -0.00756,-5.129088 z"
  />
</svg>
