<?xml version="1.0" encoding="UTF-8" standalone="no"?>
<svg
  version="1.1"
  id="forum_report"
  xmlns="http://www.w3.org/2000/svg"
  xmlns:xlink="http://www.w3.org/1999/xlink"
  viewBox="0 0 16 16">
  <path
     d="M 15.795455,13.445267 8.8407587,1.4690395 c -0.196979,-0.335468 -0.490847,-0.527825 -0.804804,-0.527825 -0.314845,0 -0.608358,0.192357 -0.804803,0.52658
     L 0.18543314,13.625535 c -0.215112,0.366401 -0.244801,0.756625 -0.08,1.044982 0.1429336,0.250667 0.4161792,0.388268 0.7688918,0.388268 H 15.197408
     c 0.305068,0 0.539913,-0.126934 0.678225,-0.368713 0.191467,-0.336001 0.159645,-0.835381 -0.08018,-1.244805 z M 9.0482257,5.0228325 8.6318687,10.798323
     h -1.263472 l -0.41618,-5.7754905 z m -1.055115,8.6215465 c -0.610847,0 -1.082671,-0.471824 -1.082671,-1.068982 0,-0.611203 0.471824,-1.083205 1.082671,-1.083205 0.610847,0 1.096538,0.471824 1.096538,1.083205 0,0.597158 -0.485869,1.068982 -1.096538,1.068982 z"
  />
</svg>
