<?xml version="1.0" encoding="UTF-8" standalone="no"?>
<svg
  version="1.1"
  id="forum_pinned"
  xmlns="http://www.w3.org/2000/svg"
  xmlns:xlink="http://www.w3.org/1999/xlink"
  viewBox="0 0 16 16">
  <path
     d="M 10.65587,7.85406 13.65857,4.8514 C 14.43241,5.05379 15.26168,4.98904 16,4.65648 L 11.34354,2e-5 C 11.01102,0.73834 10.94623,1.56757 11.14862,2.34145 L 8.146,5.34411 C 6.73929,4.67432 5.09909,4.65852 3.6813,5.29711 L 6.28165,7.8975 0,15.99998 8.10248,9.71837 l 2.60039,2.60039 c 0.63851,-1.41771 0.62279,-3.05799 -0.047,-4.46466 z M 5.82053,6.42211 c 0,0 -0.66272,-0.66272 -0.85291,-0.8414 C 6.44869,5.14847 7.4226,5.75363 7.4226,5.75363 6.51785,5.47123 5.82053,6.42211 5.82053,6.42211 Z"
  />
</svg>
