<?xml version="1.0" encoding="UTF-8" standalone="no"?>
<svg
  version="1.1"
  id="forum_quote"
  xmlns="http://www.w3.org/2000/svg"
  xmlns:xlink="http://www.w3.org/1999/xlink"
  viewBox="0 0 16 16">
  <path
     d="M 14.496736,0.636026 H 1.5030717 C 0.6730545,0.636026 0,1.308888 0,2.138905 v 8.71797 c 0,0.830017 0.6730545,1.502879 1.5030717,1.502879
     H 2.324625 c -0.205436,0.644971 -0.68248,1.77314 -1.7387079,3.00422 0,0 3.5630149,-0.67594 4.8525709,-3.00422 h 9.05844
     C 15.326946,12.359754 16,11.686892 16,10.856875 V 2.139098 C 16,1.308888 15.326946,0.636026 14.496736,0.636026 Z M 7.120643,6.368627
     c 0,0.05578 -0.01039,0.108489 -0.02501,0.159848 C 6.835567,8.523786 4.531717,9.568088 4.531717,9.568088 5.291909,8.922925 5.607565,7.742435 5.737598,6.954544
     H 5.118019 c -0.323928,0 -0.586302,-0.262374 -0.586302,-0.58611 V 4.951923 c 0,-0.323736 0.262374,-0.58611 0.586302,-0.58611 h 1.416319
     c 0.323928,0 0.586301,0.262374 0.586301,0.58611 z m 4.347444,0 c 0,0.05578 -0.01039,0.108489 -0.02501,0.159848
     C 11.183011,8.523786 8.87916,9.56828 8.87916,9.56828 9.63916,8.923118 9.955009,7.742627 10.085042,6.954736 H 9.465462
     C 9.141534,6.954736 8.87916,6.692362 8.87916,6.368627 V 4.952115 c 0,-0.323735 0.262374,-0.586109 0.586302,-0.586109 h 1.416319
     c 0.323928,0 0.586302,0.262374 0.586302,0.586109 z"
  />
</svg>
