<?xml version="1.0" encoding="UTF-8" standalone="no"?>
<svg
  version="1.1"
  id="forum_timelock"
  xmlns="http://www.w3.org/2000/svg"
  xmlns:xlink="http://www.w3.org/1999/xlink"
  viewBox="0 0 16 16">
  <path
    d="M 13.113285,2.611322 V 1.713031 h 0.852524 V 0 H 2.0341915 v 1.713031 h 0.8514601 v 0.898291 c 0,1.372447 2.4628484,5.120468 2.5799242,5.390807 -0.1149471,0.270338 -2.5799242,4.018359 -2.5799242,5.384953 V 14.28484 H 2.0341915 V 16 H 13.965277 v -1.71516 h -0.852525 v -0.897758 c 0,-1.373512 -2.464444,-5.096521 -2.594293,-5.388146 0.129849,-0.290561 2.594825,-4.015167 2.594826,-5.387614 z m -0.853057,10.77576 V 14.28484 H 3.7376439 v -0.897758 c 0,-0.986097 2.6113218,-4.893235 2.6113218,-5.388146 0,-0.494379 -2.6113218,-4.400453 -2.6113218,-5.387614 V 1.713031 H 12.26076 v 0.898291 c 0,0.987161 -2.6331405,4.893235 -2.6331405,5.387614 5.32e-4,0.494911 2.6326075,4.402049 2.6326085,5.388146 z M 7.6282845,7.697732 c 0,0 -1.8710836,-1.821061 -2.6006785,-3.914056 V 3.21373 h 5.943192 V 3.783676 C 10.022484,6.094858 8.3701195,7.697732 8.3701195,7.697732 Z"
  />
</svg>
