<?xml version="1.0" encoding="UTF-8" standalone="no"?>
<svg
  version="1.1"
  id="forum_read"
  xmlns="http://www.w3.org/2000/svg"
  xmlns:xlink="http://www.w3.org/1999/xlink"
  viewBox="0 0 16 16">
  <path
     d="M 3.084375,0 3.08125,0.00312496 A 1.6,1.6 0 0 0 1.621875,1.359375 L 1.6,1.378125 V 1.6 14.2 l 0.0125,0.0125 A 1.6,1.6 0 0 0 1.6,14.4 1.6,1.6 0 0 0 3.2,16 1.6,1.6 0 0 0 3.26875,15.9969 L 3.271875,16 h 9.36875 l 0.0094,-0.0094 A 1.6,1.6 0 0 0 12.8,16 1.6,1.6 0 0 0 14.4,14.4 1.6,1.6 0 0 0 14.3969,14.32812 L 14.4,14.325 V 1.6 1.5062499 l -0.0031,-0.00312 A 1.6,1.6 0 0 0 13.06875,0.025 L 13.046875,0 H 12.8 3.2 Z M 4,3.071875 h 6.4 V 3.2 H 4 Z m 0,3.19375 h 8 V 6.4 H 4 Z M 4,9.4812496 H 8.8 V 9.6 H 4 Z m 0,3.1906254 h 6.4 V 12.8 H 4 Z"
  />
</svg>
