<?xml version="1.0" encoding="UTF-8" standalone="no"?>
<svg
  version="1.1"
  id="misc_reload"
  xmlns="http://www.w3.org/2000/svg"
  xmlns:xlink="http://www.w3.org/1999/xlink"
  viewBox="0 0 16 16">
  <path
     d="m 1.8203803,8.5602235 c -0.09771,-0.8468436 -0.01629,-1.6643733 0.205196,-2.4200183 0.736103,-2.5112168 3.04538,-4.3579871 5.784593,-4.390558 V 0.10807358 c 0,-0.09119853 0.113998,-0.14005489 0.188911,-0.08468435 L 11.376683,2.5052922 c 0.05537,0.042342 0.05537,0.1270265 0,0.1661116 l -3.3743457,2.481903 c -0.07817,0.055371 -0.188911,0.00651 -0.188911,-0.084684 V 3.4303059 c -1.801171,0.029314 -3.338518,1.1399817 -3.999707,2.7098993 -0.250796,0.5927905 -0.377822,1.2474657 -0.341994,1.9347118 0.04886,0.9445562 0.403879,1.8141994 0.964098,2.517731 0.299653,0.374566 0.227997,0.921757 -0.159597,1.205124 -0.368051,0.270338 -0.882672,0.195425 -1.166038,-0.162855 C 2.4164273,10.768531 1.9539203,9.7132335 1.8203803,8.5602235 Z M 11.572109,5.4073599 c 0.563476,0.7002744 0.918499,1.5731747 0.964098,2.5177309 0.03583,0.6905032 -0.09445,1.3451784 -0.341994,1.9347118 -0.661189,1.5699184 -2.1985357,2.6838424 -3.9997067,2.7098994 v -1.638316 c 0,-0.0912 -0.113998,-0.140055 -0.188911,-0.08469 l -3.377603,2.481903 c -0.05537,0.04234 -0.05537,0.127027 0,0.166112 l 3.374345,2.481903 c 0.07817,0.05537 0.188912,0.0065 0.188912,-0.08469 V 14.250351 C 10.930462,14.221041 13.242996,12.374267 13.975841,9.8597926 14.197324,9.1041476 14.275494,8.2866179 14.181038,7.4397743 14.050755,6.2867643 13.588248,5.231467 12.894487,4.3650809 12.607863,4.0068009 12.0965,3.9318878 11.728449,4.2022264 c -0.384337,0.2833668 -0.455993,0.830558 -0.15634,1.2051235 z"
  />
</svg>
