<?xml version="1.0" encoding="UTF-8" standalone="no"?>
<!-- Svg Vector Icons : http://www.onlinewebfonts.com/icon -->

<svg
   xmlns:dc="http://purl.org/dc/elements/1.1/"
   xmlns:cc="http://creativecommons.org/ns#"
   xmlns:rdf="http://www.w3.org/1999/02/22-rdf-syntax-ns#"
   xmlns:svg="http://www.w3.org/2000/svg"
   xmlns="http://www.w3.org/2000/svg"
   xmlns:sodipodi="http://sodipodi.sourceforge.net/DTD/sodipodi-0.dtd"
   xmlns:inkscape="http://www.inkscape.org/namespaces/inkscape"
   version="1.1"
   x="0px"
   y="0px"
   viewBox="0 0 16 16"
   enable-background="new 0 0 1000 1000"
   xml:space="preserve"
   id="svg12"
   sodipodi:docname="misc_trash.svg"
   width="16"
   height="16"
   inkscape:version="0.92+devel unknown"><defs
     id="defs16" /><sodipodi:namedview
     pagecolor="#ffffff"
     bordercolor="#666666"
     inkscape:document-rotation="0"
     borderopacity="1"
     objecttolerance="10"
     gridtolerance="10"
     guidetolerance="10"
     inkscape:pageopacity="0"
     inkscape:pageshadow="2"
     inkscape:window-width="1600"
     inkscape:window-height="802"
     id="namedview14"
     showgrid="false"
     inkscape:zoom="37.25"
     inkscape:cx="8"
     inkscape:cy="8"
     inkscape:window-x="0"
     inkscape:window-y="0"
     inkscape:window-maximized="1"
     inkscape:current-layer="svg12" /><metadata
     id="metadata2"> Svg Vector Icons : http://www.onlinewebfonts.com/icon <rdf:RDF><cc:Work
     rdf:about=""><dc:format>image/svg+xml</dc:format><dc:type
       rdf:resource="http://purl.org/dc/dcmitype/StillImage" /><dc:title></dc:title></cc:Work></rdf:RDF></metadata><g
     id="g10"
     transform="matrix(0.01632649,0,0,0.01632649,-0.16340826,-0.16322631)"><g
       transform="matrix(0.1,0,0,-0.1,0,512)"
       id="g8"><path
         d="m 4200.8,4989 c -138,-49.8 -243.4,-126.5 -312.4,-230 -57.5,-86.3 -115,-245.3 -115,-314.3 0,-32.6 -65.2,-34.5 -1297.6,-38.3 l -1299.5,-5.7 -105.4,-49.8 C 917.6,4280 850.5,4212.9 779.6,4069.2 l -63.2,-128.4 v -433.1 -433.2 l 51.8,-67.1 c 109.2,-141.8 -276,-130.3 4231.9,-130.3 4507.9,0 4122.6,-11.5 4231.9,130.3 l 51.8,67.1 v 433.2 433.1 l -63.2,128.4 c -70.9,143.8 -138,210.8 -291.3,281.7 l -105.4,49.8 -1295.6,5.7 -1297.6,5.8 -11.5,80.5 c -30.7,201.2 -166.7,383.3 -354.6,471.5 l -107.3,49.8 -728.3,3.8 c -663.4,5.7 -738.2,1.9 -828.2,-28.8 z"
         id="path4"
         inkscape:connector-curvature="0" /><path
         d="m 1323.9,-1027.3 5.7,-3292.8 49.8,-105.4 c 70.9,-153.3 138,-220.4 281.7,-291.3 l 128.4,-63.2 H 5000 8210.3 l 105.4,49.8 c 153.3,70.9 220.4,138 291.3,281.7 l 63.3,128.4 5.7,3290.8 3.8,3292.7 H 5000 1320.1 Z M 4248.7,678.5 c 26.8,-19.2 67.1,-61.3 88.2,-90.1 40.2,-51.8 40.2,-67.1 40.2,-1544.8 0,-1477.7 0,-1493 -40.2,-1544.8 -74.8,-101.6 -136.1,-132.3 -256.8,-132.3 -120.7,0 -182.1,30.7 -256.8,132.3 -40.2,51.8 -40.2,72.8 -46,1493 -3.8,793.5 0,1468.1 5.8,1502.6 13.4,76.7 93.9,174.4 172.5,208.9 76.5,36.6 229.8,23.1 293.1,-24.8 z m 1839.9,0 c 26.8,-19.2 67.1,-61.3 88.2,-90.1 40.2,-51.8 40.2,-67.1 40.2,-1544.8 0,-1477.7 0,-1493 -40.2,-1544.8 -74.8,-101.6 -136.1,-132.3 -256.8,-132.3 -120.7,0 -182.1,30.7 -256.8,132.3 -40.2,51.8 -40.2,72.8 -46,1493 -3.8,793.5 0,1468.1 5.7,1502.6 13.4,76.7 93.9,174.4 172.5,208.9 76.7,36.6 230,23.1 293.2,-24.8 z"
         id="path6"
         inkscape:connector-curvature="0" /></g></g></svg>