<?xml version="1.0" encoding="UTF-8" standalone="no"?>
<svg
  version="1.1"
  id="misc_cancel"
  xmlns="http://www.w3.org/2000/svg"
  xmlns:xlink="http://www.w3.org/1999/xlink"
  viewBox="0 0 16 16">
  <path
     d="M 8,0 A 8,8 0 0 0 0,8 8,8 0 0 0 8,16 8,8 0 0 0 16,8 8,8 0 0 0 8,0 Z M 8,2.9051724 A 5.095117,5.095117 0 0 1 13.094828,8 5.095117,5.095117 0 0 1 12.362069,10.622845 L 5.3771552,3.637931 A 5.095117,5.095117 0 0 1 8,2.9051724 Z M 3.637931,5.3771552 10.622845,12.362069 A 5.095117,5.095117 0 0 1 8,13.094828 5.095117,5.095117 0 0 1 2.9051724,8 5.095117,5.095117 0 0 1 3.637931,5.3771552 Z"
  />
</svg>
