<?xml version="1.0" encoding="UTF-8" standalone="no"?>
<svg
  version="1.1"
  id="misc_resend"
  xmlns="http://www.w3.org/2000/svg"
  xmlns:xlink="http://www.w3.org/1999/xlink"
  viewBox="0 0 16 16">
  <path
     d="m 8.001979,0 a 8.0000193,8.0000193 0 0 1 5.869154,2.57613 c 0.22681,-0.1338 0.469874,-0.26759 0.689455,-0.40037 0.54023,-0.32239 1.081048,-0.64407 1.423832,-0.83985 l -0.03126,4.73247 -0.0059,1.10154 A 8.0000193,8.0000193 0 0 1 15.99804,7.8906 L 15.9414,7.8641 15.92383,10.80159 11.839836,8.40904 7.7577958,6.01644 C 8.1005728,5.8218 8.6594811,5.51951 9.2187371,5.21564 9.5258239,5.04518 9.8788552,4.84751 10.205067,4.66685 A 4.0000098,4.0000098 0 0 0 8.0019373,4.00082 4.0000098,4.0000098 0 0 0 4.0019274,8.00081 4.0000098,4.0000098 0 0 0 8.0019373,12.00084 4.0000098,4.0000098 0 0 0 11.017569,10.61999 l 3.64454,1.80661 A 8.0000193,8.0000193 0 0 1 8.001979,16 8.0000193,8.0000193 0 0 1 0.00195983,7.99998 8.0000193,8.0000193 0 0 1 8.001979,0 Z"
  />
</svg>
