<?xml version="1.0" encoding="UTF-8" standalone="no"?>
<!-- Svg Vector Icons : http://www.onlinewebfonts.com/icon -->

<svg
   xmlns:dc="http://purl.org/dc/elements/1.1/"
   xmlns:cc="http://creativecommons.org/ns#"
   xmlns:rdf="http://www.w3.org/1999/02/22-rdf-syntax-ns#"
   xmlns:svg="http://www.w3.org/2000/svg"
   xmlns="http://www.w3.org/2000/svg"
   xmlns:sodipodi="http://sodipodi.sourceforge.net/DTD/sodipodi-0.dtd"
   xmlns:inkscape="http://www.inkscape.org/namespaces/inkscape"
   version="1.1"
   x="0px"
   y="0px"
   viewBox="0 0 16 16"
   enable-background="new 0 0 1000 1000"
   xml:space="preserve"
   id="svg12"
   sodipodi:docname="misc_cancel.svg"
   width="16"
   height="16"
   inkscape:version="0.92.2 (5c3e80d, 2017-08-06)"><defs
     id="defs16" /><sodipodi:namedview
     pagecolor="#ffffff"
     bordercolor="#666666"
     inkscape:document-rotation="0"
     borderopacity="1"
     objecttolerance="10"
     gridtolerance="10"
     guidetolerance="10"
     inkscape:pageopacity="0"
     inkscape:pageshadow="2"
     inkscape:window-width="3200"
     inkscape:window-height="1605"
     id="namedview14"
     showgrid="false"
     inkscape:zoom="52.679455"
     inkscape:cx="16.90498"
     inkscape:cy="7.076522"
     inkscape:window-x="0"
     inkscape:window-y="55"
     inkscape:window-maximized="1"
     inkscape:current-layer="svg12" /><metadata
     id="metadata2"> Svg Vector Icons : http://www.onlinewebfonts.com/icon <rdf:RDF><cc:Work
     rdf:about=""><dc:format>image/svg+xml</dc:format><dc:type
       rdf:resource="http://purl.org/dc/dcmitype/StillImage" /><dc:title></dc:title></cc:Work></rdf:RDF></metadata><path
     style=""
     d="M 8 0.75 A 7.25 7.25 0 0 0 0.75 8 A 7.25 7.25 0 0 0 8 15.25 A 7.25 7.25 0 0 0 15.25 8 A 7.25 7.25 0 0 0 8 0.75 z M 8 3.3828125 A 4.6174498 4.6174498 0 0 1 12.617188 8 A 4.6174498 4.6174498 0 0 1 11.953125 10.376953 L 5.6230469 4.046875 A 4.6174498 4.6174498 0 0 1 8 3.3828125 z M 4.046875 5.6230469 L 10.376953 11.953125 A 4.6174498 4.6174498 0 0 1 8 12.617188 A 4.6174498 4.6174498 0 0 1 3.3828125 8 A 4.6174498 4.6174498 0 0 1 4.046875 5.6230469 z "
     id="path4565" /></svg>