<?xml version="1.0" encoding="UTF-8" standalone="no"?>
<svg
  version="1.1"
  id="misc_trash"
  xmlns="http://www.w3.org/2000/svg"
  xmlns:xlink="http://www.w3.org/1999/xlink"
  viewBox="0 0 16 16">
  <path
     d="m 1.9983,9.8745594 0.01,5.3753996 0.081,0.172 c 0.1157,0.2503 0.2252,0.3598 0.4599,0.4755 l 0.2096,0.1033 h 5.2409 5.2407 l 0.172,-0.081 c 0.2502,-0.1158 0.3598,-0.2253 0.4755,-0.4599 l 0.1034,-0.2096 0.01,-5.3720996 0.01,-5.3751997 H 8.0042 1.9969 Z m 4.7746,-2.7846 c 0.044,0.032 0.1095,0.1001 0.1439,0.1471 0.066,0.085 0.066,0.1096 0.066,2.5218 0,2.4122996 0,2.4372996 -0.066,2.5217996 -0.122,0.1659 -0.2221,0.216 -0.4191,0.216 -0.1971,0 -0.2973,-0.05 -0.4192,-0.216 -0.066,-0.085 -0.066,-0.1188 -0.075,-2.4371996 -0.01,-1.2954 0,-2.3967 0.01,-2.4529 0.022,-0.1252 0.1533,-0.2847 0.2816,-0.341 0.1249,-0.06 0.3751,-0.038 0.4785,0.04 z m 3.0035,0 c 0.044,0.032 0.1095,0.1001 0.144,0.1471 0.065,0.085 0.065,0.1096 0.065,2.5218 0,2.4122996 0,2.4372996 -0.065,2.5217996 -0.1221,0.1659 -0.2221,0.216 -0.4192,0.216 -0.1971,0 -0.2972,-0.05 -0.4192,-0.216 -0.065,-0.085 -0.065,-0.1188 -0.075,-2.4371996 -0.01,-1.2954 0,-2.3967 0.01,-2.4529 0.022,-0.1252 0.1533,-0.2847 0.2816,-0.341 0.1252,-0.06 0.3754,-0.038 0.4786,0.04 z M 6.6947,0.05325974 c -0.2252,0.081 -0.3973,0.2066 -0.5099,0.3755 -0.094,0.1409 -0.1878,0.4005 -0.1878,0.5131 0,0.053 -0.1065,0.056 -2.1182,0.063 l -2.1214,0.01 -0.1721,0.081 c -0.2503,0.1157 -0.3598,0.2253 -0.4756,0.4599 l -0.1031,0.2096 v 0.707 0.7071 l 0.085,0.1096 c 0.1783,0.2315 -0.4505,0.2127 6.9084,0.2127 7.3589,0 6.7299,0.018 6.9084,-0.2127 l 0.085,-0.1096 v -0.7071 -0.707 l -0.1032,-0.2096 c -0.1157,-0.2347 -0.2253,-0.3442 -0.4755,-0.4599 l -0.1721,-0.081 -2.115,-0.01 -2.1183,-0.01 -0.019,-0.1314 c -0.05,-0.3285 -0.2721,-0.6257 -0.5788,-0.7697 l -0.1752,-0.081 -1.1889,-0.01 c -1.083,-0.01 -1.2051,0 -1.352,0.047 z"
  />
</svg>
