<?xml version="1.0" encoding="UTF-8" standalone="no"?>
<svg
  version="1.1"
  id="misc_favorite"
  xmlns="http://www.w3.org/2000/svg"
  xmlns:xlink="http://www.w3.org/1999/xlink"
  viewBox="0 0 16 16">
  <path
     d="M 5.9351996,12.491867 C 4.1654812,9.8792374 0.64924861,8.2472374 0.06260315,5.1057274 c -0.24404826,-1.30685 0.24276888,-2.88057 1.15835505,-3.80674 0.9648992,-0.97609995 2.2217806,-1.60561995 3.8772257,-1.14522995 1.6554475,0.46049 2.7660246,1.71449995 2.9018166,3.12380995 0.1357947,-1.40931 1.2463688,-2.66346995 2.9018165,-3.12380995 1.655444,-0.46054 2.912326,0.16932 3.877226,1.14522995 0.915584,0.92621 1.402402,2.49989 1.158354,3.80674 -0.586645,3.14151 -4.075688,4.79384 -5.872596,7.3861396 -0.7750624,1.11814 -2.1070975,3.50816 -2.1070975,3.50816 0,0 -1.2693083,-2.39626 -2.0225039,-3.50816 z"
  />
</svg>
