<?xml version="1.0" encoding="UTF-8" standalone="no"?>
<svg
  version="1.1"
  id="misc_restore"
  xmlns="http://www.w3.org/2000/svg"
  xmlns:xlink="http://www.w3.org/1999/xlink"
  viewBox="0 0 16 16">
  <path
     d="M 7.9980441,0 A 7.9994421,8.0000193 0 0 0 2.1293128,2.576128 C 1.9025194,2.4423326 1.6594732,2.3085373 1.4399078,2.1757623 0.89971694,1.8533684 0.35893759,1.5316925 0.01617896,1.3359129 l 0.03125445,4.7324635 0.0058579,1.1015442 A 7.9994421,8.0000193 0 0 0 0.00251316,7.8906015 L 0.05914912,7.8641448 0.07672281,10.801634 4.1604219,8.4090775 8.2421687,6.0164835 C 7.8994181,5.8218377 7.3405484,5.5195508 6.7813329,5.2156765 6.4742687,5.0452197 6.1212624,4.8475503 5.7950742,4.6668887 A 3.9997211,4.0000098 0 0 1 7.998045,4.0008598 3.9997211,4.0000098 0 0 1 11.997767,8.0008504 3.9997211,4.0000098 0 0 1 7.998045,12.000879 3.9997211,4.0000098 0 0 1 4.9826305,10.620027 L 1.3383536,12.426643 A 7.9994421,8.0000193 0 0 0 7.9980442,16 7.9994421,8.0000193 0 0 0 15.997487,7.9999811 7.9994421,8.0000193 0 0 0 7.9980441,0 Z"
  />
</svg>
