<?xml version="1.0" encoding="UTF-8" standalone="no"?>
<svg
  version="1.1"
  id="nav_chat"
  xmlns="http://www.w3.org/2000/svg"
  xmlns:xlink="http://www.w3.org/1999/xlink"
  viewBox="0 0 16 16">
  <path
     d="M 6.528986,0.63104 C 2.924088,0.63104 0,2.79104 0,5.49635 c 0,1.6849 0.826135,3.48083 2.551849,4.36247 0,0.0114 -0.0033,0.0179 -0.0033,0.0294 0,0.73143 -0.608973,1.73717 -0.850606,2.15023 h 0.0016 c -0.01959,0.0441 -0.03103,0.0931 -0.03103,0.14531 0,0.20408 0.164917,0.3706 0.370631,0.3706 0.03102,0 0.07837,-0.007 0.09633,-0.007 0.0049,0 0.0065,0 0.0065,0.002 1.275102,-0.20898 3.157551,-1.64408 3.436735,-1.98367 0.285714,0.0424 0.480025,0.0506 0.720025,0.0506 0.102857,-0.002 0.212226,-0.005 0.339573,-0.005 3.604898,0 6.400006,-2.05879 6.357557,-5.11511 0,-2.70531 -2.860401,-4.86531 -6.466932,-4.86531 z m 0,0.99758 c 3.048163,0 5.467761,1.71752 5.467761,3.86773 -0.0082,2.38367 -2.27757,4.13227 -5.325733,4.13227 0,0 -0.465287,0.0179 -0.943654,-0.0523 L 5.168973,9.53712 4.528986,10.06939 C 4.380415,10.23919 3.735523,10.77795 3.180421,11.12733 3.51838,10.16407 3.502041,9.85878 3.502041,9.85878 L 3.549391,9.24816 3.005705,8.97061 C 1.621215,8.2604 0.999168,6.78774 0.999168,5.49631 c 0,-2.14857 2.481652,-3.86773 5.529815,-3.86773 z M 3.802455,4.65719 c -0.280816,0 -0.56,0.1159 -0.759183,0.31508 -0.199184,0.19755 -0.315115,0.47674 -0.315115,0.75919 0,0.28081 0.115931,0.56 0.315115,0.75918 0.199183,0.19918 0.478367,0.31511 0.759183,0.31511 0.01144,0 0.02286,-5.1e-4 0.03428,-8.9e-4 0.01142,3.8e-4 0.02284,8.9e-4 0.03428,8.9e-4 0.280816,0 0.56,-0.11593 0.759184,-0.31511 0.199183,-0.19918 0.315114,-0.47837 0.315114,-0.75918 0,-0.28082 -0.115931,-0.56 -0.315114,-0.75919 C 4.431015,4.77309 4.151831,4.65719 3.871015,4.65719 c -0.01144,0 -0.02285,4.8e-4 -0.03428,8.6e-4 -0.01142,-3.8e-4 -0.02284,-8.6e-4 -0.03428,-8.6e-4 z m 2.955102,0 c -0.280816,0 -0.56,0.1159 -0.759183,0.31508 -0.200817,0.19755 -0.315115,0.47674 -0.315115,0.75919 0,0.28081 0.115931,0.56 0.315115,0.75918 0.199183,0.19918 0.478367,0.31511 0.759183,0.31511 0.280817,0 0.56,-0.11593 0.759184,-0.31511 0.199184,-0.19918 0.315083,-0.47837 0.315083,-0.75918 0,-0.28082 -0.115899,-0.56 -0.315083,-0.75919 C 7.317557,4.77309 7.038374,4.65719 6.757557,4.65719 Z m 2.870185,0 c -0.280816,0 -0.56,0.1159 -0.759183,0.31508 -0.199184,0.19755 -0.315083,0.47674 -0.315083,0.75919 0,0.28081 0.115899,0.56 0.315083,0.75918 0.199183,0.19918 0.478367,0.31511 0.759183,0.31511 0.280817,0 0.56,-0.11593 0.759184,-0.31511 0.199184,-0.19918 0.315115,-0.47837 0.315115,-0.75918 0,-0.28082 -0.115931,-0.56 -0.315115,-0.75919 C 10.187742,4.77309 9.908559,4.65719 9.627742,4.65719 Z m 4.522449,1.71429 c -0.03265,0.35918 -0.140401,0.82774 -0.246524,1.08734 -2.004898,4.89142 -8.163252,4.17142 -8.199171,4.20408 0.992653,1.21143 2.615517,1.97713 4.651435,1.97713 0.111021,0 0.204056,0.002 0.29222,0.002 0.207346,0 0.373896,-0.005 0.623692,-0.0408 0.241633,0.29388 1.596716,1.58367 2.698757,1.7649 0,-0.002 0.0016,-0.002 0.0049,-0.002 0.01469,0 0.05713,0.005 0.08488,0.005 0.17796,0 0.320026,-0.14367 0.320026,-0.31999 0,-0.0441 -0.01145,-0.0882 -0.02615,-0.12574 h 0.0017 c -0.207347,-0.35755 -0.533897,-1.40244 -0.533897,-2.03428 0,-0.01 -0.0033,-0.0163 -0.0033,-0.0245 C 15.309394,12.10044 16,10.98861 16,9.53391 16,8.17881 15.471008,7.14699 14.150191,6.37148 Z"
  />
</svg>
