<?xml version="1.0" encoding="UTF-8" standalone="no"?>
<svg
  version="1.1"
  id="nav_slots"
  xmlns="http://www.w3.org/2000/svg"
  xmlns:xlink="http://www.w3.org/1999/xlink"
  viewBox="0 0 16 16">
  <path
     d="m 6.1249984,5.7500266 h 1.000001 v 3.0000023 h -1.000001 z m 2.0000017,0 H 9.1250007 V 8.7500289 H 8.1250001 Z m -4.000003,0 H 5.1249977 V 8.7500289 H 4.1249971 Z M 6.6249989,0 A 6.000004,3.0000022 0 0 0 0.62499425,3.0000024 V 16 H 12.625004 v -3.999991 h 1.500001 v -0.999988 h 0.5 V 2.9668181 a 1.0000009,1.0000009 0 0 0 0.750001,-0.9668039 1.0000009,1.0000009 0 0 0 -1.000001,-1.00002601 1.0000009,1.0000009 0 0 0 -1,1.00002601 1.0000009,1.0000009 0 0 0 0.75,0.9668039 v 6.033189 H 12.625004 V 3.0000024 A 6.000004,3.0000022 0 0 0 6.6249989,0 Z M 2.6249958,3.9999906 H 10.625002 V 9.0000071 H 2.6249958 Z m 1.0000007,8.0000184 h 6.0000048 l 1.0000007,2.000015 H 2.6249958 Z"
  />
</svg>
