<?xml version="1.0" encoding="UTF-8" standalone="no"?>
<svg
  version="1.1"
  id="nav_forum"
  xmlns="http://www.w3.org/2000/svg"
  xmlns:xlink="http://www.w3.org/1999/xlink"
  viewBox="0 0 16 16">
  <path
     d="m 2.4615385,2.4615385 c -0.6726541,0 -1.2307693,0.5581151 -1.2307693,1.2307692 V 6.1538461 L 0,7.3846153 H 3.6923077 14.769231 C 15.441884,7.3846153 16,6.8265001 16,6.1538461 V 3.6923077 C 16,3.0196536 15.441884,2.4615385 14.769231,2.4615385 Z m 0,1.2307692 H 14.769231 V 6.1538461 H 2.4615385 Z m 0,4.9230769 c -0.6726541,0 -1.2307693,0.5581152 -1.2307693,1.2307692 V 12.307693 L 0,13.538462 H 2.4615385 3.6923077 14.769231 C 15.441884,13.538462 16,12.980346 16,12.307693 V 9.8461538 C 16,9.1734998 15.441884,8.6153846 14.769231,8.6153846 Z m 0,1.2307692 H 14.769231 V 12.307693 H 2.4615385 Z"
  />
</svg>
