<?xml version="1.0" encoding="UTF-8" standalone="no"?>
<svg
  version="1.1"
  id="nav_userinfo"
  xmlns="http://www.w3.org/2000/svg"
  xmlns:xlink="http://www.w3.org/1999/xlink"
  viewBox="0 0 16 16">
  <path
     d="m 9.9866189,7.4152548 c 1.5576251,-0.89927 2.3170271,-2.73266 1.8515041,-4.46996 C 11.372609,1.2080248 9.7982758,4.7818089e-6 7.9997112,4.7818089e-6 6.2011467,4.7818089e-6 4.6268134,1.2080248 4.1612995,2.9452948 c -0.4655226,1.7373 0.2938796,3.57069 1.8515037,4.46996 l -0.02527,1.77917 c -0.2173459,0.0559 -0.4302332,0.12128 -0.638087,0.19487 -0.8313045,0.29438 -1.5822365,0.7223502 -2.2153042,1.2537302 -1.2661356,1.06275 -2.0612402,2.53782 -2.0879292,4.17554 -0.025356,1.55595 4.6080838,1.06295 6.9535,1.07673 2.3415492,0.015 6.9541812,0.56013 6.9541782,-0.99337 -4e-6,-1.63788 -0.771001,-3.12233 -2.019701,-4.20014 -0.624351,-0.53889 -1.368007,-0.9767702 -2.19467,-1.2801602 -0.206638,-0.0759 -0.418445,-0.14343 -0.634852,-0.20238 l -0.1180471,-1.80399"
  />
</svg>
