<?xml version="1.0" encoding="UTF-8" standalone="no"?>
<!-- Created with Inkscape (http://www.inkscape.org/) -->

<svg
   xmlns:dc="http://purl.org/dc/elements/1.1/"
   xmlns:cc="http://creativecommons.org/ns#"
   xmlns:rdf="http://www.w3.org/1999/02/22-rdf-syntax-ns#"
   xmlns:svg="http://www.w3.org/2000/svg"
   xmlns="http://www.w3.org/2000/svg"
   xmlns:sodipodi="http://sodipodi.sourceforge.net/DTD/sodipodi-0.dtd"
   xmlns:inkscape="http://www.inkscape.org/namespaces/inkscape"
   width="16"
   height="16"
   viewBox="0 0 4.2333332 4.2333335"
   version="1.1"
   id="svg4492"
   inkscape:version="0.92.1 r"
   sodipodi:docname="nav_friends.svg">
  <defs
     id="defs4486" />
  <sodipodi:namedview
     id="base"
     pagecolor="#ffffff"
     bordercolor="#666666"
     borderopacity="1.0"
     inkscape:pageopacity="0.0"
     inkscape:pageshadow="2"
     inkscape:zoom="54.9375"
     inkscape:cx="8"
     inkscape:cy="8"
     inkscape:document-units="px"
     inkscape:current-layer="layer1"
     showgrid="false"
     units="px"
     inkscape:window-width="1600"
     inkscape:window-height="1605"
     inkscape:window-x="1600"
     inkscape:window-y="55"
     inkscape:window-maximized="0" />
  <metadata
     id="metadata4489">
    <rdf:RDF>
      <cc:Work
         rdf:about="">
        <dc:format>image/svg+xml</dc:format>
        <dc:type
           rdf:resource="http://purl.org/dc/dcmitype/StillImage" />
        <dc:title />
      </cc:Work>
    </rdf:RDF>
  </metadata>
  <g
     inkscape:label="Layer 1"
     inkscape:groupmode="layer"
     id="layer1"
     transform="translate(0,-292.76666)">
    <path
       style="opacity:1;fill-opacity:1;stroke:none;stroke-width:1.16166437;stroke-opacity:1"
       d="M 11.654297 0 C 10.530286 0 9.5448286 0.75406108 9.2539062 1.8398438 C 9.0613422 2.558466 9.2104699 3.3001989 9.6113281 3.8847656 C 10.424975 4.3196057 11.049805 5.0751099 11.300781 6.0117188 C 11.675595 7.4105219 11.09865 8.8650737 9.9277344 9.6816406 L 9.9472656 9.9609375 C 10.569123 9.95127 11.183588 9.9308386 11.654297 9.9335938 C 13.117646 9.9449323 16.000002 10.283272 16 9.3125 C 15.999997 8.2888528 15.518655 7.3610874 14.738281 6.6875 C 14.348094 6.3503661 13.881856 6.078253 13.365234 5.8886719 C 13.236099 5.8410498 13.103994 5.7991361 12.96875 5.7617188 L 12.894531 4.6347656 L 12.894531 4.6328125 C 13.867967 4.0707968 14.343662 2.9255508 14.052734 1.8398438 C 13.761809 0.75406108 12.778308 0 11.654297 0 z "
       transform="matrix(0.26458333,0,0,0.26458333,0,292.76666)"
       id="path5039-3" />
    <path
       style="opacity:1;fill-opacity:1;stroke:none;stroke-width:0.33811772;stroke-opacity:1"
       d="m 2.4780396,295.22669 c 0.2833349,-0.16358 0.4214716,-0.49708 0.3367921,-0.8131 -0.084678,-0.31601 -0.3710521,-0.53575 -0.6982145,-0.53575 -0.3271622,0 -0.6135364,0.21974 -0.6982143,0.53575 -0.08468,0.31602 0.053457,0.64952 0.3367921,0.8131 l -0.0046,0.32363 c -0.039536,0.0102 -0.07826,0.0221 -0.1160693,0.0354 -0.1512159,0.0535 -0.2878118,0.13139 -0.402968,0.22805 -0.2303123,0.19332 -0.37494343,0.46164 -0.37979818,0.75955 -0.004616,0.28302 0.83821928,0.19334 1.26485488,0.19585 0.4259322,0.003 1.2649788,0.10189 1.2649783,-0.1807 -7e-7,-0.29793 -0.1402466,-0.56796 -0.3673877,-0.76401 -0.1135705,-0.098 -0.248843,-0.17767 -0.3992146,-0.23286 -0.037587,-0.0138 -0.076116,-0.0261 -0.1154807,-0.0368 l -0.021473,-0.32815"
       id="path5039-6-3"
       inkscape:connector-curvature="0"
       sodipodi:nodetypes="ccccccssssssscc" />
    <path
       inkscape:connector-curvature="0"
       style="opacity:1;fill-opacity:1;stroke:none;stroke-width:0.30735704;stroke-opacity:1"
       d="m 1.1498032,292.7665 c 0.2973946,0 0.5581302,0.19951 0.6351034,0.48679 0.050949,0.19014 0.011493,0.38639 -0.094568,0.54105 -0.2152775,0.11506 -0.3805971,0.31495 -0.4470011,0.56276 -0.09917,0.3701 0.053481,0.75495 0.3632852,0.971 l -0.00517,0.0739 C 1.4369196,295.399 1.2743424,295.394 1.1498006,295.395 0.7626228,295.398 -4.9587074e-7,295.4875 0,295.23067 c 8.0412926e-7,-0.27084 0.1273559,-0.51631 0.3338298,-0.69453 0.103237,-0.0892 0.2265958,-0.1612 0.3632854,-0.21136 0.034167,-0.0126 0.06912,-0.0237 0.104903,-0.0336 l 0.019637,-0.29817 v -5.1e-4 c -0.2575551,-0.14871 -0.3834161,-0.45172 -0.3064414,-0.73898 0.076974,-0.28728 0.3371919,-0.48679 0.6345864,-0.48679 z"
       id="path5039-3-2" />
  </g>
</svg>
