<?xml version="1.0" encoding="UTF-8" standalone="no"?>
<svg
  version="1.1"
  id="nav_useredit"
  xmlns="http://www.w3.org/2000/svg"
  xmlns:xlink="http://www.w3.org/1999/xlink"
  viewBox="0 0 16 16">
  <path
     d="M 7.3273987,0 5.8239366,2.76956 2.8170129,1.86746 1.867458,2.81704 2.7616222,5.83977 6.0000001e-8,7.33532 v 1.3373 L 2.7616222,10.16816 1.867458,13.183 2.8170129,14.13253 5.8318494,13.23838 7.3273987,16 h 1.3372897 l 1.4955486,-2.76162 3.02275,0.89415 L 14.132542,13.183 13.230465,10.17606 16,8.67262 V 7.33532 L 13.230465,5.83187 14.132542,2.81704 13.182987,1.86746 10.168151,2.76956 8.6646884,0 Z M 6.2274975,3.71119 H 9.7645896 L 12.288823,6.23544 V 9.7725 L 9.7725024,12.28885 H 6.2195847 L 3.7111773,9.78044 V 6.2275 Z M 7.9978896,2.64238 A 5.3597095,5.3597095 0 0 0 2.63818,8.0021 5.3597095,5.3597095 0 0 0 7.9978896,13.36179 5.3597095,5.3597095 0 0 0 13.3576,8.0021 5.3597095,5.3597095 0 0 0 7.9978896,2.64238 Z m 0,1.07193 A 4.2877681,4.2877681 0 0 1 12.285658,8.0021 4.2877681,4.2877681 0 0 1 7.9978896,12.28986 4.2877681,4.2877681 0 0 1 3.7101219,8.0021 4.2877681,4.2877681 0 0 1 7.9978896,3.71431 Z m 0,1.07197 A 3.2158257,3.2158257 0 0 0 4.7820637,8.0021 3.2158257,3.2158257 0 0 0 7.9978896,11.21793 3.2158257,3.2158257 0 0 0 11.213716,8.0021 3.2158257,3.2158257 0 0 0 7.9978896,4.78628 Z m 0,2.14386 A 1.0719421,1.0719421 0 0 1 9.0698318,8.0021 1.0719421,1.0719421 0 0 1 7.9978896,9.07403 1.0719421,1.0719421 0 0 1 6.9259478,8.0021 1.0719421,1.0719421 0 0 1 7.9978896,6.93014 Z"
  />
</svg>
