<?xml version="1.0" encoding="UTF-8" standalone="no"?>
<svg
  version="1.1"
  id="nav_collages"
  xmlns="http://www.w3.org/2000/svg"
  xmlns:xlink="http://www.w3.org/1999/xlink"
  viewBox="0 0 16 16">
  <path
     d="m 12.13506,3.1176049e-5 c -0.198794,5e-5 -0.419914,2.80000001e-4 -0.666049,6.70000001e-4 C 10.194113,0.00102118 9.119032,0.01360118 9.075115,0.02600118 c -0.168648,0.0531 -0.343831,0.16259 -0.450113,0.28749 -0.215666,0.25321 -0.209462,0.15935 -0.199993,2.78164002 l 0.0093,2.35649 0.0844,0.15934 c 0.09061,0.17501 0.212557,0.29061 0.41255,0.39689 l 0.128185,0.0687 2.356492,0.009 c 2.722198,0.009 2.587819,0.0219 2.865851,-0.25631 0.278195,-0.27819 0.265643,-0.14384 0.256337,-2.86604 l -0.0093,-2.35649002 -0.06875,-0.12816 c -0.09681,-0.18432 -0.331243,-0.37813 -0.518829,-0.43445 -0.117568,-0.0356 -0.414634,-0.0448000039 -1.806192,-0.0444000039 z M 3.618309,3.1860912 c -1.250082,-1.7e-4 -1.25334,-1.9e-4 -1.359459,0.0716 -0.215666,0.14383 -0.21565,0.14385 -0.21565,1.53776 0,1.19393 0.0031,1.25643 0.06253,1.35325 0.03445,0.0563 0.10627,0.12817 0.162431,0.16262 0.09681,0.0594 0.159352,0.0625 1.353273,0.0625 1.378241,0 1.384598,-1e-5 1.528266,-0.1969 0.06253,-0.0875 0.06562,-0.12196 0.06562,-1.39702 0,-1.27523 -0.0031,-1.30952 -0.06562,-1.39703 -0.143832,-0.19689 -0.150048,-0.19686 -1.531391,-0.19686 z m 2.387677,0.8749 -0.09059,0.0906 -0.09062,0.0906 v 0.83441 0.83441 l 0.09062,0.0906 0.09059,0.0906 H 6.84043 7.674842 l 0.09062,-0.0906 0.09059,-0.0906 v -0.83441 -0.83441 l -0.09059,-0.0906 -0.09062,-0.0906 H 6.84043 Z m 6.928921,2.62537 c -1.193757,-1.7e-4 -1.256268,0.003 -1.353081,0.0624 -0.05632,0.0344 -0.128175,0.10629 -0.162622,0.16262 -0.05943,0.0968 -0.06253,0.15932 -0.06253,1.35324 0,1.39391 1.5e-5,1.39394 0.215682,1.53777 0.106282,0.0718 0.109362,0.0718 1.35324,0.0718 1.381343,0 1.393918,0 1.534485,-0.2 0.06873,-0.0968 0.06875,-0.10317 0.06875,-1.40011 0,-1.26886 -0.0031,-1.3033 -0.06562,-1.3908 -0.143832,-0.1969 -0.150058,-0.1969 -1.528299,-0.1969 z m -4.655397,0.009 c -0.793303,-8e-5 -1.422921,0.009 -1.46392,0.0225 -0.143832,0.0437 -0.290586,0.17503 -0.362584,0.32196 -0.06563,0.13747 -0.06564,0.15935 -0.05944,1.85954 l 0.0093,1.7189498 0.09371,0.13437 c 0.05306,0.0718 0.150043,0.16245 0.218775,0.1969 0.121955,0.0656 0.159346,0.0656 1.881412,0.0656 h 1.753228 l 0.134371,-0.0937 c 0.072,-0.0531 0.165719,-0.15624 0.20637,-0.23134 l 0.07184,-0.13746 v -1.6908898 -1.69399 l -0.06875,-0.13746 c -0.04375,-0.0813 -0.128173,-0.17811 -0.206211,-0.23443 l -0.137464,-0.0937 -1.721883,-0.006 c -0.118771,-3.9e-4 -0.235448,-5.7e-4 -0.348776,-5.8e-4 z m -3.064027,0.27257 -2.015911,0.003 c -1.331385,0.003 -2.050232,0.0155 -2.119127,0.0374 -0.05943,0.0188 -0.1719,0.0937 -0.256306,0.1688 -0.262359,0.23445 -0.25308,0.14366 -0.243774,2.46587 l 0.0093,2.0283398 0.0844,0.14059 c 0.04375,0.0782 0.12506,0.17191 0.178119,0.21256 0.221871,0.16261 0.206199,0.16259 2.344089,0.16259 2.212826,0 2.175295,0.003 2.390962,-0.20618 0.234441,-0.22807 0.221869,-0.0782 0.231338,-2.3253098 0.0062,-1.45954 -1.1e-5,-2.05334 -0.02809,-2.14722 -0.04996,-0.17811 -0.224988,-0.3781 -0.415675,-0.46561 z m 8.570959,3.4992498 c -0.823805,-10e-4 -1.751718,0.0149 -1.820317,0.0448 -0.115588,0.0531 -0.249951,0.19378 -0.293868,0.30936 -0.02188,0.0594 -0.03444,0.5907 -0.03444,1.53777 0,0.94707 0.01256,1.47831 0.03444,1.53774 0.04375,0.11869 0.17813,0.25941 0.300086,0.30937 0.146934,0.0625 2.965943,0.0625 3.112877,0 0.121955,-0.05 0.2563,-0.19068 0.300054,-0.30937 0.05633,-0.14383 0.04685,-2.96594 -0.0095,-3.0941 -0.04996,-0.12195 -0.190675,-0.25633 -0.309365,-0.30008 -0.0615,-0.0233 -0.63926,-0.0346 -1.279997,-0.0355 z m -7.217846,1.15742 -0.09062,0.0906 -0.09059,0.0906 v 0.83132 0.82823 l 0.07493,0.0875 0.07493,0.0875 0.846975,0.009 0.8501,0.009 0.09062,-0.0937 0.09372,-0.0906 v -0.83444 -0.83442 l -0.09062,-0.0906 -0.09062,-0.0906 H 7.403009 Z m 2.625393,0 -0.09062,0.0906 -0.09062,0.0906 v 0.83442 0.83444 l 0.09062,0.0906 0.09062,0.0906 h 0.834411 0.834412 l 0.09062,-0.0906 0.09059,-0.0906 v -0.83444 -0.83442 l -0.09059,-0.0906 -0.09062,-0.0906 H 10.0284 Z m -4.98517,1.15653 c -1.081271,-1.6e-4 -1.256286,0.009 -1.346895,0.0531 -0.05633,0.0281 -0.134352,0.0937 -0.171902,0.14694 -0.06873,0.0968 -0.06872,0.11247 -0.07819,1.37202 -0.0093,1.25645 -0.0062,1.27834 0.0594,1.39393 0.03755,0.0656 0.118707,0.15004 0.184337,0.18759 0.115588,0.0625 0.153131,0.0656 1.359459,0.0656 1.206491,0 1.24387,-0.003 1.359458,-0.0656 0.06563,-0.0376 0.146947,-0.12196 0.184497,-0.18759 0.06563,-0.11559 0.06871,-0.13748 0.05941,-1.39393 -0.0093,-1.26265 -0.0093,-1.27505 -0.07819,-1.37202 -0.140567,-0.2 -0.153151,-0.2 -1.531392,-0.2 z"
  />
</svg>
