<?xml version="1.0" encoding="UTF-8" standalone="no"?>
<svg
  version="1.1"
  id="nav_mydonations"
  xmlns="http://www.w3.org/2000/svg"
  xmlns:xlink="http://www.w3.org/1999/xlink"
  viewBox="0 0 16 16">
  <path
     d="m 3.93158,0.00300099 c -1.0968277,0.0286 -1.98325,0.56697 -2.7067325,1.29887001 -0.91534365,0.92591 -1.40660691,2.49926 -1.16262346,3.80577 0.58649002,3.14067 4.09836536,4.77253 5.86761496,7.38448 0.7529958,1.1116 2.025508,3.50604 2.025508,3.50604 0,0 0.9642296,-1.64498 1.7076027,-2.8339 0.3181,0.30796 0.6780473,0.5913 0.9173833,0.94463 0.405457,0.59852 1.089959,1.88927 1.089959,1.88927 0,0 0.718146,-1.28768 1.135374,-1.88927 0.96731,-1.39552 2.845082,-2.2872 3.160883,-3.97835 0.131378,-0.70348 -0.133848,-1.54495 -0.626727,-2.04367 -0.195381,-0.19764 -0.438312,-0.33058 -0.681225,-0.45415 0.59574,-0.75509 1.09123,-1.55908 1.27162,-2.52508 C 16.1742,3.801131 15.692018,2.227831 14.776677,1.301871 13.812032,0.32619099 12.553243,-0.30298901 10.898238,0.15741099 9.2432277,0.61767099 8.1365191,1.863961 8.0007618,3.272881 7.865006,1.863961 6.7492122,0.61781099 5.0942034,0.15741099 c -0.4137516,-0.11506 -0.7970141,-0.16394 -1.1626234,-0.15441 z m 0,0.60856 c 0.3058746,-0.005 0.639302,0.0362 0.9991293,0.13625 C 6.379012,1.150681 7.2839027,2.203401 7.3922011,3.327371 a 0.61331908,0.61331908 0 0 0 1.2171215,0 c 0.10855,-1.12658 1.0047291,-2.17697 2.4524084,-2.57956001 0.359669,-0.10006 0.692242,-0.14073 0.99913,-0.13625 0.920665,0.0134 1.627494,0.45741001 2.279832,1.11721001 0.746875,0.75552 1.190956,2.19403 0.990046,3.26988 -0.173269,0.92787 -0.70527,1.71882 -1.344283,2.47965 -0.237708,-0.0246 -0.458106,-0.0863 -0.735722,-0.009 -0.891159,0.24787 -1.489175,0.92167 -1.562276,1.68035 -0.0731,-0.75868 -0.671116,-1.43248 -1.562275,-1.68035 -0.8911578,-0.24773 -1.5696653,0.0922 -2.0890892,0.61765 -0.4928765,0.49858 -0.7490201,1.34019 -0.6176436,2.04367 0.1981533,1.06113 0.9803347,1.82714 1.7984328,2.57957 -0.4634152,0.72741 -0.9286041,1.50647 -1.2534531,2.08001 C 7.5675758,14.055981 7.0336964,13.025711 6.4384867,12.147051 5.4814579,10.734171 4.1230976,9.660121 2.9778656,8.559261 1.8326332,7.458351 0.91791896,6.370761 0.66170176,4.998731 0.46129637,3.925581 0.91255116,2.485761 1.6608312,1.728851 2.3141405,1.067921 3.0139563,0.62578099 3.93158,0.61164099 Z"
  />
</svg>
