<?xml version="1.0" encoding="UTF-8" standalone="no"?>
<svg
  version="1.1"
  id="nav_search"
  xmlns="http://www.w3.org/2000/svg"
  xmlns:xlink="http://www.w3.org/1999/xlink"
  viewBox="0 0 16 16">
  <path
     d="m 3.5714285,6.0190476 h 0.8380952 c 0,-1.3714286 0.9142857,-2.5142857 2.0571429,-2.5142857 V 2.5142857 c -1.6761905,0 -2.8952381,1.5238095 -2.8952381,3.5047619 z m 7.6952385,0 C 11.266667,2.6666667 9.0571427,0 6.3904761,0 3.7238094,0 1.5142856,2.6666667 1.5142856,6.0190476 c 0,3.2761905 2.2095238,6.0190474 4.8761905,6.0190474 2.6666666,0 4.8761909,-2.7428569 4.8761909,-6.0190474 z M 6.3904761,10.514286 c -1.9809524,0 -3.6571429,-1.9809527 -3.6571429,-4.4952384 0,-2.5142857 1.6,-4.4952381 3.6571429,-4.4952381 1.9809524,0 3.6571429,1.9809524 3.6571429,4.4952381 0,2.4380953 -1.6761905,4.4952384 -3.6571429,4.4952384 z m 7.6952389,2.895238 -2.971429,-3.657143 c -0.457143,0.838095 -1.066667,1.6 -1.7523814,2.133333 l 2.9714294,3.657143 c 0.457142,0.609524 1.219047,0.609524 1.752381,0 0.533333,-0.533333 0.533333,-1.523809 0,-2.133333 z"
  />
</svg>
