<?xml version="1.0" encoding="UTF-8" standalone="no"?>
<svg
  version="1.1"
  id="nav_top10"
  xmlns="http://www.w3.org/2000/svg"
  xmlns:xlink="http://www.w3.org/1999/xlink"
  viewBox="0 0 16 16">
  <path
    d="m 8.017975,0 c -0.86204,0 -1.61141,0.47019 -2.02121,1.16244 -0.82285,-0.28082 -1.76981,-0.10123 -2.42777,0.5551 -0.62857,0.62857 -0.8163,1.52328 -0.5861,2.32165 -0.0196,0.0457 -0.0425,0.0882 -0.0637,0.13386 -0.58775,0.42939 -0.97471,1.11837 -0.97471,1.90205 0,0.70204 0.31347,1.3257 0.8,1.75672 0.0506,0.15511 0.1045,0.3086 0.16818,0.4588 -0.10776,0.71511 0.10611,1.46939 0.65631,2.01796 0.1502,0.1502 0.3151,0.27101 0.4898,0.3706 l -1.60817,4 2.29716,-0.42612 L 5.730615,16 7.351855,11.96244 c 0.17632,0.0425 0.3559,0.067 0.54365,0.067 0.29714,0 0.57797,-0.0588 0.83756,-0.16001 l 2.20571,3.88409 0.98776,-2.11757 2.12898,0.4441 -2.12082,-3.72408 c 0.0163,-0.0163 0.0359,-0.0294 0.0506,-0.0457 0.5502,-0.5502 0.7641,-1.30448 0.65634,-2.01795 0.11592,-0.27592 0.2057,-0.5649 0.27427,-0.86368 0.42775,-0.42775 0.69553,-1.01715 0.69553,-1.67022 0,-0.87836 -0.48491,-1.63428 -1.19512,-2.04081 -0.0408,-0.0735 -0.0865,-0.14366 -0.13224,-0.2155 0.002,-0.60408 -0.22855,-1.20818 -0.68896,-1.67022 -0.43429,-0.43265 -0.99431,-0.65468 -1.56084,-0.6808 C 9.622875,0.46531 8.878385,0 8.017975,0 Z m -0.24161,1.84815 c 2.37224,0 4.29225,1.92164 4.29225,4.29225 0,2.37061 -1.92001,4.29225 -4.29225,4.29225 -2.37062,0 -4.29226,-1.92164 -4.29226,-4.29225 0,-2.37061 1.92164,-4.29225 4.29226,-4.29225 z m 1.10692,2.45226 c -0.29388,0 -0.5355,0.0784 -0.72979,0.23674 -0.19428,0.15837 -0.3396,0.38203 -0.43756,0.67264 -0.098,0.29061 -0.14694,0.67429 -0.14694,1.15102 0,0.75592 0.13226,1.30124 0.39675,1.63594 0.22204,0.27918 0.52734,0.41795 0.91591,0.41795 0.29551,0 0.54041,-0.08 0.73307,-0.23836 0.19428,-0.15837 0.33958,-0.38206 0.4359,-0.67267 0.0963,-0.29062 0.14531,-0.67102 0.14531,-1.14449 0,-0.4 -0.031,-0.71674 -0.0914,-0.95185 -0.0604,-0.2351 -0.14368,-0.4359 -0.24981,-0.59917 C 9.750235,4.64327 9.614745,4.51756 9.451475,4.43103 9.288215,4.34453 9.098815,4.30041 8.883305,4.30041 Z m -2.90122,0.002 c -0.0849,0.17469 -0.23184,0.35265 -0.43919,0.53878 -0.20571,0.18612 -0.44898,0.34285 -0.7249,0.47347 v 0.47838 c 0.15347,-0.0572 0.32817,-0.14206 0.52082,-0.25635 0.19429,-0.11429 0.34941,-0.22694 0.46859,-0.34123 v 3.15268 h 0.49468 l -0.002,-4.04573 z m 2.89471,0.40979 c 0.2302,0 0.42283,0.10776 0.57793,0.32653 0.15511,0.21878 0.23186,0.65959 0.23186,1.32245 0,0.65959 -0.0768,1.09879 -0.23186,1.3192 -0.1551,0.2204 -0.34611,0.32978 -0.57305,0.32978 -0.22694,0 -0.41795,-0.10938 -0.57306,-0.32816 -0.1551,-0.21877 -0.23182,-0.6596 -0.23182,-1.32082 0,-0.66122 0.0849,-1.11508 0.25631,-1.35998 0.13551,-0.19265 0.31675,-0.289 0.54369,-0.289 z"
  />
</svg>
