<?xml version="1.0" encoding="UTF-8" standalone="no"?>
<svg
  version="1.1"
  id="nav_comments"
  xmlns="http://www.w3.org/2000/svg"
  xmlns:xlink="http://www.w3.org/1999/xlink"
  viewBox="0 0 16 16">
  <path
     d="m 15.06656,9.7506295 c -1e-6,-1.86943 -2.364313,-3.38487 -5.2808393,-3.38487 -2.9165262,0 -5.280838,1.51544 -5.2808398,3.38487 1.8e-6,1.8694305 2.3643136,3.3848705 5.2808398,3.3848705 1.3956493,0.034 2.4498163,-0.16396 3.1747333,-0.48697 0,0 3.857559,0.4079 2.881182,0.091 -0.976377,-0.31659 -1.275769,-1.41502 -1.275769,-1.41502 0.267224,-0.40476 0.500693,-1.10663 0.500693,-1.5740305 z m -7.4946223,-6.88976 c -3.5505532,0 -6.4289087,1.84548 -6.4289105,4.1213 2e-7,0.56895 0.2837987,1.42239 0.6091163,1.91518 0,0 -0.3634423,1.3383305 -1.5520753,1.7239005 -1.13110033,0.36684 2.8846098,-0.0491 3.2935232,-0.0918 -0.09683,-0.29619 -0.1522786,-0.6066605 -0.152279,-0.9292905 1.2e-6,-1.25544 0.7922862,-2.33283 1.919107,-3.0534 1.1268209,-0.7206 2.6216424,-1.13624 4.2579574,-1.13624 1.6363162,0 3.1250232,0.41542 4.2501492,1.13624 0.07687,0.0491 0.137221,0.11334 0.210849,0.16585 -0.218277,-2.14922 -2.999324,-3.85189 -6.4074361,-3.85189 z"
  />
</svg>
