<?xml version="1.0" encoding="UTF-8" standalone="no"?>
<svg
  version="1.1"
  id="nav_sandbox"
  xmlns="http://www.w3.org/2000/svg"
  xmlns:xlink="http://www.w3.org/1999/xlink"
  viewBox="0 0 16 16">
  <path
     d="M 8,0 V 2.0000142 H 4.9999977 v 0.9999882 h 1.0000006 v 5.0000165 c 0,0 -5.23651969,4.1423281 -5.00000385,6.9999931 C 1.0388774,15.469807 1.5644761,15.819603 1.9999952,16 H 14.000005 c 0.435519,-0.180284 0.961118,-0.530193 1.000001,-0.999988 0.236515,-2.857665 -5.000005,-6.9999931 -5.000005,-6.9999931 V 3.0000024 h 1.000002 V 2.0000142 H 8.9370008 V 0 Z M 6.8652334,2.8671897 H 8 v 0.3828286 h 0.5000002 v 0.249827 H 8 v 0.75001 h 0.5000002 v 0.249827 H 8 v 0.75001 H 8.5000002 V 5.4998972 H 8 v 0.7500101 h 0.5000002 v 0.249827 H 8 v 0.75001 h 0.5000002 v 0.249827 H 8 v 0.75001 h 0.5000002 v 0.249827 H 8 v 0.75001 h 0.5000002 v 0.249827 H 8 v 0.7500097 h 0.5000002 v 0.249827 H 8 v 0.517607 H 6.9882802 c 0.1997595,0.03024 0.3473842,0.202205 0.3476563,0.404296 C 7.3362687,11.647757 7.1524403,11.83148 6.92578,11.83114 6.6991177,11.83148 6.5152912,11.647833 6.5156234,11.420985 6.5152738,11.221426 6.6588147,11.050591 6.8554675,11.016689 H 4.0527313 C 5.2786927,9.6822123 6.5410143,8.6826777 6.5410143,8.6826777 6.7507102,8.5171343 6.8730385,8.2643971 6.8730461,7.9971465 V 2.9990953 c 7.748e-4,-0.044599 -0.00184,-0.088819 -0.00782,-0.1326615 z m 2.0722671,-1.89e-4 h 0.509766 v 5.8048675 c 0.00401,0.00333 0.00571,0.00756 0.00975,0.011339 0,0 1.2621705,0.9995725 2.4863305,2.3340108 H 9.4472665 8.9375005 Z m -1.111329,9.1291163 c 0.4319028,-3.03e-4 0.7823995,0.349228 0.7832037,0.781228 2.741e-4,0.432681 -0.3505401,0.783497 -0.7832037,0.783195 C 7.3942698,13.559746 7.0446469,13.209421 7.044921,12.777345 7.045723,12.346214 7.3950302,11.99691 7.8261715,11.996117 Z m -2.0019546,0.800769 c 0.7739031,-4.16e-4 1.4016816,0.626495 1.4023449,1.400391 4.146e-4,0.774653 -0.6276795,1.402773 -1.4023449,1.402357 -0.7739024,-6.8e-4 -1.4008063,-0.62846 -1.4003917,-1.402357 6.626e-4,-0.77314 0.6272513,-1.399711 1.4003917,-1.400391 z"
  />
</svg>
