<?xml version="1.0" encoding="UTF-8" standalone="no"?>
<svg
  version="1.1"
  id="nav_notifications"
  xmlns="http://www.w3.org/2000/svg"
  xmlns:xlink="http://www.w3.org/1999/xlink"
  viewBox="0 0 16 16">
  <path
     d="M 7.9999869,0 C 6.3761657,0.00151181 5.0482984,1.2947507 5.0038978,2.9179797 h -0.00389 v 0.082016 C 5.2338476,9.5041362 1.6916396,7.868964 1.0000111,10.751945 c -0.51042321,2.486737 3.1340018,2.999996 6.999989,2.999996 3.8659869,0 7.5104119,-0.513259 6.9999889,-2.999996 C 14.1768,7.5997865 10.999995,9.5931439 10.999995,2.9999953 v -0.082016 h -0.0039 C 10.951697,1.2947507 9.6238277,0.00151181 8.0000069,0 Z M 8.9999856,14.999976 A 0.99999853,0.99999853 0 0 1 7.9999873,16 0.99999853,0.99999853 0 0 1 6.9999886,14.999976 0.99999853,0.99999853 0 0 1 7.9999873,13.999991 0.99999853,0.99999853 0 0 1 8.9999856,14.999976 Z"
  />
</svg>
