<?xml version="1.0" encoding="UTF-8" standalone="no"?>
<!-- Created with Inkscape (http://www.inkscape.org/) -->

<svg
   xmlns:dc="http://purl.org/dc/elements/1.1/"
   xmlns:cc="http://creativecommons.org/ns#"
   xmlns:rdf="http://www.w3.org/1999/02/22-rdf-syntax-ns#"
   xmlns:svg="http://www.w3.org/2000/svg"
   xmlns="http://www.w3.org/2000/svg"
   xmlns:sodipodi="http://sodipodi.sourceforge.net/DTD/sodipodi-0.dtd"
   xmlns:inkscape="http://www.inkscape.org/namespaces/inkscape"
   width="16"
   height="16"
   viewBox="0 0 4.2333332 4.2333335"
   version="1.1"
   id="svg4492"
   inkscape:version="0.92.1 r"
   sodipodi:docname="nav_uploaded.svg">
  <defs
     id="defs4486" />
  <sodipodi:namedview
     id="base"
     pagecolor="#ffffff"
     bordercolor="#666666"
     borderopacity="1.0"
     inkscape:pageopacity="0.0"
     inkscape:pageshadow="2"
     inkscape:zoom="54.9375"
     inkscape:cx="8.0764629"
     inkscape:cy="10.874314"
     inkscape:document-units="px"
     inkscape:current-layer="layer1"
     showgrid="false"
     units="px"
     inkscape:window-width="1600"
     inkscape:window-height="1605"
     inkscape:window-x="1600"
     inkscape:window-y="55"
     inkscape:window-maximized="0" />
  <metadata
     id="metadata4489">
    <rdf:RDF>
      <cc:Work
         rdf:about="">
        <dc:format>image/svg+xml</dc:format>
        <dc:type
           rdf:resource="http://purl.org/dc/dcmitype/StillImage" />
        <dc:title />
      </cc:Work>
    </rdf:RDF>
  </metadata>
  <g
     inkscape:label="Layer 1"
     inkscape:groupmode="layer"
     id="layer1"
     transform="translate(0,-292.76666)">
    <path
       style="opacity:1;fill-opacity:1;stroke-width:1"
       d="M 6.5019531,3.1171875 C 3.935725,3.1178678 1.8557606,4.7869189 1.8554688,6.8457031 1.8559621,7.3272149 1.9726947,7.8040913 2.1992188,8.25 0.84486145,8.9204882 8.4444204e-6,9.8210677 0,10.816406 c -3.2028993e-5,1.776779 2.701261,2.013921 6.25,2.048828 V 9.0000001 h -1.5 l 3.25,-4 3.25,4 h -1.5 v 3.8652339 c 3.548739,-0.03491 6.250032,-0.272049 6.25,-2.048828 -8e-6,-0.9699777 -0.809878,-1.8467862 -2.103516,-2.5117185 0.163665,-0.2588976 0.24889,-0.5481654 0.248047,-0.8417969 C 14.143783,6.4824812 13.204129,5.6879535 12.044922,5.6875 11.679517,5.6883693 11.320701,5.7700014 11.003906,5.9238281 10.478655,4.2730439 8.6255907,3.1177922 6.5019531,3.1171875 Z"
       id="path5984-7"
       transform="matrix(0.26458333,0,0,0.26458333,0,292.76666)"
       inkscape:connector-curvature="0"
       sodipodi:nodetypes="ccccccccccccccccc" />
  </g>
</svg>
