<?xml version="1.0" encoding="UTF-8" standalone="no"?>
<svg
  version="1.1"
  id="nav_gift"
  xmlns="http://www.w3.org/2000/svg"
  xmlns:xlink="http://www.w3.org/1999/xlink"
  viewBox="0 0 16 16">
  <path
     d="M 11.736221,6.4862672e-7 A 2.6666665,2.6666665 0 0 0 9.0669293,2.6614306 2.6666665,2.6666665 0 0 0 10.232284,4.8583106 H 6.1377953 a 2.1333331,2.1333331 0 0 0 0.7952763,-1.66145 2.1333331,2.1333331 0 0 0 -2.1338583,-2.13386 2.1333331,2.1333331 0 0 0 -2.1338581,2.13386 2.1333331,2.1333331 0 0 0 2.1338581,2.13381 H 0.53149722 v 3.19686 H 6.9330716 v -3.13384 h 2.1338577 v 3.13384 h 6.4015737 v -3.19686 h -3.732282 a 2.6666665,2.6666665 0 0 0 2.66929,-2.66924 A 2.6666665,2.6666665 0 0 0 11.736221,6.4862672e-7 Z m 0,0.66146000137328 A 1.9999998,1.9999998 0 0 1 13.73622,2.6614306 1.9999998,1.9999998 0 0 1 11.736221,4.6614606 1.9999998,1.9999998 0 0 1 9.7362203,2.6614306 1.9999998,1.9999998 0 0 1 11.736221,0.66146065 Z M 4.6889773,1.5984306 a 1.5999997,1.5999997 0 0 1 0.1102339,0 1.5999997,1.5999997 0 0 1 1.6062987,1.59843 1.5999997,1.5999997 0 0 1 -1.6062987,1.59843 1.5999997,1.5999997 0 0 1 -1.5984251,-1.59843 1.5999997,1.5999997 0 0 1 1.4881912,-1.59843 z m -3.086614,8 V 16.000001 H 6.9330716 V 9.5984306 Z m 7.464566,0 V 16.000001 H 14.405511 V 9.5984306 Z"
  />
</svg>
