<?xml version="1.0" encoding="UTF-8" standalone="no"?>
<!-- Created with Inkscape (http://www.inkscape.org/) -->

<svg
   xmlns:dc="http://purl.org/dc/elements/1.1/"
   xmlns:cc="http://creativecommons.org/ns#"
   xmlns:rdf="http://www.w3.org/1999/02/22-rdf-syntax-ns#"
   xmlns:svg="http://www.w3.org/2000/svg"
   xmlns="http://www.w3.org/2000/svg"
   xmlns:sodipodi="http://sodipodi.sourceforge.net/DTD/sodipodi-0.dtd"
   xmlns:inkscape="http://www.inkscape.org/namespaces/inkscape"
   width="16"
   height="16"
   viewBox="0 0 4.2333332 4.2333335"
   version="1.1"
   id="svg4492"
   inkscape:version="0.92.1 r"
   sodipodi:docname="nav_userinfo.svg">
  <defs
     id="defs4486" />
  <sodipodi:namedview
     id="base"
     pagecolor="#ffffff"
     bordercolor="#666666"
     borderopacity="1.0"
     inkscape:pageopacity="0.0"
     inkscape:pageshadow="2"
     inkscape:zoom="45.254834"
     inkscape:cx="8.1408313"
     inkscape:cy="10.505099"
     inkscape:document-units="px"
     inkscape:current-layer="layer1"
     showgrid="false"
     units="px"
     inkscape:window-width="1600"
     inkscape:window-height="1605"
     inkscape:window-x="1600"
     inkscape:window-y="55"
     inkscape:window-maximized="0" />
  <metadata
     id="metadata4489">
    <rdf:RDF>
      <cc:Work
         rdf:about="">
        <dc:format>image/svg+xml</dc:format>
        <dc:type
           rdf:resource="http://purl.org/dc/dcmitype/StillImage" />
        <dc:title></dc:title>
      </cc:Work>
    </rdf:RDF>
  </metadata>
  <g
     inkscape:label="Layer 1"
     inkscape:groupmode="layer"
     id="layer1"
     transform="translate(0,-292.76666)">
    <path
       style="opacity:1;fill-opacity:1;stroke:none;stroke-width:0.49504581;stroke-opacity:1"
       d="m 2.6458334,294.74153 c 0.414837,-0.2395 0.6170861,-0.72778 0.493105,-1.19047 -0.1239788,-0.46268 -0.5432658,-0.78441 -1.0222716,-0.78441 -0.4790058,0 -0.8982928,0.32173 -1.0222716,0.78441 -0.12398112,0.46269 0.078268,0.95097 0.4931049,1.19047 l -0.00673,0.47384 c -0.057885,0.0149 -0.1145826,0.0323 -0.1699396,0.0519 -0.2213986,0.0784 -0.42139186,0.19238 -0.58999472,0.3339 -0.33720573,0.28304 -0.54896332,0.67589 -0.55607132,1.11206 -0.006753,0.41439 1.22725584,0.28309 1.85190284,0.28676 0.623617,0.004 1.8520842,0.14918 1.8520833,-0.26456 -10e-7,-0.43621 -0.2053381,-0.83156 -0.5379005,-1.11861 -0.1662812,-0.14352 -0.3643366,-0.26014 -0.5844991,-0.34094 -0.055033,-0.0202 -0.111443,-0.0382 -0.169078,-0.0539 l -0.031439,-0.48045"
       id="path5039"
       inkscape:connector-curvature="0"
       sodipodi:nodetypes="ccccccssssssscc" />
  </g>
</svg>
