<?xml version="1.0" encoding="UTF-8" standalone="no"?>
<svg
  version="1.1"
  id="nav_reports"
  xmlns="http://www.w3.org/2000/svg"
  xmlns:xlink="http://www.w3.org/1999/xlink"
  viewBox="0 0 16 16">
  <path
     d="M 2.30173,2.1582e-7 C 1.844866,2.1582e-7 1.474062,0.37045021 1.474062,0.82760021 V 15.1724 C 1.474062,15.62955 1.844866,16 2.30173,16 2.758595,16 3.129399,15.62955 3.129399,15.1724 V 0.82760021 C 3.129366,0.37045021 2.758563,2.1582e-7 2.30173,2.1582e-7 Z M 12.278355,0.32081021 c -2.744196,-0.0152 -5.488184,1.50866999 -8.232527,0.5701 -0.192467,-0.0655 -0.347598,0.0229 -0.347598,0.21518999 v 6.2016 c 0,0.19181 0.155164,0.41434 0.347598,0.47982 3.377653,1.15516 6.754829,-1.41979 10.132449,-0.26457 0.1925,0.0654 0.347661,-0.023 0.347661,-0.21525 v -6.20153 c 0,-0.19184999 -0.155161,-0.41436999 -0.347661,-0.47981999 -0.633304,-0.2166 -1.266645,-0.30204 -1.899922,-0.30554 z M 9.775943,1.3534902 c 0.07316,0.001 0.139865,0.0279 0.189611,0.0765 0.06568,0.0644 0.0949,0.16168 0.07864,0.26482 -0.154124,0.99276 -0.308264,1.98712 -0.462192,2.98197 -0.148259,-0.0215 -0.304496,-0.0229 -0.469826,0.0129 -0.165005,0.0359 -0.321221,0.10218 -0.469318,0.18382 -0.154123,-0.93161 -0.308767,-1.86428 -0.462891,-2.79828 -0.01629,-0.0972 0.01297,-0.20528 0.07864,-0.29548 0.06636,-0.09 0.162792,-0.15385 0.264564,-0.1746 0.392752,-0.0794 0.785091,-0.16509 1.177811,-0.24458 0.02544,-0.005 0.05056,-0.007 0.07495,-0.007 z m -0.486115,3.8683 c 0.401692,-0.002 0.703722,0.29411 0.703722,0.72052 0,0.48629 -0.394533,0.95801 -0.881434,1.06144 -0.487097,0.10347 -0.881497,-0.21363 -0.881497,-0.70099 0,-0.48621 0.3944,-0.95797 0.881497,-1.06137 0.06086,-0.0129 0.120327,-0.0193 0.177712,-0.0196 z"
  />
</svg>
