<?xml version="1.0" encoding="UTF-8" standalone="no"?>
<svg
  version="1.1"
  id="nav_subscriptions"
  xmlns="http://www.w3.org/2000/svg"
  xmlns:xlink="http://www.w3.org/1999/xlink"
  viewBox="0 0 16 16">
  <path
     d="M 3.9999974,4.99998 H 13.000004 V 6.99999 H 3.9999974 Z m -4e-7,3.00004 V 10 H 7.4199215 A 5.0000037,5.0000037 0 0 1 9.0097666,8.00002 Z m 4e-7,-5.99997 H 13.000004 V 4.00003 H 3.9999974 Z M 1.9999957,4.99998 H 2.9999966 V 6.99999 H 1.9999957 Z m 0,3.00004 h 1.0000009 v 2.00001 H 1.9999957 Z m 0,-5.99997 H 2.9999966 V 4.00003 H 1.9999957 Z M -6.0000245e-6,0 V 14.00002 H 7.423828 A 5.0000037,5.0000037 0 0 1 7.1054668,13 H 0.9999948 V 0.99999 H 14.000005 V 7.41994 A 5.0000037,5.0000037 0 0 1 15.000006,8.0078 V 0 Z M 12.000003,7.99998 A 4.000003,4.0000102 0 0 0 8,12.00001 4.000003,4.0000102 0 0 0 12.000003,16 4.000003,4.0000102 0 0 0 16.000006,12.00001 4.000003,4.0000102 0 0 0 12.000003,7.99998 Z m -0.666667,1.33334 h 1.333334 v 2.00002 h 2.000002 v 1.33334 H 12.66667 v 1.99998 H 11.333336 V 12.66668 H 9.3333345 v -1.33334 h 2.0000015 z"
  />
</svg>
