<?xml version="1.0" encoding="UTF-8" standalone="no"?>
<!-- Created with Inkscape (http://www.inkscape.org/) -->

<svg
   xmlns:dc="http://purl.org/dc/elements/1.1/"
   xmlns:cc="http://creativecommons.org/ns#"
   xmlns:rdf="http://www.w3.org/1999/02/22-rdf-syntax-ns#"
   xmlns:svg="http://www.w3.org/2000/svg"
   xmlns="http://www.w3.org/2000/svg"
   xmlns:sodipodi="http://sodipodi.sourceforge.net/DTD/sodipodi-0.dtd"
   xmlns:inkscape="http://www.inkscape.org/namespaces/inkscape"
   width="16"
   height="16"
   viewBox="0 0 4.2333332 4.2333335"
   version="1.1"
   id="svg4492"
   inkscape:version="0.92.1 r"
   sodipodi:docname="nav_tools.svg">
  <defs
     id="defs4486" />
  <sodipodi:namedview
     id="base"
     pagecolor="#ffffff"
     bordercolor="#666666"
     borderopacity="1.0"
     inkscape:pageopacity="0.0"
     inkscape:pageshadow="2"
     inkscape:zoom="181.01934"
     inkscape:cx="12.913887"
     inkscape:cy="11.397141"
     inkscape:document-units="px"
     inkscape:current-layer="layer1"
     showgrid="false"
     units="px"
     inkscape:window-width="1600"
     inkscape:window-height="1605"
     inkscape:window-x="1600"
     inkscape:window-y="55"
     inkscape:window-maximized="0" />
  <metadata
     id="metadata4489">
    <rdf:RDF>
      <cc:Work
         rdf:about="">
        <dc:format>image/svg+xml</dc:format>
        <dc:type
           rdf:resource="http://purl.org/dc/dcmitype/StillImage" />
        <dc:title></dc:title>
      </cc:Work>
    </rdf:RDF>
  </metadata>
  <g
     inkscape:label="Layer 1"
     inkscape:groupmode="layer"
     id="layer1"
     transform="translate(0,-292.76666)">
    <path
       style="opacity:1;fill-opacity:1;stroke:none;stroke-width:0.37845609;stroke-opacity:1"
       d="m 0,294.88333 v 1.5875 l 0.13229167,0.13229 H 4.1010416 l 0.1322917,-0.13229 v -1.5875 h -0.79375 v 0.39687 H 2.9104166 v -0.39687 H 1.3229167 v 0.39687 H 0.79374999 v -0.39687 z"
       id="rect5159"
       inkscape:connector-curvature="0"
       sodipodi:nodetypes="ccccccccccccccc" />
    <path
       style="opacity:1;fill-opacity:1;stroke:none;stroke-width:1.39183891;stroke-opacity:1"
       d="M 12,4 C 12,2.3431458 10.209139,1.0000001 8,1 c -2.2091391,1e-7 -4.0000001,1.3431458 -4,3 l -10e-8,0.9999749 -3.49999988,0 L 0,5.5000064 V 6.9999875 H 3 V 6.4999938 H 5.0000002 V 6.9999875 H 11 V 6.4999938 h 2 v 0.4999937 h 3 V 5.5000064 L 15.5,4.9999749 H 12 Z M 11,4.9999749 H 5.0000002 L 5,4 c 1e-7,-1.1045696 1.3431458,-2.0000001 3,-2 1.6568542,-1e-7 3,0.8954304 3,2 z"
       transform="matrix(0.26458333,0,0,0.26458333,0,292.76666)"
       id="path5183"
       inkscape:connector-curvature="0"
       sodipodi:nodetypes="cscccccccccccccccccccccscc" />
  </g>
</svg>
