<?xml version="1.0" encoding="UTF-8" standalone="no"?>
<svg
  version="1.1"
  id="nav_rules"
  xmlns="http://www.w3.org/2000/svg"
  xmlns:xlink="http://www.w3.org/1999/xlink"
  viewBox="0 0 16 16">
  <path
    d="m 4.7804691,1.5518874 c -0.09737,-0.002 -0.132693,0.04 -0.191265,0.0986 -0.06678,0.0699 -0.155763,0.2351 -0.254213,0.48604 -0.174696,0.44164 -0.181064,0.56868 -0.02857,0.7148 0.120655,0.11756 4.600569,1.96983 4.76253,1.96983 0.146125,0 0.285874,-0.0763 0.343181,-0.18434 0.133389,-0.26058 0.317711,-0.76571 0.314609,-0.86743 0,-0.12392 -0.07934,-0.26695 -0.171591,-0.31773 -0.03494,-0.0158 -1.080177,-0.45111 -2.322479,-0.96589 -1.72343,-0.71411 -2.23799,-0.92978 -2.4522,-0.93388 z m -0.372326,1.90631 -0.04767,0.10172 c -0.02547,0.0571 -0.365402,0.87362 -0.756101,1.81731 -0.695846,1.67741 -0.708558,1.71562 -0.641781,1.75056 0.14939,0.0795 4.092134,1.69978 4.104868,1.68705 0.0222,-0.0222 1.509075,-3.61884 1.499605,-3.6283 -0.0064,-0.003 -0.880028,-0.36849 -1.947633,-0.81012 -1.064341,-0.43838 -1.998367,-0.82598 -2.074613,-0.86108 z m 4.397123,3.30109 -0.231827,0.55919 -0.228766,0.55919 0.168338,0.17472 c 0.09535,0.0953 0.314628,0.27002 0.489324,0.38757 0.374862,0.25094 4.5019209,2.3479696 4.8578439,2.4655296 1.029401,0.34629 1.96656,0.0285 2.122317,-0.72444 0.127022,-0.6068596 -0.451115,-1.3884196 -1.277249,-1.7252396 -0.254207,-0.10156 -4.524289,-1.49636 -4.8101709,-1.56951 -0.295514,-0.073 -0.667289,-0.12701 -0.905496,-0.12701 z m -6.420811,0.6988 c -0.04784,1.6e-4 -0.130454,0.0287 -0.187598,0.0637 -0.114287,0.0699 -0.143016,0.11445 -0.324079,0.55919 -0.14939,0.36213 -0.161962,0.49877 -0.05714,0.64816 0.06351,0.0953 0.26694,0.18741 2.389253,1.06742 1.277241,0.5306196 2.363765,0.9626396 2.414541,0.9626396 0.12392,0.003 0.285905,-0.0953 0.343212,-0.20963 0.139757,-0.27314 0.308231,-0.7435196 0.308231,-0.8610696 0,-0.25421 0.04442,-0.23202 -2.487692,-1.27725 -1.270873,-0.52426 -2.347947,-0.95314 -2.398724,-0.95314 z m 3.210948,4.7655896 c -0.361203,3e-5 -0.778181,3.5e-4 -1.259902,3.5e-4 H 0.88794415 l -0.117572,0.10153 c -0.171594,0.14923 -0.203255,0.25731 -0.203255,0.65454 v 0.34631 l -0.133389,0.0191 c -0.266942,0.0349 -0.416184,0.21925 -0.432021,0.52424 -0.0064,0.17796 0.0031,0.23512 0.06352,0.33683 0.04131,0.0668 0.123936,0.14923 0.184345,0.18106 0.104818,0.0571 0.27639,0.0604 4.09211295,0.0604 4.409854,0 4.117613,0.0128 4.273207,-0.20326 0.05078,-0.0731 0.07313,-0.15249 0.07934,-0.32082 0.0095,-0.1907 2.1e-5,-0.23821 -0.06349,-0.33046 -0.101716,-0.15249 -0.216008,-0.22873 -0.3685,-0.24783 l -0.133388,-0.0191 v -0.3654 c 0,-0.33356 -0.0064,-0.37812 -0.07937,-0.50514 -0.130716,-0.21958 0.07434,-0.23253 -2.454082,-0.23234 z"
  />
</svg>
