<?xml version="1.0" encoding="UTF-8" standalone="no"?>
<!-- Created with Inkscape (http://www.inkscape.org/) -->

<svg
   xmlns:dc="http://purl.org/dc/elements/1.1/"
   xmlns:cc="http://creativecommons.org/ns#"
   xmlns:rdf="http://www.w3.org/1999/02/22-rdf-syntax-ns#"
   xmlns:svg="http://www.w3.org/2000/svg"
   xmlns="http://www.w3.org/2000/svg"
   xmlns:sodipodi="http://sodipodi.sourceforge.net/DTD/sodipodi-0.dtd"
   xmlns:inkscape="http://www.inkscape.org/namespaces/inkscape"
   width="16"
   height="16"
   viewBox="0 0 4.2333332 4.2333335"
   version="1.1"
   id="svg4492"
   inkscape:version="0.92.1 r"
   sodipodi:docname="nav_slots.svg">
  <defs
     id="defs4486" />
  <sodipodi:namedview
     id="base"
     pagecolor="#ffffff"
     bordercolor="#666666"
     borderopacity="1.0"
     inkscape:pageopacity="0.0"
     inkscape:pageshadow="2"
     inkscape:zoom="54.9375"
     inkscape:cx="8"
     inkscape:cy="8"
     inkscape:document-units="px"
     inkscape:current-layer="layer1"
     showgrid="false"
     units="px"
     inkscape:window-width="1600"
     inkscape:window-height="1605"
     inkscape:window-x="1600"
     inkscape:window-y="55"
     inkscape:window-maximized="0" />
  <metadata
     id="metadata4489">
    <rdf:RDF>
      <cc:Work
         rdf:about="">
        <dc:format>image/svg+xml</dc:format>
        <dc:type
           rdf:resource="http://purl.org/dc/dcmitype/StillImage" />
        <dc:title></dc:title>
      </cc:Work>
    </rdf:RDF>
  </metadata>
  <g
     inkscape:label="Layer 1"
     inkscape:groupmode="layer"
     id="layer1"
     transform="translate(0,-292.76666)">
    <path
       style="opacity:1;fill-opacity:1;stroke-width:1.98751879"
       d="M 6 0 A 5.9999994 2.9999999 0 0 0 0 3 L 0 16 L 12 16 L 12 12 L 13.5 12 L 13.5 11 L 14 11 L 14 2.9667969 A 1.0000001 1.0000001 0 0 0 14.75 2 A 1.0000001 1.0000001 0 0 0 13.75 1 A 1.0000001 1.0000001 0 0 0 12.75 2 A 1.0000001 1.0000001 0 0 0 13.5 2.9667969 L 13.5 9 L 12 9 L 12 3 A 5.9999994 2.9999999 0 0 0 6 0 z M 2 4 L 10 4 L 10 9 L 2 9 L 2 4 z M 3 12 L 9 12 L 10 14 L 2 14 L 3 12 z "
       transform="matrix(0.26458333,0,0,0.26458333,0,292.76666)"
       id="rect4493" />
    <path
       style="opacity:1;fill-opacity:1;stroke-width:0.34394628"
       d="M 0.92604167,294.28802 H 1.190625 v 0.79375 H 0.92604167 Z"
       id="rect4505"
       inkscape:connector-curvature="0" />
    <rect
       style="opacity:1;fill-opacity:1;stroke-width:0.34394628"
       id="rect4505-3"
       width="0.26458335"
       height="0.79374999"
       x="1.984375"
       y="294.28802" />
    <rect
       style="opacity:1;fill-opacity:1;stroke-width:0.34394628"
       id="rect4505-6"
       width="0.26458335"
       height="0.79374999"
       x="1.4552083"
       y="294.28802" />
  </g>
</svg>
