<?xml version="1.0" encoding="UTF-8" standalone="no"?>
<!-- Created with Inkscape (http://www.inkscape.org/) -->

<svg
   xmlns:osb="http://www.openswatchbook.org/uri/2009/osb"
   xmlns:dc="http://purl.org/dc/elements/1.1/"
   xmlns:cc="http://creativecommons.org/ns#"
   xmlns:rdf="http://www.w3.org/1999/02/22-rdf-syntax-ns#"
   xmlns:svg="http://www.w3.org/2000/svg"
   xmlns="http://www.w3.org/2000/svg"
   xmlns:sodipodi="http://sodipodi.sourceforge.net/DTD/sodipodi-0.dtd"
   xmlns:inkscape="http://www.inkscape.org/namespaces/inkscape"
   width="16"
   height="16"
   viewBox="0 0 4.2333332 4.2333332"
   version="1.1"
   id="svg5177"
   inkscape:version="0.92.1 r"
   sodipodi:docname="nav_mydonations.svg">
  <defs
     id="defs5171">
    <linearGradient
       id="linearGradient5726"
       osb:paint="solid">
      <stop
         style="stop-color:#000000;stop-opacity:1;"
         offset="0"
         id="stop5724" />
    </linearGradient>
  </defs>
  <sodipodi:namedview
     id="base"
     pagecolor="#ffffff"
     bordercolor="#666666"
     borderopacity="1.0"
     inkscape:pageopacity="0.0"
     inkscape:pageshadow="2"
     inkscape:zoom="54.9375"
     inkscape:cx="8"
     inkscape:cy="8"
     inkscape:document-units="px"
     inkscape:current-layer="layer1"
     showgrid="false"
     inkscape:window-width="1600"
     inkscape:window-height="1605"
     inkscape:window-x="1600"
     inkscape:window-y="55"
     inkscape:window-maximized="0"
     units="px" />
  <metadata
     id="metadata5174">
    <rdf:RDF>
      <cc:Work
         rdf:about="">
        <dc:format>image/svg+xml</dc:format>
        <dc:type
           rdf:resource="http://purl.org/dc/dcmitype/StillImage" />
        <dc:title></dc:title>
      </cc:Work>
    </rdf:RDF>
  </metadata>
  <g
     inkscape:label="Layer 1"
     inkscape:groupmode="layer"
     id="layer1"
     transform="translate(0,-292.76667)">
    <path
       style="opacity:1;fill-opacity:1;stroke:none;stroke-width:0.22551867;stroke-opacity:1"
       d="M 4.6933594 1.5 C 3.8019506 1.5232246 3.0801729 1.9598655 2.4921875 2.5546875 C 1.7482737 3.3071914 1.3524921 4.586617 1.5507812 5.6484375 C 2.0274307 8.2009036 4.8843693 9.527619 6.3222656 11.650391 C 6.9342369 12.553811 7.9648438 14.5 7.9648438 14.5 C 7.9648438 14.5 9.0479963 12.558876 9.6777344 11.650391 C 11.137722 9.5441355 13.97257 8.2009036 14.449219 5.6484375 C 14.647508 4.586617 14.251724 3.3072292 13.507812 2.5546875 C 12.723831 1.7617426 11.70247 1.2508268 10.357422 1.625 C 9.0123704 1.9990598 8.110332 3.0170637 8 4.1621094 C 7.8896692 3.0170637 6.9876292 1.9991732 5.6425781 1.625 C 5.3063158 1.531485 4.9904956 1.4922585 4.6933594 1.5 z M 11.300781 1.9941406 C 12.04902 2.0050558 12.624132 2.368067 13.154297 2.9042969 C 13.761294 3.5183189 14.122266 4.6881441 13.958984 5.5625 C 13.750461 6.6791614 13.011378 7.5668024 12.083984 8.4628906 C 11.156591 9.3589788 10.059186 10.234703 9.2714844 11.371094 C 8.7750347 12.087276 8.3084707 12.926637 7.9726562 13.519531 C 7.6501269 12.922819 7.2161579 12.085198 6.7324219 11.371094 C 5.9546299 10.222835 4.8506695 9.3497679 3.9199219 8.4550781 C 2.989174 7.5603506 2.2453411 6.677574 2.0371094 5.5625 C 1.8742369 4.6903362 2.2414707 3.5194528 2.8496094 2.9042969 C 3.3805639 2.3671504 3.9495456 2.0075835 4.6953125 1.9960938 C 4.9439015 1.9922764 5.2153753 2.0260864 5.5078125 2.1074219 C 6.6848704 2.4348423 7.4197968 3.289651 7.5078125 4.203125 A 0.49845385 0.49845385 0 0 0 8.4960938 4.203125 C 8.5843143 3.2875344 9.3136826 2.4346156 10.490234 2.1074219 C 10.782542 2.0261053 11.051368 1.9905022 11.300781 1.9941406 z "
       transform="matrix(0.26458333,0,0,0.26458333,0,292.76667)"
       id="path4528" />
    <path
       style="opacity:1;fill-opacity:1;stroke:none;stroke-width:0.03212918;stroke-opacity:1"
       d="m 2.6714222,296.19705 c -0.2048541,-0.30243 -0.6118764,-0.49135 -0.6797837,-0.855 -0.02825,-0.15127 0.028102,-0.33344 0.1340857,-0.44065 0.1116922,-0.11298 0.2571827,-0.18585 0.4488091,-0.13258 0.1916267,0.0533 0.3201818,0.19847 0.3359005,0.36161 0.015719,-0.16314 0.1442736,-0.30831 0.3359003,-0.36161 0.1916263,-0.0533 0.3371169,0.0196 0.4488092,0.13258 0.1059842,0.10724 0.1623353,0.28938 0.134085,0.44065 -0.067907,0.36365 -0.4717823,0.55492 -0.6797838,0.855 -0.089717,0.12936 -0.2439074,0.40608 -0.2439074,0.40608 0,0 -0.1469291,-0.27738 -0.2341149,-0.40608 z"
       id="path4528-6"
       inkscape:connector-curvature="0"
       sodipodi:nodetypes="aaascsaaaca" />
  </g>
</svg>
