<?xml version="1.0" encoding="UTF-8" standalone="no"?>
<svg
  version="1.1"
  id="nav_tools"
  xmlns="http://www.w3.org/2000/svg"
  xmlns:xlink="http://www.w3.org/1999/xlink"
  viewBox="0 0 16 16">
  <path
     d="M 13.552105,0.25592095 9.1792808,4.6287459 c 0.044228,0.388488 -0.05296,0.785315 -0.283662,1.121806 l 1.6249262,1.599244 c 0.332307,-0.221737 0.724091,-0.316188 1.107798,-0.273155 L 16,2.7038159 Z m -10.1604552,0.379383 c -0.2933178,0.0021 -0.586757,0.04167 -0.8719968,0.119068 L 4.451587,2.6863059 3.9449651,4.5785509 2.0503856,5.0851729 0.11845156,3.1544059 c -0.30839971,1.140362 -0.0145776,2.408205 0.88133548,3.304716 0.93894566,0.939544 2.29175236,1.214875 3.47514666,0.829973 l 0.010506,0.01167 7.9483613,7.9483621 c 0.314377,0.313779 0.726352,0.472769 1.138149,0.47277 0.412395,0 0.823744,-0.158991 1.139316,-0.47277 0.628155,-0.62696 0.628155,-1.64689 0,-2.278631 L 6.6963661,4.9649339 C 7.0173169,3.8174039 6.7262312,2.5346929 5.8255366,1.6322049 5.1522569,0.96161495 4.2716032,0.62913995 3.3916498,0.63530395 Z M 5.6702814,9.898082 2.8943665,12.675164 2.7356094,12.516406 1.9068038,13.186455 0.51067503,15.386876 0.86787857,15.744079 3.0706336,14.34795 3.7395147,13.521479 3.5807576,13.360388 6.3613417,10.579803 Z m 8.0405806,3.851027 c 0.340675,0 0.616352,0.273342 0.616352,0.614016 5.97e-4,0.339479 -0.27508,0.615184 -0.616352,0.615184 -0.338283,0 -0.612848,-0.275705 -0.612849,-0.615184 0,-0.340674 0.274566,-0.614016 0.612849,-0.614016 z"
  />
</svg>
