<?xml version="1.0" encoding="UTF-8" standalone="no"?>
<svg
  version="1.1"
  id="nav_tags"
  xmlns="http://www.w3.org/2000/svg"
  xmlns:xlink="http://www.w3.org/1999/xlink"
  viewBox="0 0 16 16">
  <path
     d="M 15.999192,6.4631397 15.854476,1.2196117 C 15.838321,0.63330283 15.366404,0.16138603 14.780059,0.14515791 L 9.5364585,4.42054e-4 C 9.2301481,-0.00812379 8.940355,0.10778623 8.7244017,0.32373958 L 0.32361758,8.7245598 c -0.43096698,0.430967 -0.43096698,1.1321738 0,1.5631412 l 5.38828002,5.388244 c 0.4319429,0.432015 1.1311257,0.432123 1.563177,3.6e-5 L 15.675895,7.2751966 C 15.88968,7.0613757 16.007541,6.765366 15.999192,6.4631397 Z M 13.598297,5.0592441 c -0.73453,0.7344944 -1.92334,0.7345667 -2.657907,0 -0.732795,-0.7327956 -0.732795,-1.9251473 0,-2.6579068 0.734531,-0.7345305 1.92334,-0.7345667 2.657907,0 0.73276,0.7327595 0.73276,1.9251112 0,2.6579068 z"
  />
</svg>
