<?xml version="1.0" encoding="UTF-8" standalone="no"?>
<svg
  version="1.1"
  id="nav_invites"
  xmlns="http://www.w3.org/2000/svg"
  xmlns:xlink="http://www.w3.org/1999/xlink"
  viewBox="0 0 16 16">
  <path
     d="M 11.4859,7.9685234 A 3.9838212,3.9838284 0 0 0 7.5020784,11.952363 3.9838212,3.9838284 0 0 0 11.4859,15.936173 3.9838212,3.9838284 0 0 0 15.469721,11.952363 3.9838212,3.9838284 0 0 0 11.4859,7.9685234 Z m -0.663971,1.32795 h 1.32794 v 1.9919196 h 1.991912 v 1.32795 h -1.991912 v 1.99188 h -1.32794 v -1.99188 h -1.99191 v -1.32795 h 1.99191 z M 7.5020781,9.0337068e-4 c -1.8030928,0 -3.3809699,1.21122002932 -3.8476555,2.95286002932 -0.4666947,1.74167 0.294198,3.58024 1.855745,4.48178 l -0.025296,1.7838 c -0.217893,0.0561 -0.4316022,0.12083 -0.6399792,0.19461 -0.8333973,0.29511 -1.5867856,0.7238996 -2.2214473,1.2566096 -1.2693235,1.06543 -2.06630616,2.54429 -2.09306238,4.18614 -0.0254199,1.55986 4.62036588,1.06577 6.97168708,1.07958 0.2851526,0.002 0.681986,0.0188 1.0504219,0.0301 A 4.9797764,4.9797776 0 0 1 6.5061149,11.951463 4.9797764,4.9797776 0 0 1 9.6495988,7.3276534 c 1.4508262,-0.93244 2.1502632,-2.69493 1.7001262,-4.3748 C 10.883039,1.2112134 9.3051633,3.3706827e-6 7.5020701,3.3706827e-6 Z"
  />
</svg>
