<?xml version="1.0" encoding="UTF-8" standalone="no"?>
<svg
  version="1.1"
  id="nav_staff"
  xmlns="http://www.w3.org/2000/svg"
  xmlns:xlink="http://www.w3.org/1999/xlink"
  viewBox="0 0 16 16">
  <path
     d="m 7.8722308,0.020535 c -0.18372,6e-4 -0.36085,0.013 -0.52542,0.0379 -1.09458,0.16542 -1.93809,0.76962 -2.34842,1.67591 -0.22232,0.49011 -0.2851,0.84939 -0.2851,1.6759 0,0.61006 -0.017,0.74673 -0.0968,0.80949 -0.34757,0.29066 -0.32501,1.33396 0.0457,2.05782 0.0569,0.11409 0.23376,0.37626 0.38774,0.5757 0.15398,0.20531 0.31912,0.50155 0.37631,0.66697 0.1311,0.39331 0.59863,1.08314 0.92918,1.36236 0.57574,0.49596 1.3395,0.73529 1.978,0.63264 0.96906,-0.15956 1.9436702,-1.04323 2.2856602,-2.07476 0.0513,-0.15956 0.19943,-0.40476 0.31937,-0.54144 0.68398,-0.78105 0.95208,-2.17745 0.50744,-2.62209 -0.0856,-0.0856 -0.10826,-0.23377 -0.13113,-0.86641 -0.0343,-0.82652 -0.12553,-1.1855 -0.41619,-1.56765 -0.0798,-0.10823 -0.18798,-0.32501 -0.23372,-0.48456 -0.10823,-0.37044 -0.45023,-0.7467 -0.8435402,-0.92913 -0.55266,-0.26282 -1.29297,-0.41075 -1.94913,-0.40861 z m -2.61162,8.81597 c -0.0343,2.8e-4 -0.48483,0.17714 -1.00339,0.39946 -1.6017,0.67254 -2.16044,0.97491 -2.64496,1.42513 -0.66695996,0.62149 -1.12857996,1.45916 -1.40780996,2.54788 -0.1311,0.5074 -0.23936,1.40228 -0.1939,1.55626 0.0742,0.2279 1.38525996,0.64407 2.77021996,0.87225 1.69292,0.27922 2.66752,0.34198 5.23856,0.34198 2.3997702,0 3.3574302,-0.0513 4.8681902,-0.27922 1.1685,-0.17657 2.62764,-0.56432 2.98106,-0.80365 0.14255,-0.0912 0.14812,-0.10261 0.11409,-0.61559 -0.0628,-0.98077 -0.45051,-2.14372 -0.9805,-2.94178 -0.38774,-0.58132 -0.84937,-0.96905 -1.61898,-1.36237 -0.57574,-0.29066 -2.19445,-0.99749 -2.54788,-1.11158 -0.10823,-0.0343 -0.13113,0.006 -0.24522,0.43318 -0.29066,1.07729 -0.6669102,2.28567 -0.9176802,2.95262 -0.33055,0.87785 -0.67254,1.62462 -0.71829,1.57888 -0.0229,-0.017 -0.0968,-0.38778 -0.16513,-0.82098 -0.12552,-0.74116 -0.12554,-0.79246 -0.0343,-0.90069 0.10823,-0.12553 0.3704,-1.40224 0.33637,-1.63041 l -0.017,-0.1367 -1.03183,-0.0171 c -0.82651,-0.0114 -1.04324,0 -1.10014,0.0628 -0.0912,0.11409 0.19388,1.63016 0.32498,1.73867 0.0798,0.0628 0.0798,0.14812 -0.0399,0.89486 -0.0742,0.45607 -0.14814,0.82654 -0.15958,0.82654 -0.0513,0 -0.5813,-1.18553 -0.80948,-1.8126 -0.23934,-0.64994 -0.8151,-2.59361 -0.8893,-2.99251 -0.0229,-0.11408 -0.0683,-0.21092 -0.1082,-0.20534 z"
  />
</svg>
