<?xml version="1.0" encoding="UTF-8" standalone="no"?>
<!-- Created with Inkscape (http://www.inkscape.org/) -->

<svg
   xmlns:dc="http://purl.org/dc/elements/1.1/"
   xmlns:cc="http://creativecommons.org/ns#"
   xmlns:rdf="http://www.w3.org/1999/02/22-rdf-syntax-ns#"
   xmlns:svg="http://www.w3.org/2000/svg"
   xmlns="http://www.w3.org/2000/svg"
   xmlns:sodipodi="http://sodipodi.sourceforge.net/DTD/sodipodi-0.dtd"
   xmlns:inkscape="http://www.inkscape.org/namespaces/inkscape"
   width="16"
   height="16"
   viewBox="0 0 4.2333332 4.2333335"
   version="1.1"
   id="svg8"
   inkscape:version="0.92.1 r"
   sodipodi:docname="nav_subscriptions.svg">
  <defs
     id="defs2" />
  <sodipodi:namedview
     id="base"
     pagecolor="#ffffff"
     bordercolor="#666666"
     borderopacity="1.0"
     inkscape:pageopacity="0.0"
     inkscape:pageshadow="2"
     inkscape:zoom="54.9375"
     inkscape:cx="8"
     inkscape:cy="8"
     inkscape:document-units="px"
     inkscape:current-layer="layer1"
     showgrid="false"
     units="px"
     inkscape:window-width="1600"
     inkscape:window-height="1605"
     inkscape:window-x="1600"
     inkscape:window-y="55"
     inkscape:window-maximized="0" />
  <metadata
     id="metadata5">
    <rdf:RDF>
      <cc:Work
         rdf:about="">
        <dc:format>image/svg+xml</dc:format>
        <dc:type
           rdf:resource="http://purl.org/dc/dcmitype/StillImage" />
        <dc:title></dc:title>
      </cc:Work>
    </rdf:RDF>
  </metadata>
  <g
     inkscape:label="Layer 1"
     inkscape:groupmode="layer"
     id="layer1"
     transform="translate(0,-292.76666)">
    <path
       style="opacity:1;fill-opacity:1;stroke:none;stroke-width:0.58408213;stroke-opacity:1"
       d="M 3.175,294.88332 A 1.0583333,1.0583352 0 0 0 2.1166666,295.94166 1.0583333,1.0583352 0 0 0 3.175,296.99999 1.0583333,1.0583352 0 0 0 4.2333333,295.94166 1.0583333,1.0583352 0 0 0 3.175,294.88332 Z m -0.1763889,0.35278 h 0.3527777 v 0.52917 h 0.5291668 v 0.35278 H 3.3513888 v 0.52916 H 2.9986111 v -0.52916 H 2.4694444 v -0.35278 h 0.5291667 z"
       id="path5084"
       inkscape:connector-curvature="0" />
    <path
       style="opacity:1;vector-effect:none;fill:#000000;fill-opacity:1;stroke-width:4.2405901;stroke-linecap:butt;stroke-linejoin:miter;stroke-miterlimit:4;stroke-dasharray:none;stroke-dashoffset:0;stroke-opacity:1"
       d="M 0 0 L 0 14 L 7.4238281 14 A 4.9999998 4.9999998 0 0 1 7.1054688 13 L 1 13 L 1 1 L 14 1 L 14 7.4199219 A 4.9999998 4.9999998 0 0 1 15 8.0078125 L 15 0 L 0 0 z "
       transform="matrix(0.26458333,0,0,0.26458333,0,292.76666)"
       id="rect5315" />
    <path
       inkscape:connector-curvature="0"
       id="rect5333"
       d="M 0.5291667,293.29584 H 0.79375005 V 293.825 H 0.5291667 Z"
       style="opacity:1;vector-effect:none;fill:#000000;fill-opacity:1;stroke-width:0.1254015;stroke-linecap:butt;stroke-linejoin:miter;stroke-miterlimit:4;stroke-dasharray:none;stroke-dashoffset:0;stroke-opacity:1" />
    <path
       inkscape:connector-curvature="0"
       id="rect5333-7"
       d="m 0.5291667,294.88333 h 0.26458335 v 0.52917 H 0.5291667 Z"
       style="opacity:1;vector-effect:none;fill:#000000;fill-opacity:1;stroke-width:0.1254015;stroke-linecap:butt;stroke-linejoin:miter;stroke-miterlimit:4;stroke-dasharray:none;stroke-dashoffset:0;stroke-opacity:1" />
    <path
       inkscape:connector-curvature="0"
       id="rect5333-0"
       d="m 0.5291667,294.08957 h 0.26458335 v 0.52917 H 0.5291667 Z"
       style="opacity:1;vector-effect:none;fill:#000000;fill-opacity:1;stroke-width:0.1254015;stroke-linecap:butt;stroke-linejoin:miter;stroke-miterlimit:4;stroke-dasharray:none;stroke-dashoffset:0;stroke-opacity:1" />
    <path
       inkscape:connector-curvature="0"
       id="rect5333-9"
       d="M 1.0583334,293.29584 H 3.4395833 V 293.825 H 1.0583334 Z"
       style="opacity:1;vector-effect:none;fill:#000000;fill-opacity:1;stroke-width:0.37620446;stroke-linecap:butt;stroke-linejoin:miter;stroke-miterlimit:4;stroke-dasharray:none;stroke-dashoffset:0;stroke-opacity:1" />
    <path
       style="opacity:1;vector-effect:none;fill:#000000;fill-opacity:1;stroke-width:1.42187512;stroke-linecap:butt;stroke-linejoin:miter;stroke-miterlimit:4;stroke-dasharray:none;stroke-dashoffset:0;stroke-opacity:1"
       d="M 4 8 L 4 10 L 7.4199219 10 A 4.9999998 4.9999998 0 0 1 9.0097656 8 L 4 8 z "
       transform="matrix(0.26458333,0,0,0.26458333,0,292.76666)"
       id="rect5333-7-3" />
    <path
       inkscape:connector-curvature="0"
       id="rect5333-0-6"
       d="m 1.0583334,294.08957 h 2.3812499 v 0.52917 H 1.0583334 Z"
       style="opacity:1;vector-effect:none;fill:#000000;fill-opacity:1;stroke-width:0.37620446;stroke-linecap:butt;stroke-linejoin:miter;stroke-miterlimit:4;stroke-dasharray:none;stroke-dashoffset:0;stroke-opacity:1" />
  </g>
</svg>
