<?xml version="1.0" encoding="UTF-8" standalone="no"?>
<!-- Created with Inkscape (http://www.inkscape.org/) -->

<svg
   xmlns:dc="http://purl.org/dc/elements/1.1/"
   xmlns:cc="http://creativecommons.org/ns#"
   xmlns:rdf="http://www.w3.org/1999/02/22-rdf-syntax-ns#"
   xmlns:svg="http://www.w3.org/2000/svg"
   xmlns="http://www.w3.org/2000/svg"
   xmlns:sodipodi="http://sodipodi.sourceforge.net/DTD/sodipodi-0.dtd"
   xmlns:inkscape="http://www.inkscape.org/namespaces/inkscape"
   width="16"
   height="16"
   viewBox="0 0 4.2333332 4.2333335"
   version="1.1"
   id="svg4492"
   inkscape:version="0.92.1 r"
   sodipodi:docname="nav_posthistory.svg">
  <defs
     id="defs4486" />
  <sodipodi:namedview
     id="base"
     pagecolor="#ffffff"
     bordercolor="#666666"
     borderopacity="1.0"
     inkscape:pageopacity="0.0"
     inkscape:pageshadow="2"
     inkscape:zoom="54.9375"
     inkscape:cx="8"
     inkscape:cy="8"
     inkscape:document-units="px"
     inkscape:current-layer="layer1"
     showgrid="false"
     units="px"
     inkscape:window-width="1600"
     inkscape:window-height="1605"
     inkscape:window-x="1600"
     inkscape:window-y="55"
     inkscape:window-maximized="0" />
  <metadata
     id="metadata4489">
    <rdf:RDF>
      <cc:Work
         rdf:about="">
        <dc:format>image/svg+xml</dc:format>
        <dc:type
           rdf:resource="http://purl.org/dc/dcmitype/StillImage" />
        <dc:title></dc:title>
      </cc:Work>
    </rdf:RDF>
  </metadata>
  <g
     inkscape:label="Layer 1"
     inkscape:groupmode="layer"
     id="layer1"
     transform="translate(0,-292.76666)">
    <path
       style="opacity:1;fill-opacity:1;stroke-width:2.30968475;"
       d="M 7.9003906 0.9921875 A 6.9999997 6.9999997 0 0 0 3.3242188 2.7890625 L 1.9667969 1.4316406 L 0.61328125 6.4863281 L 5.6660156 5.1328125 L 4.0390625 3.5039062 A 5.9999999 5.9999999 0 0 1 12.246094 3.7480469 A 5.9999999 5.9999999 0 0 1 12.246094 12.234375 A 5.9999999 5.9999999 0 0 1 3.9414062 12.400391 L 3.2363281 13.105469 A 6.9999997 6.9999997 0 0 0 12.953125 12.941406 A 6.9999997 6.9999997 0 0 0 12.953125 3.0410156 A 6.9999997 6.9999997 0 0 0 7.9003906 0.9921875 z "
       transform="matrix(0.26458333,0,0,0.26458333,0,292.76666)"
       id="path6018" />
    <path
       style="opacity:1;fill-opacity:1;stroke-width:0.26458332;"
       d="m 1.9808629,293.4378 v 1.31775 H 1.1922805 v 0.39688 h 1.1854574 v -1.71463 z"
       id="rect6041"
       inkscape:connector-curvature="0" />
  </g>
</svg>
