<?xml version="1.0" encoding="UTF-8" standalone="no"?>
<svg
  version="1.1"
  id="nav_torrents"
  xmlns="http://www.w3.org/2000/svg"
  xmlns:xlink="http://www.w3.org/1999/xlink"
  viewBox="0 0 16 16">
  <path
     d="M 8.2128906 0.67578125 L 7.5683594 0.68359375 C 7.2103149 0.68359375 6.6770563 0.74233203 6.3710938 0.80078125 C 4.5940958 1.1718871 3.1931873 2.0313456 1.8847656 3.5742188 C 0.99300122 4.6222296 0.29672735 6.2162402 0.08203125 7.7070312 C -0.21086975 9.7770936 0.27690527 11.735842 1.5722656 13.675781 C 1.9368408 14.222562 2.0162234 14.300827 2.4003906 14.496094 C 3.1424391 14.886629 3.845117 15.109317 4.9257812 15.285156 C 5.0364762 15.304746 5.1328125 15.309935 5.1328125 15.296875 C 5.1328125 15.283975 4.9700474 15.147763 4.7617188 14.998047 C 4.1759168 14.555265 3.2335717 13.55858 2.8105469 12.933594 C 1.762536 11.403782 1.4361382 10.272663 1.5078125 8.4238281 C 1.5339352 7.6752489 1.5788606 7.3685005 1.7089844 6.9453125 C 2.574626 4.1137729 4.924741 2.1743969 7.515625 2.1484375 L 8.0507812 2.140625 L 8.0898438 1.71875 C 8.1159664 1.4844612 8.1477054 1.1580972 8.1738281 0.98242188 L 8.2128906 0.67578125 z M 8.4199219 2.5976562 C 7.919182 2.5849214 7.3657998 2.5970875 7.1835938 2.6230469 C 5.1394909 2.9549687 3.3898112 4.2768774 2.4980469 6.1582031 C 1.6843241 7.8636902 1.7619028 10.064109 2.6992188 11.90625 C 3.3762869 13.234264 4.5348011 14.380346 5.9082031 15.070312 L 6.421875 15.324219 L 8.7011719 15.324219 C 11.155402 15.324219 11.578188 15.284539 12.554688 14.958984 C 13.023428 14.809268 13.440076 14.607444 13.082031 14.705078 C 12.769538 14.796178 10.1979 14.750644 9.46875 14.646484 C 5.6932007 14.093169 3.421875 11.853912 3.421875 8.6835938 C 3.421875 7.9480759 3.4415122 7.8104948 3.6171875 7.3027344 C 3.9817627 6.2416622 4.6460771 5.369718 5.5117188 4.8164062 C 6.3644624 4.2696251 7.1831292 4.0357668 8.2246094 4.0488281 C 8.9862499 4.0488281 9.5991569 4.1720035 10.269531 4.4453125 C 10.536473 4.5560075 10.764953 4.6333205 10.771484 4.6269531 C 10.784544 4.6204231 10.927067 4.3340382 11.089844 4.0019531 C 11.434828 3.3054561 11.434232 3.3053744 10.861328 3.0839844 C 10.015115 2.7520626 9.3639317 2.6236157 8.4199219 2.5976562 z M 8.203125 4.4628906 C 7.9472167 4.473156 7.6838673 4.5045585 7.4121094 4.5566406 C 6.8392055 4.6673357 5.8820092 5.1172362 5.4589844 5.46875 C 4.436933 6.3149629 3.9355469 7.4468914 3.9355469 8.8789062 C 3.9355469 9.7708339 4.0398241 10.246172 4.4238281 11.007812 C 5.1724073 12.49844 6.7476328 13.513052 9.1367188 14.027344 C 9.7096227 14.157467 10.041934 14.177002 11.949219 14.203125 L 14.117188 14.230469 L 14.423828 14.046875 C 14.716729 13.877567 16.056659 12.614582 15.998047 12.5625 C 15.985147 12.556 15.737543 12.563213 15.451172 12.595703 C 15.164802 12.621823 14.266176 12.679734 13.458984 12.71875 C 10.373401 12.861938 8.5318066 12.564311 7.0410156 11.666016 C 6.6049295 11.399074 5.9211585 10.695221 5.7324219 10.304688 C 5.0618843 8.9115298 5.4461941 7.2706931 6.6308594 6.4765625 C 8.0303841 5.545614 9.9446203 5.9044499 10.849609 7.2714844 L 11.011719 7.5117188 L 11.636719 7.1796875 C 11.981702 6.9909508 12.274211 6.835327 12.287109 6.8222656 C 12.365314 6.7571221 12.007131 6.2556857 11.544922 5.7871094 C 11.115203 5.3444926 10.920378 5.2011458 10.40625 4.9472656 C 9.6787733 4.5906905 8.9708498 4.4320944 8.203125 4.4628906 z "
  />
</svg>
