<?xml version="1.0" encoding="UTF-8" standalone="no"?>
<svg
  version="1.1"
  id="nav_help"
  xmlns="http://www.w3.org/2000/svg"
  xmlns:xlink="http://www.w3.org/1999/xlink"
  viewBox="0 0 16 16">
  <path
    d="M 7.8931297,6.3814466e-4 C 3.4751837,0.05976914 -0.05806003,3.6895351 7.2302557e-4,8.1076551 0.0598539,12.523862 3.6892723,16.058149 8.1070444,15.999366 12.524121,15.939887 16.05806,12.310121 15.999277,7.8923491 15.940146,3.4757941 12.310554,-0.05831886 7.8931297,6.3814466e-4 Z M 7.8694777,12.869604 7.8253037,12.868908 C 7.1449502,12.848734 6.6652945,12.347513 6.684599,11.677247 6.7035556,11.018459 7.1948637,10.540195 7.8527816,10.540195 l 0.039479,6.96e-4 c 0.6993095,0.0207 1.1735739,0.516873 1.1539216,1.206443 -0.019478,0.660701 -0.5031342,1.12227 -1.1767045,1.12227 z M 10.731238,7.1897351 c -0.160001,0.227306 -0.51183,0.509569 -0.9551374,0.854963 l -0.4881775,0.337046 c -0.268002,0.208349 -0.4297424,0.404351 -0.4904385,0.597222 -0.047826,0.151827 -0.071305,0.192001 -0.075479,0.500873 l -6.957e-4,0.07844 h -1.864014 l 0.00539,-0.157741 c 0.022783,-0.648352 0.038783,-1.029747 0.3074805,-1.344879 0.4215684,-0.494961 1.3514884,-1.093748 1.3909669,-1.119139 0.1332184,-0.100349 0.2455671,-0.21461 0.3292199,-0.336698 0.1956536,-0.269741 0.282263,-0.482091 0.282263,-0.690788 0,-0.289567 -0.085914,-0.557396 -0.255828,-0.795832 -0.1633056,-0.230089 -0.4735688,-0.346611 -0.9222678,-0.346611 -0.4450468,0 -0.7497447,0.141218 -0.932007,0.430959 -0.1874796,0.297916 -0.2822629,0.610788 -0.2822629,0.930442 v 0.07948 h -1.921926 l 0.00348,-0.08296 c 0.049566,-1.177226 0.4697426,-2.024885 1.2483571,-2.519497 0.4892211,-0.314959 1.0979213,-0.474613 1.8081874,-0.474613 0.9297461,0 1.7146215,0.225915 2.332539,0.671484 0.626092,0.451481 0.94366,1.12766 0.94366,2.009754 0,0.493395 -0.155828,0.956877 -0.463308,1.378097 z"
  />
</svg>
