<?xml version="1.0" encoding="UTF-8" standalone="no"?>
<svg
  version="1.1"
  id="nav_posthistory"
  xmlns="http://www.w3.org/2000/svg"
  xmlns:xlink="http://www.w3.org/1999/xlink"
  viewBox="0 0 16 16">
  <path
     d="m 7.6421764,1.9384916 v 5.5375 H 4.328369 v 1.66778 h 4.9815689 v -7.20528 z M 8.1021059,0.22138157 A 7.7828863,7.7828863 0 0 0 3.0141304,2.2192016 L 1.5048931,0.70997157 -9.8962656e-7,6.3299516 5.6178361,4.8250916 3.8089229,3.0140116 a 6.6710459,6.6710459 0 0 1 9.1249141,0.27147 6.6710459,6.6710459 0 0 1 0,9.4354404 6.6710459,6.6710459 0 0 1 -9.2334923,0.18448 l -0.7839348,0.78393 a 7.7828863,7.7828863 0 0 0 10.8035331,-0.18238 7.7828863,7.7828863 0 0 0 0,-11.0076704 7.7828863,7.7828863 0 0 0 -5.6178371,-2.27794003 z"
  />
</svg>
