<?xml version="1.0" encoding="UTF-8" standalone="no"?>
<!-- Created with Inkscape (http://www.inkscape.org/) -->

<svg
   xmlns:dc="http://purl.org/dc/elements/1.1/"
   xmlns:cc="http://creativecommons.org/ns#"
   xmlns:rdf="http://www.w3.org/1999/02/22-rdf-syntax-ns#"
   xmlns:svg="http://www.w3.org/2000/svg"
   xmlns="http://www.w3.org/2000/svg"
   xmlns:sodipodi="http://sodipodi.sourceforge.net/DTD/sodipodi-0.dtd"
   xmlns:inkscape="http://www.inkscape.org/namespaces/inkscape"
   width="16"
   height="16"
   viewBox="0 0 4.2333332 4.2333335"
   version="1.1"
   id="svg8"
   inkscape:version="0.92.1 r"
   sodipodi:docname="nav_gift.svg">
  <defs
     id="defs2" />
  <sodipodi:namedview
     id="base"
     pagecolor="#ffffff"
     bordercolor="#666666"
     borderopacity="1.0"
     inkscape:pageopacity="0.0"
     inkscape:pageshadow="2"
     inkscape:zoom="54.9375"
     inkscape:cx="8"
     inkscape:cy="8"
     inkscape:document-units="px"
     inkscape:current-layer="layer1"
     showgrid="false"
     units="px"
     inkscape:window-width="1600"
     inkscape:window-height="1605"
     inkscape:window-x="1600"
     inkscape:window-y="55"
     inkscape:window-maximized="0" />
  <metadata
     id="metadata5">
    <rdf:RDF>
      <cc:Work
         rdf:about="">
        <dc:format>image/svg+xml</dc:format>
        <dc:type
           rdf:resource="http://purl.org/dc/dcmitype/StillImage" />
        <dc:title></dc:title>
      </cc:Work>
    </rdf:RDF>
  </metadata>
  <g
     inkscape:label="Layer 1"
     inkscape:groupmode="layer"
     id="layer1"
     transform="translate(0,-292.76666)">
    <rect
       style="opacity:1;vector-effect:none;fill:#000000;fill-opacity:1;stroke-width:0.29057148;stroke-linecap:butt;stroke-linejoin:miter;stroke-miterlimit:4;stroke-dasharray:none;stroke-dashoffset:0;stroke-opacity:1"
       id="rect4582"
       width="1.3229166"
       height="1.5875"
       x="0.5291667"
       y="295.14792" />
    <rect
       style="opacity:1;vector-effect:none;fill:#000000;fill-opacity:1;stroke-width:0.29057145;stroke-linecap:butt;stroke-linejoin:miter;stroke-miterlimit:4;stroke-dasharray:none;stroke-dashoffset:0;stroke-opacity:1"
       id="rect4582-5"
       width="1.3229166"
       height="1.5875"
       x="2.3812499"
       y="295.14792" />
    <rect
       style="opacity:1;vector-effect:none;fill:#000000;fill-opacity:1;stroke-width:0.37468225;stroke-linecap:butt;stroke-linejoin:miter;stroke-miterlimit:4;stroke-dasharray:none;stroke-dashoffset:0;stroke-opacity:1"
       id="rect4599"
       width="1.5875"
       height="0.79374999"
       x="0.26458335"
       y="294.08957" />
    <rect
       style="opacity:1;vector-effect:none;fill:#000000;fill-opacity:1;stroke-width:0.37468225;stroke-linecap:butt;stroke-linejoin:miter;stroke-miterlimit:4;stroke-dasharray:none;stroke-dashoffset:0;stroke-opacity:1"
       id="rect4599-3"
       width="1.5875"
       height="0.79374999"
       x="2.3812499"
       y="294.08957" />
    <path
       style="opacity:1;vector-effect:none;fill:#000000;fill-opacity:1;stroke-width:0.3028239;stroke-linecap:butt;stroke-linejoin:miter;stroke-miterlimit:4;stroke-dasharray:none;stroke-dashoffset:0;stroke-opacity:1"
       d="m 1.3229167,293.03124 a 0.52916669,0.52916669 0 0 0 -0.52916671,0.52917 0.52916669,0.52916669 0 0 0 0.52916671,0.52917 0.52916669,0.52916669 0 0 0 0.5291666,-0.52917 0.52916669,0.52916669 0 0 0 -0.5291666,-0.52917 z m 0,0.1323 a 0.396875,0.396875 0 0 1 0.3968749,0.39687 0.396875,0.396875 0 0 1 -0.3968749,0.39688 0.396875,0.396875 0 0 1 -0.39687504,-0.39688 0.396875,0.396875 0 0 1 0.39687504,-0.39687 z"
       id="path4618"
       inkscape:connector-curvature="0" />
    <path
       style="opacity:1;vector-effect:none;fill:#000000;fill-opacity:1;stroke-width:0.37852988;stroke-linecap:butt;stroke-linejoin:miter;stroke-miterlimit:4;stroke-dasharray:none;stroke-dashoffset:0;stroke-opacity:1"
       d="m 3.0427083,292.76664 a 0.6614584,0.6614584 0 0 0 -0.6614584,0.66147 0.6614584,0.6614584 0 0 0 0.6614584,0.66146 0.6614584,0.6614584 0 0 0 0.6614583,-0.66146 0.6614584,0.6614584 0 0 0 -0.6614583,-0.66147 z m 0,0.16538 a 0.49609377,0.49609377 0 0 1 0.4960936,0.49609 0.49609377,0.49609377 0 0 1 -0.4960936,0.4961 0.49609377,0.49609377 0 0 1 -0.4960938,-0.4961 0.49609377,0.49609377 0 0 1 0.4960938,-0.49609 z"
       id="path4618-1"
       inkscape:connector-curvature="0" />
    <rect
       style="opacity:1;vector-effect:none;fill:#000000;fill-opacity:1;stroke-width:0.23651445;stroke-linecap:butt;stroke-linejoin:miter;stroke-miterlimit:4;stroke-dasharray:none;stroke-dashoffset:0;stroke-opacity:1"
       id="rect4695"
       width="1.7197917"
       height="0.13229167"
       x="1.3229166"
       y="293.97324" />
  </g>
</svg>
