<?xml version="1.0" encoding="UTF-8" standalone="no"?>
<svg
  version="1.1"
  id="nav_friends"
  xmlns="http://www.w3.org/2000/svg"
  xmlns:xlink="http://www.w3.org/1999/xlink"
  viewBox="0 0 16 16">
  <path
     d="m 11.65429,0.40030331 c -1.12401,0 -2.1094676,0.75405999 -2.4003898,1.83983999 -0.192563,0.71864 -0.043438,1.46037 0.3574222,2.04491 0.8136466,0.43487 1.4384766,1.19036 1.6894526,2.12697 0.374812,1.3988 -0.202133,2.85335 -1.3730466,3.6699197 l 0.01954,0.2793 c 0.6218576,-0.0113 1.2363226,-0.0302 1.7070306,-0.0265 1.463349,0.0113 4.345703,0.3496 4.345701,-0.6210897 -3e-6,-1.02365 -0.481345,-1.95141 -1.261718,-2.625 -0.390187,-0.33713 -0.856425,-0.60926 -1.373047,-0.79884 -0.129135,-0.0476 -0.26124,-0.0896 -0.396483,-0.12699 l -0.07422,-1.12694 v -0.002 c 0.973437,-0.56205 1.449132,-1.70728 1.158204,-2.79299 C 13.761811,1.1551133 12.77831,0.40105331 11.6543,0.40105331 Z" />
  <path
     d="m 9.3658135,9.6980533 c 1.0708715,-0.61825 1.5929625,-1.87873 1.2729145,-3.07313 -0.320043,-1.19437 -1.402401,-2.02488 -2.6389196,-2.02488 -1.2365179,0 -2.3188764,0.83051 -2.6389187,2.02488 -0.3200502,1.1944 0.2020421,2.45488 1.2729143,3.07313 L 6.616418,10.921223 c -0.1494273,0.0385 -0.2957857,0.0835 -0.4386869,0.13379 -0.5715243,0.20221 -1.087792,0.49659 -1.5230277,0.86192 -0.8704712,0.73066 -1.4171082,1.74478 -1.4354569,2.87074 -0.017446,1.06968 3.168071,0.73074 4.7805511,0.74022 1.6098215,0.0113 4.7810194,0.3851 4.7810174,-0.68296 -2e-6,-1.12603 -0.530065,-2.14662 -1.388551,-2.88759 -0.429242,-0.3704 -0.940508,-0.67151 -1.5088417,-0.8801 -0.142061,-0.0522 -0.2876823,-0.0987 -0.4364622,-0.13909 L 9.3658021,9.6979033" />
  <path
     d="m 4.3457103,0.39970331 c 1.1240105,0 2.1094673,0.75404999 2.4003895,1.83982999 0.192563,0.71864 0.043438,1.46038 -0.3574222,2.04492 -0.8136468,0.43487 -1.4384764,1.19036 -1.689452,2.12696 -0.3748155,1.3988 0.2021328,2.85336 1.3730456,3.6699197 l -0.01954,0.27931 c -0.621857,-0.0113 -1.2363217,-0.0302 -1.7070306,-0.0265 C 2.8823522,10.345523 -1.8741554e-6,10.683793 0,9.7130933 c 3.0392276e-6,-1.02364 0.48134485,-1.9514 1.2617182,-2.62499 0.3901869,-0.33713 0.8564246,-0.60926 1.3730464,-0.79884 0.129135,-0.0476 0.2612408,-0.0896 0.3964835,-0.12699 l 0.074219,-1.12694 v -0.002 C 2.132031,4.4712733 1.6563362,3.3260433 1.947264,2.2403333 2.2381892,1.1545533 3.2216894,0.40050331 4.3456994,0.40050331 Z" />
</svg>
