<?xml version="1.0" encoding="UTF-8" standalone="no"?>
<svg
  version="1.1"
  id="nav_requests"
  xmlns="http://www.w3.org/2000/svg"
  xmlns:xlink="http://www.w3.org/1999/xlink"
  viewBox="0 0 16 16">
  <path
     d="M 6.0000169,-5.58615e-7 C 5.181901,-5.58615e-7 4.5187839,0.66192944 4.5187839,1.4812295 v 6.7781307 c 0,0.28757 0.3297733,0.45575 0.5625005,0.28125 l 1.4124655,-1.05936 H 10.518767 C 11.336883,7.4812502 12,6.8193202 12,6.0000195 v -4.51879 C 12,0.66311944 11.338073,-5.58615e-7 10.518767,-5.58615e-7 Z M 8.2589797,1.6945395 c 0.7133795,0 1.2933668,0.58001 1.2933668,1.29302 0,0.59107 -0.3987011,1.09085 -0.9414264,1.24438 v 0.0735 c 0,0.19419 -0.1573792,0.35157 -0.3515628,0.35157 -0.1940918,0 -0.3515628,-0.15738 -0.3515628,-0.35157 v -0.37655 c 0,-0.19419 0.157471,-0.35156 0.3515628,-0.35156 0.3252872,0 0.5898634,-0.26458 0.5898636,-0.58987 0,-0.32519 -0.2645764,-0.58979 -0.5898636,-0.58979 -0.3269349,0 -0.5897946,0.2644 -0.5897946,0.58941 0,0.19419 -0.1574708,0.35184 -0.3515628,0.35184 -0.1941835,0 -0.3515628,-0.15726 -0.3515628,-0.35136 v -4.8e-4 c 0,-0.71502 0.5787968,-1.29254 1.2925426,-1.29254 z m 3.776e-4,3.38901 c 0.1940921,0 0.3515628,0.15756 0.3515628,0.35156 0,0.1941 -0.1574707,0.35157 -0.3515628,0.35157 -0.1940003,0 -0.3515628,-0.15747 -0.3515628,-0.35157 0,-0.194 0.1575625,-0.35156 0.3515628,-0.35156 z m -6.0250107,0.56463 c -0.9178171,0 -1.66185539,0.7440507 -1.66185539,1.6619607 0,0.91782 0.74403829,1.66185 1.66185539,1.66185 0.917817,0 1.6618552,-0.74403 1.6618552,-1.66185 0,-0.91791 -0.7440382,-1.6619607 -1.6618552,-1.6619607 z m 0,3.3238107 C 1.0003976,8.9719902 0,9.9723902 0,11.206341 v 0.4421 c 0,0.19418 0.15737929,0.35156 0.35156282,0.35156 H 4.1172333 c 0.194092,0 0.3515628,-0.15738 0.3515628,-0.35156 v -0.4421 c 0,-1.2339508 -1.0004091,-2.2343508 -2.2344495,-2.2343508 z"
  />
</svg>
