<?xml version="1.0" encoding="UTF-8" standalone="no"?>
<svg
  version="1.1"
  id="nav_security"
  xmlns="http://www.w3.org/2000/svg"
  xmlns:xlink="http://www.w3.org/1999/xlink"
  viewBox="0 0 16 16">
  <path
     d="m 12.173992,6.2605595 v -2.08663 C 12.173992,1.8685095 10.305041,-4.7683716e-7 8.000022,-4.7683716e-7 5.694648,-4.7683716e-7 3.826095,1.8685095 3.826095,4.1739295 v 2.08663 c -0.768281,0 -1.391235,0.62295 -1.391235,1.39123 V 14.60868 C 2.43486,15.37713 3.057814,16 3.826095,16 h 8.347897 c 0.768325,0 1.391147,-0.62291 1.391147,-1.39132 V 7.6517895 c 4.4e-5,-0.76828 -0.622822,-1.39123 -1.391147,-1.39123 z m -6.956573,-2.08663 c 0,-1.53701 1.245908,-2.78261 2.782603,-2.78261 1.536783,0 2.782691,1.24556 2.782691,2.78261 v 2.08663 H 5.217419 Z M 12.173992,14.60863 H 3.826095 V 7.6521495 h 8.347897 z M 7.30436,11.63312 v 0.88853 c 0,0.38387 0.311698,0.69566 0.695662,0.69566 0.383874,0 0.695661,-0.31179 0.695661,-0.69566 v -0.88853 c 0.413693,-0.24108 0.695662,-0.68481 0.695662,-1.19833 0,-0.7686305 -0.623043,-1.3916705 -1.391323,-1.3916705 -0.768281,0 -1.391235,0.62304 -1.391235,1.3916705 0,0.51352 0.281702,0.95725 0.695573,1.19833 z" 
  />
</svg>
