<?xml version="1.0" encoding="UTF-8" standalone="no"?>
<svg
  version="1.1"
  id="nav_uploaded"
  xmlns="http://www.w3.org/2000/svg"
  xmlns:xlink="http://www.w3.org/1999/xlink"
  viewBox="0 0 16 16">
  <path
     d="M 6.5019531,3.12604 C 3.9357249,3.12672 1.8557606,4.79576 1.8554688,6.85454 1.8559621,7.33605 1.9726946,7.81291 2.1992187,8.25882 0.84486146,8.92931 8.4446299e-6,9.8299 0,10.82524 c -3.2028783e-5,1.77679 2.701261,2.01392 6.2499999,2.04884 V 9.00883 h -1.5 L 7.9999998,5.00885 11.25,9.00883 H 9.7500001 v 3.86525 C 13.298739,12.84008 16.000032,12.60195 16,10.82524 15.999992,9.85526 15.190122,8.97845 13.896484,8.31351 14.060149,8.05462 14.145373,7.76537 14.144531,7.47174 14.143783,6.49133 13.204128,5.69679 12.044922,5.69634 11.679517,5.69721 11.320701,5.77874 11.003906,5.93256 10.478654,4.28178 8.6255902,3.12653 6.5019527,3.12592 Z"
  />
</svg>
