<?xml version="1.0" encoding="UTF-8" standalone="no"?>
<svg
  version="1.1"
  id="text_left"
  xmlns="http://www.w3.org/2000/svg"
  xmlns:xlink="http://www.w3.org/1999/xlink"
  viewBox="0 0 16 16">
  <path
     d="M 0.57221028,5.143639 H 11.997655 c 0.153215,0 0.287668,0.05628 0.400234,0.168848 0.112566,0.112566 0.168849,0.24702 0.168849,0.400235 v 1.141294 c 0,0.153215 -0.05628,0.287668 -0.168849,0.400234 -0.112566,0.112566 -0.247019,0.168849 -0.400234,0.168849 H 0.57221028 C 0.41586867,7.423099 0.28454172,7.366819 0.16884893,7.25425 0.05628298,7.141684 0,7.007231 0,6.854016 V 5.712722 C 0,5.559507 0.05628298,5.425053 0.16884893,5.312487 0.28141489,5.199922 0.41586867,5.143639 0.57221028,5.143639 Z M 15.828024,3.833496 c -0.112566,0.112566 -0.24702,0.168849 -0.403361,0.168849 H 0.57221028 c -0.15634161,0 -0.28766856,-0.05628 -0.40336135,-0.168849 C 0.05628298,3.717803 0,3.586476 0,3.430135 V 2.288841 C 0,2.135626 0.05628298,2.001172 0.16884893,1.885479 0.28141489,1.772914 0.41586867,1.716631 0.57221028,1.716631 H 15.42779 c 0.153214,0 0.287668,0.05628 0.403361,0.168848 C 15.943717,1.998045 16,2.132499 16,2.288841 V 3.430135 C 15.9969,3.586476 15.94059,3.717803 15.828024,3.833496 Z M 0.57221028,12.000781 H 10.856361 c 0.153215,0 0.287669,0.05628 0.403361,0.168849 0.112566,0.112566 0.168849,0.24702 0.168849,0.400235 v 1.144421 c 0,0.153214 -0.05628,0.287668 -0.168849,0.400234 -0.112565,0.112566 -0.247019,0.168849 -0.403361,0.168849 H 0.57221028 c -0.15634161,0 -0.28766856,-0.05628 -0.40336135,-0.168849 C 0.05628298,14.001954 0,13.870627 0,13.714286 v -1.141294 c 0,-0.153215 0.05628298,-0.287669 0.16884893,-0.400235 0.11256596,-0.115693 0.24701974,-0.171976 0.40336135,-0.171976 z m 0,-3.427008 H 14.283369 c 0.153215,0 0.287669,0.05628 0.400235,0.168849 0.112566,0.112566 0.168849,0.24702 0.168849,0.400235 v 1.141294 c 0,0.156341 -0.05628,0.287668 -0.168849,0.400234 -0.112566,0.112566 -0.24702,0.168849 -0.400235,0.168849 H 0.57221028 c -0.15634161,0 -0.28766856,-0.05628 -0.40336135,-0.168849 C 0.05628298,10.571819 0,10.437365 0,10.284151 V 9.142857 C 0,8.989642 0.05628298,8.855188 0.16884893,8.742622 0.28141489,8.630056 0.41586867,8.573773 0.57221028,8.573773 Z"
  />
</svg>
