<?xml version="1.0" encoding="UTF-8" standalone="no"?>
<svg
  version="1.1"
  id="text_center"
  xmlns="http://www.w3.org/2000/svg"
  xmlns:xlink="http://www.w3.org/1999/xlink"
  viewBox="0 0 16 16">
  <path
     d="m 16,3.4292415 v -1.141517 c 0,-0.153244 -0.05629,-0.287724 -0.168882,-0.40344 -0.112588,-0.112588 -0.247068,-0.168882 -0.40344,-0.168882 H 0.57232213 c -0.15324473,0 -0.28772479,0.05629 -0.40344019,0.168882 C 0.05629398,1.9968725 0,2.1313525 0,2.2877245 v 1.141517 c 0,0.153245 0.05629398,0.287725 0.16888194,0.400313 0.11258796,0.112588 0.24706802,0.168882 0.40344019,0.168882 H 15.430805 c 0.153245,0 0.287725,-0.05629 0.403441,-0.168882 C 15.943706,3.7169665 16,3.5856135 16,3.4292415 Z m -12,4 c -0.1563722,0 -0.2877248,-0.05629 -0.4003127,-0.168882 -0.112588,-0.112588 -0.168882,-0.247068 -0.168882,-0.400313 v -1.141516 c 0,-0.153245 0.056294,-0.287725 0.168882,-0.400313 C 3.7122752,5.2056295 3.8467553,5.1493355 4,5.1493355 h 8 c 0.153245,0 0.287725,0.05629 0.400313,0.168882 0.112588,0.112588 0.168882,0.247068 0.168882,0.400313 v 1.141516 c 0,0.153245 -0.05629,0.287725 -0.168882,0.400313 C 12.287725,7.3729475 12.153245,7.4292415 12,7.4292415 Z M 1.7138389,8.5738855 H 14.286161 c 0.153245,0 0.287725,0.05629 0.400313,0.168882 0.112588,0.112588 0.168882,0.247068 0.168882,0.400313 v 1.1415175 c 0,0.156372 -0.05629,0.287725 -0.168882,0.400313 -0.112588,0.112588 -0.247068,0.168882 -0.400313,0.168882 H 1.7138389 c -0.1563721,0 -0.2877247,-0.05629 -0.4003127,-0.168882 C 1.2009382,10.572322 1.1446443,10.437843 1.1446443,10.284598 V 9.1430805 c 0,-0.153245 0.056294,-0.287725 0.1688819,-0.400313 0.112588,-0.112588 0.247068,-0.168882 0.4003127,-0.168882 z m 3.4308054,3.4276785 h 5.7138387 c 0.153245,0 0.287725,0.05629 0.40344,0.168882 0.112588,0.112588 0.168882,0.247068 0.168882,0.400313 v 1.144644 c 0,0.153245 -0.05629,0.287725 -0.168882,0.400313 -0.112588,0.112588 -0.247068,0.168882 -0.40344,0.168882 H 5.1446443 c -0.1563722,0 -0.2877248,-0.05629 -0.4034402,-0.168882 -0.112588,-0.112589 -0.168882,-0.247068 -0.168882,-0.400313 v -1.141516 c 0,-0.153245 0.056294,-0.287726 0.168882,-0.400313 0.1125879,-0.115716 0.247068,-0.17201 0.4034402,-0.17201 z"
  />
</svg>
