<?xml version="1.0" encoding="UTF-8" standalone="no"?>
<svg
  version="1.1"
  id="text_right"
  xmlns="http://www.w3.org/2000/svg"
  xmlns:xlink="http://www.w3.org/1999/xlink"
  viewBox="0 0 16 16">
  <path
     d="m 15.828024,14.116084 c -0.112566,0.112566 -0.24702,0.168849 -0.403361,0.168849 H 5.1436389 c -0.1563417,0 -0.2876686,-0.05628 -0.4033614,-0.168849 -0.112566,-0.112566 -0.1688489,-0.24702 -0.1688489,-0.403361 v -1.141294 c 0,-0.153215 0.056283,-0.287669 0.1688489,-0.400235 0.112566,-0.112566 0.2470197,-0.168849 0.4033614,-0.168849 H 15.42779 c 0.153214,0 0.287668,0.05628 0.403361,0.168849 C 15.943717,12.28376 16,12.418214 16,12.571429 v 1.141294 c -0.0031,0.156341 -0.05941,0.287668 -0.171976,0.403361 z M 15.42779,10.854797 H 1.713504 c -0.1563416,0 -0.2876685,-0.05628 -0.4002345,-0.168849 -0.112566,-0.112566 -0.1688489,-0.24702 -0.1688489,-0.400234 V 9.1444205 c 0,-0.153215 0.056283,-0.287669 0.1688489,-0.400235 0.112566,-0.112566 0.2470197,-0.168849 0.4002345,-0.168849 h 13.711159 c 0.153215,0 0.287668,0.05628 0.403361,0.168849 0.112566,0.112566 0.168849,0.24702 0.168849,0.400235 v 1.1412935 c 0,0.156341 -0.05628,0.287668 -0.168849,0.400234 -0.112566,0.112566 -0.24702,0.168849 -0.400234,0.168849 z m 0,-3.4270075 H 3.9992183 c -0.1563416,0 -0.2876686,-0.05628 -0.4002345,-0.168849 -0.112566,-0.112566 -0.168849,-0.24702 -0.168849,-0.400234 v -1.141294 c 0,-0.153215 0.056283,-0.287669 0.168849,-0.400235 0.1125659,-0.112566 0.2470197,-0.168849 0.4002345,-0.168849 H 15.424663 c 0.153215,0 0.287668,0.05628 0.403361,0.168849 0.112566,0.112566 0.168849,0.24702 0.168849,0.400235 v 1.141294 c 0,0.153214 -0.05628,0.287668 -0.168849,0.400234 -0.112566,0.112566 -0.24702,0.168849 -0.400234,0.168849 z m 0,-3.427008 H 0.57221028 c -0.15634161,0 -0.28766856,-0.05628 -0.40336135,-0.168849 C 0.05628298,3.7162395 0,3.5849125 0,3.4285715 V 2.2872775 C 0,2.1340625 0.05628298,1.9996085 0.16884893,1.8839165 0.28141489,1.7713505 0.41586867,1.7150675 0.57221028,1.7150675 H 15.42779 c 0.153214,0 0.287668,0.05628 0.403361,0.168849 C 15.943717,1.9964825 16,2.1309355 16,2.2872775 v 1.141294 c 0,0.153215 -0.05628,0.287668 -0.168849,0.400234 -0.115693,0.115693 -0.250147,0.171976 -0.403361,0.171976 z"
  />
</svg>
