<?xml version="1.0" encoding="UTF-8" standalone="no"?>
<svg
  version="1.1"
  id="text_justify"
  xmlns="http://www.w3.org/2000/svg"
  xmlns:xlink="http://www.w3.org/1999/xlink"
  viewBox="0 0 16 16">
  <path
     d="M 15.42779,5.1452025 H 0.57221028 c -0.15634161,0 -0.28766856,0.05628 -0.40336135,0.168848 C 0.05628298,5.4266165 0,5.5610705 0,5.7142855 v 1.141294 c 0,0.153215 0.05628298,0.287668 0.16884893,0.400234 0.11256596,0.112566 0.24701974,0.168849 0.40336135,0.168849 H 15.42779 c 0.153214,0 0.287668,-0.05628 0.403361,-0.168849 C 15.943717,7.1432475 16,7.0087945 16,6.8555795 v -1.141294 c 0,-0.156342 -0.05628,-0.287669 -0.168849,-0.400235 -0.115693,-0.112565 -0.250147,-0.168848 -0.403361,-0.168848 z m 0.400234,-3.261286 c -0.112566,-0.112566 -0.24702,-0.168849 -0.403361,-0.168849 H 0.57221028 c -0.15634161,0 -0.28766856,0.05628 -0.40336135,0.168849 C 0.05628298,1.9996085 0,2.1309355 0,2.2872775 v 1.141294 c 0,0.153215 0.05628298,0.287668 0.16884893,0.400234 0.11256596,0.112566 0.24701974,0.168849 0.40336135,0.168849 H 15.42779 c 0.153214,0 0.287668,-0.05628 0.403361,-0.168849 C 15.943717,3.7162395 16,3.5817865 16,3.4285715 V 2.2872775 C 15.9969,2.1309355 15.94059,1.9996085 15.828024,1.8839165 Z M 15.42779,11.999218 H 0.57221028 c -0.15634161,0 -0.28766856,0.05628 -0.40336135,0.168849 C 0.05628298,12.28376 0,12.415087 0,12.571429 v 1.141294 c 0,0.153214 0.05628298,0.287668 0.16884893,0.403361 0.11256596,0.112566 0.24701974,0.168849 0.40336135,0.168849 H 15.42779 c 0.153214,0 0.287668,-0.05628 0.403361,-0.168849 C 15.943717,14.003518 16,13.869064 16,13.712722 v -1.141294 c 0,-0.153215 -0.05628,-0.287669 -0.168849,-0.400235 -0.115693,-0.115692 -0.250147,-0.171975 -0.403361,-0.171975 z m 0,-3.4270075 H 0.57221028 c -0.15634161,0 -0.28766856,0.05628 -0.40336135,0.168849 C 0.05628298,8.8536245 0,8.9880785 0,9.1412935 v 1.1412945 c 0,0.153215 0.05628298,0.287668 0.16884893,0.400234 0.11256596,0.112566 0.24701974,0.168849 0.40336135,0.168849 H 15.42779 c 0.153214,0 0.287668,-0.05628 0.403361,-0.168849 C 15.943717,10.570256 16,10.435803 16,10.282587 V 9.1412935 c 0,-0.153215 -0.05628,-0.287669 -0.168849,-0.400234 -0.115693,-0.112566 -0.250147,-0.168849 -0.403361,-0.168849 z"
  />
</svg>
