<?xml version="1.0" encoding="UTF-8" standalone="no"?>
<svg
  version="1.1"
  id="torrent_bonus"
  xmlns="http://www.w3.org/2000/svg"
  xmlns:xlink="http://www.w3.org/1999/xlink"
  viewBox="0 0 16 16">
  <path
     d="M 7.1825543,0.00282272 C 6.7472017,0.04548351 5.8166093,-0.11436756 6.43239,0.57256319 6.9400747,1.7599904 6.4942818,3.4409703 5.1786356,3.8670425 4.337107,4.2073546 3.3464249,4.4441114 2.8521743,5.2856259 2.6202586,5.5491287 2.2863223,6.0588201 2.8931694,5.7007463 3.9854531,5.2261742 5.1257165,4.8528792 6.3160677,4.7334776 7.5240681,4.5148669 8.890626,4.5172993 9.8701429,3.6744485 10.709534,2.9676874 10.371164,1.6404758 9.7171401,0.92952166 9.0639298,0.29128247 8.0912254,-0.05155229 7.1825543,0.00282272 Z M 11.005873,3.8483065 C 10.523105,4.3160385 10.078348,4.9301461 9.3820061,5.1347911 7.6678587,5.6904304 5.8328737,5.7162093 4.1232038,6.291433 3.4518856,6.5080051 2.5021939,6.458842 2.1685176,7.2013233 1.9684008,8.1219592 1.8155314,9.2173079 2.4291406,10.018386 2.9093886,10.494511 3.6828978,10.623749 4.2426538,10.204621 4.8919302,9.7834954 4.321186,8.8413567 4.8923627,8.3652228 5.7390302,7.6457606 6.9306546,7.7600289 7.9656019,7.6008114 8.9699621,7.5145944 9.9944151,7.2426556 10.747409,6.5338409 11.205431,6.0809831 11.92623,5.634881 11.927246,4.9404145 11.737589,4.5160654 11.471663,4.0050483 11.005873,3.8483065 Z m 1.606903,2.5544214 C 12.03962,6.5283885 11.79309,7.3777045 11.284373,7.733363 10.340867,8.7132814 8.8740101,8.8791734 7.5815094,8.8518677 6.8572216,8.8736864 5.9596789,8.7660635 5.435367,9.370931 c -0.2146607,0.3696232 -0.4530276,1.383623 0.03521,1.48774 2.4320142,0.143181 4.8783182,0.107825 7.3028892,-0.133932 0.837615,-0.0977 1.470402,-0.9908636 1.166437,-1.8059043 C 13.715236,8.0418143 13.368419,7.1446206 12.730834,6.483686 Z M 3.2428736,11.633471 c 0.6179582,1.369713 1.0303951,2.852275 1.7069298,4.195579 1.9317702,0.215171 3.8942542,0.233621 5.8288866,0.03224 0.481853,-1.386262 0.948632,-2.778565 1.390802,-4.177945 -2.9158584,0.200818 -5.847586,0.182095 -8.7614954,-0.05156 l -0.1185755,-0.002 z"
  />
</svg>
