<?xml version="1.0" encoding="UTF-8" standalone="no"?>
<svg
  version="1.1"
  id="torrent_disk"
  xmlns="http://www.w3.org/2000/svg"
  xmlns:xlink="http://www.w3.org/1999/xlink"
  viewBox="0 0 16 16">
  <path
     d="m 8.0169015,6.6535209 c 0.8056337,0 1.4647887,-0.5239437 1.4647887,-1.166197 0,-0.6422536 -0.659155,-1.1661973 -1.4647887,-1.1661973 -0.8056338,0 -1.4647887,0.5239437 -1.4647887,1.1661973 0,0.6422533 0.6591549,1.166197 1.4647887,1.166197 z M 2.7605634,11.661972 h 3.6619719 v 1.408451 H 2.7605634 Z M 15.95493,10.157746 c 0,-0.03944 -0.0056,-0.07887 -0.0169,-0.11831 L 13.960565,1.1605634 C 13.876055,0.78873227 13.515494,0.50704221 13.132395,0.50704221 H 2.9014085 c -0.3774648,0 -0.743662,0.28169006 -0.8225352,0.65352119 L 0.09577465,10.039436 C 0.08450704,10.078873 0.06197183,10.11831 0.06197183,10.152113 0.03380282,10.259155 0,10.371831 0,10.490141 v 3.71831 c 0,0.715493 0.61971833,1.284507 1.3352113,1.284507 H 14.704226 C 15.419719,15.492958 16,14.923944 16,14.208451 v -3.71831 c 0,-0.112676 -0.0169,-0.225352 -0.04507,-0.332395 z M 8.0169015,1.9267604 c 2.6366195,0 4.7718315,1.5943662 4.7718315,3.5661973 0,1.9718311 -2.135212,3.5661973 -4.7718315,3.5661973 -2.6366198,0 -4.771831,-1.5943662 -4.771831,-3.5661973 0.00563,-1.9718311 2.140845,-3.5661973 4.771831,-3.5661973 z M 14.309859,13.802817 H 1.6901409 V 10.873239 H 14.309859 Z"
  />
</svg>
