<?xml version="1.0" encoding="UTF-8" standalone="no"?>
<svg
  version="1.1"
  id="torrent_ducky"
  xmlns="http://www.w3.org/2000/svg"
  xmlns:xlink="http://www.w3.org/1999/xlink"
  viewBox="0 0 16 16">
  <path
     d="m 6.6957344,9.7505112 c 2.192229,-1.1124744 2.4539877,1.3415138 2.4539877,1.3415138 0,2.879345 -2.2903886,2.617586 -2.2903886,2.617586 -1.9304703,0 -2.9120654,-2.061349 -3.2065439,-2.715746 -0.03272,-0.09816 0.03272,-0.229039 0.1308793,-0.261759 l 0.1308794,-0.03272 C 4.8961434,10.470348 5.8450186,10.175869 6.6957344,9.7505112 Z M 10.458515,3.2392638 A 0.65439673,0.65439673 0 0 1 9.8041191,3.8936605 0.65439673,0.65439673 0 0 1 9.1497221,3.2392638 0.65439673,0.65439673 0 0 1 9.8041191,2.5848671 0.65439673,0.65439673 0 0 1 10.458515,3.2392638 Z m 0,-0.3271984 A 1.3087935,1.3087935 0 0 1 9.1497221,4.2208589 1.3087935,1.3087935 0 0 1 7.8409286,2.9120654 1.3087935,1.3087935 0 0 1 9.1497221,1.603272 1.3087935,1.3087935 0 0 1 10.458515,2.9120654 Z m 5.071575,0.3271984 h -2.683026 -0.752557 c 0,0.09816 0,0.2290389 0,0.3271984 0,0.785276 -0.458077,1.6359918 -0.883435,2.2903885 v 0 h 1.93047 c 0.294479,0 0.621677,-0.06544 0.850716,-0.2290388 0.850716,-0.5562373 1.439673,-1.6687117 1.701431,-2.1595092 0.06544,-0.09816 -0.03272,-0.2290389 -0.163599,-0.2290389 z M 12.159947,8.605317 C 11.832749,7.9509202 11.341951,7.3619632 10.622115,6.9366053 10.556675,6.9038855 10.523955,6.805726 10.589395,6.7402863 10.949313,6.3149284 12.127227,4.809816 12.127227,3.599182 12.127227,1.603272 10.523955,0 8.5280452,0 6.5321352,0 4.8961434,1.5705521 4.8961434,3.5664622 c 0,1.9631902 1.6359918,2.9447852 1.9304703,3.2392638 0.03272,0.03272 0.03272,0.06544 0.03272,0.09816 0,0.3271983 -0.098159,1.8977505 -1.799591,1.3087934 C 4.6016648,8.0490798 4.2090268,7.7873211 3.8491086,7.4274029 L 1.9186382,5.4969325 C 1.7550391,5.3333333 1.5260002,5.3660532 1.3951209,5.5296524 0.9370432,6.1186094 0.11904725,7.4928425 0.31536626,9.4560327 c 0,0 0.13087934,5.3006133 3.79550104,6.3803683 C 4.5035053,15.96728 4.9288632,16 5.3215012,16 h 2.2576687 c 0.9488753,0 1.8323112,-0.261759 2.6175871,-0.785276 0.03272,-0.03272 0.06544,-0.03272 0.09816,-0.06544 2.159509,-1.439673 3.042945,-4.253578 1.86503,-6.543967 z"
  />
</svg>
