<?xml version="1.0" encoding="UTF-8" standalone="no"?>
<svg
  version="1.1"
  id="torrent_disk_inner"
  xmlns="http://www.w3.org/2000/svg"
  xmlns:xlink="http://www.w3.org/1999/xlink"
  viewBox="0 0 16 16">
  <path
     d="m 1.6894531,10.873047 v 2.929687 H 14.310547 v -2.929687 z m 1.0703125,0.789062 H 6.421875 v 1.408203 H 2.7597656 Z M 8.0175781,1.9277344 c -2.630986,0 -4.7678075,1.592622 -4.7734375,3.5644531 0,1.9718311 2.1368177,3.5664063 4.7734375,3.5664063 2.6366199,0 4.7714839,-1.5945752 4.7714839,-3.5664063 0,-1.9718311 -2.134864,-3.5644531 -4.7714839,-3.5644531 z m 0,2.3925781 c 0.8056337,0 1.4648438,0.5257151 1.4648438,1.1679687 0,0.6422535 -0.6592101,1.1660157 -1.4648438,1.1660157 -0.8056338,0 -1.4648437,-0.5237622 -1.4648437,-1.1660157 0,-0.6422536 0.6592099,-1.1679687 1.4648437,-1.1679687 z"
  />
</svg>
