<?xml version="1.0" encoding="UTF-8" standalone="no"?>
<svg
  version="1.1"
  id="torrent_okay"
  xmlns="http://www.w3.org/2000/svg"
  xmlns:xlink="http://www.w3.org/1999/xlink"
  viewBox="0 0 16 16">
  <path
     d="M 14.923849,3.9835841 C 14.208846,2.7578659 13.238486,1.7875057 12.012768,1.0725034 10.78705,0.35750114 9.4518924,0 8,0 6.5481076,0 5.2093023,0.35750114 3.9835841,1.0725034 2.7578659,1.7875057 1.7875057,2.7578659 1.0725034,3.9835841 0.35750114,5.2093023 0,6.5481076 0,8 c 0,1.4518924 0.35750114,2.790698 1.0725034,4.016416 0.7150023,1.225718 1.6853625,2.196078 2.9110807,2.911081 C 5.2093023,15.642499 6.5481076,16 8,16 c 1.4518924,0 2.790698,-0.357501 4.016416,-1.072503 1.225718,-0.715003 2.196078,-1.685363 2.911081,-2.911081 C 15.642499,10.790698 16,9.4518924 16,8 15.996352,6.5481076 15.638851,5.2093023 14.923849,3.9835841 Z M 13.183767,6.7815777 7.5294118,12.435933 c -0.131327,0.131326 -0.2918377,0.19699 -0.4778842,0.19699 -0.1787506,0 -0.3356133,-0.06566 -0.4669403,-0.19699 L 2.8125855,8.6639307 C 2.6885545,8.5398997 2.626539,8.3830369 2.626539,8.1969904 c 0,-0.1933424 0.062015,-0.3538531 0.1860465,-0.4778842 L 3.7610579,6.7815777 c 0.131327,-0.1313269 0.2881897,-0.1969904 0.4669403,-0.1969904 0.1787505,0 0.3356133,0.065664 0.4705882,0.1969904 L 7.0515276,9.1345189 11.301414,4.8955768 c 0.131327,-0.1313269 0.288189,-0.1969904 0.46694,-0.1969904 0.17875,0 0.335613,0.065664 0.46694,0.1969904 l 0.948473,0.9375285 c 0.124031,0.124031 0.186046,0.2845418 0.186046,0.4778842 0.0036,0.1896945 -0.05837,0.3429093 -0.186046,0.4705882 z"
  />
</svg>
