<svg height="38" preserveAspectRatio="xMidYMin meet" viewBox="0 0 200 38" width="200" xmlns="http://www.w3.org/2000/svg"><path d="m81.65625 4.6210938c-3.991531.0000001-7.453617 1.6552333-10.078125 4.1738281a.67902917.67902917 0 0 1 -1.015625-.0859375c-.326697-.4414413-.652996-.8456818-1.060547-1.1972656-2.310093-1.992862-5.367976-2.8027344-8.609375-2.8027344h-8.183594c-.912248.0000695-1.656394.3431679-2.27539.8886718a.67902917.67902917 0 0 1 -.898438 0c-.618996-.5455039-1.363142-.8886023-2.27539-.8886718h-4.078125c-1.530045-.0006137-2.902046.8450982-3.582032 2.2167968-.000224.0004534.000225.0015 0 .00195a.67902917.67902917 0 0 1 -.0039.00781c-.0011.00224-.000842.00361-.002.00586l-2.558594 5.1738278a.67902917.67902917 0 0 1 -1.216797.002l-2.578084-5.1914478c-.68055-1.3702446-2.05077-2.2166366-3.580078-2.2167968h-4.107422c-.729921.0000556-1.327608.2611539-1.910156.65625a.67902917.67902917 0 0 1 -.761719 0c-.583128-.395291-1.181658-.6561945-1.912109-.65625h-14.6660156c-2.2121739.0001681-3.9939724 1.7819667-3.9941406 3.9941406v20.535156c.0001677 2.212175 1.781966 3.993974 3.9941406 3.994141h15.0195316c.639436-.000047 1.210936-.206532 1.785156-.525391a.67902917.67902917 0 0 1  .660156 0c .574219.318858 1.145721.525343 1.785156.525391h3.25586c1.627776-.000123 3.009295-.978429 3.634765-2.375a.67902917.67902917 0 0 1  .945313-.31836c.610902.335394 1.24366.550729 1.902344.550782h2.259765c.669461-.000054 1.310263-.214757 1.921875-.554688a.67902917.67902917 0 0 1  .951172.316406c.623863 1.399268 2.008369 2.38074 3.638672 2.38086h3.197266c.912248-.000068 1.656394-.343167 2.27539-.888672a.67902917.67902917 0 0 1  .898438 0c .618996.545505 1.363142.888604 2.27539.888672h3.460938c2.212174-.000168 3.993973-1.781966 3.99414-3.994141v-1.515625a.67902917.67902917 0 0 1  .679688-.679687h.04883c2.51453 0 4.821478-.737057 6.876953-1.96875a.67902917.67902917 0 0 1  .953125.271484c2.437121 4.721708 7.180846 8.033203 12.933594 8.033203 3.744415 0 7.084977-1.417459 9.669922-3.673828a.67902917.67902917 0 0 1 1.109375.365234c.399243 1.807229 1.906379 3.161965 3.814453 3.16211h3.462891c1.989459-.000154 3.551889-1.46851 3.859379-3.388672a.67902917.67902917 0 0 1 1.25195-.244141l1.0293 1.703125a.67902917.67902917 0 0 1 0 .002c.00049.00082.001.0011.002.002.72993 1.206307 2.01003 1.926398 3.41992 1.925781h3.92969c.65607-.000118 1.2026-.215799 1.75-.53711a.67902917.67902917 0 0 1  .67773-.0039c.58138.329415 1.16554.540966 1.81641.541016h3.46094c2.21216-.000168 3.99397-1.781966 3.99414-3.994141v-.595703a.67902917.67902917 0 0 1 1.22461-.404297l2.51367 3.382813c.75933 1.021922 1.93632 1.610653 3.20898 1.611328h3.40235c.91323-.000071 1.65796-.34402 2.27734-.890625a.67902917.67902917 0 0 1  .89844 0c .61985.546749 1.3656.890554 2.27929.890625h3.46094c1.78682-.000136 3.23138-1.187069 3.7461-2.81836a.67902917.67902917 0 0 1 1.10742-.294921c2.3944 2.196247 5.63421 3.259765 9.10156 3.259765 3.43537 0 6.64238-1.0526 9.02539-3.21289a.67902917.67902917 0 0 1 1.09961.292968c.52715 1.608546 1.96845 2.773303 3.74023 2.773438h3.25586c1.62779-.000116 3.0093-.978422 3.63477-2.375a.67902917.67902917 0 0 1  .94531-.31836c.6109.335394 1.24366.550731 1.90235.550782h2.25976c.66946-.000051 1.31026-.214755 1.92188-.554688a.67902917.67902917 0 0 1  .94922.316406c.62386 1.399268 2.01032 2.380738 3.64062 2.38086h3.19727c2.21216-.000168 3.99396-1.781969 3.99414-3.994141v-20.535255c-.00018-2.2121705-1.78198-3.9939697-3.99414-3.9941406h-4.07813c-1.53003-.0006129-2.90204.845098-3.58203 2.2167968-.00023.0004534.00022.0015 0 .00195a.67902917.67902917 0 0 1 -.004.00781c-.001.00224-.00084.00361-.002.00586l-2.55859 5.1738278a.67902917.67902917 0 0 1 -1.2168.002l-2.57813-5.1914068c-.68056-1.3702393-2.05079-2.2166303-3.58007-2.2167968h-4.10743c-.81561.0000629-1.45745.3084346-2.05273.78125a.67902917.67902917 0 0 1 -.84375 0c-.59457-.472223-1.23654-.7811872-2.05078-.78125h-3.46094c-2.21218.0001709-3.99398 1.7819664-3.99414 3.9941406v12.027344c0 .46142.0148.607067-.0488.86914-.0159.06552-.0395.150869-.10547.251953-.0288.04411-.0739.06652-.11523.105469-.0194.03345.005.03101-.0234.06641-.0497.06082-.0712.03224-.11914.06641.001-.000722-.003.000755-.002 0-.001.000664-.003.0033-.004.0039-.13093.09054-.27598.172525-.32812.179688-.14427.01982-.16455.01056-.25782.0098-.0933-.000792-.22624-.002-.42968-.002-.41532 0-.51316.02972-.79688-.04102-.14186-.03537-.43202-.275436-.48633-.378906-.0476-.09073.0172.02377.0742.09375-.0494-.0364-.0915-.05232-.13672-.111328-.0837-.109146-.11918-.217837-.13671-.291016-.0701-.292715-.0371-.385405-.0371-.822265v-12.02737c-.00018-2.2121672-1.78196-3.9939811-3.99415-3.9941406h-3.46093c-.82827.0000639-1.47831.3159998-2.07617.8007812a.67902917.67902917 0 0 1 -.85547 0c-.59822-.4845729-1.25008-.8007172-2.07813-.8007812h-3.46094c-.91369.0000706-1.65944.3438758-2.27929.890625a.67902917.67902917 0 0 1 -.89844 0c-.61938-.5466052-1.36411-.8905545-2.27734-.890625h-3.40235c-2.21216.0001709-3.99397 1.781965-3.99414 3.9941406v.6621094a.67902917.67902917 0 0 1 -1.22461.40625l-2.57617-3.4550782c-.75967-1.019712-1.93409-1.6077029-3.20508-1.6074218h-3.40234c-1.57801.0001218-2.90737.9305609-3.56055 2.2695312a.67902917.67902917 0 0 1 -1.02344.2421875c-2.28881-1.7584315-5.19065-2.5117187-8.2832-2.5117187h-8.331862c-1.918119.0001462-3.429832 1.3698331-3.818359 3.1914062a.67902917.67902917 0 0 1 -1.109375.3710938c-2.586762-2.245475-5.928239-3.6503907-9.666016-3.6503906zm77.51953 17.4687502c-.10677.06625.10965-.05872.11133-.103516-.0408.03489-.0785.08501-.11133.103516zm-77.490233-6.371094c.9574 0 1.810223.273703 2.412109.857422s.898438 1.433999.898438 2.394531c0 .961794-.320499 1.818316-.921875 2.412109-.601376.593794-1.452424.898438-2.388672.898438-1.878405 0-3.398438-1.445123-3.398438-3.310547 0-.939509.318853-1.78993.933594-2.375s1.483068-.876953 2.464844-.876953z" fill="#fafafa" transform="matrix(.97804789 -.05079254 -.12202859 .99862953 7.409668 5.1052924)"/><path d="m81.65625 7.9160156c-5.762795 0-10.422643 3.8129284-11.378906 9.0703124a.33574604.33574604 0 0 1 -.664063-.09961c.04682-.406062.103516-.783312.103516-1.171875 0-2.383795-.820663-4.371199-2.369141-5.707032-1.548821-1.3361301-3.75854-2.0039059-6.455078-2.0039058h-8.183594c-.33852.0000027-.699216.360698-.699218.6992188v20.535156c.000002.338522.360697.699216.699218.699219h3.460938c.338521-.000003.699216-.360697.699219-.699219v-5.154297a.33547364.33547364 0 0 1  .335937-.335937h3.6875c2.703168 0 4.921253-.708806 6.466797-2.107422 1.145244-1.036369 1.880379-2.4374 2.189453-4.099609a.33589228.33589228 0 0 1  .664063.101562c-.05677.469652-.138672.897055-.138672 1.328125 0 6.244119 5.105952 11.113281 11.582031 11.113281s11.582031-4.869162 11.582031-11.113281c0-6.244084-5.110469-11.0546873-11.582031-11.0546874zm-75.3535156.0878906c-.3385211.0000025-.6992162.3606976-.6992188.6992188v20.535156c.0000027.338522.3606971.699216.6992188.699219h15.0195316c.338521-.000003.699216-.360697.699218-.699219v-3.109375c-.000002-.33852-.360698-.699216-.699218-.699218h-10.523438a.33547364.33547364 0 0 1 -.335937-.335938v-3.591797a.33547364.33547364 0 0 1  .335937-.335937h8.998047c.33852-.000003.699216-.360699.699219-.699219v-3.109375c-.000003-.33852-.360699-.699216-.699219-.699219h-8.998047a.33547364.33547364 0 0 1 -.335937-.335937v-3.47461a.33547364.33547364 0 0 1  .335937-.335937h10.169922c.33852-.000003.699216-.360699.699219-.699219v-3.109375c-.000003-.3385208-.360699-.6992162-.699219-.6992188zm19.2499996 0c-.33852.0000027-.699216.360698-.699218.6992188v20.535156c.000002.338522.360697.699216.699218.699219h3.25586c.338521-.000003.699216-.360697.699218-.699219v-10.884765a.33547364.33547364 0 0 1  .636719-.148438l4.517578 9.199219c.109894.2236.379859.391003.628907.390625h2.259765c.249048.000378.519013-.167025.628907-.390625l4.52539-9.216797a.33547364.33547364 0 0 1  .636719.148438l.02148 10.904296v.002c.0023.337381.36173.695311.699219.695312h3.197266c.338521-.000003.699216-.360697.699218-.699219v-20.535202c-.000002-.3385208-.360698-.6992162-.699218-.6992188h-4.078125c-.247272.0000463-.514417.1646024-.625.3847657-.000404.000803-.0016.00115-.002.00195a.33547364.33547364 0 0 1 0 .00195l-5.820262 11.7675841a.33547364.33547364 0 0 1 -.601563 0l-5.845703-11.769531c-.10983-.2213664-.378781-.3866724-.626953-.3867188zm70.697266 0c-.338521.0000027-.699216.360698-.699219.6992188v20.535156c.000003.338522.360698.699216.699219.699219h3.462891c.338529-.000002.699209-.360692.699219-.699219v-5.154297a.33547364.33547364 0 0 1  .33594-.335937h3.83398c.11682 0 .22662-.0061.34961-.01172a.33547364.33547364 0 0 1  .30274.16211l3.44335 5.701171a.33547364.33547364 0 0 1 0 .002c.00047.000769.001.0012.002.002.12001.195789.36615.334016.5957.333984h3.92969c.2416.000036.50313-.155811.61719-.369141.11361-.212514.0985-.514438-.0332-.714843a.33547364.33547364 0 0 1 -.004-.0039l-4.01563-5.984375a.33547364.33547364 0 0 1  .10938-.476562c2.30035-1.34192 3.67382-3.640102 3.67382-6.673828 0-2.386893-.83745-4.37913-2.41211-5.712891-1.57505-1.3340982-3.81987-1.9980469-6.55859-1.9980468zm21.19922 0c-.33853.0000015-.69921.3606912-.69922.6992188v20.535156c.00001.338528.36069.699217.69922.699219h3.46094c.33851-.000007.69922-.360707.69922-.699219v-11.599609a.33547364.33547364 0 0 1  .60546-.199219l9.07618 12.216797c.125.168434.35017.280896.56054.28125h3.40235c.33851-.000007.69921-.360707.69921-.699219v-20.535156c0-.3385115-.3607-.6992114-.69921-.6992188h-3.40235c-.33851.0000015-.69922.360699-.69922.6992188v11.636719a.33547364.33547364 0 0 1 -.60546.201172l-9.13477-12.2539066a.33547364.33547364 0 0 1 0-.00195c-.12501-.1684432-.35017-.2809004-.56055-.28125zm23.25976 0c-.33851.0000073-.69921.3607073-.69921.6992188v20.535156c0 .338512.3607.699212.69921.699219h3.46094c.33853-.000002.69921-.360691.69922-.699219v-20.535156c-.00001-.3385276-.36069-.6992173-.69922-.6992188zm8.47071 0c-.33853.0000015-.69922.3606912-.69922.6992188v12.027344c0 2.831501.91166 5.205642 2.60547 6.84375 1.69387 1.638176 4.12909 2.509765 7.03906 2.509765 2.91004 0 5.3364-.872908 7.02344-2.511718 1.68697-1.638751 2.59375-4.011514 2.59375-6.841797v-12.027344c0-.3385239-.36069-.6992173-.69922-.6992188h-3.46094c-.33853.0000015-.69922.3607028-.69922.6992188v12.027344c0 1.605155-.4702 2.791058-1.25976 3.589843-.78935.798576-1.9412 1.25586-3.46875 1.25586-1.54157 0-2.72123-.464152-3.5293-1.269531-.80795-.805254-1.28516-1.990948-1.28516-3.576172v-12.027344c0-.3385198-.36069-.6992173-.69922-.6992188zm22.81054 0c-.33851.0000073-.69921.3607073-.69921.6992188v20.535156c0 .338512.3607.699212.69921.699219h3.25586c.33853-.000002.69922-.360698.69922-.699219v-10.884765a.33547364.33547364 0 0 1  .63672-.148438l4.51758 9.199219c.10989.2236.37985.391005.62891.390625h2.25976c.24905.00038.51901-.167013.62891-.390625l4.52539-9.216797a.33547364.33547364 0 0 1  .63672.148438l.0215 10.904296v.002c.002.337386.36173.695311.69922.695312h3.19727c.33851-.000007.69921-.360707.69921-.699219v-20.535202c0-.3385115-.3607-.6992114-.69921-.6992188h-4.07813c-.24727.0000471-.51442.1646069-.625.3847657a.33547364.33547364 0 0 1 -.002.00195.33547364.33547364 0 0 1  0 .00195l-5.82031 11.7675779a.33547364.33547364 0 0 1 -.60157 0l-5.84567-11.7695248c-.10983-.2213623-.37878-.3866715-.62695-.3867188zm-90.304683 4.4199218c3.649715 0 6.605469 2.846478 6.605469 6.546875 0 3.700652-2.962198 6.605469-6.605469 6.605469-3.643653 0-6.693359-2.914329-6.693359-6.605469 0-3.693954 3.011519-6.546876 6.693359-6.546875zm-24.480469.08789h3.541016c1.489725 0 2.563165.308465 3.234375.833984.66064.517249 1.023437 1.268233 1.023437 2.457031 0 1.238711-.369712 2.030676-1.033203 2.570313-.672102.546641-1.739171.867187-3.224609.867187h-3.541016a.33547364.33547364 0 0 1 -.335937-.335937v-6.056641a.33547364.33547364 0 0 1  .335937-.335937zm43.542972 0h3.83398c1.48985 0 2.57297.308907 3.25195.835937.66824.518681 1.03516 1.269053 1.03516 2.455078 0 1.235907-.3735 2.02893-1.04492 2.570313-.68017.548437-1.75696.867187-3.24219.867187h-3.83398a.33547364.33547364 0 0 1 -.33594-.335937v-6.056641a.33547364.33547364 0 0 1  .33594-.335937z" fill="#b40000" transform="matrix(.97804789 -.05079254 -.12202859 .99862953 7.409668 5.1052924)"/></svg>