<?xml version="1.0" encoding="UTF-8" standalone="no"?>
<svg
  version="1.1"
  id="level3"
  xmlns="http://www.w3.org/2000/svg"
  xmlns:xlink="http://www.w3.org/1999/xlink"
  viewBox="0 0 5.2919716 2.3809466">
  <path
     style="fill:#484537;stroke:#ffe800;stroke-width:0.05209913;stroke-linecap:round;stroke-linejoin:round"
     d="M 0.02748347,0.02596015 H 5.262538 c 7.284e-4,0 0.00131,5.7912e-4 0.00131,0.0012986 V 2.3533697 c 0,7.2e-4 -5.869e-4,0.0013 -0.00131,0.0013 H 0.02748347 c -7.2776e-4,0 -0.0013136,-5.801e-4 -0.0013136,-0.0013 V 0.02725872 c 0,-7.195e-4 5.8588e-4,-0.0012986 0.0013136,-0.0012986 z" />
  <path
     style="fill:#ffff00;stroke:#a50904;stroke-width:0.0009704;stroke-linecap:round;stroke-linejoin:round"
     d="M 3.3409005,2.1650957 2.6683347,1.7052866 1.995196,2.1891867 2.2271114,1.4110352 1.5563195,0.92391436 2.3721983,0.90279444 2.630774,0.11784983 2.9030841,0.88296649 3.7336577,0.88496186 3.086095,1.3789247 Z" />
  <path
     style="fill:#ffff00;stroke:#a50904;stroke-width:0.00041417;stroke-linecap:round;stroke-linejoin:round"
     d="M 1.1462317,1.6318393 0.8508865,1.4411048 0.55529394,1.6418428 0.65713126,1.3190457 0.36256493,1.1169816 0.72084087,1.1082145 0.83438548,0.78259918 0.95396814,1.0999854 1.3186971,1.1008069 1.0343357,1.3057191 Z" />
  <path
     style="fill:#ffff00;stroke:#a50904;stroke-width:0.00041417;stroke-linecap:round;stroke-linejoin:round"
     d="M 4.7549673,1.6211426 4.4596221,1.4304081 4.1640295,1.6311461 4.2658669,1.308349 3.9713005,1.1062849 4.3295765,1.0975178 4.4431211,0.77190248 4.5627037,1.0892887 4.9274327,1.0901102 4.6430713,1.2950224 Z" />
</svg>
