<?xml version="1.0" encoding="UTF-8" standalone="no"?>
<svg
   xmlns:dc="http://purl.org/dc/elements/1.1/"
   xmlns:cc="http://creativecommons.org/ns#"
   xmlns:rdf="http://www.w3.org/1999/02/22-rdf-syntax-ns#"
   xmlns:svg="http://www.w3.org/2000/svg"
   xmlns="http://www.w3.org/2000/svg"
   xmlns:xlink="http://www.w3.org/1999/xlink"
   xmlns:sodipodi="http://sodipodi.sourceforge.net/DTD/sodipodi-0.dtd"
   xmlns:inkscape="http://www.inkscape.org/namespaces/inkscape"
   version="1.1"
   width="165"
   height="28"
   viewBox="0 0 165 28"
   preserveAspectRatio="xMidYMin meet"
   class="logo-svg"
   id="svg5117"
   sodipodi:docname="logo_empornium.svg"
   inkscape:version="0.92.1 r">
  <metadata
     id="metadata5121">
    <rdf:RDF>
      <cc:Work
         rdf:about="">
        <dc:format>image/svg+xml</dc:format>
        <dc:type
           rdf:resource="http://purl.org/dc/dcmitype/StillImage" />
        <dc:title></dc:title>
      </cc:Work>
    </rdf:RDF>
  </metadata>
  <sodipodi:namedview
     pagecolor="#ffffff"
     bordercolor="#666666"
     borderopacity="1"
     objecttolerance="10"
     gridtolerance="10"
     guidetolerance="10"
     inkscape:pageopacity="0"
     inkscape:pageshadow="2"
     inkscape:window-width="3200"
     inkscape:window-height="1605"
     id="namedview5119"
     showgrid="false"
     inkscape:pagecheckerboard="true"
     inkscape:zoom="3.73"
     inkscape:cx="100"
     inkscape:cy="19"
     inkscape:window-x="0"
     inkscape:window-y="55"
     inkscape:window-maximized="1"
     inkscape:current-layer="svg5117" />
  <defs
     id="empornium">
    <linearGradient
       gradientUnits="userSpaceOnUse"
       y2="403.45999"
       x2="148.98"
       y1="364.89999"
       x1="151.03"
       id="linearGradient5906">
      <stop
         id="stop5902"
         style="stop-color:rgb(255,255,255);stop-opacity:1"
         offset="0" />
      <stop
         id="stop5904"
         style="stop-color:rgb(178,213,227);stop-opacity:1"
         offset="100" />
    </linearGradient>
    <linearGradient
       id="modern-v1"
       x1="151.03"
       y1="364.89999"
       x2="148.98"
       y2="403.45999"
       gradientUnits="userSpaceOnUse">
      <stop
         offset="0%"
         style="stop-color:rgb(255,255,255);stop-opacity:1"
         id="stop5081" />
      <stop
         offset="100%"
         style="stop-color:rgb(155,221,249);stop-opacity:1"
         id="stop5083" />
    </linearGradient>
    <linearGradient
       id="modern-v2"
       x1="0"
       y1="0"
       x2="1"
       y2="0"
       gradientUnits="userSpaceOnUse">
      <stop
         offset="42%"
         style="stop-color:rgb( 72, 99,156);stop-opacity:1"
         id="stop5086" />
      <stop
         offset="70%"
         style="stop-color:rgb(112,139,255);stop-opacity:1"
         id="stop5088" />
      <stop
         offset="90%"
         style="stop-color:rgb( 72, 99,156);stop-opacity:1"
         id="stop5090" />
    </linearGradient>
    <linearGradient
       inkscape:collect="always"
       xlink:href="#linearGradient5906"
       id="linearGradient5896"
       x1="-24.052734"
       y1="19.791016"
       x2="-24.052734"
       y2="36.681095"
       gradientUnits="userSpaceOnUse" />
    <linearGradient
       inkscape:collect="always"
       xlink:href="#modern-v1"
       id="linearGradient5900"
       gradientUnits="userSpaceOnUse"
       x1="-25.908714"
       y1="5.9008818"
       x2="-25.908714"
       y2="34.782841" />
    <filter
       inkscape:collect="always"
       style="color-interpolation-filters:sRGB"
       id="filter5972"
       x="-0.00064523608"
       width="1.0012905"
       y="-0.0046011629"
       height="1.0092023">
      <feGaussianBlur
         inkscape:collect="always"
         stdDeviation="0.073774723"
         id="feGaussianBlur5974" />
    </filter>
  </defs>
  <g
     aria-label="EMPORNIUM"
     style="font-style:normal;font-weight:normal;font-size:40px;line-height:25px;font-family:sans-serif;letter-spacing:0px;word-spacing:0px;fill:url(#linearGradient5896);fill-opacity:1;stroke:#b3bfc4;stroke-width:1.54127651;stroke-linecap:butt;stroke-linejoin:miter;stroke-opacity:1;stroke-miterlimit:4;stroke-dasharray:none;filter:url(#empornium)"
     id="text5731"
     transform="matrix(0.5992126,0,0,0.70251879,14.712308,0.852249)">
    <path
       sodipodi:type="inkscape:offset"
       inkscape:radius="0.53619307"
       inkscape:original="M 84.126953 5.3769531 C 80.194661 5.3769531 76.913411 6.7376302 74.283203 9.4589844 C 71.639974 12.180339 70.318359 15.598307 70.318359 19.712891 C 70.318359 23.970703 71.626953 27.466797 74.244141 30.201172 C 76.796224 32.870443 79.966797 34.205078 83.755859 34.205078 C 85.695963 34.205078 87.466797 33.860026 89.068359 33.169922 C 90.669922 32.466797 92.121745 31.42513 93.423828 30.044922 C 94.725911 28.638672 95.695964 27.076172 96.333984 25.357422 C 96.985026 23.625651 97.310547 21.711589 97.310547 19.615234 C 97.310547 15.539714 96.021484 12.141276 93.443359 9.4199219 C 90.878255 6.7246093 87.772786 5.3769531 84.126953 5.3769531 z M -23.515625 6.0214844 L -23.515625 6.7246094 L -22.578125 6.7246094 C -22.005208 6.7246094 -21.523438 6.8027344 -21.132812 6.9589844 C -20.729167 7.1022135 -20.397135 7.3105468 -20.136719 7.5839844 C -19.785156 7.9615885 -19.609375 9.0227865 -19.609375 10.767578 L -19.609375 28.677734 C -19.609375 30.539714 -19.869792 31.692057 -20.390625 32.134766 C -20.911458 32.577474 -21.640625 32.798828 -22.578125 32.798828 L -23.515625 32.798828 L -23.515625 33.560547 L -2.3242188 33.560547 L 0.078125 26.626953 L -0.76171875 26.626953 C -2.0768229 28.957682 -3.1640625 30.429036 -4.0234375 31.041016 C -5.0130208 31.73112 -6.5885417 32.076172 -8.75 32.076172 L -13.417969 32.076172 C -14.550781 32.076172 -15.253906 31.776693 -15.527344 31.177734 C -15.657552 30.917318 -15.722656 30.194661 -15.722656 29.009766 L -15.722656 19.908203 L -9.6679688 19.908203 C -7.9492187 19.908203 -6.8033854 20.233724 -6.2304688 20.884766 C -5.8268229 21.340494 -5.5208333 22.375651 -5.3125 23.990234 L -4.5507812 23.990234 L -4.5507812 14.419922 L -5.3125 14.419922 C -5.5208333 15.995443 -5.8268229 17.011068 -6.2304688 17.466797 C -6.8033854 18.091797 -7.9492187 18.404297 -9.6679688 18.404297 L -15.722656 18.404297 L -15.722656 7.5058594 L -8.125 7.5058594 C -5.9635417 7.5058594 -4.53125 7.9485677 -3.828125 8.8339844 C -3.6979167 9.016276 -3.5481771 9.374349 -3.3789062 9.9082031 C -3.2096354 10.429036 -3.0143229 11.132161 -2.7929688 12.017578 L -1.9921875 12.017578 L -2.3242188 6.0214844 L -23.515625 6.0214844 z M 4.2792969 6.0214844 L 4.2792969 6.7246094 C 5.5813802 6.7246094 6.5709635 6.985026 7.2480469 7.5058594 C 7.8209635 7.9485677 8.1074219 9.0358074 8.1074219 10.767578 L 8.1074219 28.755859 C 8.1074219 29.511068 8.0748696 30.142578 8.0097656 30.650391 C 7.9576823 31.145182 7.860026 31.503255 7.7167969 31.724609 C 7.1959635 32.440755 6.3691407 32.798828 5.2363281 32.798828 L 4.2792969 32.798828 L 4.2792969 33.560547 L 13.830078 33.560547 L 13.830078 32.798828 L 12.892578 32.798828 C 11.811849 32.798828 11.017578 32.51888 10.509766 31.958984 C 10.119141 31.490234 9.9238281 30.422526 9.9238281 28.755859 L 9.9238281 10.376953 L 20.568359 33.560547 L 21.271484 33.560547 L 31.896484 10.376953 L 31.896484 28.755859 C 31.896484 30.318359 31.753255 31.307943 31.466797 31.724609 C 30.958984 32.440755 30.119141 32.798828 28.947266 32.798828 L 27.970703 32.798828 L 27.970703 33.560547 L 39.728516 33.560547 L 39.728516 32.798828 L 38.751953 32.798828 C 37.658203 32.798828 36.876953 32.51888 36.408203 31.958984 C 35.991536 31.503256 35.783203 30.435547 35.783203 28.755859 L 35.783203 10.767578 C 35.783203 9.2571615 35.932943 8.2610677 36.232422 7.7792969 C 36.753255 7.0761719 37.593099 6.7246094 38.751953 6.7246094 L 39.728516 6.7246094 L 39.728516 6.0214844 L 31.896484 6.0214844 L 22.052734 27.564453 L 12.052734 6.0214844 L 4.2792969 6.0214844 z M 43.890625 6.0214844 L 43.890625 6.7246094 L 44.90625 6.7246094 C 45.427083 6.7246094 45.882812 6.796224 46.273438 6.9394531 C 46.664062 7.0826823 46.989583 7.3105469 47.25 7.6230469 C 47.601563 8.0527343 47.777344 9.1269532 47.777344 10.845703 L 47.777344 28.677734 C 47.777344 30.227214 47.647135 31.229818 47.386719 31.685547 C 46.904948 32.427734 46.078125 32.798828 44.90625 32.798828 L 43.890625 32.798828 L 43.890625 33.560547 L 55.648438 33.560547 L 55.648438 32.798828 L 54.613281 32.798828 C 53.532552 32.798828 52.764323 32.492839 52.308594 31.880859 C 52.113281 31.685547 51.957031 31.327474 51.839844 30.806641 C 51.735677 30.272786 51.683594 29.563151 51.683594 28.677734 L 51.683594 21.021484 C 52.621094 21.086591 53.382813 21.138674 53.96875 21.177734 C 54.554688 21.203774 54.977865 21.216797 55.238281 21.216797 C 58.467448 21.229818 60.876302 20.611328 62.464844 19.361328 C 64.066406 18.111328 64.867188 16.197265 64.867188 13.619141 C 64.867187 11.288411 63.81901 9.3222657 61.722656 7.7207031 C 60.173177 6.5878907 57.582031 6.0214844 53.949219 6.0214844 L 43.890625 6.0214844 z M 102.25391 6.0214844 L 102.25391 6.7246094 L 103.28906 6.7246094 C 104.27864 6.7246094 105.07291 7.0240885 105.67188 7.6230469 C 105.99739 8.0397135 106.16016 9.1139324 106.16016 10.845703 L 106.16016 28.677734 C 106.16016 30.266276 106.02994 31.26888 105.76953 31.685547 C 105.28776 32.427734 104.46094 32.798828 103.28906 32.798828 L 102.25391 32.798828 L 102.25391 33.560547 L 114.07031 33.560547 L 114.07031 32.798828 L 112.97656 32.798828 C 111.89584 32.798828 111.12761 32.492839 110.67188 31.880859 C 110.47656 31.672526 110.32031 31.301432 110.20312 30.767578 C 110.09896 30.233724 110.04688 29.53711 110.04688 28.677734 L 110.04688 20.650391 C 110.51563 20.741536 111.49219 20.741536 112.97656 20.650391 L 122.3125 33.560547 L 129.67578 33.560547 L 129.67578 32.798828 C 128.11328 32.642578 126.85677 32.245443 125.90625 31.607422 C 125.4375 31.281901 124.92969 30.832682 124.38281 30.259766 C 123.83594 29.673828 123.25651 28.951172 122.64453 28.091797 L 116.98047 20.162109 C 121.4987 19.120443 123.75781 16.750651 123.75781 13.052734 C 123.75781 11.516276 123.28255 10.16862 122.33203 9.0097656 C 121.88932 8.4628906 121.36849 7.9941406 120.76953 7.6035156 C 120.18359 7.2128906 119.52604 6.9003906 118.79688 6.6660156 C 118.1198 6.4446615 117.24089 6.281901 116.16016 6.1777344 C 115.07943 6.0735677 113.77735 6.0214844 112.25391 6.0214844 L 102.25391 6.0214844 z M 132.17773 6.0214844 L 132.17773 6.7246094 C 133.51888 6.7246094 134.63216 7.1347657 135.51758 7.9550781 C 135.73893 8.2285157 135.95378 8.5084635 136.16211 8.7949219 C 136.38346 9.0683593 136.59831 9.3417968 136.80664 9.6152344 L 136.80664 28.755859 C 136.80664 30.344401 136.65039 31.333985 136.33789 31.724609 C 135.89518 32.440755 135.06836 32.798828 133.85742 32.798828 L 132.88086 32.798828 L 132.88086 33.560547 L 142.49023 33.560547 L 142.49023 32.798828 L 141.5332 32.798828 C 140.40039 32.798828 139.59961 32.51888 139.13086 31.958984 C 138.75326 31.516276 138.56445 30.448568 138.56445 28.755859 L 138.56445 11.822266 L 156.78711 34.009766 L 157.50977 34.009766 L 157.50977 10.767578 C 157.50977 9.2050782 157.6595 8.2089843 157.95898 7.7792969 C 158.40169 7.0761719 159.22851 6.7246094 160.43945 6.7246094 L 161.39648 6.7246094 L 161.39648 6.0214844 L 151.80664 6.0214844 L 151.80664 6.7246094 L 152.72461 6.7246094 C 153.79232 6.7246094 154.5931 7.0240885 155.12695 7.6230469 C 155.51757 8.0136719 155.71289 9.0618491 155.71289 10.767578 L 155.71289 26.666016 L 138.87695 6.0214844 L 132.17773 6.0214844 z M 165.61719 6.0214844 L 165.61719 6.7246094 L 166.61328 6.7246094 C 167.70703 6.7246094 168.54036 7.0761719 169.11328 7.7792969 C 169.25651 7.9485677 169.36719 8.2871093 169.44531 8.7949219 C 169.52344 9.3027343 169.5625 9.9863282 169.5625 10.845703 L 169.5625 28.677734 C 169.5625 30.357422 169.39974 31.399089 169.07422 31.802734 C 168.52734 32.466797 167.70703 32.798828 166.61328 32.798828 L 165.61719 32.798828 L 165.61719 33.560547 L 177.43359 33.560547 L 177.43359 32.798828 L 176.41797 32.798828 C 176.18359 32.798828 175.94271 32.77279 175.69531 32.720703 C 175.44792 32.66862 175.20052 32.583984 174.95312 32.466797 C 174.45833 32.271484 174.11979 32.05664 173.9375 31.822266 C 173.625 31.353516 173.46875 30.305339 173.46875 28.677734 L 173.46875 10.845703 C 173.46875 9.2311199 173.64453 8.1894531 173.99609 7.7207031 C 174.50391 7.0566407 175.3112 6.7246094 176.41797 6.7246094 L 177.43359 6.7246094 L 177.43359 6.0214844 L 165.61719 6.0214844 z M 181.5957 6.0214844 L 181.5957 6.7246094 L 182.2207 6.7246094 C 183.49675 6.7246094 184.3431 7.1152344 184.75977 7.8964844 C 184.91599 8.1699218 185.02666 8.5540365 185.0918 9.0488281 C 185.16992 9.5436198 185.20898 10.142578 185.20898 10.845703 L 185.20898 21.666016 C 185.20898 25.389974 185.5931 28.026693 186.36133 29.576172 C 187.92383 32.662109 191.13997 34.205078 196.00977 34.205078 C 196.98633 34.205078 197.88476 34.146484 198.70508 34.029297 C 199.52539 33.91211 200.26758 33.729818 200.93164 33.482422 C 201.51758 33.261068 202.08399 32.955078 202.63086 32.564453 C 203.19075 32.160807 203.73112 31.692057 204.25195 31.158203 C 205.85352 29.517578 206.6543 26.535807 206.6543 22.212891 L 206.6543 11.021484 C 206.6543 10.240235 206.69336 9.6152344 206.77148 9.1464844 C 206.8496 8.6777344 206.96028 8.3457032 207.10352 8.1503906 C 207.42904 7.6946615 207.78711 7.343099 208.17773 7.0957031 C 208.58137 6.8483073 209.05012 6.7246094 209.58398 6.7246094 L 210.61914 6.7246094 L 210.61914 6.0214844 L 200.85352 6.0214844 L 200.85352 6.7246094 L 201.88867 6.7246094 C 202.94336 6.7246094 203.73112 7.0240885 204.25195 7.6230469 C 204.62956 8.0397135 204.81836 9.1139324 204.81836 10.845703 L 204.81836 22.017578 C 204.81836 26.119141 204.17383 28.775391 202.88477 29.986328 C 201.99935 30.832682 201.00976 31.457682 199.91602 31.861328 C 198.82226 32.264974 197.61783 32.466797 196.30273 32.466797 C 193.24283 32.466797 191.16601 31.320964 190.07227 29.029297 C 189.43425 27.636068 189.11523 25.598307 189.11523 22.916016 L 189.11523 10.845703 C 189.11523 9.3613282 189.29102 8.3522135 189.64258 7.8183594 C 190.08528 7.0891927 190.76888 6.7246094 191.69336 6.7246094 L 192.72852 6.7246094 L 192.72852 6.0214844 L 181.5957 6.0214844 z M 214.37109 6.0214844 L 214.37109 6.7246094 C 215.67317 6.7246094 216.66276 6.985026 217.33984 7.5058594 C 217.91276 7.9485677 218.19922 9.0358074 218.19922 10.767578 L 218.19922 28.755859 C 218.19922 29.511068 218.16663 30.142578 218.10156 30.650391 C 218.04948 31.145182 217.95182 31.503255 217.80859 31.724609 C 217.28776 32.440755 216.46094 32.798828 215.32812 32.798828 L 214.37109 32.798828 L 214.37109 33.560547 L 223.92188 33.560547 L 223.92188 32.798828 L 222.98438 32.798828 C 221.90365 32.798828 221.10938 32.51888 220.60156 31.958984 C 220.21094 31.490234 220.01563 30.422526 220.01562 28.755859 L 220.01562 10.376953 L 230.66016 33.560547 L 231.36328 33.560547 L 241.98828 10.376953 L 241.98828 28.755859 C 241.98828 30.318359 241.84505 31.307943 241.55859 31.724609 C 241.05078 32.440755 240.21094 32.798828 239.03906 32.798828 L 238.0625 32.798828 L 238.0625 33.560547 L 249.82031 33.560547 L 249.82031 32.798828 L 248.84375 32.798828 C 247.75 32.798828 246.96875 32.51888 246.5 31.958984 C 246.08333 31.503256 245.875 30.435547 245.875 28.755859 L 245.875 10.767578 C 245.875 9.2571615 246.02474 8.2610677 246.32422 7.7792969 C 246.84505 7.0761719 247.6849 6.7246094 248.84375 6.7246094 L 249.82031 6.7246094 L 249.82031 6.0214844 L 241.98828 6.0214844 L 232.14453 27.564453 L 222.14453 6.0214844 L 214.37109 6.0214844 z M 83.677734 6.8027344 C 89.745442 6.8678385 92.753255 11.320964 92.701172 20.162109 C 92.66211 24.341797 91.822266 27.525391 90.181641 29.712891 C 89.400391 30.741536 88.469401 31.509765 87.388672 32.017578 C 86.307943 32.52539 85.090495 32.772786 83.736328 32.759766 C 80.96289 32.720703 78.801432 31.490235 77.251953 29.068359 C 75.741536 26.711589 74.986328 23.554036 74.986328 19.595703 C 74.986328 17.590495 75.17513 15.806641 75.552734 14.244141 C 75.943359 12.681641 76.516276 11.327474 77.271484 10.181641 C 78.820964 7.9160156 80.95638 6.7897137 83.677734 6.8027344 z M 113.26953 7.5253906 C 115.05338 7.5644532 116.48568 8.1178385 117.56641 9.1855469 C 118.64714 10.227214 119.1875 11.620443 119.1875 13.365234 C 119.1875 15.188151 118.53646 16.633463 117.23438 17.701172 C 115.82813 18.833985 113.82292 19.400391 111.21875 19.400391 L 110.04688 19.400391 L 110.04688 7.8964844 C 110.78906 7.766276 111.42708 7.6751302 111.96094 7.6230469 C 112.4948 7.5579429 112.93099 7.5253906 113.26953 7.5253906 z M 54.359375 7.6230469 C 56.247396 7.6230469 57.71875 8.2740885 58.773438 9.5761719 C 59.268229 10.162109 59.639323 10.826172 59.886719 11.568359 C 60.134114 12.297526 60.251301 13.111328 60.238281 14.009766 C 60.199219 15.741536 59.684896 17.154297 58.695312 18.248047 C 57.71875 19.354818 56.488281 19.908203 55.003906 19.908203 C 54.457031 19.908203 53.903646 19.888669 53.34375 19.849609 C 52.796875 19.797529 52.24349 19.738935 51.683594 19.673828 L 51.683594 8.0136719 C 52.295573 7.8834633 52.816406 7.7858071 53.246094 7.7207031 C 53.688802 7.6555991 54.059896 7.6230469 54.359375 7.6230469 z "
       style="font-style:normal;font-variant:normal;font-weight:normal;font-stretch:normal;font-family:'Nuosu SIL';-inkscape-font-specification:'Nuosu SIL';letter-spacing:2.57999992px;word-spacing:0px;fill:url(#linearGradient5900);fill-opacity:1;stroke:#b3bfc4;stroke-opacity:1;stroke-width:1.35864992;stroke-miterlimit:4;stroke-dasharray:none"
       id="path5812"
       d="m 84.126953,4.8398438 c -4.055983,0 -7.50551,1.4287265 -10.228515,4.2460937 -2.73733,2.8182365 -4.117188,6.3975515 -4.117188,10.6269535 0,4.367674 1.362856,8.024568 4.076172,10.859375 2.643681,2.765075 5.983465,4.169922 9.898437,4.169922 2.00368,0 3.851568,-0.358838 5.525391,-1.080079 a 0.53624669,0.53624669 0 0 0 0.002,-0.002 c 1.670834,-0.733536 3.185054,-1.821078 4.53125,-3.248047 a 0.53624669,0.53624669 0 0 0 0.002,-0.002 c 1.345994,-1.453674 2.356691,-3.078342 3.019532,-4.863281 v -0.002 c 0.675683,-1.798018 1.011718,-3.778518 1.011718,-5.929688 0,-4.188583 -1.34559,-7.746083 -4.015625,-10.5644528 C 91.17947,6.2635718 87.904919,4.8398437 84.126953,4.8398438 Z M -23.515625,5.484375 a 0.53624669,0.53624669 0 0 0 -0.537109,0.5371094 v 0.703125 a 0.53624669,0.53624669 0 0 0 0.537109,0.5371094 h 0.9375 c 0.524172,0 0.939395,0.072633 1.246094,0.1953124 a 0.53624669,0.53624669 0 0 0 0.01953,0.00781 c 0.334969,0.1188601 0.586359,0.2806055 0.783203,0.4863281 0.03585,0.039055 0.179794,0.3160371 0.259766,0.7988281 0.08015,0.4838588 0.123047,1.1631888 0.123047,2.017578 v 17.910156 c 0,0.905993 -0.06512,1.626973 -0.181641,2.142578 -0.116521,0.515606 -0.29106,0.805019 -0.410156,0.90625 -0.39987,0.33989 -0.986745,0.535157 -1.839844,0.535157 h -0.9375 a 0.53624669,0.53624669 0 0 0 -0.537109,0.537109 v 0.761719 a 0.53624669,0.53624669 0 0 0 0.537109,0.537109 h 21.1914062 a 0.53624669,0.53624669 0 0 0 0.5058594,-0.361328 L 0.58398438,26.802734 A 0.53624669,0.53624669 0 0 0 0.078125,26.089844 h -0.83984375 a 0.53624669,0.53624669 0 0 0 -0.46679685,0.273437 c -1.3004102,2.304687 -2.4028142,3.739859 -3.1054688,4.240235 -0.8398467,0.584109 -2.3140727,0.935546 -4.4160156,0.935546 h -4.667969 c -0.519155,0 -0.909965,-0.07258 -1.166015,-0.18164 -0.256051,-0.109059 -0.376445,-0.2301 -0.455078,-0.402344 a 0.53624669,0.53624669 0 0 0 -0.0078,-0.01758 c 0.0076,0.01527 -0.06355,-0.209677 -0.09375,-0.544922 -0.0302,-0.335245 -0.04492,-0.800185 -0.04492,-1.382812 v -8.564454 h 5.5175782 c 1.651049,0 2.6379144,0.341558 3.0351563,0.792969 a 0.53624669,0.53624669 0 0 0 0,0.002 c 0.2256162,0.254728 0.5855343,1.241016 0.7890625,2.81836 a 0.53624669,0.53624669 0 0 0 0.53125,0.46875 h 0.7617188 a 0.53624669,0.53624669 0 0 0 0.5371093,-0.53711 v -9.570312 a 0.53624669,0.53624669 0 0 0 -0.5371093,-0.53711 H -5.3125 a 0.53624669,0.53624669 0 0 0 -0.53125,0.466797 c -0.2026827,1.532788 -0.5564069,2.491892 -0.7871094,2.75586 -0.3945376,0.426532 -1.3876241,0.761719 -3.0371094,0.761719 H -15.185547 V 8.0429688 H -8.125 c 2.0807363,0 3.3272664,0.447319 3.8671875,1.1191406 0.052987,0.077991 0.2072971,0.4039335 0.3671875,0.9082026 a 0.53624669,0.53624669 0 0 0 0.00195,0.0039 c 0.1629002,0.501231 0.3566178,1.196001 0.5761719,2.074219 a 0.53624669,0.53624669 0 0 0 0.5195312,0.40625 h 0.8007813 a 0.53624669,0.53624669 0 0 0 0.5351563,-0.566407 L -1.7890625,5.9921875 A 0.53624669,0.53624669 0 0 0 -2.3242188,5.484375 Z m 27.7949219,0 A 0.53624669,0.53624669 0 0 0 3.7421875,6.0214844 v 0.703125 a 0.53624669,0.53624669 0 0 0 0.5371094,0.5371094 c 1.2305909,0 2.097155,0.2503656 2.6425781,0.6699218 0.3049487,0.2374014 0.6484375,1.1655216 0.6484375,2.8359374 v 17.988281 c 0,0.739801 -0.030956,1.351613 -0.091797,1.826172 a 0.53624669,0.53624669 0 0 0 -0.00195,0.01172 C 7.4297461,31.038505 7.3321545,31.321736 7.2714844,31.419922 6.8594711,31.97813 6.248523,32.261719 5.2363281,32.261719 H 4.2792969 a 0.53624669,0.53624669 0 0 0 -0.5371094,0.537109 v 0.761719 a 0.53624669,0.53624669 0 0 0 0.5371094,0.537109 h 9.5507811 a 0.53624669,0.53624669 0 0 0 0.53711,-0.537109 v -0.761719 a 0.53624669,0.53624669 0 0 0 -0.53711,-0.537109 h -0.9375 c -0.979576,0 -1.591239,-0.241262 -1.972656,-0.654297 -0.190413,-0.234199 -0.458984,-1.233612 -0.458984,-2.851563 V 12.830078 l 9.621093,20.955078 a 0.53624669,0.53624669 0 0 0 0.486328,0.3125 h 0.703125 a 0.53624669,0.53624669 0 0 0 0.488282,-0.314453 l 9.599609,-20.945312 v 15.917968 c 0,1.526306 -0.224516,2.498034 -0.333984,2.660157 -0.395374,0.555096 -1.017715,0.845703 -2.078125,0.845703 h -0.976563 a 0.53624669,0.53624669 0 0 0 -0.537109,0.537109 v 0.761719 a 0.53624669,0.53624669 0 0 0 0.537109,0.537109 h 11.757813 a 0.53624669,0.53624669 0 0 0 0.537109,-0.537109 v -0.761719 a 0.53624669,0.53624669 0 0 0 -0.537109,-0.537109 h -0.976563 c -1.002257,0 -1.596614,-0.243982 -1.933594,-0.646485 a 0.53624669,0.53624669 0 0 0 -0.01367,-0.01758 C 36.609385,31.384045 36.320312,30.391211 36.320312,28.755859 V 10.767578 c 0,-1.4573835 0.195693,-2.4020781 0.361329,-2.6835936 0.408006,-0.538564 1.031398,-0.8222656 2.070312,-0.8222656 h 0.976563 A 0.53624669,0.53624669 0 0 0 40.265625,6.7246094 V 6.0214844 A 0.53624669,0.53624669 0 0 0 39.728516,5.484375 H 31.896484 A 0.53624669,0.53624669 0 0 0 31.408203,5.7988281 L 22.048828,26.28125 12.539062,5.7949219 A 0.53624669,0.53624669 0 0 0 12.052734,5.484375 Z m 39.6113281,0 a 0.53624669,0.53624669 0 0 0 -0.537109,0.5371094 v 0.703125 a 0.53624669,0.53624669 0 0 0 0.537109,0.5371094 h 1.015625 c 0.471682,0 0.86333,0.064927 1.181641,0.1816406 0.308446,0.1130974 0.5482,0.281278 0.75,0.5234375 0.0652,0.080977 0.199144,0.3812722 0.279297,0.8710937 0.08053,0.4921329 0.123046,1.1667174 0.123046,2.0078124 v 17.832031 c 0,1.511843 -0.185938,2.493599 -0.316406,2.728516 -0.374332,0.56543 -0.96843,0.855469 -2.017578,0.855469 h -1.015625 a 0.53624669,0.53624669 0 0 0 -0.537109,0.537109 v 0.761719 a 0.53624669,0.53624669 0 0 0 0.537109,0.537109 h 11.757813 a 0.53624669,0.53624669 0 0 0 0.537109,-0.537109 v -0.761719 a 0.53624669,0.53624669 0 0 0 -0.537109,-0.537109 h -1.035157 c -0.97952,0 -1.540538,-0.252037 -1.875,-0.701172 a 0.53624669,0.53624669 0 0 0 -0.05078,-0.05859 c -0.06439,-0.0644 -0.215995,-0.340299 -0.322266,-0.808594 -5.31e-4,-0.0023 -0.0014,-0.0016 -0.002,-0.0039 -0.09231,-0.478658 -0.142578,-1.153193 -0.142578,-2.011719 v -7.082031 c 0.6363,0.04388 1.273468,0.08789 1.712891,0.117188 a 0.53624669,0.53624669 0 0 0 0.01172,0 c 0.589456,0.0262 1.014677,0.04102 1.292969,0.04102 3.296886,0.01303 5.82902,-0.611937 7.556641,-1.970703 1.74251,-1.360009 2.609375,-3.474908 2.609375,-6.164062 -10e-7,-2.491488 -1.159406,-4.6464812 -3.355469,-6.3242191 a 0.53624669,0.53624669 0 0 0 -0.0098,-0.00781 C 60.328415,6.0364677 57.637764,5.484375 53.949219,5.484375 Z m 58.363285,0 a 0.53624669,0.53624669 0 0 0 -0.53711,0.5371094 v 0.703125 a 0.53624669,0.53624669 0 0 0 0.53711,0.5371094 h 1.03515 c 0.86319,0 1.47896,0.2424828 1.96875,0.7167968 0.0547,0.078048 0.17721,0.3633374 0.25,0.84375 0.075,0.4949144 0.11524,1.1743512 0.11524,2.0234374 v 17.832031 c 0,0.77962 -0.0314,1.409564 -0.0918,1.875 -0.0602,0.463428 -0.16746,0.765606 -0.2168,0.845704 -0.37393,0.571671 -0.9704,0.863281 -2.02539,0.863281 h -1.03515 a 0.53624669,0.53624669 0 0 0 -0.53711,0.537109 v 0.761719 a 0.53624669,0.53624669 0 0 0 0.53711,0.537109 h 11.8164 a 0.53624669,0.53624669 0 0 0 0.53711,-0.537109 v -0.761719 a 0.53624669,0.53624669 0 0 0 -0.53711,-0.537109 h -1.09375 c -0.97951,0 -1.54053,-0.252037 -1.875,-0.701172 a 0.53624669,0.53624669 0 0 0 -0.0391,-0.04687 c -0.0753,-0.08027 -0.22711,-0.374336 -0.33398,-0.857422 -0.0931,-0.480361 -0.14454,-1.14408 -0.14454,-1.978516 v -7.5 c 0.52615,0.04437 1.15536,0.05857 2.11719,0.0059 L 121.87891,33.875 a 0.53624669,0.53624669 0 0 0 0.43359,0.222656 h 7.36328 a 0.53624669,0.53624669 0 0 0 0.53711,-0.537109 v -0.761719 a 0.53624669,0.53624669 0 0 0 -0.48437,-0.533203 c -1.50015,-0.150015 -2.66721,-0.528769 -3.52149,-1.101563 -6.6e-4,-4.43e-4 -0.001,-0.0015 -0.002,-0.002 -0.42635,-0.296975 -0.9072,-0.721977 -1.4336,-1.273437 -0.52457,-0.562557 -1.0894,-1.264806 -1.68945,-2.107422 a 0.53624669,0.53624669 0 0 0 -0.002,-0.002 l -5.24805,-7.347656 c 1.94089,-0.54706 3.5384,-1.3253 4.61914,-2.458985 1.22567,-1.285715 1.84375,-2.961774 1.84375,-4.919922 0,-1.646094 -0.52381,-3.1326022 -1.54687,-4.380859 l -0.002,-0.00195 C 122.2698,8.0820144 121.7079,7.5772432 121.06641,7.1582031 120.43671,6.7384083 119.73415,6.4043189 118.96289,6.15625 h -0.002 c -0.7333,-0.2395522 -1.64457,-0.4051714 -2.75,-0.5117188 -1.10468,-0.106475 -2.42137,-0.1601562 -3.95703,-0.1601562 z m 29.92382,0 a 0.53624669,0.53624669 0 0 0 -0.53711,0.5371094 v 0.703125 a 0.53624669,0.53624669 0 0 0 0.53711,0.5371094 c 1.22386,0 2.17351,0.3570508 2.95704,1.0761718 0.20316,0.2524246 0.40183,0.5075947 0.59375,0.7714844 a 0.53624669,0.53624669 0 0 0 0.0176,0.023437 c 0.18001,0.2223653 0.35233,0.4438533 0.52344,0.6660156 V 28.755859 c 0,0.776691 -0.0381,1.398477 -0.10937,1.84961 -0.0712,0.451133 -0.19473,0.728275 -0.24024,0.785156 a 0.53624669,0.53624669 0 0 0 -0.0391,0.05273 c -0.32774,0.530159 -0.9182,0.81836 -2.02344,0.81836 h -0.97656 a 0.53624669,0.53624669 0 0 0 -0.53711,0.537109 v 0.761719 a 0.53624669,0.53624669 0 0 0 0.53711,0.537109 h 9.60937 a 0.53624669,0.53624669 0 0 0 0.53711,-0.537109 v -0.761719 a 0.53624669,0.53624669 0 0 0 -0.53711,-0.537109 h -0.95703 c -1.04447,0 -1.65991,-0.249602 -1.99218,-0.646485 a 0.53624669,0.53624669 0 0 0 -0.002,-0.0039 c -0.15864,-0.185994 -0.4375,-1.202632 -0.4375,-2.855469 V 13.320312 l 17.27149,21.029297 a 0.53624669,0.53624669 0 0 0 0.41406,0.197266 h 0.72266 a 0.53624669,0.53624669 0 0 0 0.53711,-0.537109 V 10.767578 c 0,-1.5282451 0.22641,-2.5020817 0.35156,-2.6816405 a 0.53624669,0.53624669 0 0 0 0.0137,-0.021484 c 0.32526,-0.5165924 0.92018,-0.8027344 2.02734,-0.8027343 h 0.95703 a 0.53624669,0.53624669 0 0 0 0.53711,-0.5371094 V 6.0214844 A 0.53624669,0.53624669 0 0 0 161.39648,5.484375 h -9.58984 a 0.53624669,0.53624669 0 0 0 -0.53711,0.5371094 v 0.703125 a 0.53624669,0.53624669 0 0 0 0.53711,0.5371094 h 0.91797 c 0.96745,0 1.58624,0.2523397 2.00195,0.71875 a 0.53624669,0.53624669 0 0 0 0.0215,0.021484 c 0.0573,0.057346 0.20295,0.3262309 0.29101,0.7988281 0.0881,0.4725973 0.13672,1.1343986 0.13672,1.9667968 V 25.158203 L 139.29297,5.6816406 A 0.53624669,0.53624669 0 0 0 138.87695,5.484375 Z m 33.43946,0 a 0.53624669,0.53624669 0 0 0 -0.53711,0.5371094 v 0.703125 a 0.53624669,0.53624669 0 0 0 0.53711,0.5371094 h 0.99609 c 0.97885,0 1.61661,0.2818761 2.08399,0.8554687 a 0.53624669,0.53624669 0 0 0 0.006,0.00781 c 0.003,0.00413 0.1409,0.2839684 0.2129,0.7519531 0.0712,0.4628773 0.10937,1.1256229 0.10937,1.9687499 v 17.832031 c 0,0.822526 -0.0406,1.481583 -0.11523,1.958985 -0.0742,0.475033 -0.20271,0.763811 -0.25196,0.826172 -0.43529,0.527254 -1.06101,0.798828 -2.04492,0.798828 h -0.99609 a 0.53624669,0.53624669 0 0 0 -0.53711,0.537109 v 0.761719 a 0.53624669,0.53624669 0 0 0 0.53711,0.537109 h 11.8164 a 0.53624669,0.53624669 0 0 0 0.53711,-0.537109 v -0.761719 a 0.53624669,0.53624669 0 0 0 -0.53711,-0.537109 h -1.01562 c -0.19467,0 -0.39734,-0.02135 -0.61133,-0.06641 -0.20332,-0.0428 -0.41036,-0.112147 -0.62305,-0.21289 a 0.53624669,0.53624669 0 0 0 -0.0332,-0.01367 c -0.43863,-0.173144 -0.68587,-0.35978 -0.77344,-0.466797 -0.15341,-0.247461 -0.37109,-1.251299 -0.37109,-2.824219 V 10.845703 c 0,-1.5740976 0.24569,-2.567147 0.41992,-2.8007811 1.7e-4,-2.328e-4 -1.7e-4,-0.00172 0,-0.00195 0.39371,-0.5119251 0.99548,-0.7812501 1.99219,-0.78125 h 1.01562 A 0.53624669,0.53624669 0 0 0 177.9707,6.7246094 V 6.0214844 A 0.53624669,0.53624669 0 0 0 177.43359,5.484375 Z m 15.97851,0 a 0.53624669,0.53624669 0 0 0 -0.53711,0.5371094 v 0.703125 a 0.53624669,0.53624669 0 0 0 0.53711,0.5371094 h 0.625 c 1.16663,0 1.75669,0.3060062 2.06641,0.8867187 a 0.53624669,0.53624669 0 0 0 0.008,0.013672 c 0.10304,0.1803448 0.20606,0.5045545 0.26563,0.9570312 a 0.53624669,0.53624669 0 0 0 0.002,0.013672 c 0.072,0.4561452 0.10937,1.0296235 0.10938,1.7128905 v 10.820313 c 0,3.760829 0.36481,6.4458 1.20898,8.148437 a 0.53624669,0.53624669 0 0 0 0.002,0.0039 c 1.66391,3.286221 5.1439,4.923828 10.12696,4.923829 0.998,0 1.92167,-0.06024 2.77148,-0.181641 0.85255,-0.121793 1.6321,-0.313229 2.33789,-0.576172 a 0.53624669,0.53624669 0 0 0 0.002,0 c 0.6319,-0.238714 1.24068,-0.568947 1.82227,-0.984375 a 0.53624669,0.53624669 0 0 0 0.002,0 c 0.58649,-0.422819 1.14905,-0.912999 1.68946,-1.466797 1.766,-1.809073 2.55664,-4.93118 2.55664,-9.320312 V 11.021484 c 0,-0.763377 0.0392,-1.3660047 0.10937,-1.787109 0.0714,-0.4282439 0.18462,-0.6997373 0.23438,-0.7675781 a 0.53624669,0.53624669 0 0 0 0.004,-0.00391 c 0.29261,-0.4096542 0.6028,-0.7083489 0.92383,-0.9121094 0.31268,-0.1903635 0.67245,-0.2890625 1.12109,-0.2890624 h 1.03516 a 0.53624669,0.53624669 0 0 0 0.53711,-0.5371094 V 6.0214844 A 0.53624669,0.53624669 0 0 0 210.61914,5.484375 h -9.76562 a 0.53624669,0.53624669 0 0 0 -0.53711,0.5371094 v 0.703125 a 0.53624669,0.53624669 0 0 0 0.53711,0.5371094 h 1.03515 c 0.95319,0 1.55575,0.249168 1.95899,0.7128906 a 0.53624669,0.53624669 0 0 0 0.008,0.00781 c 0.0647,0.071386 0.20707,0.3628366 0.29297,0.8515625 0.0859,0.4887259 0.13281,1.1653189 0.13281,2.0117186 v 11.171875 c 0,4.045391 -0.6948,6.574028 -1.76367,7.578125 a 0.53624669,0.53624669 0 0 0 -0.004,0.0039 c -0.83648,0.799572 -1.75957,1.38004 -2.7832,1.757813 -1.02828,0.379479 -2.16749,0.572266 -3.42774,0.572266 -2.9222,0 -4.73139,-1.012449 -5.74218,-3.123047 -4.4e-4,-9.51e-4 4.3e-4,-0.003 0,-0.0039 -0.58297,-1.274891 -0.90821,-3.24891 -0.90821,-5.886718 V 10.845703 c 0,-1.4420415 0.21149,-2.3892093 0.4375,-2.7324218 a 0.53624669,0.53624669 0 0 0 0.0117,-0.017578 c 0.35677,-0.5876325 0.80829,-0.8339844 1.5918,-0.8339843 h 1.03516 a 0.53624669,0.53624669 0 0 0 0.5371,-0.5371094 v -0.703125 a 0.53624669,0.53624669 0 0 0 -0.5371,-0.5371094 z m 32.77539,0 a 0.53624669,0.53624669 0 0 0 -0.53711,0.5371094 v 0.703125 a 0.53624669,0.53624669 0 0 0 0.53711,0.5371094 c 1.23059,0 2.09716,0.2503679 2.64258,0.6699218 0.30495,0.2374025 0.64844,1.1655219 0.64844,2.8359374 v 17.988281 c 0,0.739784 -0.031,1.351559 -0.0918,1.826172 a 0.53624669,0.53624669 0 0 0 -0.002,0.01172 c -0.0468,0.444751 -0.14441,0.727983 -0.20508,0.826172 -0.41201,0.558207 -1.02295,0.841797 -2.03516,0.841797 h -0.95703 a 0.53624669,0.53624669 0 0 0 -0.53711,0.537109 v 0.761719 a 0.53624669,0.53624669 0 0 0 0.53711,0.537109 h 9.55079 a 0.53624669,0.53624669 0 0 0 0.5371,-0.537109 v -0.761719 a 0.53624669,0.53624669 0 0 0 -0.5371,-0.537109 h -0.9375 c -0.97958,0 -1.59123,-0.241257 -1.97266,-0.654297 -0.19041,-0.234198 -0.45898,-1.23361 -0.45899,-2.851563 V 12.830078 l 9.6211,20.955078 a 0.53624669,0.53624669 0 0 0 0.48633,0.3125 h 0.70312 a 0.53624669,0.53624669 0 0 0 0.48828,-0.314453 l 9.59961,-20.945312 v 15.917968 c 0,1.526305 -0.22451,2.498034 -0.33398,2.660157 -0.39537,0.555095 -1.01771,0.845703 -2.07813,0.845703 h -0.97656 a 0.53624669,0.53624669 0 0 0 -0.53711,0.537109 v 0.761719 a 0.53624669,0.53624669 0 0 0 0.53711,0.537109 h 11.75781 a 0.53624669,0.53624669 0 0 0 0.53711,-0.537109 v -0.761719 a 0.53624669,0.53624669 0 0 0 -0.53711,-0.537109 h -0.97656 c -1.00226,0 -1.59661,-0.243982 -1.93359,-0.646485 a 0.53624669,0.53624669 0 0 0 -0.0137,-0.01758 c -0.1953,-0.21361 -0.48437,-1.206444 -0.48437,-2.841797 V 10.767578 c 0,-1.4573835 0.19569,-2.4020784 0.36133,-2.6835936 0.408,-0.5385612 1.0314,-0.8222656 2.07031,-0.8222656 h 0.97656 a 0.53624669,0.53624669 0 0 0 0.53711,-0.5371094 V 6.0214844 A 0.53624669,0.53624669 0 0 0 249.82031,5.484375 h -7.83203 A 0.53624669,0.53624669 0 0 0 241.5,5.7988281 L 232.14062,26.28125 222.63086,5.7949219 A 0.53624669,0.53624669 0 0 0 222.14453,5.484375 Z M 83.671875,7.3398438 h 0.0039 c 2.901456,0.032097 4.954931,1.0643615 6.365235,3.1523442 1.410978,2.08898 2.148727,5.306775 2.123046,9.666015 -0.03867,4.109371 -0.868871,7.174772 -2.412109,9.232422 -0.73454,0.966469 -1.592975,1.673252 -2.591797,2.142578 -1.000583,0.470153 -2.131084,0.701547 -3.416015,0.689453 -2.618816,-0.03688 -4.5691,-1.142716 -6.041016,-3.443359 -1.436832,-2.241953 -2.179687,-5.293461 -2.179687,-9.183594 0,-1.969121 0.184418,-3.710405 0.548828,-5.220703 l 0.002,-0.0059 C 76.45174,12.861568 77.001144,11.569208 77.714844,10.484375 79.1807,8.3410229 81.101869,7.3286383 83.671875,7.3398438 Z M 113.26953,8.0625 c 1.6728,0.039113 2.94436,0.5400967 3.91992,1.5039062 a 0.53624669,0.53624669 0 0 0 0.004,0.00586 c 0.97303,0.9378574 1.45703,2.1588834 1.45703,3.7929684 0,1.695253 -0.56947,2.949037 -1.75586,3.921875 -1.28022,1.029259 -3.15204,1.576172 -5.67578,1.576172 h -0.63477 V 8.359375 c 0.51977,-0.08375 1.03721,-0.1648341 1.42969,-0.203125 a 0.53624669,0.53624669 0 0 0 0.0117,0 c 0.52034,-0.063455 0.93997,-0.09375 1.24414,-0.09375 z m -58.910155,0.097656 c 1.764758,0 3.041856,0.5734241 3.998047,1.7539063 a 0.53624669,0.53624669 0 0 0 0.0059,0.00781 c 0.451212,0.53433 0.788755,1.135796 1.015625,1.816406 a 0.53624669,0.53624669 0 0 0 0,0.002 c 0.224947,0.663005 0.334542,1.414582 0.322266,2.261719 l 0.002,-0.0039 c -0.03682,1.63226 -0.508769,2.898673 -1.40625,3.890625 a 0.53624669,0.53624669 0 0 0 -0.0039,0.0039 c -0.88739,1.005709 -1.937952,1.478516 -3.289063,1.478516 -0.534106,0 -1.075239,-0.01842 -1.623047,-0.05664 -0.382265,-0.03647 -0.771342,-0.08015 -1.160156,-0.123047 V 8.4589844 C 52.619789,8.3792923 53.026828,8.2953549 53.326172,8.25 l -0.002,0.00195 c 0.425489,-0.062572 0.774532,-0.091797 1.035156,-0.091797 z"
       transform="matrix(1,0,0,1.2869035,0,-6.7098433)" />
  </g>
</svg>
