<?xml version="1.0" encoding="UTF-8" standalone="no"?>
<svg
   xmlns:dc="http://purl.org/dc/elements/1.1/"
   xmlns:cc="http://creativecommons.org/ns#"
   xmlns:rdf="http://www.w3.org/1999/02/22-rdf-syntax-ns#"
   xmlns:svg="http://www.w3.org/2000/svg"
   xmlns="http://www.w3.org/2000/svg"
   xmlns:sodipodi="http://sodipodi.sourceforge.net/DTD/sodipodi-0.dtd"
   xmlns:inkscape="http://www.inkscape.org/namespaces/inkscape"
   version="1.1"
   width="200"
   height="38"
   viewBox="0 0 200 38"
   preserveAspectRatio="xMidYMin meet"
   class="logo-svg"
   id="svg5117"
   sodipodi:docname="logo.svg"
   inkscape:version="0.92.1 r">
  <path
     sodipodi:type="inkscape:offset"
     inkscape:radius="-0.67896128"
     inkscape:original="M 81.65625 3.9414062 C 77.476265 3.9414064 73.840694 5.6817181 71.107422 8.3046875 C 70.770599 7.849564 70.411668 7.40036 69.945312 6.9980469 C 67.480066 4.8713382 64.247581 4.0292969 60.892578 4.0292969 L 52.708984 4.0292969 C 51.62068 4.0293798 50.705085 4.4527489 49.984375 5.0878906 C 49.263665 4.4527489 48.34807 4.0293798 47.259766 4.0292969 L 43.181641 4.0292969 C 41.397743 4.0285814 39.782934 5.0264005 38.990234 6.6269531 A 1.5928783 1.5928783 0 0 0 38.990234 6.6289062 A 1.5928783 1.5928783 0 0 0 38.984375 6.640625 L 36.425781 11.814453 L 33.847656 6.6230469 C 33.054171 5.0254161 31.442365 4.0294836 29.660156 4.0292969 L 25.552734 4.0292969 C 24.655242 4.0293653 23.912031 4.3616794 23.261719 4.8027344 C 22.610625 4.3613711 21.866557 4.0293652 20.96875 4.0292969 L 6.3027344 4.0292969 C 3.7231462 4.029493 1.6291024 6.1235368 1.6289062 8.703125 L 1.6289062 29.238281 C 1.6291018 31.81787 3.7231454 33.911914 6.3027344 33.912109 L 21.322266 33.912109 C 22.110488 33.912051 22.80337 33.652907 23.4375 33.300781 C 24.07163 33.652907 24.764514 33.91205 25.552734 33.912109 L 28.808594 33.912109 C 30.709373 33.911965 32.332194 32.765418 33.0625 31.134766 C 33.739213 31.506291 34.484639 31.769466 35.291016 31.769531 L 37.550781 31.769531 C 38.365561 31.769466 39.120976 31.507823 39.802734 31.128906 C 40.531528 32.763526 42.159116 33.911969 44.0625 33.912109 L 47.259766 33.912109 C 48.348071 33.912028 49.263665 33.488658 49.984375 32.853516 C 50.705085 33.488658 51.620679 33.912028 52.708984 33.912109 L 56.169922 33.912109 C 58.74951 33.911913 60.843555 31.81787 60.84375 29.238281 L 60.84375 27.722656 L 60.892578 27.722656 C 63.540556 27.722656 65.973498 26.941974 68.119141 25.65625 C 70.662264 30.583327 75.641951 34.058594 81.65625 34.058594 C 85.572537 34.058594 89.075791 32.571542 91.773438 30.216797 C 92.23614 32.31128 94.017429 33.911939 96.25 33.912109 L 99.712891 33.912109 C 102.0396 33.911929 103.88556 32.178214 104.24219 29.951172 L 105.27148 31.654297 A 1.5928783 1.5928783 0 0 0 105.27148 31.65625 C 106.12243 33.064774 107.63093 33.912829 109.27539 33.912109 L 113.20508 33.912109 C 114.01473 33.911963 114.69252 33.637138 115.29883 33.28125 C 115.94213 33.645752 116.64795 33.912048 117.44922 33.912109 L 120.91016 33.912109 C 123.48974 33.911913 125.58379 31.817872 125.58398 29.238281 L 125.58398 28.642578 L 128.09766 32.025391 C 128.98369 33.217826 130.36759 33.911322 131.85156 33.912109 L 135.25391 33.912109 C 136.34333 33.912025 137.2594 33.487907 137.98047 32.851562 C 138.70218 33.488156 139.61925 33.912025 140.70898 33.912109 L 144.16992 33.912109 C 146.25975 33.91195 147.96694 32.512829 148.56445 30.619141 C 151.10311 32.947711 154.51824 34.058594 158.125 34.058594 C 161.69948 34.058594 165.07925 32.960035 167.60547 30.669922 C 168.21781 32.538406 169.91839 33.911951 171.99023 33.912109 L 175.24609 33.912109 C 177.14688 33.911974 178.7697 32.765426 179.5 31.134766 C 180.17671 31.506292 180.92214 31.769469 181.72852 31.769531 L 183.98828 31.769531 C 184.80306 31.769469 185.55847 31.507823 186.24023 31.128906 C 186.96903 32.763524 188.59662 33.911967 190.5 33.912109 L 193.69727 33.912109 C 196.27685 33.911913 198.37089 31.817866 198.37109 29.238281 L 198.37109 8.703125 C 198.37089 6.1235408 196.27685 4.0294962 193.69727 4.0292969 L 189.61914 4.0292969 C 187.83525 4.0285823 186.22044 5.0264032 185.42773 6.6269531 A 1.5928783 1.5928783 0 0 0 185.42773 6.6289062 A 1.5928783 1.5928783 0 0 0 185.42188 6.640625 L 182.86328 11.814453 L 180.28516 6.6230469 C 179.49166 5.0254253 177.87985 4.029491 176.09766 4.0292969 L 171.99023 4.0292969 C 170.99542 4.0293737 170.19009 4.4232721 169.51562 4.9589844 C 168.84205 4.4240207 168.03691 4.0293736 167.04297 4.0292969 L 163.58203 4.0292969 C 161.00244 4.0294962 158.90839 6.1235348 158.9082 8.703125 L 158.9082 20.730469 C 158.9082 21.634146 158.86994 21.45342 158.79688 21.527344 C 158.69902 21.626338 158.98163 21.601562 158.1543 21.601562 C 157.33325 21.601562 157.52981 21.584169 157.43359 21.488281 C 157.32422 21.379275 157.31445 21.599099 157.31445 20.730469 L 157.31445 8.703125 C 157.31425 6.1235452 155.22022 4.0294829 152.64062 4.0292969 L 149.17969 4.0292969 C 148.17082 4.0293748 147.35464 4.4319663 146.67578 4.9824219 C 145.99639 4.4320969 145.17865 4.0293749 144.16992 4.0292969 L 140.70898 4.0292969 C 139.61925 4.0293811 138.70218 4.4532503 137.98047 5.0898438 C 137.2594 4.4534988 136.34333 4.029381 135.25391 4.0292969 L 131.85156 4.0292969 C 129.27198 4.0294962 127.17793 6.1235348 127.17773 8.703125 L 127.17773 9.3652344 L 124.60156 5.9101562 C 123.71526 4.7204675 122.33381 4.0289691 120.85156 4.0292969 L 117.44922 4.0292969 C 115.60262 4.0294395 114.03852 5.1252917 113.2793 6.6816406 C 110.84503 4.8114608 107.78511 4.0292969 104.58203 4.0292969 L 96.25 4.0292969 C 94.005711 4.029468 92.217836 5.6468228 91.767578 7.7578125 C 89.067597 5.4140559 85.564581 3.9414062 81.65625 3.9414062 z M 81.685547 16.398438 C 83.351925 16.398438 84.316406 17.312992 84.316406 18.970703 C 84.316406 20.605832 83.274369 21.601562 81.685547 21.601562 C 80.131104 21.601562 78.966797 20.489025 78.966797 18.970703 C 78.966797 17.381146 79.983307 16.398438 81.685547 16.398438 z "
     style="font-style:normal;font-variant:normal;font-weight:normal;font-stretch:normal;font-size:29.33333397px;line-height:25px;font-family:Montserrat;-inkscape-font-specification:Montserrat;letter-spacing:0px;word-spacing:0px;fill:#fafafa;fill-opacity:1;stroke:none;stroke-width:1px;stroke-linecap:butt;stroke-linejoin:miter;stroke-opacity:1"
     id="path5686-7"
     d="m 81.65625,4.6210938 c -3.991531,1e-7 -7.453617,1.6552333 -10.078125,4.1738281 A 0.67902917,0.67902917 0 0 1 70.5625,8.7089844 C 70.235803,8.2675431 69.909504,7.8633026 69.501953,7.5117188 67.19186,5.5188568 64.133977,4.7089844 60.892578,4.7089844 h -8.183594 c -0.912248,6.95e-5 -1.656394,0.3431679 -2.27539,0.8886718 a 0.67902917,0.67902917 0 0 1 -0.898438,0 C 48.91616,5.0521523 48.172014,4.7090539 47.259766,4.7089844 h -4.078125 c -1.530045,-6.137e-4 -2.902046,0.8450982 -3.582032,2.2167968 -2.24e-4,4.534e-4 2.25e-4,0.0015 0,0.00195 a 0.67902917,0.67902917 0 0 1 -0.0039,0.00781 c -0.0011,0.00224 -8.42e-4,0.00361 -0.002,0.00586 l -2.558594,5.1738278 a 0.67902917,0.67902917 0 0 1 -1.216797,0.002 L 33.240234,6.9257812 C 32.559684,5.5555366 31.189464,4.7091446 29.660156,4.7089844 h -4.107422 c -0.729921,5.56e-5 -1.327608,0.2611539 -1.910156,0.65625 a 0.67902917,0.67902917 0 0 1 -0.761719,0 C 22.297731,4.9699434 21.699201,4.7090399 20.96875,4.7089844 H 6.3027344 C 4.0905605,4.7091525 2.308762,6.4909511 2.3085938,8.703125 v 20.535156 c 1.677e-4,2.212175 1.781966,3.993974 3.9941406,3.994141 H 21.322266 c 0.639436,-4.7e-5 1.210936,-0.206532 1.785156,-0.525391 a 0.67902917,0.67902917 0 0 1 0.660156,0 c 0.574219,0.318858 1.145721,0.525343 1.785156,0.525391 h 3.25586 c 1.627776,-1.23e-4 3.009295,-0.978429 3.634765,-2.375 a 0.67902917,0.67902917 0 0 1 0.945313,-0.31836 c 0.610902,0.335394 1.24366,0.550729 1.902344,0.550782 h 2.259765 c 0.669461,-5.4e-5 1.310263,-0.214757 1.921875,-0.554688 a 0.67902917,0.67902917 0 0 1 0.951172,0.316406 c 0.623863,1.399268 2.008369,2.38074 3.638672,2.38086 h 3.197266 c 0.912248,-6.8e-5 1.656394,-0.343167 2.27539,-0.888672 a 0.67902917,0.67902917 0 0 1 0.898438,0 c 0.618996,0.545505 1.363142,0.888604 2.27539,0.888672 h 3.460938 c 2.212174,-1.68e-4 3.993973,-1.781966 3.99414,-3.994141 v -1.515625 a 0.67902917,0.67902917 0 0 1 0.679688,-0.679687 h 0.04883 c 2.51453,0 4.821478,-0.737057 6.876953,-1.96875 a 0.67902917,0.67902917 0 0 1 0.953125,0.271484 c 2.437121,4.721708 7.180846,8.033203 12.933594,8.033203 3.744415,0 7.084977,-1.417459 9.669922,-3.673828 a 0.67902917,0.67902917 0 0 1 1.109375,0.365234 c 0.399243,1.807229 1.906379,3.161965 3.814453,3.16211 h 3.462891 c 1.989459,-1.54e-4 3.551889,-1.46851 3.859379,-3.388672 a 0.67902917,0.67902917 0 0 1 1.25195,-0.244141 l 1.0293,1.703125 a 0.67902917,0.67902917 0 0 1 0,0.002 c 4.9e-4,8.2e-4 0.001,0.0011 0.002,0.002 0.72993,1.206307 2.01003,1.926398 3.41992,1.925781 h 3.92969 c 0.65607,-1.18e-4 1.2026,-0.215799 1.75,-0.53711 a 0.67902917,0.67902917 0 0 1 0.67773,-0.0039 c 0.58138,0.329415 1.16554,0.540966 1.81641,0.541016 h 3.46094 c 2.21216,-1.68e-4 3.99397,-1.781966 3.99414,-3.994141 v -0.595703 a 0.67902917,0.67902917 0 0 1 1.22461,-0.404297 l 2.51367,3.382813 c 0.75933,1.021922 1.93632,1.610653 3.20898,1.611328 h 3.40235 c 0.91323,-7.1e-5 1.65796,-0.34402 2.27734,-0.890625 a 0.67902917,0.67902917 0 0 1 0.89844,0 c 0.61985,0.546749 1.3656,0.890554 2.27929,0.890625 h 3.46094 c 1.78682,-1.36e-4 3.23138,-1.187069 3.7461,-2.81836 a 0.67902917,0.67902917 0 0 1 1.10742,-0.294921 c 2.3944,2.196247 5.63421,3.259765 9.10156,3.259765 3.43537,0 6.64238,-1.0526 9.02539,-3.21289 a 0.67902917,0.67902917 0 0 1 1.09961,0.292968 c 0.52715,1.608546 1.96845,2.773303 3.74023,2.773438 h 3.25586 c 1.62779,-1.16e-4 3.0093,-0.978422 3.63477,-2.375 a 0.67902917,0.67902917 0 0 1 0.94531,-0.31836 c 0.6109,0.335394 1.24366,0.550731 1.90235,0.550782 h 2.25976 c 0.66946,-5.1e-5 1.31026,-0.214755 1.92188,-0.554688 a 0.67902917,0.67902917 0 0 1 0.94922,0.316406 c 0.62386,1.399268 2.01032,2.380738 3.64062,2.38086 h 3.19727 c 2.21216,-1.68e-4 3.99396,-1.781969 3.99414,-3.994141 V 8.703125 c -1.8e-4,-2.2121705 -1.78198,-3.9939697 -3.99414,-3.9941406 h -4.07813 c -1.53003,-6.129e-4 -2.90204,0.845098 -3.58203,2.2167968 -2.3e-4,4.534e-4 2.2e-4,0.0015 0,0.00195 a 0.67902917,0.67902917 0 0 1 -0.004,0.00781 c -0.001,0.00224 -8.4e-4,0.00361 -0.002,0.00586 l -2.55859,5.1738278 a 0.67902917,0.67902917 0 0 1 -1.2168,0.002 l -2.57813,-5.1914068 c -0.68056,-1.3702393 -2.05079,-2.2166303 -3.58007,-2.2167968 h -4.10743 c -0.81561,6.29e-5 -1.45745,0.3084346 -2.05273,0.78125 a 0.67902917,0.67902917 0 0 1 -0.84375,0 c -0.59457,-0.472223 -1.23654,-0.7811872 -2.05078,-0.78125 h -3.46094 c -2.21218,1.709e-4 -3.99398,1.7819664 -3.99414,3.9941406 v 12.027344 c 0,0.46142 0.0148,0.607067 -0.0488,0.86914 -0.0159,0.06552 -0.0395,0.150869 -0.10547,0.251953 -0.0288,0.04411 -0.0739,0.06652 -0.11523,0.105469 -0.0194,0.03345 0.005,0.03101 -0.0234,0.06641 -0.0497,0.06082 -0.0712,0.03224 -0.11914,0.06641 0.001,-7.22e-4 -0.003,7.55e-4 -0.002,0 -0.001,6.64e-4 -0.003,0.0033 -0.004,0.0039 -0.13093,0.09054 -0.27598,0.172525 -0.32812,0.179688 -0.14427,0.01982 -0.16455,0.01056 -0.25782,0.0098 -0.0933,-7.92e-4 -0.22624,-0.002 -0.42968,-0.002 -0.41532,0 -0.51316,0.02972 -0.79688,-0.04102 -0.14186,-0.03537 -0.43202,-0.275436 -0.48633,-0.378906 -0.0476,-0.09073 0.0172,0.02377 0.0742,0.09375 -0.0494,-0.0364 -0.0915,-0.05232 -0.13672,-0.111328 -0.0837,-0.109146 -0.11918,-0.217837 -0.13671,-0.291016 -0.0701,-0.292715 -0.0371,-0.385405 -0.0371,-0.822265 V 8.703125 c -1.8e-4,-2.2121672 -1.78196,-3.9939811 -3.99415,-3.9941406 h -3.46093 c -0.82827,6.39e-5 -1.47831,0.3159998 -2.07617,0.8007812 a 0.67902917,0.67902917 0 0 1 -0.85547,0 c -0.59822,-0.4845729 -1.25008,-0.8007172 -2.07813,-0.8007812 h -3.46094 c -0.91369,7.06e-5 -1.65944,0.3438758 -2.27929,0.890625 a 0.67902917,0.67902917 0 0 1 -0.89844,0 c -0.61938,-0.5466052 -1.36411,-0.8905545 -2.27734,-0.890625 h -3.40235 c -2.21216,1.709e-4 -3.99397,1.781965 -3.99414,3.9941406 v 0.6621094 a 0.67902917,0.67902917 0 0 1 -1.22461,0.40625 l -2.57617,-3.4550782 c -0.75967,-1.019712 -1.93409,-1.6077029 -3.20508,-1.6074218 h -3.40234 c -1.57801,1.218e-4 -2.90737,0.9305609 -3.56055,2.2695312 a 0.67902917,0.67902917 0 0 1 -1.02344,0.2421875 c -2.28881,-1.7584315 -5.19065,-2.5117187 -8.2832,-2.5117187 H 96.25 c -1.918119,1.462e-4 -3.429832,1.3698331 -3.818359,3.1914062 A 0.67902917,0.67902917 0 0 1 91.322266,8.2714844 C 88.735504,6.0260094 85.394027,4.6210937 81.65625,4.6210938 Z m 77.51953,17.4687502 c -0.10677,0.06625 0.10965,-0.05872 0.11133,-0.103516 -0.0408,0.03489 -0.0785,0.08501 -0.11133,0.103516 z M 81.685547,15.71875 c 0.9574,0 1.810223,0.273703 2.412109,0.857422 0.601886,0.583719 0.898438,1.433999 0.898438,2.394531 0,0.961794 -0.320499,1.818316 -0.921875,2.412109 -0.601376,0.593794 -1.452424,0.898438 -2.388672,0.898438 -1.878405,0 -3.398438,-1.445123 -3.398438,-3.310547 0,-0.939509 0.318853,-1.78993 0.933594,-2.375 0.614741,-0.58507 1.483068,-0.876953 2.464844,-0.876953 z"
     transform="matrix(0.97804789,-0.05079254,-0.12202859,0.99862953,7.409668,5.1052924)" />
  <metadata
     id="metadata5121">
    <rdf:RDF>
      <cc:Work
         rdf:about="">
        <dc:format>image/svg+xml</dc:format>
        <dc:type
           rdf:resource="http://purl.org/dc/dcmitype/StillImage" />
        <dc:title></dc:title>
      </cc:Work>
    </rdf:RDF>
  </metadata>
  <sodipodi:namedview
     pagecolor="#ffffff"
     bordercolor="#666666"
     borderopacity="1"
     objecttolerance="10"
     gridtolerance="10"
     guidetolerance="10"
     inkscape:pageopacity="0"
     inkscape:pageshadow="2"
     inkscape:window-width="3200"
     inkscape:window-height="1605"
     id="namedview5119"
     showgrid="false"
     inkscape:pagecheckerboard="true"
     inkscape:zoom="8.79"
     inkscape:cx="109.53139"
     inkscape:cy="19"
     inkscape:window-x="0"
     inkscape:window-y="55"
     inkscape:window-maximized="1"
     inkscape:current-layer="svg5117" />
  <defs
     id="defs5093">
    <linearGradient
       id="modern-v1"
       x1="151.03"
       y1="364.9"
       x2="148.98"
       y2="403.46"
       gradientUnits="userSpaceOnUse">
      <stop
         offset="0%"
         style="stop-color:rgb(255,255,255);stop-opacity:1"
         id="stop5081" />
      <stop
         offset="100%"
         style="stop-color:rgb(155,221,249);stop-opacity:1"
         id="stop5083" />
    </linearGradient>
    <linearGradient
       id="modern-v2"
       x1="0%"
       y1="0%"
       x2="100%"
       y2="0%"
       gradientUnits="userSpaceOnUse">
      <stop
         offset="42%"
         style="stop-color:rgb( 72, 99,156);stop-opacity:1"
         id="stop5086" />
      <stop
         offset="70%"
         style="stop-color:rgb(112,139,255);stop-opacity:1"
         id="stop5088" />
      <stop
         offset="90%"
         style="stop-color:rgb( 72, 99,156);stop-opacity:1"
         id="stop5090" />
    </linearGradient>
  </defs>
  <!--  <g fill="url(#modern-v1)" stroke="#addbf5"> -->
  <g
     id="g5699"
     style="fill:#d20000;fill-opacity:1"
     transform="matrix(0.97804789,-0.05079254,-0.12202859,0.99862953,7.409668,5.1052924)">
    <g
       id="text5668"
       style="font-style:normal;font-variant:normal;font-weight:normal;font-stretch:normal;font-size:29.33333397px;line-height:25px;font-family:Montserrat;-inkscape-font-specification:Montserrat;letter-spacing:0px;word-spacing:0px;fill:#d20000;fill-opacity:1;stroke:none;stroke-width:1px;stroke-linecap:butt;stroke-linejoin:miter;stroke-opacity:1"
       aria-label="EMPORNIUM">
      <path
         sodipodi:type="inkscape:offset"
         inkscape:radius="-0.3354401"
         inkscape:original="M 81.65625 7.5800781 C 75.744887 7.5800781 70.932825 11.507336 69.947266 16.925781 C 69.99318 16.527591 70.052734 16.135097 70.052734 15.714844 C 70.052734 13.253183 69.195588 11.159361 67.566406 9.7539062 C 65.940143 8.3509687 63.644616 7.6679686 60.892578 7.6679688 L 52.708984 7.6679688 C 52.166989 7.667973 51.673832 8.1611296 51.673828 8.703125 L 51.673828 29.238281 C 51.673832 29.780277 52.166989 30.273433 52.708984 30.273438 L 56.169922 30.273438 C 56.711917 30.273433 57.205074 29.780277 57.205078 29.238281 L 57.205078 24.083984 L 60.892578 24.083984 C 63.654647 24.083984 65.961978 23.356481 67.583984 21.888672 C 68.788051 20.799072 69.558453 19.32497 69.878906 17.601562 C 69.824013 18.055721 69.738281 18.49899 69.738281 18.970703 C 69.738281 25.398275 75.011177 30.419922 81.65625 30.419922 C 88.301323 30.419922 93.574219 25.398275 93.574219 18.970703 C 93.574219 12.54295 88.294987 7.5800782 81.65625 7.5800781 z M 6.3027344 7.6679688 C 5.7607389 7.6679728 5.2675823 8.1611295 5.2675781 8.703125 L 5.2675781 29.238281 C 5.2675824 29.780277 5.760739 30.273433 6.3027344 30.273438 L 21.322266 30.273438 C 21.864261 30.273433 22.357418 29.780277 22.357422 29.238281 L 22.357422 26.128906 C 22.357418 25.586911 21.864261 25.093754 21.322266 25.09375 L 10.798828 25.09375 L 10.798828 21.501953 L 19.796875 21.501953 C 20.33887 21.501949 20.832027 21.008792 20.832031 20.466797 L 20.832031 17.357422 C 20.832027 16.815427 20.33887 16.32227 19.796875 16.322266 L 10.798828 16.322266 L 10.798828 12.847656 L 20.96875 12.847656 C 21.510745 12.847652 22.003902 12.354495 22.003906 11.8125 L 22.003906 8.703125 C 22.003902 8.1611296 21.510745 7.6679729 20.96875 7.6679688 L 6.3027344 7.6679688 z M 25.552734 7.6679688 C 25.010739 7.667973 24.517582 8.1611296 24.517578 8.703125 L 24.517578 29.238281 C 24.517582 29.780277 25.010739 30.273433 25.552734 30.273438 L 28.808594 30.273438 C 29.350589 30.273433 29.843746 29.780277 29.84375 29.238281 L 29.84375 18.353516 L 34.361328 27.552734 C 34.531102 27.898174 34.906111 28.131443 35.291016 28.130859 L 37.550781 28.130859 C 37.935686 28.131443 38.310695 27.898174 38.480469 27.552734 L 43.005859 18.335938 L 43.027344 29.240234 A 0.45510813 0.45510813 0 0 0 43.027344 29.242188 C 43.029169 29.78302 43.521664 30.273436 44.0625 30.273438 L 47.259766 30.273438 C 47.801761 30.273433 48.294918 29.780277 48.294922 29.238281 L 48.294922 8.703125 C 48.294918 8.1611296 47.801761 7.6679729 47.259766 7.6679688 L 43.181641 7.6679688 C 42.798619 7.6680404 42.42414 7.8990755 42.253906 8.2421875 A 0.45510813 0.45510813 0 0 0 42.253906 8.2441406 L 36.433594 20.011719 L 30.587891 8.2421875 C 30.417657 7.8990755 30.043177 7.6680403 29.660156 7.6679688 L 25.552734 7.6679688 z M 96.25 7.6679688 C 95.708005 7.667973 95.214848 8.1611296 95.214844 8.703125 L 95.214844 29.238281 C 95.214848 29.780277 95.708005 30.273433 96.25 30.273438 L 99.712891 30.273438 C 100.25489 30.273434 100.74804 29.780277 100.74805 29.238281 L 100.74805 24.083984 L 104.58203 24.083984 C 104.70971 24.083984 104.82596 24.077782 104.94727 24.072266 L 108.39062 29.773438 A 0.45510813 0.45510813 0 0 0 108.39062 29.775391 C 108.57417 30.078046 108.92143 30.273488 109.27539 30.273438 L 113.20508 30.273438 C 113.57772 30.273494 113.94149 30.055192 114.11719 29.726562 C 114.29288 29.397934 114.27343 28.973913 114.06641 28.664062 A 0.45510813 0.45510813 0 0 0 114.06445 28.662109 L 110.04883 22.677734 C 112.4446 21.280151 113.88867 18.851524 113.88867 15.714844 C 113.88867 13.248602 113.01358 11.148887 111.35742 9.7460938 C 109.70452 8.3460593 107.37504 7.6679686 104.58203 7.6679688 L 96.25 7.6679688 z M 117.44922 7.6679688 C 116.90722 7.6679712 116.41407 8.1611284 116.41406 8.703125 L 116.41406 29.238281 C 116.41407 29.780278 116.90722 30.273435 117.44922 30.273438 L 120.91016 30.273438 C 121.45215 30.273426 121.94531 29.780272 121.94531 29.238281 L 121.94531 17.638672 L 131.02148 29.855469 C 131.21286 30.113333 131.53044 30.272897 131.85156 30.273438 L 135.25391 30.273438 C 135.7959 30.273426 136.28906 29.780272 136.28906 29.238281 L 136.28906 8.703125 C 136.28906 8.1611344 135.7959 7.6679805 135.25391 7.6679688 L 131.85156 7.6679688 C 131.30957 7.6679712 130.81641 8.1611284 130.81641 8.703125 L 130.81641 20.339844 L 121.68164 8.0859375 C 121.49026 7.8280683 121.17269 7.6685024 120.85156 7.6679688 L 117.44922 7.6679688 z M 140.70898 7.6679688 C 140.16699 7.6679804 139.67383 8.1611344 139.67383 8.703125 L 139.67383 29.238281 C 139.67383 29.780272 140.16699 30.273426 140.70898 30.273438 L 144.16992 30.273438 C 144.71192 30.273435 145.20507 29.780278 145.20508 29.238281 L 145.20508 8.703125 C 145.20507 8.1611284 144.71192 7.6679711 144.16992 7.6679688 L 140.70898 7.6679688 z M 149.17969 7.6679688 C 148.63769 7.6679712 148.14454 8.1611284 148.14453 8.703125 L 148.14453 20.730469 C 148.14453 23.634498 149.08638 26.105429 150.85352 27.814453 C 152.62015 29.522994 155.14766 30.419922 158.125 30.419922 C 161.10248 30.419922 163.62306 29.521948 165.38281 27.8125 C 167.14299 26.102633 168.07812 23.632805 168.07812 20.730469 L 168.07812 8.703125 C 168.07812 8.1611284 167.58497 7.6679711 167.04297 7.6679688 L 163.58203 7.6679688 C 163.04003 7.6679712 162.54687 8.1611284 162.54688 8.703125 L 162.54688 20.730469 C 162.54688 22.27161 162.10572 23.35461 161.38477 24.083984 C 160.66356 24.813621 159.61661 25.240234 158.1543 25.240234 C 156.67865 25.240234 155.60068 24.805249 154.86133 24.068359 C 154.12179 23.331289 153.67578 22.250057 153.67578 20.730469 L 153.67578 8.703125 C 153.67578 8.1611284 153.18262 7.6679711 152.64062 7.6679688 L 149.17969 7.6679688 z M 171.99023 7.6679688 C 171.44824 7.6679804 170.95508 8.1611344 170.95508 8.703125 L 170.95508 29.238281 C 170.95508 29.780272 171.44824 30.273426 171.99023 30.273438 L 175.24609 30.273438 C 175.78809 30.273435 176.28125 29.780278 176.28125 29.238281 L 176.28125 18.353516 L 180.79883 27.552734 C 180.9686 27.898177 181.34361 28.131446 181.72852 28.130859 L 183.98828 28.130859 C 184.37319 28.131446 184.74819 27.898177 184.91797 27.552734 L 189.44336 18.335938 L 189.46484 29.240234 A 0.45510813 0.45510813 0 0 0 189.46484 29.242188 C 189.46667 29.783021 189.95916 30.273437 190.5 30.273438 L 193.69727 30.273438 C 194.23926 30.273426 194.73242 29.780272 194.73242 29.238281 L 194.73242 8.703125 C 194.73242 8.1611344 194.23926 7.6679805 193.69727 7.6679688 L 189.61914 7.6679688 C 189.23612 7.6680417 188.86164 7.8990766 188.69141 8.2421875 A 0.45510813 0.45510813 0 0 0 188.69141 8.2441406 L 182.87109 20.011719 L 177.02539 8.2421875 C 176.85516 7.8990766 176.48068 7.6680417 176.09766 7.6679688 L 171.99023 7.6679688 z M 81.685547 12.759766 C 85.162385 12.759766 87.955078 15.447569 87.955078 18.970703 C 87.955078 22.493384 85.151593 25.240234 81.685547 25.240234 C 78.220184 25.240234 75.328125 22.477413 75.328125 18.970703 C 75.328125 15.458028 78.175621 12.759765 81.685547 12.759766 z M 57.205078 12.847656 L 60.746094 12.847656 C 62.188262 12.847656 63.192272 13.154355 63.773438 13.609375 C 64.367205 14.074265 64.667969 14.673497 64.667969 15.802734 C 64.667969 16.98196 64.354295 17.629733 63.759766 18.113281 C 63.175596 18.588404 62.182347 18.904297 60.746094 18.904297 L 57.205078 18.904297 L 57.205078 12.847656 z M 100.74805 12.847656 L 104.58203 12.847656 C 106.02407 12.847656 107.03975 13.155972 107.62891 13.613281 C 108.23094 14.080574 108.5332 14.676739 108.5332 15.802734 C 108.5332 16.97835 108.21625 17.625136 107.61328 18.111328 C 107.02095 18.588935 106.01815 18.904297 104.58203 18.904297 L 100.74805 18.904297 L 100.74805 12.847656 z "
         style="fill:#b40000;fill-opacity:1"
         id="path5686"
         d="m 81.65625,7.9160156 c -5.762795,0 -10.422643,3.8129284 -11.378906,9.0703124 a 0.33574604,0.33574604 0 0 1 -0.664063,-0.09961 c 0.04682,-0.406062 0.103516,-0.783312 0.103516,-1.171875 0,-2.383795 -0.820663,-4.371199 -2.369141,-5.707032 -1.548821,-1.3361301 -3.75854,-2.0039059 -6.455078,-2.0039058 h -8.183594 c -0.33852,2.7e-6 -0.699216,0.360698 -0.699218,0.6992188 v 20.535156 c 2e-6,0.338522 0.360697,0.699216 0.699218,0.699219 h 3.460938 c 0.338521,-3e-6 0.699216,-0.360697 0.699219,-0.699219 v -5.154297 a 0.33547364,0.33547364 0 0 1 0.335937,-0.335937 h 3.6875 c 2.703168,0 4.921253,-0.708806 6.466797,-2.107422 1.145244,-1.036369 1.880379,-2.4374 2.189453,-4.099609 a 0.33589228,0.33589228 0 0 1 0.664063,0.101562 c -0.05677,0.469652 -0.138672,0.897055 -0.138672,1.328125 0,6.244119 5.105952,11.113281 11.582031,11.113281 6.476079,0 11.582031,-4.869162 11.582031,-11.113281 0,-6.244084 -5.110469,-11.0546873 -11.582031,-11.0546874 z M 6.3027344,8.0039062 C 5.9642133,8.0039087 5.6035182,8.3646038 5.6035156,8.703125 v 20.535156 c 2.7e-6,0.338522 0.3606971,0.699216 0.6992188,0.699219 H 21.322266 c 0.338521,-3e-6 0.699216,-0.360697 0.699218,-0.699219 v -3.109375 c -2e-6,-0.33852 -0.360698,-0.699216 -0.699218,-0.699218 H 10.798828 A 0.33547364,0.33547364 0 0 1 10.462891,25.09375 v -3.591797 a 0.33547364,0.33547364 0 0 1 0.335937,-0.335937 h 8.998047 c 0.33852,-3e-6 0.699216,-0.360699 0.699219,-0.699219 v -3.109375 c -3e-6,-0.33852 -0.360699,-0.699216 -0.699219,-0.699219 h -8.998047 a 0.33547364,0.33547364 0 0 1 -0.335937,-0.335937 v -3.47461 a 0.33547364,0.33547364 0 0 1 0.335937,-0.335937 H 20.96875 c 0.33852,-3e-6 0.699216,-0.360699 0.699219,-0.699219 V 8.703125 C 21.667966,8.3646042 21.30727,8.0039088 20.96875,8.0039062 Z m 19.2499996,0 c -0.33852,2.7e-6 -0.699216,0.360698 -0.699218,0.6992188 v 20.535156 c 2e-6,0.338522 0.360697,0.699216 0.699218,0.699219 h 3.25586 c 0.338521,-3e-6 0.699216,-0.360697 0.699218,-0.699219 V 18.353516 a 0.33547364,0.33547364 0 0 1 0.636719,-0.148438 l 4.517578,9.199219 c 0.109894,0.2236 0.379859,0.391003 0.628907,0.390625 h 2.259765 c 0.249048,3.78e-4 0.519013,-0.167025 0.628907,-0.390625 l 4.52539,-9.216797 a 0.33547364,0.33547364 0 0 1 0.636719,0.148438 l 0.02148,10.904296 c 0,0 0,0.002 0,0.002 0.0023,0.337381 0.36173,0.695311 0.699219,0.695312 h 3.197266 c 0.338521,-3e-6 0.699216,-0.360697 0.699218,-0.699219 V 8.703125 c -2e-6,-0.3385208 -0.360698,-0.6992162 -0.699218,-0.6992188 h -4.078125 c -0.247272,4.63e-5 -0.514417,0.1646024 -0.625,0.3847657 -4.04e-4,8.03e-4 -0.0016,0.00115 -0.002,0.00195 a 0.33547364,0.33547364 0 0 1 0,0.00195 L 36.734375,20.160156 a 0.33547364,0.33547364 0 0 1 -0.601563,0 L 30.287109,8.390625 C 30.177279,8.1692586 29.908328,8.0039526 29.660156,8.0039062 Z m 70.697266,0 c -0.338521,2.7e-6 -0.699216,0.360698 -0.699219,0.6992188 v 20.535156 c 3e-6,0.338522 0.360698,0.699216 0.699219,0.699219 h 3.462891 c 0.338529,-2e-6 0.699209,-0.360692 0.699219,-0.699219 v -5.154297 a 0.33547364,0.33547364 0 0 1 0.33594,-0.335937 h 3.83398 c 0.11682,0 0.22662,-0.0061 0.34961,-0.01172 a 0.33547364,0.33547364 0 0 1 0.30274,0.16211 l 3.44335,5.701171 a 0.33547364,0.33547364 0 0 1 0,0.002 c 4.7e-4,7.69e-4 0.001,0.0012 0.002,0.002 0.12001,0.195789 0.36615,0.334016 0.5957,0.333984 h 3.92969 c 0.2416,3.6e-5 0.50313,-0.155811 0.61719,-0.369141 0.11361,-0.212514 0.0985,-0.514438 -0.0332,-0.714843 a 0.33547364,0.33547364 0 0 1 -0.004,-0.0039 l -4.01563,-5.984375 a 0.33547364,0.33547364 0 0 1 0.10938,-0.476562 c 2.30035,-1.34192 3.67382,-3.640102 3.67382,-6.673828 0,-2.386893 -0.83745,-4.37913 -2.41211,-5.712891 -1.57505,-1.3340982 -3.81987,-1.9980469 -6.55859,-1.9980468 z m 21.19922,0 c -0.33853,1.5e-6 -0.69921,0.3606912 -0.69922,0.6992188 v 20.535156 c 1e-5,0.338528 0.36069,0.699217 0.69922,0.699219 h 3.46094 c 0.33851,-7e-6 0.69922,-0.360707 0.69922,-0.699219 V 17.638672 a 0.33547364,0.33547364 0 0 1 0.60546,-0.199219 l 9.07618,12.216797 c 0.125,0.168434 0.35017,0.280896 0.56054,0.28125 h 3.40235 c 0.33851,-7e-6 0.69921,-0.360707 0.69921,-0.699219 V 8.703125 c 0,-0.3385115 -0.3607,-0.6992114 -0.69921,-0.6992188 h -3.40235 c -0.33851,1.5e-6 -0.69922,0.360699 -0.69922,0.6992188 v 11.636719 a 0.33547364,0.33547364 0 0 1 -0.60546,0.201172 L 121.41211,8.2871094 a 0.33547364,0.33547364 0 0 1 0,-0.00195 c -0.12501,-0.1684432 -0.35017,-0.2809004 -0.56055,-0.28125 z m 23.25976,0 c -0.33851,7.3e-6 -0.69921,0.3607073 -0.69921,0.6992188 v 20.535156 c 0,0.338512 0.3607,0.699212 0.69921,0.699219 h 3.46094 c 0.33853,-2e-6 0.69921,-0.360691 0.69922,-0.699219 V 8.703125 c -10e-6,-0.3385276 -0.36069,-0.6992173 -0.69922,-0.6992188 z m 8.47071,0 c -0.33853,1.5e-6 -0.69922,0.3606912 -0.69922,0.6992188 v 12.027344 c 0,2.831501 0.91166,5.205642 2.60547,6.84375 1.69387,1.638176 4.12909,2.509765 7.03906,2.509765 2.91004,0 5.3364,-0.872908 7.02344,-2.511718 1.68697,-1.638751 2.59375,-4.011514 2.59375,-6.841797 V 8.703125 c 0,-0.3385239 -0.36069,-0.6992173 -0.69922,-0.6992188 h -3.46094 c -0.33853,1.5e-6 -0.69922,0.3607028 -0.69922,0.6992188 v 12.027344 c 0,1.605155 -0.4702,2.791058 -1.25976,3.589843 -0.78935,0.798576 -1.9412,1.25586 -3.46875,1.25586 -1.54157,0 -2.72123,-0.464152 -3.5293,-1.269531 -0.80795,-0.805254 -1.28516,-1.990948 -1.28516,-3.576172 V 8.703125 c 0,-0.3385198 -0.36069,-0.6992173 -0.69922,-0.6992188 z m 22.81054,0 c -0.33851,7.3e-6 -0.69921,0.3607073 -0.69921,0.6992188 v 20.535156 c 0,0.338512 0.3607,0.699212 0.69921,0.699219 h 3.25586 c 0.33853,-2e-6 0.69922,-0.360698 0.69922,-0.699219 V 18.353516 a 0.33547364,0.33547364 0 0 1 0.63672,-0.148438 l 4.51758,9.199219 c 0.10989,0.2236 0.37985,0.391005 0.62891,0.390625 h 2.25976 c 0.24905,3.8e-4 0.51901,-0.167013 0.62891,-0.390625 l 4.52539,-9.216797 a 0.33547364,0.33547364 0 0 1 0.63672,0.148438 l 0.0215,10.904296 c 0,0 0,0.002 0,0.002 0.002,0.337386 0.36173,0.695311 0.69922,0.695312 h 3.19727 c 0.33851,-7e-6 0.69921,-0.360707 0.69921,-0.699219 V 8.703125 c 0,-0.3385115 -0.3607,-0.6992114 -0.69921,-0.6992188 h -4.07813 c -0.24727,4.71e-5 -0.51442,0.1646069 -0.625,0.3847657 a 0.33547364,0.33547364 0 0 1 -0.002,0.00195 0.33547364,0.33547364 0 0 1 0,0.00195 l -5.82031,11.7675779 a 0.33547364,0.33547364 0 0 1 -0.60157,0 L 176.72461,8.390625 C 176.61478,8.1692627 176.34583,8.0039535 176.09766,8.0039062 Z M 81.685547,12.423828 c 3.649715,0 6.605469,2.846478 6.605469,6.546875 0,3.700652 -2.962198,6.605469 -6.605469,6.605469 -3.643653,0 -6.693359,-2.914329 -6.693359,-6.605469 0,-3.693954 3.011519,-6.546876 6.693359,-6.546875 z m -24.480469,0.08789 h 3.541016 c 1.489725,0 2.563165,0.308465 3.234375,0.833984 0.66064,0.517249 1.023437,1.268233 1.023437,2.457031 0,1.238711 -0.369712,2.030676 -1.033203,2.570313 -0.672102,0.546641 -1.739171,0.867187 -3.224609,0.867187 h -3.541016 a 0.33547364,0.33547364 0 0 1 -0.335937,-0.335937 v -6.056641 a 0.33547364,0.33547364 0 0 1 0.335937,-0.335937 z m 43.542972,0 h 3.83398 c 1.48985,0 2.57297,0.308907 3.25195,0.835937 0.66824,0.518681 1.03516,1.269053 1.03516,2.455078 0,1.235907 -0.3735,2.02893 -1.04492,2.570313 -0.68017,0.548437 -1.75696,0.867187 -3.24219,0.867187 h -3.83398 a 0.33547364,0.33547364 0 0 1 -0.33594,-0.335937 v -6.056641 a 0.33547364,0.33547364 0 0 1 0.33594,-0.335937 z" />
    </g>
  </g>
</svg>
