<svg xmlns="http://www.w3.org/2000/svg"><symbol viewBox="0 0 6.3499998 6.3500002" id="nav_arrow_left"><title>nav_arrow_left</title><path d="m5.4239582 296.42186-4.49791636-2.59688 4.49791656-2.59687z" transform="translate(0 -290.64999)"/></symbol><symbol viewBox="0 0 6.3499998 6.3500002" id="nav_arrow_right"><title>nav_arrow_right</title><path d="m-.92604221 296.42186-4.49791629-2.59688 4.49791655-2.59687z" transform="matrix(-1 0 0 1 0 -290.64999)"/></symbol><symbol viewBox="0 0 4.2333332 4.2333335" id="nav_bonus"><title>nav_bonus</title><g transform="translate(0 -292.76666)"><path d="m2.1166668 294.12841.3106908.96337 1.0122259-.002-.8202084.59318.3148991.962-.8176074-.59676-.8176075.59676.3148992-.962-.82020839-.59318 1.01222589.002z" stroke-width=".71428567"/><path d="m2.1166668 294.12842-.7268531-1.25894v-.3597h1.4537062l-.0000001.3597z" stroke-width=".26458332" transform="matrix(1.0920364 0 0 .73556878 -.1948105 77.605601)"/></g></symbol><symbol viewBox="0 0 4.2333332 4.2333335" id="nav_bookmarks"><title>nav_bookmarks</title><path d="m2.1166668 293.12188.4349672 1.34871 1.4171162-.003-1.1482917.83045.4408587 1.3468-1.1446504-.83546-1.14465051.83546.44085881-1.3468-1.14829164-.83045 1.41711614.003z" transform="translate(0 -292.76666)"/></symbol><symbol viewBox="0 0 4.2333332 4.2333335" id="nav_comments"><title>nav_comments</title><g transform="translate(0 -292.76666)"><path d="m7.5683594 2.7167969c-3.5520609 0-6.4316387 1.8462595-6.4316406 4.1230469.0000003.5691968.2839192 1.423014.609375 1.9160156 0 0-.3635966 1.3388706-1.55273442 1.7246096-1.13158061.367032 2.88583472-.049072 3.29492182-.091797-.0968715-.296184-.1523434-.6069067-.1523437-.9296876.0000012-1.2559748.7926226-2.3338182 1.9199219-3.0546875 1.1272992-.7209071 2.6227555-1.1367188 4.2597656-1.1367188 1.63701 0 3.126349.4155849 4.251953 1.1367188.076903.0492686.137281.113457.210938.1660156-.218371-2.1501013-3.000598-3.8535156-6.4101566-3.8535156z" stroke-width="1.43340683" transform="matrix(.26458333 0 0 .26458333 0 292.76666)"/><path d="m3.9862558 295.30917c-.0000003-.49483-.6258236-.89596-1.3978153-.89596-.7719919 0-1.397815.40113-1.3978155.89596.0000005.49483.6258236.89596 1.3978155.89596.3694222.009.6484555-.0434.840338-.1289 0 0 1.0210793.10797.7626365.0241-.2584428-.0838-.3376905-.37455-.3376905-.37455.070733-.10714.1325313-.29292.1325313-.41664z" stroke-width=".31153128"/></g></symbol><symbol viewBox="0 0 4.2333332 4.2333332" id="nav_conncheck"><title>nav_conncheck</title><path d="m .52916664 3.17498h.52916664v.52916664h-.52916664z"/><path d="m1.3229167 2.91039h.52916664v.79374999h-.52916664z"/><path d="m2.1166668 2.38125h.52916664v1.3229166h-.52916664z"/><path d="m2.9104166 1.58749h.52916664v2.1166666h-.52916664z"/><path d="m3.7041669.52917h.52916664v3.175h-.52916664z"/></symbol><symbol viewBox="0 0 4.2333332 4.2333332" id="nav_donate"><title>nav_donate</title><path d="m1.6727884 295.84897c-.3804434-.56165-1.13634188-.91249-1.26245538-1.58783-.052464-.28094.052189-.61925.2490162-.81835.2074282-.20984.47762498-.34517.83350258-.2462.3558781.099.5946233.36858.623815.67154.029192-.30296.2679368-.57257.623815-.67154.3558773-.099.6260742.0364.8335026.2462.1968267.19911.30148.53741.249016.81835-.1261134.67534-.8761669 1.03055-1.2624553 1.58783-.1666182.24037-.4529711.75416-.4529711.75416s-.2728682-.51513-.4347856-.75416z" transform="translate(0 -292.76667)"/></symbol><symbol viewBox="0 0 2.6458333 1.8520833" id="nav_dropdown"><title>nav_dropdown</title><path d="m1.3229167 296.73542-.52916671-.66146-.52916666-.66146h1.05833337 1.0583333l-.5291667.66146z" transform="translate(0 -295.14792)"/></symbol><symbol viewBox="0 0 4.2333332 4.2333335" id="nav_friends"><title>nav_friends</title><g transform="translate(0 -292.76666)"><path d="m11.654297 0c-1.124011 0-2.1094684.75406108-2.4003908 1.8398438-.192564.7186222-.0434363 1.4603551.3574219 2.0449218.8136469.4348401 1.4384769 1.1903443 1.6894529 2.1269532.374814 1.3988031-.202131 2.8533549-1.3730466 3.6699218l.0195312.2792969c.6218574-.0096675 1.2363224-.0300989 1.7070314-.0273437 1.463349.0113385 4.345705.3496782 4.345703-.6210938-.000003-1.0236472-.481345-1.9514126-1.261719-2.625-.390187-.3371339-.856425-.609247-1.373047-.7988281-.129135-.0476221-.26124-.0895358-.396484-.1269531l-.074219-1.1269532v-.0019531c.973436-.5620157 1.449131-1.7072617 1.158203-2.7929687-.290925-1.08578272-1.274426-1.8398438-2.398437-1.8398438z" transform="matrix(.26458333 0 0 .26458333 0 292.76666)"/><path d="m2.4780396 295.22669c.2833349-.16358.4214716-.49708.3367921-.8131-.084678-.31601-.3710521-.53575-.6982145-.53575-.3271622 0-.6135364.21974-.6982143.53575-.08468.31602.053457.64952.3367921.8131l-.0046.32363c-.039536.0102-.07826.0221-.1160693.0354-.1512159.0535-.2878118.13139-.402968.22805-.2303123.19332-.37494343.46164-.37979818.75955-.004616.28302.83821928.19334 1.26485488.19585.4259322.003 1.2649788.10189 1.2649783-.1807-.0000007-.29793-.1402466-.56796-.3673877-.76401-.1135705-.098-.248843-.17767-.3992146-.23286-.037587-.0138-.076116-.0261-.1154807-.0368l-.021473-.32815"/><path d="m1.1498032 292.7665c.2973946 0 .5581302.19951.6351034.48679.050949.19014.011493.38639-.094568.54105-.2152775.11506-.3805971.31495-.4470011.56276-.09917.3701.053481.75495.3632852.971l-.00517.0739c-.1645331-.003-.3271103-.008-.4516521-.007-.3871778.003-1.1498011.0925-1.1498006-.16433.0000008-.27084.1273559-.51631.3338298-.69453.103237-.0892.2265958-.1612.3632854-.21136.034167-.0126.06912-.0237.104903-.0336l.019637-.29817v-.00051c-.2575551-.14871-.3834161-.45172-.3064414-.73898.076974-.28728.3371919-.48679.6345864-.48679z"/></g></symbol><symbol viewBox="0 0 4.2333332 4.2333335" id="nav_gift"><title>nav_gift</title><g transform="translate(0 -292.76666)"><path d="m .5291667 295.14792h1.3229166v1.5875h-1.3229166z" stroke-width=".29057148"/><path d="m2.3812499 295.14792h1.3229166v1.5875h-1.3229166z" stroke-width=".29057145"/><path d="m .26458335 294.08957h1.5875v.79374999h-1.5875z" stroke-width=".37468225"/><path d="m2.3812499 294.08957h1.5875v.79374999h-1.5875z" stroke-width=".37468225"/><path d="m1.3229167 293.03124a.52916669.52916669 0 0 0 -.52916671.52917.52916669.52916669 0 0 0  .52916671.52917.52916669.52916669 0 0 0  .5291666-.52917.52916669.52916669 0 0 0 -.5291666-.52917zm0 .1323a.396875.396875 0 0 1  .3968749.39687.396875.396875 0 0 1 -.3968749.39688.396875.396875 0 0 1 -.39687504-.39688.396875.396875 0 0 1  .39687504-.39687z" stroke-width=".3028239"/><path d="m3.0427083 292.76664a.6614584.6614584 0 0 0 -.6614584.66147.6614584.6614584 0 0 0  .6614584.66146.6614584.6614584 0 0 0  .6614583-.66146.6614584.6614584 0 0 0 -.6614583-.66147zm0 .16538a.49609377.49609377 0 0 1  .4960936.49609.49609377.49609377 0 0 1 -.4960936.4961.49609377.49609377 0 0 1 -.4960938-.4961.49609377.49609377 0 0 1  .4960938-.49609z" stroke-width=".37852988"/><path d="m1.3229166 293.97324h1.7197917v.13229167h-1.7197917z" stroke-width=".23651445"/></g></symbol><symbol viewBox="0 0 4.2333332 4.2333332" id="nav_inbox"><title>nav_inbox</title><path d="m0 3v12h16v-12zm13.25 2.7499891 1.75-1.7499953v10.0000062l-5-5zm .051 8.2500109h-10.6020001l4.1506095-4.1503906 1.1503904 1.1503656 1.1503908-1.1503656zm-12.301 0v-10.0000063l1.75 1.7499953 3.25 3.250011zm6.9999998-4.6992251-5.3009999-5.3007812 10.6020001-.0000015z" stroke-width="1.09544516" transform="scale(.26458333)"/></symbol><symbol viewBox="0 0 4.2333332 4.2333335" id="nav_invites"><title>nav_invites</title><g transform="translate(0 -292.76666)"><path d="m8 0c-1.8104156 0-3.3947003 1.2161319-3.8632812 2.9648438-.4685901 1.7487492.2953937 3.5948031 1.8632812 4.5l-.0253906 1.7910156c-.218778.0563149-.4333548.1212337-.6425782.1953125-.8367818.2963149-1.5932295.7268401-2.2304687 1.2617191-1.2744783 1.069757-2.0746976 2.554608-2.1015625 4.203125-.02552315 1.566198 4.6391295 1.070113 7 1.083984.2863113.001837.6847555.018118 1.0546875.03125a4.9999997 5.0000009 0 0 1 -2.0546875-4.03125 4.9999997 5.0000009 0 0 1  3.15625-4.6425781c1.456719-.9362142 2.158996-2.7058739 1.707031-4.3925781-.468581-1.7487119-2.0528654-2.9648438-3.863281-2.9648438z" transform="matrix(.26458333 0 0 .26458333 0 292.76666)"/><path d="m3.1750001 294.88332a1.0583333 1.0583352 0 0 0 -1.0583334 1.05834 1.0583333 1.0583352 0 0 0  1.0583334 1.05833 1.0583333 1.0583352 0 0 0  1.0583333-1.05833 1.0583333 1.0583352 0 0 0 -1.0583333-1.05834zm-.1763889.35278h.3527777v.52917h.5291668v.35278h-.5291668v.52916h-.3527777v-.52916h-.5291667v-.35278h.5291667z"/></g></symbol><symbol viewBox="0 0 4.2333332 4.2333332" id="nav_leeching"><title>nav_leeching</title><path d="m2.2489583 293.29583h.79375v1.5875h.396875l-.79375 1.5875-.79375-1.5875h.396875z" transform="translate(0 -292.76667)"/></symbol><symbol viewBox="0 0 4.2333332 4.2333332" id="nav_logout"><title>nav_logout</title><g transform="translate(0 -292.76667)"><path d="m1.8520833 294.35417v.52917h1.3229168v.52916l1.0583333-.79375-1.0583333-.79375v.52917z"/><path d="m2.8165323 294.08958v-1.32291h-2.8165323v3.43958l1.5362903.79375v-.79375h1.280242v-1.05833h-.2560484v.79375h-1.0241936v-2.38125l-.76814514-.52917h1.79233874v1.05833z"/></g></symbol><symbol viewBox="0 0 4.2333332 4.2333332" id="nav_mydonations"><title>nav_mydonations</title><g transform="translate(0 -292.76667)"><path d="m4.6933594 1.5c-.8914088.0232246-1.6131865.4598655-2.2011719 1.0546875-.7439138.7525039-1.1396954 2.0319295-.9414063 3.09375.4766495 2.5524661 3.3335881 3.8791815 4.7714844 6.0019535.6119713.90342 1.6425782 2.849609 1.6425782 2.849609s1.0831525-1.941124 1.7128906-2.849609c1.4599876-2.1062555 4.2948356-3.4494874 4.7714846-6.0019535.198289-1.0618205-.197495-2.3412083-.941407-3.09375-.783981-.7929449-1.805342-1.3038607-3.15039-.9296875-1.3450516.3740598-2.24709 1.3920637-2.357422 2.5371094-.1103308-1.1450457-1.0123708-2.1629362-2.3574219-2.5371094-.3362623-.093515-.6520825-.1327415-.9492187-.125zm6.6074216.4941406c.748239.0109152 1.323351.3739264 1.853516.9101563.606997.614022.967969 1.7838472.804687 2.6582031-.208523 1.1166614-.947606 2.0043024-1.875 2.9003906-.927393.8960882-2.024798 1.7718124-2.8124996 2.9082034-.4964497.716182-.9630137 1.555543-1.2988282 2.148437-.3225293-.596712-.7564983-1.434333-1.2402343-2.148437-.777792-1.148259-1.8817524-2.0213261-2.8125-2.9160159-.9307479-.8947275-1.6745808-1.7775041-1.8828125-2.8925781-.1628725-.8721638.2043613-2.0430472.8125-2.6582031.5309545-.5371465 1.0999362-.8967134 1.8457031-.9082031.248589-.0038174.5200628.0299926.8125.1113281 1.1770579.3274204 1.9119843 1.1822291 2 2.0957031a.49845385.49845385 0 0 0  .9882813 0c .0882205-.9155906.8175888-1.7685094 1.9941402-2.0957031.292308-.0813166.561134-.1169197.810547-.1132813z" transform="matrix(.26458333 0 0 .26458333 0 292.76667)"/><path d="m2.6714222 296.19705c-.2048541-.30243-.6118764-.49135-.6797837-.855-.02825-.15127.028102-.33344.1340857-.44065.1116922-.11298.2571827-.18585.4488091-.13258.1916267.0533.3201818.19847.3359005.36161.015719-.16314.1442736-.30831.3359003-.36161.1916263-.0533.3371169.0196.4488092.13258.1059842.10724.1623353.28938.134085.44065-.067907.36365-.4717823.55492-.6797838.855-.089717.12936-.2439074.40608-.2439074.40608s-.1469291-.27738-.2341149-.40608z"/></g></symbol><symbol viewBox="0 0 4.2333332 4.2333335" id="nav_myrequests"><title>nav_myrequests</title><path d="m .92604167 296.73541v-1.5875l-.26458333-1.5875h-.39687501v-.26458h.79374997v.26458l2.9104167.13229-.1322917 1.32292-2.5135416.13229v.79375h2.1828125v.79375h-.396875v-.39687l-1.7859375.0264v.37042z" transform="translate(0 -292.76666)"/></symbol><symbol viewBox="0 0 4.2333332 4.2333335" id="nav_notifications"><title>nav_notifications</title><g transform="translate(0 -292.76666)"><circle cx="2.1166668" cy="296.73541" r=".26458335" stroke-width=".24025698"/><path d="m8 0c-1.6238236.00150713-2.9516931 1.2947516-2.9960938 2.9179688h-.0039062v.0820312c.2338446 6.504142-3.3083704 4.8689854-4 7.751953-.51042402 2.48674 3.1340067 3 7 3 3.865993 0 7.510424-.51326 7-3-.82319-3.1521424-4-1.1587804-4-7.751953v-.082031h-.0039c-.044407-1.6232175-1.3722763-2.91646198-2.9961-2.917969z" stroke-width="1.42694783" transform="matrix(.26458333 0 0 .26458333 0 292.76666)"/></g></symbol><symbol viewBox="0 0 4.2333332 4.2333335" id="nav_posthistory"><title>nav_posthistory</title><g transform="translate(0 -292.76666)"><path d="m7.9003906.9921875a6.9999997 6.9999997 0 0 0 -4.5761718 1.796875l-1.3574219-1.3574219-1.35351565 5.0546875 5.05273435-1.3535156-1.6269531-1.6289063a5.9999999 5.9999999 0 0 1 8.2070315.2441407 5.9999999 5.9999999 0 0 1  0 8.4863281 5.9999999 5.9999999 0 0 1 -8.3046878.166016l-.7050781.705078a6.9999997 6.9999997 0 0 0 9.7167969-.164063 6.9999997 6.9999997 0 0 0  0-9.9003904 6.9999997 6.9999997 0 0 0 -5.0527344-2.0488281z" stroke-width="2.30968475" transform="matrix(.26458333 0 0 .26458333 0 292.76666)"/><path d="m1.9808629 293.4378v1.31775h-.7885824v.39688h1.1854574v-1.71463z" stroke-width=".26458332"/></g></symbol><symbol viewBox="0 0 4.2333332 4.2333335" id="nav_sandbox"><title>nav_sandbox</title><path d="m8 0v2h-3v1h1v5s-5.23651565 4.142337-5 7c .038883.469795.5644812.819603 1 1h12c .435519-.180283.961117-.530205 1-1 .236515-2.857663-5-7-5-7v-5h1v-1h-2.0629999v-2zm-1.1347656 2.8671875h1.1347656v.3828125h.5v.25h-.5v.75h.5v.25h-.5v.75h.5v.25h-.5v.75h.5v.25h-.5v.75h.5v.25h-.5v.75h.5v.25h-.5v.75h.5v.25h-.5v.75h.5v.25h-.5v.517578h-1.0117188c.1997579.03054.3473827.202218.3476563.404297.0003322.22666-.1834958.410488-.4101563.410156-.2266604.000332-.4104884-.183496-.4101562-.410156-.0003495-.199565.1431907-.370328.3398438-.404297h-2.8027344c1.2259604-1.3344735 2.4882812-2.3339844 2.4882812-2.3339842.2096967-.1657108.3320226-.4182778.3320313-.6855469v-4.9980469c.0007748-.044405-.0018425-.088805-.0078125-.1328125zm2.0722656-.0001875h.5097656v5.804875c.004.00333.0057.00845.00977.011719 0 0 1.2621698.9995485 2.4863278 2.3339842h-2.4960978-.5097656zm-1.1113281 9.129094c.4319023-.000274.7823989.349348.7832031.78125.000274.432665-.3505386.783477-.7832031.783203-.4319016-.000804-.7815242-.351301-.78125-.783203.0008021-.43114.3501102-.780448.78125-.78125zm-2.0019531.800781c.7739024-.000415 1.4016803.626489 1.4023437 1.400391.0004148.774665-.627679 1.402758-1.4023437 1.402343-.7739019-.000664-1.4008053-.628441-1.4003907-1.402343.0006626-.77314.6272508-1.399728 1.4003907-1.400391z" stroke-width="3.77952743" transform="scale(.26458333)"/></symbol><symbol viewBox="0 0 4.2333332 4.2333332" id="nav_seeding"><title>nav_seeding</title><path d="m2.2489583 296.47083h.79375v-1.5875h.396875l-.79375-1.5875-.79375 1.5875h.396875z" transform="translate(0 -292.76667)"/></symbol><symbol viewBox="0 0 4.2333332 4.2333335" id="nav_slots"><title>nav_slots</title><g transform="translate(0 -292.76666)"><path d="m6 0a5.9999994 2.9999999 0 0 0 -6 3v13h12v-4h1.5v-1h .5v-8.0332031a1.0000001 1.0000001 0 0 0  .75-.9667969 1.0000001 1.0000001 0 0 0 -1-1 1.0000001 1.0000001 0 0 0 -1 1 1.0000001 1.0000001 0 0 0  .75.9667969v6.0332031h-1.5v-6a5.9999994 2.9999999 0 0 0 -6-3zm-4 4h8v5h-8zm1 8h6l1 2h-8z" stroke-width="1.98751879" transform="matrix(.26458333 0 0 .26458333 0 292.76666)"/><g stroke-width=".34394628"><path d="m .92604167 294.28802h.26458333v.79375h-.26458333z"/><path d="m1.984375 294.28802h.26458335v.79374999h-.26458335z"/><path d="m1.4552083 294.28802h.26458335v.79374999h-.26458335z"/></g></g></symbol><symbol viewBox="0 0 4.2333332 4.2333335" id="nav_staffinbox"><title>nav_staffinbox</title><g transform="translate(0 -292.76666)"><path d="m2.9960938 1v13h10.0039062v-11l-2.001953-2zm1.0058593 1.0039062h6.5839849l1.410156 1.4101563v9.5820315h-7.9941409z" stroke-width=".99999994" transform="matrix(.26458333 0 0 .26458333 0 292.76666)"/><path d="m .26458335 294.35416h3.7041667v1.0583334h-3.7041667z" stroke-width=".38239145"/></g></symbol><symbol viewBox="0 0 4.2333332 4.2333335" id="nav_staffmessages"><title>nav_staffmessages</title><g transform="translate(0 -292.76666)"><path d="m0 2v12h12v-7.2617188l-1 1v5.2617188h-10v-10h9.261719l1-1z" stroke-width="1.85456502" transform="matrix(.26458333 0 0 .26458333 0 292.76666)"/><path d="m1.2156384 295.32555 2.2942574-2.29425.4588543.45886-2.2942573 2.29424-.5735615.11466z" stroke-width="1.31143296"/></g></symbol><symbol viewBox="0 0 4.2333332 4.2333335" id="nav_subscriptions"><title>nav_subscriptions</title><g transform="translate(0 -292.76666)"><path d="m3.175 294.88332a1.0583333 1.0583352 0 0 0 -1.0583334 1.05834 1.0583333 1.0583352 0 0 0  1.0583334 1.05833 1.0583333 1.0583352 0 0 0  1.0583333-1.05833 1.0583333 1.0583352 0 0 0 -1.0583333-1.05834zm-.1763889.35278h.3527777v.52917h.5291668v.35278h-.5291668v.52916h-.3527777v-.52916h-.5291667v-.35278h.5291667z"/><path d="m0 0v14h7.4238281a4.9999998 4.9999998 0 0 1 -.3183593-1h-6.1054688v-12h13v6.4199219a4.9999998 4.9999998 0 0 1 1 .5878906v-8.0078125z" stroke-width="4.2405901" transform="matrix(.26458333 0 0 .26458333 0 292.76666)"/><g stroke-width=".1254015"><path d="m .5291667 293.29584h.26458335v.52916h-.26458335z"/><path d="m .5291667 294.88333h.26458335v.52917h-.26458335z"/><path d="m .5291667 294.08957h.26458335v.52917h-.26458335z"/></g><path d="m1.0583334 293.29584h2.3812499v.52916h-2.3812499z" stroke-width=".37620446"/><path d="m4 8v2h3.4199219a4.9999998 4.9999998 0 0 1 1.5898437-2z" stroke-width="1.42187512" transform="matrix(.26458333 0 0 .26458333 0 292.76666)"/><path d="m1.0583334 294.08957h2.3812499v.52917h-2.3812499z" stroke-width=".37620446"/></g></symbol><symbol viewBox="0 0 4.2333332 4.2333335" id="nav_tools"><title>nav_tools</title><g transform="translate(0 -292.76666)"><path d="m0 294.88333v1.5875l.13229167.13229h3.96874993l.1322917-.13229v-1.5875h-.79375v.39687h-.5291667v-.39687h-1.5874999v.39687h-.52916671v-.39687z"/><path d="m12 4c0-1.6568542-1.790861-2.9999999-4-3-2.2091391.0000001-4.0000001 1.3431458-4 3l-.0000001.9999749h-3.49999988l-.50000002.5000315v1.4999811h3v-.4999937h2.0000002v.4999937h5.9999998v-.4999937h2v .4999937h3v-1.4999811l-.5-.5000315h-3.5zm-1 .9999749h-5.9999998l-.0000002-.9999749c.0000001-1.1045696 1.3431458-2.0000001 3-2 1.6568542-.0000001 3 .8954304 3 2z" transform="matrix(.26458333 0 0 .26458333 0 292.76666)"/></g></symbol><symbol viewBox="0 0 4.2333332 4.2333332" id="nav_upload"><title>nav_upload</title><g transform="translate(0 -292.76667)"><path d="m1.9843679 293.03125 1.1906208 1.05832h-.7937472v1.32289h-.7937472v-1.32289h-.79374713z"/><path d="m0 295.41244v1.05839h4.2333333v-1.05839h-1.5875342v.26456h-1.3228311v-.26456zm2.6457991.52913h.2645662v.2647h-.2645662zm.5291324 0h .2647031v.2647h-.2647031zm.5292693 0h .2645663v.2647h-.2645663z"/></g></symbol><symbol viewBox="0 0 4.2333332 4.2333335" id="nav_uploaded"><title>nav_uploaded</title><path d="m6.5019531 3.1171875c-2.5662281.0006803-4.6461925 1.6697314-4.6464843 3.7285156.0004933.4815118.1172259.9583882.34375 1.4042969-1.35435735.6704882-2.19921036 1.5710677-2.1992188 2.566406-.00003203 1.776779 2.701261 2.013921 6.25 2.048828v-3.8652339h-1.5l3.25-4 3.25 4h-1.5v3.8652339c3.548739-.03491 6.250032-.272049 6.25-2.048828-.000008-.9699777-.809878-1.8467862-2.103516-2.5117185.163665-.2588976.24889-.5481654.248047-.8417969-.000748-.9804094-.940402-1.7749371-2.099609-1.7753906-.365405.0008693-.724221.0825014-1.041016.2363281-.525251-1.6507842-2.3783153-2.8060359-4.5019529-2.8066406z" transform="scale(.26458333)"/></symbol><symbol viewBox="0 0 4.2333332 4.2333335" id="nav_useredit"><title>nav_useredit</title><g transform="translate(0 -292.76666)"><path d="m8 5a2.9999999 2.9999999 0 0 0 -3 3 2.9999999 2.9999999 0 0 0  3 3 2.9999999 2.9999999 0 0 0  3-3 2.9999999 2.9999999 0 0 0 -3-3zm0 2a1.0000001 1.0000001 0 0 1 1 1 1.0000001 1.0000001 0 0 1 -1 1 1.0000001 1.0000001 0 0 1 -1-1 1.0000001 1.0000001 0 0 1  1-1z" transform="matrix(.26458333 0 0 .26458333 0 292.76666)"/><path d="m8 3a4.9999998 4.9999998 0 0 0 -5 5 4.9999998 4.9999998 0 0 0  5 5 4.9999998 4.9999998 0 0 0  5-5 4.9999998 4.9999998 0 0 0 -5-5zm0 1a4.0000002 4.0000002 0 0 1 4 4 4.0000002 4.0000002 0 0 1 -4 4 4.0000002 4.0000002 0 0 1 -4-4 4.0000002 4.0000002 0 0 1  4-4z" transform="matrix(.26458333 0 0 .26458333 0 292.76666)"/><path d="m2.778125 293.82498h-1.3229167l.4960936-.9165h.3307291z"/><path d="m3.175 295.54479v-1.32292l.9165.49609v.33073z"/><path d="m1.4552083 295.94168h1.3229167l-.4960936.9165h-.3307291z"/><path d="m1.0583166 295.54479v-1.32292l-.91649993.49609v.33073z"/><g transform="matrix(.707106781187 .707106781187 -.707106781187 .707106781187 209.133960239865 84.872616836124)"><path d="m2.778125 293.82498h-1.3229167l.4960936-.9165h.3307291z"/><path d="m3.175 295.54479v-1.32292l.9165.49609v.33073z"/><path d="m1.4552083 295.94168h1.3229167l-.4960936.9165h-.3307291z"/><path d="m1.0583166 295.54479v-1.32292l-.91649993.49609v.33073z"/></g></g></symbol><symbol viewBox="0 0 4.2333332 4.2333335" id="nav_userinfo"><title>nav_userinfo</title><path d="m2.6458334 294.74153c.414837-.2395.6170861-.72778.493105-1.19047-.1239788-.46268-.5432658-.78441-1.0222716-.78441s-.8982928.32173-1.0222716.78441c-.12398112.46269.078268.95097.4931049 1.19047l-.00673.47384c-.057885.0149-.1145826.0323-.1699396.0519-.2213986.0784-.42139186.19238-.58999472.3339-.33720573.28304-.54896332.67589-.55607132 1.11206-.006753.41439 1.22725584.28309 1.85190284.28676.623617.004 1.8520842.14918 1.8520833-.26456-.000001-.43621-.2053381-.83156-.5379005-1.11861-.1662812-.14352-.3643366-.26014-.5844991-.34094-.055033-.0202-.111443-.0382-.169078-.0539l-.031439-.48045" transform="translate(0 -292.76666)"/></symbol></svg>