<svg height="16" viewBox="0 0 4.2333332 4.2333332" width="16" xmlns="http://www.w3.org/2000/svg"><path d="m2.1161485 292.76667a2.1166701 2.1166701 0 0 0 -1.55287928.6816c-.06001-.0354-.1243206-.0708-.1824181-.10593-.1429357-.0853-.2860271-.17041-.3767218-.22221l.00827 1.25213.00155.29145a2.1166701 2.1166701 0 0 0 -.013436.19068l.014986-.007.00465.77721 1.08055588-.63303 1.0800392-.63304c-.090693-.0515-.2385707-.13148-.3865404-.21188-.08125-.0451-.1746561-.0974-.2609663-.1452a1.0583351 1.0583351 0 0 1  .582911-.17622 1.0583351 1.0583351 0 0 1 1.0583351 1.05833 1.0583351 1.0583351 0 0 1 -1.0583351 1.05834 1.0583351 1.0583351 0 0 1 -.7978853-.36535l-.96428378.478a2.1166701 2.1166701 0 0 0 1.76216888.94545 2.1166701 2.1166701 0 0 0 2.1166701-2.11667 2.1166701 2.1166701 0 0 0 -2.1166701-2.11666z" transform="translate(0 -292.76667)"/></svg>