<svg enable-background="new 0 0 1000 1000" height="16" viewBox="0 0 16 16" width="16" xmlns="http://www.w3.org/2000/svg"><path d="m8 .75a7.25 7.25 0 0 0 -7.25 7.25 7.25 7.25 0 0 0 7.25 7.25 7.25 7.25 0 0 0 7.25-7.25 7.25 7.25 0 0 0 -7.25-7.25zm0 2.6328125a4.6174498 4.6174498 0 0 1 4.617188 4.6171875 4.6174498 4.6174498 0 0 1 -.664063 2.376953l-6.3300781-6.330078a4.6174498 4.6174498 0 0 1 2.3769531-.6640625zm-3.953125 2.2402344 6.330078 6.3300781a4.6174498 4.6174498 0 0 1 -2.376953.664063 4.6174498 4.6174498 0 0 1 -4.6171875-4.617188 4.6174498 4.6174498 0 0 1  .6640625-2.3769531z"/></svg>