<svg height="16" viewBox="0 0 4.2333332 4.2333332" width="16" xmlns="http://www.w3.org/2000/svg"><path d="m1.5703549 296.0718c-.468238-.69126-1.39857455-1.12306-1.55379116-1.95425-.0645711-.34577.0642326-.76215.30648147-1.0072.25529624-.25826.58784611-.42482 1.02584929-.30301.4380038.12184.731844.45363.7677723.82651.035929-.37288.3297684-.70471.7677723-.82651.4380028-.12185.7705528.0448 1.0258493.30301.2422483.24506.3710523.66143.3064812 1.0072-.1552164.83119-1.0783592 1.26837-1.5537911 1.95425-.2050685.29584-.5575028.9282-.5575028.9282s-.3358378-.63401-.5351208-.9282z" transform="translate(0 -292.76667)"/></svg>