<svg enable-background="new 0 0 1000 1000" height="16" viewBox="0 0 16 16" width="16" xmlns="http://www.w3.org/2000/svg"><g transform="matrix(.001632649 0 0 -.001632649 -.163408 8.19593688)"><path d="m4200.8 4989c-138-49.8-243.4-126.5-312.4-230-57.5-86.3-115-245.3-115-314.3 0-32.6-65.2-34.5-1297.6-38.3l-1299.5-5.7-105.4-49.8c-153.3-70.9-220.4-138-291.3-281.7l-63.2-128.4v-433.1-433.2l51.8-67.1c109.2-141.8-276-130.3 4231.9-130.3s4122.600000000002-11.5 4231.900000000001 130.3l51.799999999999 67.1v433.2 433.1l-63.200000000001 128.4c-70.9 143.8-138 210.8-291.299999999999 281.7l-105.4 49.8-1295.6 5.7-1297.6 5.8-11.5 80.5c-30.7 201.2-166.7 383.3-354.6 471.5l-107.3 49.8-728.3 3.8c-663.4 5.7-738.2 1.9-828.2-28.8z"/><path d="m1323.9-1027.3 5.7-3292.8 49.8-105.4c70.9-153.3 138-220.4 281.7-291.3l128.4-63.2h3210.5 3210.3l105.4 49.8c153.299999999999 70.9 220.4 138 291.299999999999 281.7l63.299999999999 128.4 5.700000000001 3290.8 3.799999999999 3292.7h-3679.799999999998-3679.9zm2924.8 1705.8c26.8-19.2 67.1-61.3 88.2-90.1 40.2-51.8 40.2-67.1 40.2-1544.8s0-1493-40.2-1544.8c-74.8-101.6-136.1-132.3-256.8-132.3s-182.1 30.7-256.8 132.3c-40.2 51.8-40.2 72.8-46 1493-3.8 793.5 0 1468.1 5.8 1502.6 13.4 76.7 93.9 174.4 172.5 208.9 76.5 36.6 229.8 23.1 293.1-24.8zm1839.900000000001 0c26.8-19.2 67.1-61.3 88.2-90.1 40.2-51.8 40.2-67.1 40.2-1544.8s0-1493-40.2-1544.8c-74.8-101.6-136.1-132.3-256.8-132.3s-182.1 30.7-256.8 132.3c-40.2 51.8-40.2 72.8-46 1493-3.8 793.5 0 1468.1 5.7 1502.6 13.4 76.7 93.9 174.4 172.5 208.9 76.7 36.6 230 23.1 293.2-24.8z"/></g></svg>