<svg height="16" viewBox="0 0 4.2333332 4.2333335" width="16" xmlns="http://www.w3.org/2000/svg"><g transform="translate(0 -292.76666)"><path d="m8 5a2.9999999 2.9999999 0 0 0 -3 3 2.9999999 2.9999999 0 0 0 3 3 2.9999999 2.9999999 0 0 0 3-3 2.9999999 2.9999999 0 0 0 -3-3zm0 2a1.0000001 1.0000001 0 0 1 1 1 1.0000001 1.0000001 0 0 1 -1 1 1.0000001 1.0000001 0 0 1 -1-1 1.0000001 1.0000001 0 0 1 1-1z" transform="matrix(.26458333 0 0 .26458333 0 292.76666)"/><path d="m8 3a4.9999998 4.9999998 0 0 0 -5 5 4.9999998 4.9999998 0 0 0 5 5 4.9999998 4.9999998 0 0 0 5-5 4.9999998 4.9999998 0 0 0 -5-5zm0 1a4.0000002 4.0000002 0 0 1 4 4 4.0000002 4.0000002 0 0 1 -4 4 4.0000002 4.0000002 0 0 1 -4-4 4.0000002 4.0000002 0 0 1 4-4z" transform="matrix(.26458333 0 0 .26458333 0 292.76666)"/><path d="m2.778125 293.82498h-1.3229167l.4960936-.9165h.3307291z"/><path d="m3.175 295.54479v-1.32292l.9165.49609v.33073z"/><path d="m1.4552083 295.94168h1.3229167l-.4960936.9165h-.3307291z"/><path d="m1.0583166 295.54479v-1.32292l-.91649993.49609v.33073z"/><g transform="matrix(.70710678 .70710678 -.70710678 .70710678 209.13396 84.872617)"><path d="m2.778125 293.82498h-1.3229167l.4960936-.9165h.3307291z"/><path d="m3.175 295.54479v-1.32292l.9165.49609v.33073z"/><path d="m1.4552083 295.94168h1.3229167l-.4960936.9165h-.3307291z"/><path d="m1.0583166 295.54479v-1.32292l-.91649993.49609v.33073z"/></g></g></svg>