<svg height="16" viewBox="0 0 4.2333332 4.2333335" width="16" xmlns="http://www.w3.org/2000/svg"><g transform="translate(0 -292.76666)"><path d="m3.175 294.88332a1.0583333 1.0583352 0 0 0 -1.0583334 1.05834 1.0583333 1.0583352 0 0 0 1.0583334 1.05833 1.0583333 1.0583352 0 0 0 1.0583333-1.05833 1.0583333 1.0583352 0 0 0 -1.0583333-1.05834zm-.1763889.35278h.3527777v.52917h.5291668v.35278h-.5291668v.52916h-.3527777v-.52916h-.5291667v-.35278h.5291667z"/><path d="m0 0v14h7.4238281a4.9999998 4.9999998 0 0 1 -.3183593-1h-6.1054688v-12h13v6.4199219a4.9999998 4.9999998 0 0 1 1 .5878906v-8.0078125z" stroke-width="4.24059" transform="matrix(.26458333 0 0 .26458333 0 292.76666)"/><g stroke-width=".125402"><path d="m .5291667 293.29584h.26458335v.52916h-.26458335z"/><path d="m .5291667 294.88333h.26458335v.52917h-.26458335z"/><path d="m .5291667 294.08957h.26458335v.52917h-.26458335z"/></g><path d="m1.0583334 293.29584h2.3812499v.52916h-2.3812499z" stroke-width=".376204"/><path d="m4 8v2h3.4199219a4.9999998 4.9999998 0 0 1 1.5898437-2z" stroke-width="1.421875" transform="matrix(.26458333 0 0 .26458333 0 292.76666)"/><path d="m1.0583334 294.08957h2.3812499v.52917h-2.3812499z" stroke-width=".376204"/></g></svg>