<svg height="16" viewBox="0 0 4.2333332 4.2333335" width="16" xmlns="http://www.w3.org/2000/svg"><g transform="translate(0 -292.76666)"><path d="m6 0a5.9999994 2.9999999 0 0 0 -6 3v13h12v-4h1.5v-1h .5v-8.0332031a1.0000001 1.0000001 0 0 0  .75-.9667969 1.0000001 1.0000001 0 0 0 -1-1 1.0000001 1.0000001 0 0 0 -1 1 1.0000001 1.0000001 0 0 0  .75.9667969v6.0332031h-1.5v-6a5.9999994 2.9999999 0 0 0 -6-3zm-4 4h8v5h-8zm1 8h6l1 2h-8z" stroke-width="1.987519" transform="matrix(.26458333 0 0 .26458333 0 292.76666)"/><g stroke-width=".343946"><path d="m .92604167 294.28802h.26458333v.79375h-.26458333z"/><path d="m1.984375 294.28802h.264583v.79375h-.264583z"/><path d="m1.455208 294.28802h.264583v.79375h-.264583z"/></g></g></svg>