<svg height="16" viewBox="0 0 4.2333332 4.2333332" width="16" xmlns="http://www.w3.org/2000/svg"><path d="m1.6727884 295.84897c-.3804434-.56165-1.13634188-.91249-1.26245538-1.58783-.052464-.28094.052189-.61925.2490162-.81835.2074282-.20984.47762498-.34517.83350258-.2462.3558781.099.5946233.36858.623815.67154.029192-.30296.2679368-.57257.623815-.67154.3558773-.099.6260742.0364.8335026.2462.1968267.19911.30148.53741.249016.81835-.1261134.67534-.8761669 1.03055-1.2624553 1.58783-.1666182.24037-.4529711.75416-.4529711.75416s-.2728682-.51513-.4347856-.75416z" transform="translate(0 -292.76667)"/></svg>