<svg height="16" viewBox="0 0 4.2333332 4.2333335" width="16" xmlns="http://www.w3.org/2000/svg"><g transform="translate(0 -292.76666)"><path d="m0 294.88333v1.5875l.13229167.13229h3.96874993l.1322917-.13229v-1.5875h-.79375v.39687h-.5291667v-.39687h-1.5874999v.39687h-.52916671v-.39687z"/><path d="m12 4c0-1.6568542-1.790861-2.9999999-4-3-2.2091391.0000001-4.0000001 1.3431458-4 3l-.0000001.9999749h-3.49999988l-.50000002.5000315v1.4999811h3v-.4999937h2.0000002v.4999937h5.9999998v-.4999937h2v .4999937h3v-1.4999811l-.5-.5000315h-3.5zm-1 .9999749h-5.9999998l-.0000002-.9999749c.0000001-1.1045696 1.3431458-2.0000001 3-2 1.6568542-.0000001 3 .8954304 3 2z" transform="matrix(.26458333 0 0 .26458333 0 292.76666)"/></g></svg>