<svg height="16" viewBox="0 0 4.2333332 4.2333335" width="16" xmlns="http://www.w3.org/2000/svg"><g transform="translate(0 -292.76666)"><path d="m8 0c-1.8104156 0-3.3947003 1.2161319-3.8632812 2.9648438-.4685901 1.7487492.2953937 3.5948031 1.8632812 4.5l-.0253906 1.7910156c-.218778.0563149-.4333548.1212337-.6425782.1953125-.8367818.2963149-1.5932295.7268401-2.2304687 1.2617191-1.2744783 1.069757-2.0746976 2.554608-2.1015625 4.203125-.02552315 1.566198 4.6391295 1.070113 7 1.083984.2863113.001837.6847555.018118 1.0546875.03125a4.9999997 5.0000009 0 0 1 -2.0546875-4.03125 4.9999997 5.0000009 0 0 1 3.15625-4.6425781c1.456719-.9362142 2.158996-2.7058739 1.707031-4.3925781-.468581-1.7487119-2.0528654-2.9648438-3.863281-2.9648438z" transform="matrix(.26458333 0 0 .26458333 0 292.76666)"/><path d="m3.1750001 294.88332a1.0583333 1.0583352 0 0 0 -1.0583334 1.05834 1.0583333 1.0583352 0 0 0 1.0583334 1.05833 1.0583333 1.0583352 0 0 0 1.0583333-1.05833 1.0583333 1.0583352 0 0 0 -1.0583333-1.05834zm-.1763889.35278h.3527777v.52917h.5291668v.35278h-.5291668v.52916h-.3527777v-.52916h-.5291667v-.35278h.5291667z"/></g></svg>