<svg height="16" viewBox="0 0 4.2333332 4.2333335" width="16" xmlns="http://www.w3.org/2000/svg"><path d="m2.6458334 294.74153c.414837-.2395.6170861-.72778.493105-1.19047-.1239788-.46268-.5432658-.78441-1.0222716-.78441s-.8982928.32173-1.0222716.78441c-.12398112.46269.078268.95097.4931049 1.19047l-.00673.47384c-.057885.0149-.1145826.0323-.1699396.0519-.2213986.0784-.42139186.19238-.58999472.3339-.33720573.28304-.54896332.67589-.55607132 1.11206-.006753.41439 1.22725584.28309 1.85190284.28676.623617.004 1.8520842.14918 1.8520833-.26456-.000001-.43621-.2053381-.83156-.5379005-1.11861-.1662812-.14352-.3643366-.26014-.5844991-.34094-.055033-.0202-.111443-.0382-.169078-.0539l-.031439-.48045" transform="translate(0 -292.76666)"/></svg>