<svg height="16" viewBox="0 0 4.2333332 4.2333335" width="16" xmlns="http://www.w3.org/2000/svg"><path d="m8 0v2h-3v1h1v5s-5.23651565 4.142337-5 7c .038883.469795.5644812.819603 1 1h12c .435519-.180283.961117-.530205 1-1 .236515-2.857663-5-7-5-7v-5h1v-1h-2.0629999v-2zm-1.1347656 2.8671875h1.1347656v.3828125h.5v.25h-.5v.75h.5v.25h-.5v.75h.5v.25h-.5v.75h.5v.25h-.5v.75h.5v.25h-.5v.75h.5v.25h-.5v.75h.5v.25h-.5v.75h.5v.25h-.5v.517578h-1.0117188c.1997579.03054.3473827.202218.3476563.404297.0003322.22666-.1834958.410488-.4101563.410156-.2266604.000332-.4104884-.183496-.4101562-.410156-.0003495-.199565.1431907-.370328.3398438-.404297h-2.8027344c1.2259604-1.3344735 2.4882812-2.3339844 2.4882812-2.3339842.2096967-.1657108.3320226-.4182778.3320313-.6855469v-4.9980469c.0007748-.044405-.0018425-.088805-.0078125-.1328125zm2.0722656-.0001875h.5097656v5.804875c.004.00333.0057.00845.00977.011719 0 0 1.2621698.9995485 2.4863278 2.3339842h-2.4960978-.5097656zm-1.1113281 9.129094c.4319023-.000274.7823989.349348.7832031.78125.000274.432665-.3505386.783477-.7832031.783203-.4319016-.000804-.7815242-.351301-.78125-.783203.0008021-.43114.3501102-.780448.78125-.78125zm-2.0019531.800781c.7739024-.000415 1.4016803.626489 1.4023437 1.400391.0004148.774665-.627679 1.402758-1.4023437 1.402343-.7739019-.000664-1.4008053-.628441-1.4003907-1.402343.0006626-.77314.6272508-1.399728 1.4003907-1.400391z" stroke-width="3.779527" transform="scale(.26458333)"/></svg>