<svg height="16" viewBox="0 0 4.2333332 4.2333335" width="16" xmlns="http://www.w3.org/2000/svg"><g transform="translate(0 -292.76666)"><path d="m7.5683594 2.7167969c-3.5520609 0-6.4316387 1.8462595-6.4316406 4.1230469.0000003.5691968.2839192 1.423014.609375 1.9160156 0 0-.3635966 1.3388706-1.55273442 1.7246096-1.13158061.367032 2.88583472-.049072 3.29492182-.091797-.0968715-.296184-.1523434-.6069067-.1523437-.9296876.0000012-1.2559748.7926226-2.3338182 1.9199219-3.0546875 1.1272992-.7209071 2.6227555-1.1367188 4.2597656-1.1367188 1.63701 0 3.126349.4155849 4.251953 1.1367188.076903.0492686.137281.113457.210938.1660156-.218371-2.1501013-3.000598-3.8535156-6.4101566-3.8535156z" stroke-width="1.433407" transform="matrix(.26458333 0 0 .26458333 0 292.76666)"/><path d="m3.9862558 295.30917c-.0000003-.49483-.6258236-.89596-1.3978153-.89596-.7719919 0-1.397815.40113-1.3978155.89596.0000005.49483.6258236.89596 1.3978155.89596.3694222.009.6484555-.0434.840338-.1289 0 0 1.0210793.10797.7626365.0241-.2584428-.0838-.3376905-.37455-.3376905-.37455.070733-.10714.1325313-.29292.1325313-.41664z" stroke-width=".311531"/></g></svg>