<svg height="16" viewBox="0 0 4.2333332 4.2333335" width="16" xmlns="http://www.w3.org/2000/svg"><g transform="translate(0 -292.76666)"><path d="m11.654297 0c-1.124011 0-2.1094684.75406108-2.4003908 1.8398438-.192564.7186222-.0434363 1.4603551.3574219 2.0449218.8136469.4348401 1.4384769 1.1903443 1.6894529 2.1269532.374814 1.3988031-.202131 2.8533549-1.3730466 3.6699218l.0195312.2792969c.6218574-.0096675 1.2363224-.0300989 1.7070314-.0273437 1.463349.0113385 4.345705.3496782 4.345703-.6210938-.000003-1.0236472-.481345-1.9514126-1.261719-2.625-.390187-.3371339-.856425-.609247-1.373047-.7988281-.129135-.0476221-.26124-.0895358-.396484-.1269531l-.074219-1.1269532v-.0019531c.973436-.5620157 1.449131-1.7072617 1.158203-2.7929687-.290925-1.08578272-1.274426-1.8398438-2.398437-1.8398438z" transform="matrix(.26458333 0 0 .26458333 0 292.76666)"/><path d="m2.4780396 295.22669c.2833349-.16358.4214716-.49708.3367921-.8131-.084678-.31601-.3710521-.53575-.6982145-.53575-.3271622 0-.6135364.21974-.6982143.53575-.08468.31602.053457.64952.3367921.8131l-.0046.32363c-.039536.0102-.07826.0221-.1160693.0354-.1512159.0535-.2878118.13139-.402968.22805-.2303123.19332-.37494343.46164-.37979818.75955-.004616.28302.83821928.19334 1.26485488.19585.4259322.003 1.2649788.10189 1.2649783-.1807-.0000007-.29793-.1402466-.56796-.3673877-.76401-.1135705-.098-.248843-.17767-.3992146-.23286-.037587-.0138-.076116-.0261-.1154807-.0368l-.021473-.32815"/><path d="m1.1498032 292.7665c.2973946 0 .5581302.19951.6351034.48679.050949.19014.011493.38639-.094568.54105-.2152775.11506-.3805971.31495-.4470011.56276-.09917.3701.053481.75495.3632852.971l-.00517.0739c-.1645331-.003-.3271103-.008-.4516521-.007-.3871778.003-1.1498011.0925-1.1498006-.16433.0000008-.27084.1273559-.51631.3338298-.69453.103237-.0892.2265958-.1612.3632854-.21136.034167-.0126.06912-.0237.104903-.0336l.019637-.29817v-.00051c-.2575551-.14871-.3834161-.45172-.3064414-.73898.076974-.28728.3371919-.48679.6345864-.48679z"/></g></svg>