<svg height="16" viewBox="0 0 4.2333332 4.2333332" width="16" xmlns="http://www.w3.org/2000/svg"><g transform="translate(0 -292.76667)"><path d="m4.6933594 1.5c-.8914088.0232246-1.6131865.4598655-2.2011719 1.0546875-.7439138.7525039-1.1396954 2.0319295-.9414063 3.09375.4766495 2.5524661 3.3335881 3.8791815 4.7714844 6.0019535.6119713.90342 1.6425782 2.849609 1.6425782 2.849609s1.0831525-1.941124 1.7128906-2.849609c1.4599876-2.1062555 4.2948356-3.4494874 4.7714846-6.0019535.198289-1.0618205-.197495-2.3412083-.941407-3.09375-.783981-.7929449-1.805342-1.3038607-3.15039-.9296875-1.3450516.3740598-2.24709 1.3920637-2.357422 2.5371094-.1103308-1.1450457-1.0123708-2.1629362-2.3574219-2.5371094-.3362623-.093515-.6520825-.1327415-.9492187-.125zm6.6074216.4941406c.748239.0109152 1.323351.3739264 1.853516.9101563.606997.614022.967969 1.7838472.804687 2.6582031-.208523 1.1166614-.947606 2.0043024-1.875 2.9003906-.927393.8960882-2.024798 1.7718124-2.8124996 2.9082034-.4964497.716182-.9630137 1.555543-1.2988282 2.148437-.3225293-.596712-.7564983-1.434333-1.2402343-2.148437-.777792-1.148259-1.8817524-2.0213261-2.8125-2.9160159-.9307479-.8947275-1.6745808-1.7775041-1.8828125-2.8925781-.1628725-.8721638.2043613-2.0430472.8125-2.6582031.5309545-.5371465 1.0999362-.8967134 1.8457031-.9082031.248589-.0038174.5200628.0299926.8125.1113281 1.1770579.3274204 1.9119843 1.1822291 2 2.0957031a.49845385.49845385 0 0 0  .9882813 0c .0882205-.9155906.8175888-1.7685094 1.9941402-2.0957031.292308-.0813166.561134-.1169197.810547-.1132813z" transform="matrix(.26458333 0 0 .26458333 0 292.76667)"/><path d="m2.6714222 296.19705c-.2048541-.30243-.6118764-.49135-.6797837-.855-.02825-.15127.028102-.33344.1340857-.44065.1116922-.11298.2571827-.18585.4488091-.13258.1916267.0533.3201818.19847.3359005.36161.015719-.16314.1442736-.30831.3359003-.36161.1916263-.0533.3371169.0196.4488092.13258.1059842.10724.1623353.28938.134085.44065-.067907.36365-.4717823.55492-.6797838.855-.089717.12936-.2439074.40608-.2439074.40608s-.1469291-.27738-.2341149-.40608z"/></g></svg>