<svg height="16" viewBox="0 0 4.2333332 4.2333335" width="16" xmlns="http://www.w3.org/2000/svg"><g transform="translate(0 -292.76666)"><path d="m .529167 295.14792h1.322917v1.5875h-1.322917z" stroke-width=".290571"/><path d="m2.38125 295.14792h1.322917v1.5875h-1.322917z" stroke-width=".290571"/><path d="m .264583 294.08957h1.5875v.79375h-1.5875z" stroke-width=".374682"/><path d="m2.38125 294.08957h1.5875v.79375h-1.5875z" stroke-width=".374682"/><path d="m1.3229167 293.03124a.52916669.52916669 0 0 0 -.52916671.52917.52916669.52916669 0 0 0  .52916671.52917.52916669.52916669 0 0 0  .5291666-.52917.52916669.52916669 0 0 0 -.5291666-.52917zm0 .1323a.396875.396875 0 0 1  .3968749.39687.396875.396875 0 0 1 -.3968749.39688.396875.396875 0 0 1 -.39687504-.39688.396875.396875 0 0 1  .39687504-.39687z" stroke-width=".302824"/><path d="m3.0427083 292.76664a.6614584.6614584 0 0 0 -.6614584.66147.6614584.6614584 0 0 0  .6614584.66146.6614584.6614584 0 0 0  .6614583-.66146.6614584.6614584 0 0 0 -.6614583-.66147zm0 .16538a.49609377.49609377 0 0 1  .4960936.49609.49609377.49609377 0 0 1 -.4960936.4961.49609377.49609377 0 0 1 -.4960938-.4961.49609377.49609377 0 0 1  .4960938-.49609z" stroke-width=".37853"/><path d="m1.322917 293.97324h1.719792v.132292h-1.719792z" stroke-width=".236514"/></g></svg>