<svg height="16" viewBox="0 0 4.2333332 4.2333335" width="16" xmlns="http://www.w3.org/2000/svg"><g transform="translate(0 -292.76666)"><path d="m7.9003906.9921875a6.9999997 6.9999997 0 0 0 -4.5761718 1.796875l-1.3574219-1.3574219-1.35351565 5.0546875 5.05273435-1.3535156-1.6269531-1.6289063a5.9999999 5.9999999 0 0 1 8.2070315.2441407 5.9999999 5.9999999 0 0 1 0 8.4863281 5.9999999 5.9999999 0 0 1 -8.3046878.166016l-.7050781.705078a6.9999997 6.9999997 0 0 0 9.7167969-.164063 6.9999997 6.9999997 0 0 0 0-9.9003904 6.9999997 6.9999997 0 0 0 -5.0527344-2.0488281z" stroke-width="2.309685" transform="matrix(.26458333 0 0 .26458333 0 292.76666)"/><path d="m1.9808629 293.4378v1.31775h-.7885824v.39688h1.1854574v-1.71463z" stroke-width=".264583"/></g></svg>