<svg height="16" viewBox="0 0 4.2333332 4.2333335" width="16" xmlns="http://www.w3.org/2000/svg"><path d="m6.5019531 3.1171875c-2.5662281.0006803-4.6461925 1.6697314-4.6464843 3.7285156.0004933.4815118.1172259.9583882.34375 1.4042969-1.35435735.6704882-2.19921036 1.5710677-2.1992188 2.566406-.00003203 1.776779 2.701261 2.013921 6.25 2.048828v-3.8652339h-1.5l3.25-4 3.25 4h-1.5v3.8652339c3.548739-.03491 6.250032-.272049 6.25-2.048828-.000008-.9699777-.809878-1.8467862-2.103516-2.5117185.163665-.2588976.24889-.5481654.248047-.8417969-.000748-.9804094-.940402-1.7749371-2.099609-1.7753906-.365405.0008693-.724221.0825014-1.041016.2363281-.525251-1.6507842-2.3783153-2.8060359-4.5019529-2.8066406z" transform="scale(.26458333)"/></svg>