<svg xmlns="http://www.w3.org/2000/svg"><symbol viewBox="0 0 16 16" id="misc_cancel"><title>misc_cancel</title><path d="m8 .75a7.25 7.25 0 0 0 -7.25 7.25 7.25 7.25 0 0 0 7.25 7.25 7.25 7.25 0 0 0 7.25-7.25 7.25 7.25 0 0 0 -7.25-7.25zm0 2.6328125a4.6174498 4.6174498 0 0 1 4.617188 4.6171875 4.6174498 4.6174498 0 0 1 -.664063 2.376953l-6.3300781-6.330078a4.6174498 4.6174498 0 0 1 2.3769531-.6640625zm-3.953125 2.2402344 6.330078 6.3300781a4.6174498 4.6174498 0 0 1 -2.376953.664063 4.6174498 4.6174498 0 0 1 -4.6171875-4.617188 4.6174498 4.6174498 0 0 1  .6640625-2.3769531z"/></symbol><symbol viewBox="0 0 4.2333332 4.2333332" id="misc_favorite"><title>misc_favorite</title><path d="m1.5703549 296.0718c-.468238-.69126-1.39857455-1.12306-1.55379116-1.95425-.0645711-.34577.0642326-.76215.30648147-1.0072.25529624-.25826.58784611-.42482 1.02584929-.30301.4380038.12184.731844.45363.7677723.82651.035929-.37288.3297684-.70471.7677723-.82651.4380028-.12185.7705528.0448 1.0258493.30301.2422483.24506.3710523.66143.3064812 1.0072-.1552164.83119-1.0783592 1.26837-1.5537911 1.95425-.2050685.29584-.5575028.9282-.5575028.9282s-.3358378-.63401-.5351208-.9282z" transform="translate(0 -292.76667)"/></symbol><symbol viewBox="0 0 4.2333332 4.2333332" id="misc_resend"><title>misc_resend</title><path d="m2.1171834 292.76667a2.1166701 2.1166701 0 0 1 1.5528793.6816c.06001-.0354.1243206-.0708.1824181-.10593.1429357-.0853.2860271-.17041.3767218-.22221l-.00827 1.25213-.00155.29145a2.1166701 2.1166701 0 0 1  .013436.19068l-.014986-.007-.00465.77721-1.0805559-.63303-1.0800392-.63304c.090693-.0515.2385707-.13148.3865404-.21188.08125-.0451.1746561-.0974.2609663-.1452a1.0583351 1.0583351 0 0 0 -.582911-.17622 1.0583351 1.0583351 0 0 0 -1.0583351 1.05833 1.0583351 1.0583351 0 0 0 1.0583351 1.05834 1.0583351 1.0583351 0 0 0  .7978853-.36535l.9642838.478a2.1166701 2.1166701 0 0 1 -1.7621689.94545 2.1166701 2.1166701 0 0 1 -2.11667008-2.11667 2.1166701 2.1166701 0 0 1 2.11667008-2.11666z" transform="translate(0 -292.76667)"/></symbol><symbol viewBox="0 0 4.2333332 4.2333332" id="misc_restore"><title>misc_restore</title><path d="m2.1161485 292.76667a2.1166701 2.1166701 0 0 0 -1.55287928.6816c-.06001-.0354-.1243206-.0708-.1824181-.10593-.1429357-.0853-.2860271-.17041-.3767218-.22221l.00827 1.25213.00155.29145a2.1166701 2.1166701 0 0 0 -.013436.19068l.014986-.007.00465.77721 1.08055588-.63303 1.0800392-.63304c-.090693-.0515-.2385707-.13148-.3865404-.21188-.08125-.0451-.1746561-.0974-.2609663-.1452a1.0583351 1.0583351 0 0 1  .582911-.17622 1.0583351 1.0583351 0 0 1 1.0583351 1.05833 1.0583351 1.0583351 0 0 1 -1.0583351 1.05834 1.0583351 1.0583351 0 0 1 -.7978853-.36535l-.96428378.478a2.1166701 2.1166701 0 0 0 1.76216888.94545 2.1166701 2.1166701 0 0 0 2.1166701-2.11667 2.1166701 2.1166701 0 0 0 -2.1166701-2.11666z" transform="translate(0 -292.76667)"/></symbol><symbol viewBox="0 0 4.2333332 4.2333332" id="misc_send"><title>misc_send</title><path d="m .00000001 293.37143v3.02381l1.51190469-1.5119-.98273804-.98274zm.51381137 0 1.60285521 1.60286 1.6028552-1.60286zm3.71952181 0-.5291666.52917-.9827381.98274 1.5119047 1.5119zm-2.4645228 1.76881-1.25499901 1.255h3.20571042l-1.254999-1.255-.3478562.34786z" transform="translate(0 -292.76667)"/></symbol><symbol viewBox="0 0 16 16" id="misc_trash"><title>misc_trash</title><g transform="matrix(.001632649 0 0 -.001632649 -.163408 8.19593688)"><path d="m4200.8 4989c-138-49.8-243.4-126.5-312.4-230-57.5-86.3-115-245.3-115-314.3 0-32.6-65.2-34.5-1297.6-38.3l-1299.5-5.7-105.4-49.8c-153.3-70.9-220.4-138-291.3-281.7l-63.2-128.4v-433.1-433.2l51.8-67.1c109.2-141.8-276-130.3 4231.9-130.3s4122.600000000002-11.5 4231.900000000001 130.3l51.799999999999 67.1v433.2 433.1l-63.200000000001 128.4c-70.9 143.8-138 210.8-291.299999999999 281.7l-105.4 49.8-1295.6 5.7-1297.6 5.8-11.5 80.5c-30.7 201.2-166.7 383.3-354.6 471.5l-107.3 49.8-728.3 3.8c-663.4 5.7-738.2 1.9-828.2-28.8z"/><path d="m1323.9-1027.3 5.7-3292.8 49.8-105.4c70.9-153.3 138-220.4 281.7-291.3l128.4-63.2h3210.5 3210.3l105.4 49.8c153.299999999999 70.9 220.4 138 291.299999999999 281.7l63.299999999999 128.4 5.700000000001 3290.8 3.799999999999 3292.7h-3679.799999999998-3679.9zm2924.8 1705.8c26.8-19.2 67.1-61.3 88.2-90.1 40.2-51.8 40.2-67.1 40.2-1544.8s0-1493-40.2-1544.8c-74.8-101.6-136.1-132.3-256.8-132.3s-182.1 30.7-256.8 132.3c-40.2 51.8-40.2 72.8-46 1493-3.8 793.5 0 1468.1 5.8 1502.6 13.4 76.7 93.9 174.4 172.5 208.9 76.5 36.6 229.8 23.1 293.1-24.8zm1839.900000000001 0c26.8-19.2 67.1-61.3 88.2-90.1 40.2-51.8 40.2-67.1 40.2-1544.8s0-1493-40.2-1544.8c-74.8-101.6-136.1-132.3-256.8-132.3s-182.1 30.7-256.8 132.3c-40.2 51.8-40.2 72.8-46 1493-3.8 793.5 0 1468.1 5.7 1502.6 13.4 76.7 93.9 174.4 172.5 208.9 76.7 36.6 230 23.1 293.2-24.8z"/></g></symbol></svg>