<svg 
     xmlns:rdf="http://www.w3.org/1999/02/22-rdf-syntax-ns#"
     xmlns="http://www.w3.org/2000/svg"
     xmlns:cc="http://creativecommons.org/ns#" 
     xmlns:dc="http://purl.org/dc/elements/1.1/" 
     version="1.1" 
     width="200"
     height="38"
     viewBox="0 0 200 38"
     preserveAspectRatio="xMidYMin meet"
     class="logo-svg">

   <defs>
    <linearGradient id="modern-v1" x1="151.03" y1="364.9" x2="148.98" y2="403.46" gradientUnits="userSpaceOnUse">
        <stop offset="0%"   style="stop-color:rgb(255,255,255);stop-opacity:1" />
        <stop offset="100%" style="stop-color:rgb(155,221,249);stop-opacity:1" />
    </linearGradient>
    <linearGradient id="modern-v2" x1="0%" y1="0%" x2="100%" y2="0%" gradientUnits="userSpaceOnUse">
        <stop offset="42%" style="stop-color:rgb( 72, 99,156);stop-opacity:1" />
        <stop offset="70%" style="stop-color:rgb(112,139,255);stop-opacity:1" />
        <stop offset="90%" style="stop-color:rgb( 72, 99,156);stop-opacity:1" />
    </linearGradient>
  </defs>

  <g fill="url(#modern-v1)" stroke="#addbf5">
<!--  <g fill="url(#modern-v2)" stroke="#161d29"> -->
    <g transform="matrix(0.98517618,0,0.25640585,0.98442506,-161.78342,-358.00437)">
      <path d="m92.703,383.61-14.301,0,0,7.8476c-0.000013,1.6406,0.11848,2.6979,0.35547,3.1719,0.23696,0.47396,0.69269,0.71094,1.3672,0.71094,0.83853,0,1.3991-0.31445,1.6816-0.94336,0.28254-0.6289,0.42381-1.8457,0.42383-3.6504v-4.7852h10.473v2.6797c-0.000027,2.2422-0.1413,3.9648-0.42383,5.168-0.28258,1.2031-0.94338,2.4883-1.9824,3.8555-1.0391,1.3672-2.3561,2.3926-3.9512,3.0762-1.5951,0.68359-3.5957,1.0254-6.002,1.0254-2.3333,0-4.3932-0.33724-6.1797-1.0117-1.7865-0.67448-3.1764-1.5996-4.1699-2.7754-0.99349-1.1758-1.6816-2.47-2.0645-3.8828-0.38282-1.4128-0.57422-3.4681-0.57422-6.166v-10.582c-0.000002-3.1718,0.42838-5.6738,1.2852-7.5059,0.85677-1.832,2.2604-3.2356,4.2109-4.2109,1.9505-0.97522,4.1927-1.4628,6.7266-1.4629,3.0989,0.00004,5.6556,0.58793,7.6699,1.7637s3.4271,2.7344,4.2383,4.6758c0.81117,1.9414,1.2168,4.6712,1.2168,8.1895zm-11.074-5.9062,0-2.6524c-0.000016-1.8776-0.10028-3.0898-0.30078-3.6367-0.20054-0.54684-0.61069-0.82028-1.2305-0.82031-0.76564,0.00003-1.2396,0.23245-1.4219,0.69727-0.1823,0.46487-0.27345,1.7181-0.27344,3.7598v2.6524z"/>
      <path d="m103.57,372.16-0.13672,2.4609c0.61197-0.97654,1.3411-1.709,2.1875-2.1973,0.84634-0.48825,1.8099-0.7324,2.8906-0.73242,2.1094,0.00002,3.7695,0.97659,4.9805,2.9297,0.66404-0.97654,1.4127-1.709,2.2461-2.1973,0.83332-0.48825,1.7578-0.7324,2.7734-0.73242,1.3411,0.00002,2.4512,0.32555,3.3301,0.97656,0.87888,0.65107,1.442,1.4486,1.6894,2.3926,0.24737,0.94403,0.37107,2.4772,0.3711,4.5996v18.418h-7.6562v-16.895c-0.00003-2.2135-0.0749-3.584-0.22461-4.1113-0.14976-0.52732-0.49807-0.791-1.0449-0.79102-0.55992,0.00002-0.92125,0.26044-1.084,0.78125-0.16278,0.52086-0.24416,1.8946-0.24414,4.1211v16.895h-7.6562v-16.465c-0.00001-2.539-0.0619-4.0625-0.18555-4.5703-0.12371-0.50779-0.4655-0.7617-1.0254-0.76172-0.35157,0.00002-0.65105,0.13349-0.89843,0.40039-0.24741,0.26695-0.38413,0.59247-0.41016,0.97657-0.026,0.38413-0.0391,1.2012-0.0391,2.4512v17.969h-7.6563v-25.918z"/>
      <path d="m134.66,372.16-0.13672,2.2852c0.70311-0.92445,1.4778-1.6146,2.3242-2.0703,0.84634-0.4557,1.7708-0.68357,2.7734-0.68359,1.224,0.00002,2.2819,0.3288,3.1738,0.98633,0.89191,0.65757,1.4486,1.416,1.6699,2.2754,0.22134,0.85939,0.33201,2.3177,0.33203,4.375v10.918c-0.00002,2.3568-0.13999,4.0332-0.41992,5.0293-0.27996,0.9961-0.85288,1.7904-1.7188,2.3828-0.8659,0.59244-1.9108,0.88867-3.1348,0.88867-0.97658,0-1.8815-0.22787-2.7148-0.6836-0.83334-0.45573-1.5951-1.1328-2.2852-2.0312v5.9375h-7.8906v-29.609z"/>
      <path d="m165.27,381.26,0,6.3477c-0.00001,2.3307-0.1172,4.0397-0.35156,5.127-0.23439,1.0872-0.73569,2.1029-1.5039,3.0469-0.76825,0.94401-1.7546,1.6406-2.959,2.0898-1.2044,0.44922-2.5879,0.67383-4.1504,0.67383-1.7448,0-3.2227-0.19206-4.4336-0.57617-1.211-0.38412-2.1517-0.96355-2.8223-1.7383-0.67057-0.77473-1.1491-1.7122-1.4356-2.8125-0.28646-1.1002-0.42968-2.7506-0.42968-4.9512v-6.6406c0-2.4088,0.26041-4.2904,0.78125-5.6445,0.52083-1.3542,1.4583-2.4414,2.8125-3.2617,1.3542-0.82029,3.0859-1.2304,5.1953-1.2305,1.7708,0.00002,3.291,0.2637,4.5606,0.79101,1.2695,0.52737,2.2493,1.2142,2.9394,2.0606,0.69009,0.84638,1.1621,1.7188,1.416,2.6172,0.25389,0.89846,0.38085,2.2656,0.38086,4.1016z"/>
      <path d="m175.78,372.16-0.3125,3.3984c1.1458-2.4349,2.806-3.7239,4.9805-3.8672v9.1211c-1.4453,0.00002-2.5065,0.19533-3.1836,0.58594-0.67709,0.39064-1.0938,0.93426-1.25,1.6309-0.15626,0.69663-0.23438,2.3014-0.23437,4.8144v10.234h-7.8906v-25.918z"/>
      <path d="m190.21,372.16-0.13672,2.3828c0.57291-0.9505,1.2728-1.6634,2.0996-2.1387,0.82681-0.47524,1.7806-0.71287,2.8613-0.71289,1.3542,0.00002,2.4609,0.31903,3.3203,0.95703,0.85936,0.63805,1.4127,1.4421,1.6602,2.4121,0.24737,0.97007,0.37107,2.5879,0.37109,4.8535v18.164h-7.8906v-17.949c-0.00001-1.7838-0.0586-2.8711-0.17578-3.2617-0.1172-0.3906-0.44272-0.58592-0.97657-0.58594-0.5599,0.00002-0.91146,0.22463-1.0547,0.67383-0.14324,0.44924-0.21486,1.6504-0.21485,3.6035v17.52h-7.8906v-25.918z"/>
      <path d="m211.25,366.46,0,4.1211-8.125,0,0-4.1211zm0,5.7031,0,25.918-8.125,0,0-25.918z"/>
      <path d="m232.12,372.16,0,25.918-8.0273,0,0.13672-2.1484c-0.54689,0.8724-1.2207,1.5267-2.0215,1.9629-0.80079,0.4362-1.722,0.6543-2.7637,0.6543-1.1849,0-2.168-0.20834-2.9492-0.625-0.78125-0.41667-1.3574-0.97005-1.7285-1.6602-0.3711-0.6901-0.60222-1.4095-0.69336-2.1582-0.0911-0.7487-0.13672-2.2363-0.13672-4.4629v-17.48h7.8906v17.637c0,2.0182,0.0618,3.2162,0.18555,3.5938,0.12369,0.37761,0.45898,0.56641,1.0059,0.5664,0.58593,0.00001,0.93423-0.1953,1.0449-0.58593,0.11067-0.39062,0.16601-1.6471,0.16602-3.7695v-17.441z"/>
      <path d="m242.79,372.16-0.13672,2.4609c0.61197-0.97654,1.3411-1.709,2.1875-2.1973,0.84634-0.48825,1.8099-0.7324,2.8906-0.73242,2.1094,0.00002,3.7695,0.97659,4.9805,2.9297,0.66404-0.97654,1.4127-1.709,2.2461-2.1973,0.83332-0.48825,1.7578-0.7324,2.7734-0.73242,1.3411,0.00002,2.4512,0.32555,3.3301,0.97656,0.87888,0.65107,1.442,1.4486,1.6894,2.3926,0.24737,0.94403,0.37107,2.4772,0.3711,4.5996v18.418h-7.6562v-16.895c-0.00003-2.2135-0.0749-3.584-0.22461-4.1113-0.14976-0.52732-0.49807-0.791-1.0449-0.79102-0.55992,0.00002-0.92125,0.26044-1.084,0.78125-0.16278,0.52086-0.24416,1.8946-0.24414,4.1211v16.895h-7.6562v-16.465c-0.00001-2.539-0.0619-4.0625-0.18555-4.5703-0.12371-0.50779-0.4655-0.7617-1.0254-0.76172-0.35157,0.00002-0.65105,0.13349-0.89843,0.40039-0.24741,0.26695-0.38413,0.59247-0.41016,0.97657-0.026,0.38413-0.0391,1.2012-0.0391,2.4512v17.969h-7.6562v-25.918z"/>
    </g>
  </g>
</svg>

