<svg height="28" preserveAspectRatio="xMidYMin meet" viewBox="0 0 165 28" width="165" xmlns="http://www.w3.org/2000/svg" xmlns:xlink="http://www.w3.org/1999/xlink"><linearGradient id="b" gradientUnits="userSpaceOnUse" x1="-24.052734" x2="-24.052734" y1="19.791016" y2="36.681095"><stop offset="0" stop-color="#fff"/><stop offset="1" stop-color="#b2d5e3"/></linearGradient><linearGradient id="c" gradientUnits="userSpaceOnUse" x1="-25.908714" x2="-25.908714" y1="5.9008818" y2="34.782841"><stop offset="0" stop-color="#fff"/><stop offset="1" stop-color="#9bddf9"/></linearGradient><g fill="url(#b)" stroke="#b3bfc4" stroke-width="1.54127651" transform="matrix(.5992126 0 0 .70251879 14.712308 .852249)"><path d="m84.126953 4.8398438c-4.055983 0-7.50551 1.4287265-10.228515 4.2460937-2.73733 2.8182365-4.117188 6.3975515-4.117188 10.6269535 0 4.367674 1.362856 8.024568 4.076172 10.859375 2.643681 2.765075 5.983465 4.169922 9.898437 4.169922 2.00368 0 3.851568-.358838 5.525391-1.080079a.53624669.53624669 0 0 0  .002-.002c1.670834-.733536 3.185054-1.821078 4.53125-3.248047a.53624669.53624669 0 0 0  .002-.002c1.345994-1.453674 2.356691-3.078342 3.019532-4.863281v-.002c.675683-1.798018 1.011718-3.778518 1.011718-5.929688 0-4.188583-1.34559-7.746083-4.015625-10.5644528-2.652655-2.7870684-5.927206-4.2107965-9.705172-4.2107964zm-107.642578.6445312a.53624669.53624669 0 0 0 -.537109.5371094v.703125a.53624669.53624669 0 0 0  .537109.5371094h.9375c.524172 0 .939395.072633 1.246094.1953124a.53624669.53624669 0 0 0  .01953.00781c.334969.1188601.586359.2806055.783203.4863281.03585.039055.179794.3160371.259766.7988281.08015.4838588.123047 1.1631888.123047 2.017578v17.910156c0 .905993-.06512 1.626973-.181641 2.142578-.116521.515606-.29106.805019-.410156.90625-.39987.33989-.986745.535157-1.839844.535157h-.9375a.53624669.53624669 0 0 0 -.537109.537109v.761719a.53624669.53624669 0 0 0  .537109.537109h21.1914062a.53624669.53624669 0 0 0  .5058594-.361328l2.40234478-6.9335914a.53624669.53624669 0 0 0 -.50585938-.71289h-.83984375a.53624669.53624669 0 0 0 -.46679685.273437c-1.3004102 2.304687-2.4028142 3.739859-3.1054688 4.240235-.8398467.584109-2.3140727.935546-4.4160156.935546h-4.667969c-.519155 0-.909965-.07258-1.166015-.18164-.256051-.109059-.376445-.2301-.455078-.402344a.53624669.53624669 0 0 0 -.0078-.01758c.0076.01527-.06355-.209677-.09375-.544922s-.04492-.800185-.04492-1.382812v-8.564454h5.5175782c1.651049 0 2.6379144.341558 3.0351563.792969a.53624669.53624669 0 0 0 0 .002c.2256162.254728.5855343 1.241016.7890625 2.81836a.53624669.53624669 0 0 0  .53125.46875h.7617188a.53624669.53624669 0 0 0  .5371093-.53711v-9.570312a.53624669.53624669 0 0 0 -.5371093-.53711h-.7617338a.53624669.53624669 0 0 0 -.53125.466797c-.2026827 1.532788-.5564069 2.491892-.7871094 2.75586-.3945376.426532-1.3876241.761719-3.0371094.761719h-5.5175782v-9.8242642h7.060547c2.0807363 0 3.3272664.447319 3.8671875 1.1191406.052987.077991.2072971.4039335.3671875.9082026a.53624669.53624669 0 0 0  .00195.0039c.1629002.501231.3566178 1.196001.5761719 2.074219a.53624669.53624669 0 0 0  .5195312.40625h.8007813a.53624669.53624669 0 0 0  .5351563-.566407l-.3320282-5.9960865a.53624669.53624669 0 0 0 -.5351563-.5078125zm27.7949219 0a .53624669.53624669 0 0 0 -.5371094.5371094v.703125a.53624669.53624669 0 0 0  .5371094.5371094c1.2305909 0 2.097155.2503656 2.6425781.6699218.3049487.2374014.6484375 1.1655216.6484375 2.8359374v17.988281c0 .739801-.030956 1.351613-.091797 1.826172a.53624669.53624669 0 0 0 -.00195.01172c-.0468194.444754-.144411.727985-.2050811.826171-.4120133.558208-1.0229614.841797-2.0351563.841797h-.9570312a.53624669.53624669 0 0 0 -.5371094.537109v.761719a.53624669.53624669 0 0 0  .5371094.537109h9.5507811a.53624669.53624669 0 0 0  .53711-.537109v-.761719a.53624669.53624669 0 0 0 -.53711-.537109h-.9375c-.979576 0-1.591239-.241262-1.972656-.654297-.190413-.234199-.458984-1.233612-.458984-2.851563v-15.925781l9.621093 20.955078a.53624669.53624669 0 0 0  .486328.3125h.703125a.53624669.53624669 0 0 0  .488282-.314453l9.599609-20.945312v15.917968c0 1.526306-.224516 2.498034-.333984 2.660157-.395374.555096-1.017715.845703-2.078125.845703h-.976563a.53624669.53624669 0 0 0 -.537109.537109v.761719a.53624669.53624669 0 0 0  .537109.537109h11.757813a.53624669.53624669 0 0 0  .537109-.537109v-.761719a.53624669.53624669 0 0 0 -.537109-.537109h-.976563c-1.002257 0-1.596614-.243982-1.933594-.646485a.53624669.53624669 0 0 0 -.01367-.01758c-.195304-.213609-.484377-1.206443-.484377-2.841795v-17.988281c0-1.4573835.195693-2.4020781.361329-2.6835936.408006-.538564 1.031398-.8222656 2.070312-.8222656h.976563a.53624669.53624669 0 0 0  .537109-.5371094v-.703125a.53624669.53624669 0 0 0 -.537109-.5371094h-7.832032a.53624669.53624669 0 0 0 -.488281.3144531l-9.359375 20.4824219-9.509766-20.4863281a.53624669.53624669 0 0 0 -.486328-.3105469zm39.6113281 0a .53624669.53624669 0 0 0 -.537109.5371094v.703125a.53624669.53624669 0 0 0  .537109.5371094h1.015625c.471682 0 .86333.064927 1.181641.1816406.308446.1130974.5482.281278.75.5234375.0652.080977.199144.3812722.279297.8710937.08053.4921329.123046 1.1667174.123046 2.0078124v17.832031c0 1.511843-.185938 2.493599-.316406 2.728516-.374332.56543-.96843.855469-2.017578.855469h-1.015625a.53624669.53624669 0 0 0 -.537109.537109v.761719a.53624669.53624669 0 0 0  .537109.537109h11.757813a.53624669.53624669 0 0 0  .537109-.537109v-.761719a.53624669.53624669 0 0 0 -.537109-.537109h-1.035157c-.97952 0-1.540538-.252037-1.875-.701172a.53624669.53624669 0 0 0 -.05078-.05859c-.06439-.0644-.215995-.340299-.322266-.808594-.000531-.0023-.0014-.0016-.002-.0039-.09231-.478658-.142578-1.153193-.142578-2.011719v-7.082031c.6363.04388 1.273468.08789 1.712891.117188a.53624669.53624669 0 0 0  .01172 0c .589456.0262 1.014677.04102 1.292969.04102 3.296886.01303 5.82902-.611937 7.556641-1.970703 1.74251-1.360009 2.609375-3.474908 2.609375-6.164062-.000001-2.491488-1.159406-4.6464812-3.355469-6.3242191a.53624669.53624669 0 0 0 -.0098-.00781c-1.710569-1.2506592-4.40122-1.8027519-8.089765-1.8027519zm58.363285 0a .53624669.53624669 0 0 0 -.53711.5371094v.703125a.53624669.53624669 0 0 0  .53711.5371094h1.03515c.86319 0 1.47896.2424828 1.96875.7167968.0547.078048.17721.3633374.25.84375.075.4949144.11524 1.1743512.11524 2.0234374v17.832031c0 .77962-.0314 1.409564-.0918 1.875-.0602.463428-.16746.765606-.2168.845704-.37393.571671-.9704.863281-2.02539.863281h-1.03515a.53624669.53624669 0 0 0 -.53711.537109v.761719a.53624669.53624669 0 0 0  .53711.537109h11.8164a.53624669.53624669 0 0 0  .53711-.537109v-.761719a.53624669.53624669 0 0 0 -.53711-.537109h-1.09375c-.97951 0-1.54053-.252037-1.875-.701172a.53624669.53624669 0 0 0 -.0391-.04687c-.0753-.08027-.22711-.374336-.33398-.857422-.0931-.480361-.14454-1.14408-.14454-1.978516v-7.5c.52615.04437 1.15536.05857 2.11719.0059l9.17778 12.691361a.53624669.53624669 0 0 0  .43359.222656h7.36328a.53624669.53624669 0 0 0  .53711-.537109v-.761719a.53624669.53624669 0 0 0 -.48437-.533203c-1.50015-.150015-2.66721-.528769-3.52149-1.101563-.00066-.000443-.001-.0015-.002-.002-.42635-.296975-.9072-.721977-1.4336-1.273437-.52457-.562557-1.0894-1.264806-1.68945-2.107422a.53624669.53624669 0 0 0 -.002-.002l-5.24805-7.347656c1.94089-.54706 3.5384-1.3253 4.61914-2.458985 1.22567-1.285715 1.84375-2.961774 1.84375-4.919922 0-1.646094-.52381-3.1326022-1.54687-4.380859l-.002-.00195c-.47615-.5878166-1.03805-1.0925878-1.67954-1.5116279-.6297-.4197948-1.33226-.7538842-2.10352-1.0019531h-.002c-.7333-.2395522-1.64457-.4051714-2.75-.5117188-1.10468-.106475-2.42137-.1601562-3.95703-.1601562zm29.92382 0a .53624669.53624669 0 0 0 -.53711.5371094v.703125a.53624669.53624669 0 0 0  .53711.5371094c1.22386 0 2.17351.3570508 2.95704 1.0761718.20316.2524246.40183.5075947.59375.7714844a.53624669.53624669 0 0 0  .0176.023437c.18001.2223653.35233.4438533.52344.6660156v18.9570314c0 .776691-.0381 1.398477-.10937 1.84961-.0712.451133-.19473.728275-.24024.785156a.53624669.53624669 0 0 0 -.0391.05273c-.32774.530159-.9182.81836-2.02344.81836h-.97656a.53624669.53624669 0 0 0 -.53711.537109v.761719a.53624669.53624669 0 0 0  .53711.537109h9.60937a.53624669.53624669 0 0 0  .53711-.537109v-.761719a.53624669.53624669 0 0 0 -.53711-.537109h-.95703c-1.04447 0-1.65991-.249602-1.99218-.646485a.53624669.53624669 0 0 0 -.002-.0039c-.15864-.185994-.4375-1.202632-.4375-2.855469v-15.435549l17.27149 21.029297a.53624669.53624669 0 0 0  .41406.197266h.72266a.53624669.53624669 0 0 0  .53711-.537109v-23.242188c0-1.5282451.22641-2.5020817.35156-2.6816405a.53624669.53624669 0 0 0  .0137-.021484c.32526-.5165924.92018-.8027344 2.02734-.8027343h.95703a.53624669.53624669 0 0 0  .53711-.5371094v-.7031254a.53624669.53624669 0 0 0 -.53709-.5371094h-9.58984a.53624669.53624669 0 0 0 -.53711.5371094v.703125a.53624669.53624669 0 0 0  .53711.5371094h.91797c.96745 0 1.58624.2523397 2.00195.71875a.53624669.53624669 0 0 0  .0215.021484c.0573.057346.20295.3262309.29101.7988281.0881.4725973.13672 1.1343986.13672 1.9667968v14.3906253l-15.88282-19.4765624a.53624669.53624669 0 0 0 -.41602-.1972656zm33.43946 0a .53624669.53624669 0 0 0 -.53711.5371094v.703125a.53624669.53624669 0 0 0  .53711.5371094h.99609c.97885 0 1.61661.2818761 2.08399.8554687a.53624669.53624669 0 0 0  .006.00781c.003.00413.1409.2839684.2129.7519531.0712.4628773.10937 1.1256229.10937 1.9687499v17.832031c0 .822526-.0406 1.481583-.11523 1.958985-.0742.475033-.20271.763811-.25196.826172-.43529.527254-1.06101.798828-2.04492.798828h-.99609a.53624669.53624669 0 0 0 -.53711.537109v.761719a.53624669.53624669 0 0 0  .53711.537109h11.8164a.53624669.53624669 0 0 0  .53711-.537109v-.761719a.53624669.53624669 0 0 0 -.53711-.537109h-1.01562c-.19467 0-.39734-.02135-.61133-.06641-.20332-.0428-.41036-.112147-.62305-.21289a.53624669.53624669 0 0 0 -.0332-.01367c-.43863-.173144-.68587-.35978-.77344-.466797-.15341-.247461-.37109-1.251299-.37109-2.824219v-17.8320275c0-1.5740976.24569-2.567147.41992-2.8007811.00017-.0002328-.00017-.00172 0-.00195.39371-.5119251.99548-.7812501 1.99219-.78125h1.01562a.53624669.53624669 0 0 0  .53696-.5371125v-.703125a.53624669.53624669 0 0 0 -.53711-.5371094zm15.97851 0a .53624669.53624669 0 0 0 -.53711.5371094v.703125a.53624669.53624669 0 0 0  .53711.5371094h.625c1.16663 0 1.75669.3060062 2.06641.8867187a.53624669.53624669 0 0 0  .008.013672c.10304.1803448.20606.5045545.26563.9570312a.53624669.53624669 0 0 0  .002.013672c.072.4561452.10937 1.0296235.10938 1.7128905v10.820313c0 3.760829.36481 6.4458 1.20898 8.148437a.53624669.53624669 0 0 0  .002.0039c1.66391 3.286221 5.1439 4.923828 10.12696 4.923829.998 0 1.92167-.06024 2.77148-.181641.85255-.121793 1.6321-.313229 2.33789-.576172a.53624669.53624669 0 0 0  .002 0c .6319-.238714 1.24068-.568947 1.82227-.984375a.53624669.53624669 0 0 0  .002 0c .58649-.422819 1.14905-.912999 1.68946-1.466797 1.766-1.809073 2.55664-4.93118 2.55664-9.320312v-11.1914012c0-.763377.0392-1.3660047.10937-1.787109.0714-.4282439.18462-.6997373.23438-.7675781a.53624669.53624669 0 0 0  .004-.00391c.29261-.4096542.6028-.7083489.92383-.9121094.31268-.1903635.67245-.2890625 1.12109-.2890624h1.03516a.53624669.53624669 0 0 0  .53711-.5371094v-.7031213a.53624669.53624669 0 0 0 -.5376-.5371094h-9.76562a.53624669.53624669 0 0 0 -.53711.5371094v.703125a.53624669.53624669 0 0 0  .53711.5371094h1.03515c.95319 0 1.55575.249168 1.95899.7128906a.53624669.53624669 0 0 0  .008.00781c.0647.071386.20707.3628366.29297.8515625s.13281 1.1653189.13281 2.0117186v11.171875c0 4.045391-.6948 6.574028-1.76367 7.578125a.53624669.53624669 0 0 0 -.004.0039c-.83648.799572-1.75957 1.38004-2.7832 1.757813-1.02828.379479-2.16749.572266-3.42774.572266-2.9222 0-4.73139-1.012449-5.74218-3.123047-.00044-.000951.00043-.003 0-.0039-.58297-1.274891-.90821-3.24891-.90821-5.886718v-12.0703115c0-1.4420415.21149-2.3892093.4375-2.7324218a.53624669.53624669 0 0 0  .0117-.017578c.35677-.5876325.80829-.8339844 1.5918-.8339843h1.03516a.53624669.53624669 0 0 0  .5371-.5371094v-.703125a.53624669.53624669 0 0 0 -.5371-.5371094zm32.77539 0a .53624669.53624669 0 0 0 -.53711.5371094v.703125a.53624669.53624669 0 0 0  .53711.5371094c1.23059 0 2.09716.2503679 2.64258.6699218.30495.2374025.64844 1.1655219.64844 2.8359374v17.988281c0 .739784-.031 1.351559-.0918 1.826172a.53624669.53624669 0 0 0 -.002.01172c-.0468.444751-.14441.727983-.20508.826172-.41201.558207-1.02295.841797-2.03516.841797h-.95703a.53624669.53624669 0 0 0 -.53711.537109v.761719a.53624669.53624669 0 0 0  .53711.537109h9.55079a.53624669.53624669 0 0 0  .5371-.537109v-.761719a.53624669.53624669 0 0 0 -.5371-.537109h-.9375c-.97958 0-1.59123-.241257-1.97266-.654297-.19041-.234198-.45898-1.23361-.45899-2.851563v-15.925782l9.6211 20.955078a.53624669.53624669 0 0 0  .48633.3125h.70312a.53624669.53624669 0 0 0  .48828-.314453l9.59961-20.945312v15.917968c0 1.526305-.22451 2.498034-.33398 2.660157-.39537.555095-1.01771.845703-2.07813.845703h-.97656a.53624669.53624669 0 0 0 -.53711.537109v.761719a.53624669.53624669 0 0 0  .53711.537109h11.75781a.53624669.53624669 0 0 0  .53711-.537109v-.761719a.53624669.53624669 0 0 0 -.53711-.537109h-.97656c-1.00226 0-1.59661-.243982-1.93359-.646485a.53624669.53624669 0 0 0 -.0137-.01758c-.1953-.21361-.48437-1.206444-.48437-2.841797v-17.988279c0-1.4573835.19569-2.4020784.36133-2.6835936.408-.5385612 1.0314-.8222656 2.07031-.8222656h.97656a.53624669.53624669 0 0 0  .53711-.5371094v-.703125a.53624669.53624669 0 0 0 -.53704-.5371094h-7.83203a.53624669.53624669 0 0 0 -.48828.3144531l-9.35938 20.4824219-9.50976-20.4863281a.53624669.53624669 0 0 0 -.48633-.3105469zm-130.699215 1.8554688h.0039c2.901456.032097 4.954931 1.0643615 6.365235 3.1523442 1.410978 2.08898 2.148727 5.306775 2.123046 9.666015-.03867 4.109371-.868871 7.174772-2.412109 9.232422-.73454.966469-1.592975 1.673252-2.591797 2.142578-1.000583.470153-2.131084.701547-3.416015.689453-2.618816-.03688-4.5691-1.142716-6.041016-3.443359-1.436832-2.241953-2.179687-5.293461-2.179687-9.183594 0-1.969121.184418-3.710405.548828-5.220703l.002-.0059c.37748-1.507532.926884-2.799892 1.640584-3.884725 1.465856-2.1433521 3.387025-3.1557367 5.957031-3.1445312zm29.597655.7226562c1.6728.039113 2.94436.5400967 3.91992 1.5039062a.53624669.53624669 0 0 0  .004.00586c.97303.9378574 1.45703 2.1588834 1.45703 3.7929684 0 1.695253-.56947 2.949037-1.75586 3.921875-1.28022 1.029259-3.15204 1.576172-5.67578 1.576172h-.63477v-10.5039066c.51977-.08375 1.03721-.1648341 1.42969-.203125a.53624669.53624669 0 0 0  .0117 0c .52034-.063455.93997-.09375 1.24414-.09375zm-58.910155.097656c1.764758 0 3.041856.5734241 3.998047 1.7539063a.53624669.53624669 0 0 0  .0059.00781c.451212.53433.788755 1.135796 1.015625 1.816406a.53624669.53624669 0 0 0 0 .002c.224947.663005.334542 1.414582.322266 2.261719l.002-.0039c-.03682 1.63226-.508769 2.898673-1.40625 3.890625a.53624669.53624669 0 0 0 -.0039.0039c-.88739 1.005709-1.937952 1.478516-3.289063 1.478516-.534106 0-1.075239-.01842-1.623047-.05664-.382265-.03647-.771342-.08015-1.160156-.123047v-10.7324669c.398992-.0796921.806031-.1636295 1.105375-.2089844l-.002.00195c.425489-.062572.774532-.091797 1.035156-.091797z" fill="url(#c)" stroke="#b3bfc4" stroke-width="1.35864992" transform="matrix(1 0 0 1.2869035 0 -6.7098433)"/></g></svg>