<svg xmlns="http://www.w3.org/2000/svg" xmlns:xlink="http://www.w3.org/1999/xlink" viewBox="0 0 5.1981978 8.4492894"><defs><linearGradient xlink:href="#a" id="f" gradientUnits="userSpaceOnUse" x1="113.50485" y1="72.66468" x2="120.63326" y2="72.66468" gradientTransform="translate(-18.524 37.059)"/><radialGradient gradientUnits="userSpaceOnUse" r="29.031401" cy="106.3116" cx="48.0952" id="a"><stop offset="0.0056" stop-color="#fbc926"/><stop offset="0.2528" stop-color="#fffbcc"/><stop offset="0.2986" stop-color="#f7eab8"/><stop offset="0.3896" stop-color="#e7cf8e"/><stop offset="0.5159" stop-color="#d1a954"/><stop offset="0.5955" stop-color="#c3922e"/><stop offset="0.8143" stop-color="#e2c675"/><stop offset="0.8708" stop-color="#eed688"/><stop offset="1" stop-color="#fffbcc"/></radialGradient><linearGradient xlink:href="#a" id="b" gradientUnits="userSpaceOnUse" gradientTransform="translate(-18.524 37.059)" x1="113.50485" y1="72.66468" x2="120.63326" y2="72.66468"/><linearGradient xlink:href="#a" id="c" gradientUnits="userSpaceOnUse" gradientTransform="translate(-18.524 37.059)" x1="113.50485" y1="72.66468" x2="120.63326" y2="72.66468"/><linearGradient xlink:href="#a" id="d" gradientUnits="userSpaceOnUse" gradientTransform="translate(-18.524 37.059)" x1="113.50485" y1="72.66468" x2="120.63326" y2="72.66468"/><linearGradient xlink:href="#a" id="e" gradientUnits="userSpaceOnUse" gradientTransform="translate(-18.524 37.059)" x1="113.50485" y1="72.66468" x2="120.63326" y2="72.66468"/></defs><g transform="translate(-81.348 -97.49)"><path fill="#015858" fill-rule="evenodd" d="M81.37 97.49h5.154v2.918H81.37z"/><path fill="#b9ab71" fill-rule="evenodd" d="M82.983 97.49h1.929v2.918h-1.93z"/><path d="M81.384 97.49h5.126c.02 0 .036.003.036.006v.102c0 .003-.016.005-.036.005h-5.126c-.02 0-.036-.002-.036-.005v-.102c0-.003.016-.005.036-.005zM81.384 100.317h5.126c.02 0 .036.002.036.004v.09c0 .003-.016.005-.036.005h-5.126c-.02 0-.036-.002-.036-.004v-.09c0-.003.016-.005.036-.005z" fill="#e0b944"/><path d="M82 98.705l.17-.453.172.454.495.002-.387.279.18.474-.458-.304-.447.305.174-.47-.41-.284zM85.552 98.705l.171-.453.172.454.494.002-.387.279.18.474-.458-.304-.447.305.174-.47-.41-.284z" fill="#b2aea5" fill-rule="evenodd"/><path transform="matrix(.90328 .0414 -.0442 .84602 12.583 12.25)" d="M85.592 104.835l-.626-.395.102.733-.502-.544-.09.735-.345-.656-.278.687-.163-.723-.446.591.03-.74-.585.455.22-.707-.681.289.395-.626-.733.102.544-.502-.735-.09.656-.345-.687-.278.723-.163-.591-.446.74.03-.456-.585.707.22-.288-.681.626.395-.103-.733.503.544.09-.735.345.656.278-.687.163.723.446-.591-.03.74.585-.456-.22.707.681-.288-.395.626.733-.103-.544.503.735.09-.656.345.687.278-.723.163.591.446-.74-.03.455.585-.707-.22z" fill="#dfbd36" fill-rule="evenodd" stroke="#1c91ba" stroke-width=".03519479"/><ellipse ry="2.0483298" rx="2.1900604" cy="102.87936" cx="83.974457" fill="none" stroke="#1c91ba" stroke-width=".17912292"/><path d="M85.629 100.613l-1.429 2.02-.27 3.305-.195-3.305-1.47-2.02 1.665 1.284z" fill="#c2c0b6" fill-rule="evenodd" stroke="#268dac" stroke-width=".03766821"/><ellipse ry="1.2857021" rx="1.3727217" cy="102.88262" cx="83.947121" fill="#268dac" fill-rule="evenodd"/><path d="M83.703 98.616l.243-.908.244.91.702.003-.55.559.257.95-.651-.609-.635.61.247-.942-.583-.568z" fill="#ff0" fill-rule="evenodd"/><path d="M83.386 102.225l.57-1.587.573 1.59 1.65.006-1.292.975.604 1.66-1.53-1.064-1.492 1.066.58-1.645-1.368-.992z" fill="#e9c342" fill-rule="evenodd"/><path d="M98.594 111.367l-2.364 1.68 2.354-3.089z" fill="url(#b)" transform="matrix(.63098 0 0 .63437 21.75 33.158)"/><path d="M98.584 109.958l-1.434.495-2.17-1.564z" fill="url(#c)" transform="matrix(.63098 0 0 .63437 21.75 33.158)"/><path d="M98.584 109.959l-.907-1.088.901-2.472z" fill="url(#d)" transform="matrix(.63098 0 0 .63437 21.75 33.158)"/><path d="M99.495 108.88l2.614.01-3.525 1.068z" fill="url(#e)" transform="matrix(.63098 0 0 .63437 21.75 33.158)"/><path d="M100.062 110.426l.958 2.619-2.436-3.086z" fill="url(#f)" transform="matrix(.63098 0 0 .63437 21.75 33.158)"/></g></svg>