<svg xmlns="http://www.w3.org/2000/svg" xmlns:xlink="http://www.w3.org/1999/xlink" viewBox="0 0 5.1981978 8.4492894"><defs><linearGradient y2="122.2001" x2="60.4986" y1="-0.50340003" x1="39.3325" gradientUnits="userSpaceOnUse" id="a"><stop offset="0" stop-color="#fff"/><stop offset="0.4011"/><stop offset="0.7637" stop-color="#fff"/><stop offset="0.8352"/><stop offset="0.9121" stop-color="#fff"/><stop offset="0.978"/></linearGradient><linearGradient xlink:href="#a" id="b" x1="113.52195" y1="72.117393" x2="120.65036" y2="72.117393" gradientUnits="userSpaceOnUse"/><linearGradient xlink:href="#a" id="c" gradientUnits="userSpaceOnUse" x1="113.52195" y1="72.117393" x2="120.65036" y2="72.117393"/><linearGradient xlink:href="#a" id="d" gradientUnits="userSpaceOnUse" x1="113.52195" y1="72.117393" x2="120.65036" y2="72.117393"/><linearGradient xlink:href="#a" id="e" gradientUnits="userSpaceOnUse" x1="113.52195" y1="72.117393" x2="120.65036" y2="72.117393"/><linearGradient xlink:href="#a" id="f" gradientUnits="userSpaceOnUse" x1="113.52195" y1="72.117393" x2="120.65036" y2="72.117393"/><linearGradient xlink:href="#a" id="g" gradientUnits="userSpaceOnUse" x1="113.52195" y1="72.117393" x2="120.65036" y2="72.117393"/></defs><path fill="#015858" fill-rule="evenodd" d="M.023 0h5.153v2.918H.023z"/><path fill="#b9ab71" fill-rule="evenodd" d="M1.635 0h1.929v2.918h-1.93z"/><path d="M.036 0h5.126c.02 0 .036.002.036.005v.102c0 .003-.016.005-.036.005H.036C.016.112 0 .11 0 .107V.005C0 .002.016 0 .036 0zM.036 2.827h5.126c.02 0 .036.002.036.004v.09c0 .002-.016.004-.036.004H.036c-.02 0-.036-.002-.036-.004v-.09c0-.002.016-.004.036-.004z" fill="#e0b944"/><path d="M.652 1.215L.822.76l.172.454.495.002-.387.279.18.475-.458-.304-.447.304.174-.47-.41-.284zM4.204 1.215L4.375.76l.172.454.494.002-.387.279.18.475-.458-.304-.447.304.174-.47-.41-.284z" fill="#b2aea5" fill-rule="evenodd"/><g transform="matrix(1.1927 0 0 1.15773 -97.436 -113.483)"><path d="M85.592 104.835l-.626-.395.102.733-.502-.544-.09.735-.345-.656-.278.687-.163-.723-.446.591.03-.74-.585.455.22-.707-.681.289.395-.626-.733.102.544-.502-.735-.09.656-.345-.687-.278.723-.163-.591-.446.74.03-.456-.585.707.22-.288-.681.626.395-.103-.733.503.544.09-.735.345.656.278-.687.163.723.446-.591-.03.74.585-.456-.22.707.681-.288-.395.626.733-.103-.544.503.735.09-.656.345.687.278-.723.163.591.446-.74-.03.455.585-.707-.22z" transform="matrix(.75734 .03576 -.03706 .73076 24.039 24.394)" fill="#dfbd36" fill-rule="evenodd" stroke="#1c91ba" stroke-width=".03519479"/><path d="M85.283 100.718l-1.198 1.746-.226 2.855-.164-2.855-1.232-1.746 1.396 1.11z" fill="#c2c0b6" fill-rule="evenodd" stroke="#268dac" stroke-width=".03205572"/><ellipse cx="83.872986" cy="102.67909" rx="1.150937" ry="1.1105354" fill="#268dac" fill-rule="evenodd"/><path d="M83.43 101.985l.465-1.382.467 1.384 1.348.006-1.055.849.493 1.447-1.25-.927-1.218.929.474-1.434-1.118-.864z" fill="#b2aea5" fill-rule="evenodd"/><g transform="matrix(.51536 0 0 .55267 23.53 62.597)" fill="url(#b)"><path d="M117.135 73.761l-2.364 1.68 2.354-3.089z" fill="url(#c)"/><path d="M117.125 72.352l-1.434.495-2.169-1.564z" fill="url(#d)"/><path d="M117.125 72.353l-.907-1.088.901-2.472z" fill="url(#e)"/><path d="M118.036 71.273l2.614.01-3.525 1.07z" fill="url(#f)"/><path d="M118.603 72.82l.958 2.619-2.436-3.086z" fill="url(#g)"/></g></g></svg>