<svg xmlns="http://www.w3.org/2000/svg" xmlns:xlink="http://www.w3.org/1999/xlink" viewBox="0 0 5.1981978 8.4492894"><defs><linearGradient y2="122.2001" x2="60.4986" y1="-0.50340003" x1="39.3325" gradientUnits="userSpaceOnUse" id="a"><stop offset="0" stop-color="#fff"/><stop offset="0.4011"/><stop offset="0.7637" stop-color="#fff"/><stop offset="0.8352"/><stop offset="0.9121" stop-color="#fff"/><stop offset="0.978"/></linearGradient><linearGradient xlink:href="#a" id="b" x1="113.52195" y1="72.117393" x2="120.65036" y2="72.117393" gradientUnits="userSpaceOnUse"/><linearGradient xlink:href="#a" id="c" gradientUnits="userSpaceOnUse" x1="113.52195" y1="72.117393" x2="120.65036" y2="72.117393"/><linearGradient xlink:href="#a" id="d" gradientUnits="userSpaceOnUse" x1="113.52195" y1="72.117393" x2="120.65036" y2="72.117393"/><linearGradient xlink:href="#a" id="e" gradientUnits="userSpaceOnUse" x1="113.52195" y1="72.117393" x2="120.65036" y2="72.117393"/><linearGradient xlink:href="#a" id="f" gradientUnits="userSpaceOnUse" x1="113.52195" y1="72.117393" x2="120.65036" y2="72.117393"/><linearGradient xlink:href="#a" id="g" gradientUnits="userSpaceOnUse" x1="113.52195" y1="72.117393" x2="120.65036" y2="72.117393"/></defs><g transform="translate(-81.348 -97.49)"><path fill="#015858" fill-rule="evenodd" d="M81.37 97.49h5.154v2.918H81.37z"/><path fill="#b9ab71" fill-rule="evenodd" d="M82.983 97.49h1.929v2.918h-1.93z"/><path d="M81.384 97.49h5.126c.02 0 .036.003.036.006v.102c0 .003-.016.005-.036.005h-5.126c-.02 0-.036-.002-.036-.005v-.102c0-.003.016-.005.036-.005zM81.384 100.317h5.126c.02 0 .036.002.036.004v.09c0 .003-.016.005-.036.005h-5.126c-.02 0-.036-.002-.036-.004v-.09c0-.003.016-.005.036-.005z" fill="#e0b944"/><path d="M82 98.705l.17-.453.172.454.495.002-.387.279.18.474-.458-.304-.447.305.174-.47-.41-.284zM85.552 98.705l.171-.453.172.454.494.002-.387.279.18.474-.458-.304-.447.305.174-.47-.41-.284z" fill="#b2aea5" fill-rule="evenodd"/><path transform="matrix(.90328 .0414 -.0442 .84602 12.583 12.25)" d="M85.592 104.835l-.626-.395.102.733-.502-.544-.09.735-.345-.656-.278.687-.163-.723-.446.591.03-.74-.585.455.22-.707-.681.289.395-.626-.733.102.544-.502-.735-.09.656-.345-.687-.278.723-.163-.591-.446.74.03-.456-.585.707.22-.288-.681.626.395-.103-.733.503.544.09-.735.345.656.278-.687.163.723.446-.591-.03.74.585-.456-.22.707.681-.288-.395.626.733-.103-.544.503.735.09-.656.345.687.278-.723.163.591.446-.74-.03.455.585-.707-.22z" fill="#dfbd36" fill-rule="evenodd" stroke="#1c91ba" stroke-width=".03519479"/><ellipse ry="2.0483298" rx="2.1900604" cy="102.87936" cx="83.974457" fill="none" stroke="#1c91ba" stroke-width=".17912292"/><path d="M85.629 100.613l-1.429 2.02-.27 3.305-.195-3.305-1.47-2.02 1.665 1.284z" fill="#c2c0b6" fill-rule="evenodd" stroke="#268dac" stroke-width=".03766821"/><ellipse ry="1.2857021" rx="1.3727217" cy="102.88262" cx="83.947121" fill="#268dac" fill-rule="evenodd"/><path d="M83.418 102.079l.555-1.6.558 1.602 1.607.007-1.259.983.59 1.676-1.492-1.074-1.453 1.075.566-1.66-1.334-1z" fill="#b2aea5" fill-rule="evenodd"/><g transform="matrix(.61468 0 0 .63984 11.977 56.478)" fill="url(#b)"><path d="M117.135 73.761l-2.364 1.68 2.354-3.089z" fill="url(#c)"/><path d="M117.125 72.352l-1.434.495-2.169-1.564z" fill="url(#d)"/><path d="M117.125 72.353l-.907-1.088.901-2.472z" fill="url(#e)"/><path d="M118.036 71.273l2.614.01-3.525 1.07z" fill="url(#f)"/><path d="M118.603 72.82l.958 2.619-2.436-3.086z" fill="url(#g)"/></g><path d="M83.703 98.616l.243-.908.244.91.702.003-.55.559.257.95-.651-.609-.635.61.247-.942-.583-.568z" fill="#999" fill-rule="evenodd"/></g></svg>