<svg xmlns="http://www.w3.org/2000/svg" viewBox="0 0 10.583333 1.8520834"><g fill-rule="evenodd"><path fill="#a00" stroke="#f3da3e" stroke-width=".07543017" d="M.04.03h10.5v1.78H.05z"/><g fill="#e3c03a"><path d="M2.56.45c-.22.14.22.46.27.52.08.1.12.2.11.35 0 .08-.02.11.01.19.02.06.08.14.13.1-.05.05-.11.06-.16 0-.07-.06-.05-.14-.07-.24-.06.02-.04.25.01.3-.07-.05-.13-.1-.14-.24 0-.15.02-.2-.08-.24-.07-.03-.13-.04-.16-.15-.02-.05-.01-.1-.03-.14C2.44.84 2.38.8 2.4.75c.1.05.06-.08-.02-.06-.02-.07.12-.07.04-.15-.03.03-.07.1-.09.03.02-.02.03-.05.03-.08C2.34.46 2.3.5 2.3.48c-.02-.05.02-.08.04-.1l.16-.16c0 .05.05.13.1.15-.04-.06-.05-.12-.02-.2.08.14.12.25.26.29.1.03.18-.04.28-.09.26-.12.5-.27.76-.04-.08-.08-.27.04-.36.06.14-.13.35.05.46.16.1.1.4.27.48.09-.08.13-.23.18-.35.13.09.07.38.28.43 0-.08.26-.28.3-.44.22C3.9.89 3.74.7 3.53.77c.07-.03.15 0 .18.1.04.13-.02.27-.08.35-.08.1-.23.18-.3.06-.07-.1 0-.24.08-.23-.08-.01-.08.13-.01.16.06.02.17-.02.2-.13.04-.24-.21-.16-.29-.11-.2.12-.43.06-.56-.2C2.7.68 2.64.4 2.54.47l.01-.03z"/><path d="M2.1.45c.22.14-.22.46-.27.52-.07.1-.12.2-.11.35 0 .08.02.11 0 .19-.03.06-.08.14-.14.1.05.05.12.06.16 0 .07-.06.06-.14.07-.24.06.02.04.25-.01.3.07-.05.13-.1.14-.24 0-.15-.02-.2.08-.24.07-.03.13-.04.17-.15.01-.05 0-.1.02-.14.01-.06.07-.09.05-.15-.1.05-.06-.08.02-.06.02-.07-.11-.07-.04-.15.03.03.07.1.1.03C2.3.55 2.3.52 2.3.49c.03-.03.06.02.07-.01.02-.05-.02-.08-.04-.1C2.3.32 2.22.27 2.17.22c0 .05-.05.13-.09.15.03-.06.05-.12.02-.2-.1.14-.13.25-.27.29-.1.03-.18-.04-.27-.09C1.29.25 1.06.1.79.33c.08-.08.27.04.36.06C1.01.26.8.44.69.55.59.65.3.82.2.64.3.77.44.82.56.77c-.09.07-.38.28-.43 0 .08.26.28.3.44.22.19-.1.35-.29.56-.22-.07-.03-.15 0-.18.1-.04.13.02.27.08.35.08.1.23.18.31.06.06-.1 0-.24-.08-.23.07-.01.07.13 0 .16-.06.02-.17-.02-.19-.13-.04-.24.2-.16.28-.11.2.12.43.06.56-.2.05-.09.11-.37.21-.3L2.11.43z"/><g><path d="M8.48.45c-.22.14.22.46.27.52.08.1.12.2.11.35 0 .08-.02.11.01.19.03.06.08.14.13.1-.05.05-.11.06-.16 0-.07-.06-.05-.14-.07-.24-.06.02-.03.25.02.3-.08-.05-.14-.1-.14-.24-.01-.15.01-.2-.09-.24-.07-.03-.13-.04-.16-.15-.02-.05-.01-.1-.03-.14 0-.06-.07-.09-.04-.15.1.05.05-.08-.03-.06-.02-.07.12-.07.04-.15-.03.03-.07.1-.09.03.02-.02.03-.05.03-.08-.02-.03-.06.02-.07-.01-.02-.05.02-.08.04-.1l.17-.16c-.01.05.04.13.08.15-.03-.06-.04-.12-.01-.2.09.14.13.25.26.29.1.03.18-.04.28-.09.26-.12.5-.27.76-.04-.08-.08-.27.04-.36.06.14-.13.35.05.47.16.1.1.38.27.48.09-.1.13-.24.18-.36.13.1.07.39.28.43 0-.08.26-.28.3-.44.22-.18-.1-.34-.29-.55-.22.06-.03.14 0 .17.1.05.13-.01.27-.08.35-.07.1-.23.18-.3.06-.07-.1 0-.24.08-.23-.08-.01-.08.13 0 .16.05.02.16-.02.18-.13.05-.24-.2-.16-.28-.11-.2.12-.43.06-.56-.2-.04-.09-.1-.37-.21-.3l.01-.03z"/><path d="M8.03.45c.21.14-.23.46-.28.52-.07.1-.12.2-.1.35 0 .08.01.11-.02.19-.02.06-.07.14-.13.1.05.05.12.06.17 0 .06-.06.05-.14.06-.24.07.02.04.25-.01.3.07-.05.13-.1.14-.24 0-.15-.02-.2.09-.24.07-.03.12-.04.16-.15.02-.05 0-.1.02-.14.01-.06.07-.09.05-.15-.1.05-.06-.08.03-.06.01-.07-.12-.07-.04-.15.03.03.06.1.08.03-.02-.02-.03-.05-.03-.08.03-.03.06.02.08-.01.01-.05-.03-.08-.05-.1C8.21.32 8.14.27 8.1.22c0 .05-.05.13-.09.15.03-.06.05-.12.02-.2-.1.14-.13.25-.27.29-.1.03-.18-.04-.27-.09C7.2.25 6.98.1 6.7.33c.08-.08.27.04.36.06-.13-.13-.35.05-.46.16-.1.1-.39.27-.48.09.09.13.24.18.35.13-.09.07-.38.28-.43 0 .08.26.28.3.44.22.19-.1.35-.29.56-.22-.07-.03-.15 0-.18.1-.04.13.02.27.08.35.08.1.23.18.31.06.06-.1 0-.24-.08-.23.07-.01.07.13 0 .16-.06.02-.17-.02-.19-.13-.04-.24.2-.16.28-.11.2.12.43.06.56-.2.05-.09.11-.37.22-.3 0-.03-.01-.02-.02-.03z"/></g></g></g></svg>