<svg xmlns="http://www.w3.org/2000/svg" viewBox="0 0 10.583333 1.8520834"><g fill-rule="evenodd" transform="translate(-108.05 -112.45)"><path fill="#a00" stroke="#f3da3e" stroke-width=".07543017" d="M108.09 112.48h10.5v1.78h-10.5z"/><g fill="#e3c03a"><path d="M110.6 112.9c-.21.14.23.46.28.52.07.1.12.2.11.35 0 .08-.02.11 0 .19.03.06.08.14.14.1-.05.05-.12.06-.16 0-.07-.06-.06-.14-.07-.24-.07.02-.04.25.01.3-.07-.05-.13-.1-.14-.24 0-.15.02-.2-.08-.23-.07-.03-.13-.05-.17-.16-.01-.05 0-.1-.02-.14-.01-.06-.07-.09-.05-.15.1.05.06-.08-.02-.06-.02-.06.11-.07.04-.15-.03.03-.07.1-.1.03.03-.02.04-.05.04-.08-.03-.02-.06.02-.07-.01-.02-.05.02-.07.04-.1.04-.06.11-.11.16-.16 0 .05.05.13.09.16-.03-.07-.05-.13-.02-.2.1.13.13.24.27.28.1.03.18-.04.27-.09.27-.12.5-.27.77-.03-.08-.1-.27.03-.36.05.14-.13.35.06.46.16.1.1.39.27.48.09-.09.13-.24.18-.35.13.09.07.38.28.43 0-.08.26-.28.3-.44.22-.19-.1-.35-.29-.56-.22.07-.03.15 0 .18.1.04.13-.02.27-.08.36-.08.1-.23.18-.31.05-.06-.1 0-.23.08-.23-.07-.01-.07.13 0 .16.06.02.17-.01.19-.13.04-.24-.2-.16-.28-.11-.2.12-.43.06-.56-.2-.05-.09-.11-.37-.21-.3l.01-.03z"/><path d="M110.15 112.9c.22.14-.22.46-.27.52-.08.1-.12.2-.11.35 0 .08.02.11-.01.19-.02.06-.08.14-.13.1.05.05.11.06.16 0 .07-.06.05-.14.07-.24.06.02.04.25-.01.3.07-.05.13-.1.14-.24 0-.15-.02-.2.08-.23.07-.03.13-.05.16-.16.02-.05.01-.1.03-.14.01-.06.07-.09.05-.15-.1.05-.06-.08.02-.06.02-.06-.12-.07-.04-.15.03.03.07.1.09.03-.02-.02-.03-.05-.03-.08.02-.02.06.02.07-.01.02-.05-.02-.07-.04-.1l-.16-.16c0 .05-.05.13-.1.16.04-.07.05-.13.02-.2-.08.13-.13.24-.26.28-.1.03-.18-.04-.28-.09-.26-.12-.5-.27-.76-.03.08-.1.27.03.36.05-.14-.13-.35.06-.46.16-.1.1-.4.27-.49.09.1.13.24.18.36.13-.09.07-.38.28-.43 0 .08.26.28.3.44.22.18-.1.35-.29.56-.22-.07-.03-.15 0-.18.1-.04.13.02.27.08.36.08.1.23.18.3.05.07-.1 0-.23-.08-.23.08-.01.08.13.01.16-.06.02-.17-.01-.2-.13-.04-.24.21-.16.29-.11.2.12.43.06.56-.2.04-.09.11-.37.21-.3l-.01-.03z"/><g><path d="M116.53 112.9c-.22.14.22.46.27.52.08.1.12.2.11.35 0 .08-.02.11 0 .19.03.06.09.14.14.1-.05.05-.11.06-.16 0-.07-.06-.05-.14-.07-.24-.06.02-.04.25.01.3-.07-.05-.13-.1-.14-.24 0-.15.02-.2-.08-.23-.07-.03-.13-.05-.17-.16-.01-.05 0-.1-.02-.14-.01-.06-.07-.09-.05-.15.1.05.06-.08-.02-.06-.02-.06.12-.07.04-.15-.03.03-.07.1-.09.03.02-.02.03-.05.03-.08-.02-.02-.06.02-.07-.01-.02-.05.02-.07.04-.1l.16-.16c0 .05.05.13.09.16-.03-.07-.04-.13-.02-.2.1.13.13.24.27.28.1.03.18-.04.28-.09.26-.12.5-.27.76-.03-.08-.1-.27.03-.36.05.14-.13.35.06.46.16.1.1.39.27.48.09-.09.13-.23.18-.35.13.09.07.38.28.43 0-.08.26-.28.3-.44.22-.19-.1-.35-.29-.56-.22.07-.03.15 0 .18.1.04.13-.02.27-.08.36-.08.1-.23.18-.3.05-.07-.1 0-.23.08-.23-.08-.01-.08.13-.01.16.06.02.17-.01.2-.13.03-.24-.21-.16-.29-.11-.2.12-.43.06-.56-.2-.05-.09-.11-.37-.21-.3l.01-.03z"/><path d="M116.08 112.9c.21.14-.23.46-.28.52-.07.1-.12.2-.11.35 0 .08.02.11 0 .19-.03.06-.08.14-.14.1.05.05.11.06.16 0 .07-.06.06-.14.07-.24.06.02.04.25-.01.3.07-.05.13-.1.14-.24 0-.15-.02-.2.08-.23.07-.03.13-.05.17-.16.01-.05 0-.1.02-.14.01-.06.07-.09.05-.15-.1.05-.06-.08.02-.06.02-.06-.12-.07-.04-.15.03.03.07.1.09.03-.02-.02-.03-.05-.03-.08.02-.02.06.02.07-.01.02-.05-.02-.07-.04-.1l-.16-.16c0 .05-.05.13-.09.16.03-.07.04-.13.02-.2-.1.13-.13.24-.27.28-.1.03-.18-.04-.28-.09-.26-.12-.5-.27-.76-.03.08-.1.27.03.36.05-.14-.13-.35.06-.46.16-.1.1-.39.27-.48.09.09.13.23.18.35.13-.09.07-.38.28-.43 0 .08.26.28.3.44.22.19-.1.35-.29.56-.22-.07-.03-.15 0-.18.1-.04.13.02.27.08.36.08.1.23.18.3.05.07-.1 0-.23-.08-.23.08-.01.08.13.01.16-.06.02-.17-.01-.2-.13-.03-.24.21-.16.29-.11.2.12.43.06.56-.2.05-.09.11-.37.21-.3l-.01-.03z"/></g></g><ellipse ry="0.92604119" rx="0.79374951" cy="113.37026" cx="113.33943" fill="#d4b029"/><path fill="#3f0000" d="M112.94 112.97h.8v.8h-.8z"/></g></svg>