<svg xmlns="http://www.w3.org/2000/svg" xmlns:xlink="http://www.w3.org/1999/xlink" viewBox="0 0 10.583333 2.244134"><defs><linearGradient id="b" gradientUnits="userSpaceOnUse" x1="2802.6499" y1="-822.48932" x2="2861.1558" y2="-822.48932" gradientTransform="matrix(.06649 -.00802 .00848 .10102 -64.74 219)"><stop offset="0.0056" stop-color="#fac826"/><stop offset="0.2528" stop-color="#fffacb"/><stop offset="0.3048" stop-color="#f8eeba"/><stop offset="0.408" stop-color="#e7d08d"/><stop offset="0.5516" stop-color="#cba145"/><stop offset="0.5955" stop-color="#c2912e"/><stop offset="0.8708" stop-color="#edd688"/><stop offset="1" stop-color="#fffacb"/></linearGradient><linearGradient id="a" gradientUnits="userSpaceOnUse" x1="2802.6499" y1="-822.48932" x2="2861.1558" y2="-822.48932" gradientTransform="matrix(-.06649 -.00802 -.00848 .10102 291.53 219)"><stop offset="0.0056" stop-color="#fac826"/><stop offset="0.2528" stop-color="#fffacb"/><stop offset="0.3048" stop-color="#f8eeba"/><stop offset="0.408" stop-color="#e7d08d"/><stop offset="0.5516" stop-color="#cba145"/><stop offset="0.5955" stop-color="#c2912e"/><stop offset="0.8708" stop-color="#edd688"/><stop offset="1" stop-color="#fffacb"/></linearGradient><linearGradient xlink:href="#a" id="c" gradientUnits="userSpaceOnUse" gradientTransform="matrix(-.06649 -.00802 -.00848 .10102 291.53 219)" x1="2802.6499" y1="-822.48932" x2="2861.1558" y2="-822.48932"/></defs><g fill-rule="evenodd"><path fill="#363030" stroke="#b10005" stroke-width=".07543017" d="M.04.23h10.5v1.78H.05z"/><g clip-rule="evenodd" stroke="#d9a350" stroke-width=".04118716"><path d="M114.55 112.52c.33-.08.64.43 1.12.24.09.28-.08.23-.09.38.25.13.67-.37 1.03-.12a.63.63 0 0 0-.03.28c.24-.12.37-.38.72-.36.03.14-.04.16-.04.28.46-.46.93.27 1.32.59-.31.26-.78.13-1-.16-.16.08.08.19.04.37-.32-.33-.84.26-1.07-.34-.16.08.07.19.03.37-.36-.14-.87.01-.98-.63-.07.04-.02.24-.02.38-.35 0-.46-.63-.73-.48-.13-.2-.17-.6-.3-.8z" fill="url(#b)" transform="translate(-108.1 -112.16)"/><path d="M112.25 112.52c-.34-.08-.65.43-1.12.24-.1.28.07.23.08.38-.25.13-.67-.37-1.03-.12.02.08.05.16.03.28-.24-.12-.37-.38-.72-.36-.02.14.04.16.04.28-.46-.46-.93.27-1.32.59.31.26.78.13 1-.16.16.08-.08.19-.04.37.33-.33.84.26 1.07-.34.17.08-.07.19-.03.37.36-.14.87.01.98-.63.07.04.03.24.02.38.36 0 .46-.63.74-.48.13-.2.16-.6.3-.8z" fill="url(#c)" transform="translate(-108.1 -112.16)"/></g></g></svg>