<svg xmlns="http://www.w3.org/2000/svg" xmlns:xlink="http://www.w3.org/1999/xlink" viewBox="0 0 10.583333 2.244134"><defs><linearGradient id="b"><stop offset="0" stop-color="#bb8910"/><stop offset="1" stop-color="#bb8910" stop-opacity="0"/></linearGradient><linearGradient id="a" gradientUnits="userSpaceOnUse" x1="2802.6499" y1="-822.48932" x2="2861.1558" y2="-822.48932" gradientTransform="matrix(-.06649 -.00802 -.00848 .10102 291.53 219)"><stop offset="0.0056" stop-color="#fac826"/><stop offset="0.2528" stop-color="#fffacb"/><stop offset="0.3048" stop-color="#f8eeba"/><stop offset="0.408" stop-color="#e7d08d"/><stop offset="0.5516" stop-color="#cba145"/><stop offset="0.5955" stop-color="#c2912e"/><stop offset="0.8708" stop-color="#edd688"/><stop offset="1" stop-color="#fffacb"/></linearGradient><linearGradient xlink:href="#b" id="c" x1="108.51099" y1="115.70916" x2="111.82345" y2="115.70916" gradientUnits="userSpaceOnUse"/><linearGradient xlink:href="#b" id="d" x1="108.51099" y1="115.70916" x2="111.82345" y2="115.70916" gradientUnits="userSpaceOnUse"/></defs><path fill="#6c848f" fill-rule="evenodd" stroke="#0010b1" stroke-width=".07543017" d="M.04.23h10.5V2H.05z"/><g fill-rule="evenodd"><path d="M3.65.56c-.09 0-.16.05-.16.11v.12H1.8V.66c0-.05-.05-.09-.12-.09H.31C.24.57.19.61.19.66v.91c0 .05.05.09.12.09h1.38c.07 0 .12-.04.12-.09v-.13H3.5v.12c0 .06.07.11.16.11h.21c.1 0 .16-.05.16-.11V.67c0-.06-.07-.11-.16-.11z" fill="#ff0"/><path d="M111.5 115.02a.14.14 0 0 0-.14.14v.15h-1.45v-.17a.1.1 0 0 0-.1-.1h-1.2a.1.1 0 0 0-.1.1v1.14c0 .05.05.1.1.1h1.2a.1.1 0 0 0 .1-.1v-.17h1.45v.15c0 .08.06.14.14.14h.18c.08 0 .14-.06.14-.14v-1.1a.14.14 0 0 0-.14-.14z" fill="url(#c)" transform="matrix(1.1579 0 0 .8101 -125.46 -92.62)"/><g><path d="M6.93.56c.1 0 .17.05.17.11v.12h1.67V.66c0-.05.06-.09.12-.09h1.38c.07 0 .13.04.13.09v.91c0 .05-.06.09-.13.09H8.9c-.06 0-.12-.04-.12-.09v-.13H7.1v.12c0 .06-.08.11-.17.11h-.2c-.1 0-.17-.05-.17-.11V.67c0-.06.07-.11.16-.11z" fill="#ff0"/><path d="M111.5 115.02a.14.14 0 0 0-.14.14v.15h-1.45v-.17a.1.1 0 0 0-.1-.1h-1.2a.1.1 0 0 0-.1.1v1.14c0 .05.05.1.1.1h1.2a.1.1 0 0 0 .1-.1v-.17h1.45v.15c0 .08.06.14.14.14h.18c.08 0 .14-.06.14-.14v-1.1a.14.14 0 0 0-.14-.14z" fill="url(#d)" transform="matrix(-1.1579 0 0 .8101 136.04 -92.62)"/></g></g></svg>