<svg xmlns="http://www.w3.org/2000/svg" xmlns:xlink="http://www.w3.org/1999/xlink" viewBox="0 0 5.2414707 10.115845"><defs><linearGradient xlink:href="#a" id="f" gradientUnits="userSpaceOnUse" x1="113.50485" y1="72.66468" x2="120.63326" y2="72.66468" gradientTransform="translate(-18.52 37.06)"/><radialGradient gradientUnits="userSpaceOnUse" r="29.031401" cy="106.3116" cx="48.0952" id="a"><stop offset="0.0056" stop-color="#fbc926"/><stop offset="0.2528" stop-color="#fffbcc"/><stop offset="0.2986" stop-color="#f7eab8"/><stop offset="0.3896" stop-color="#e7cf8e"/><stop offset="0.5159" stop-color="#d1a954"/><stop offset="0.5955" stop-color="#c3922e"/><stop offset="0.8143" stop-color="#e2c675"/><stop offset="0.8708" stop-color="#eed688"/><stop offset="1" stop-color="#fffbcc"/></radialGradient><linearGradient xlink:href="#a" id="b" gradientUnits="userSpaceOnUse" gradientTransform="translate(-18.52 37.06)" x1="113.50485" y1="72.66468" x2="120.63326" y2="72.66468"/><linearGradient xlink:href="#a" id="c" gradientUnits="userSpaceOnUse" gradientTransform="translate(-18.52 37.06)" x1="113.50485" y1="72.66468" x2="120.63326" y2="72.66468"/><linearGradient xlink:href="#a" id="d" gradientUnits="userSpaceOnUse" gradientTransform="translate(-18.52 37.06)" x1="113.50485" y1="72.66468" x2="120.63326" y2="72.66468"/><linearGradient xlink:href="#a" id="e" gradientUnits="userSpaceOnUse" gradientTransform="translate(-18.52 37.06)" x1="113.50485" y1="72.66468" x2="120.63326" y2="72.66468"/></defs><g transform="translate(-115.2 -91.74)"><path d="M115.52 99.5l.43-.34.32.44-.08-.54-.43-.32-.53.06.5.2zM120.14 99.5l-.43-.34-.32.44.08-.54.43-.32.53.06-.5.2z" fill="#00f" fill-rule="evenodd" stroke="#dcc731" stroke-width=".02426996"/><path d="M117.88 101.86l.22-1.46.83.44-.61-1.06h-.86l-.61 1 .83-.39z" fill="#00f" fill-rule="evenodd" stroke="#dcc731" stroke-width=".05076358"/><path d="M117.82 91.74v3.74" fill="none" stroke="#000" stroke-width=".00054989"/><path d="M115.24 94.48v-2.74h5.17v2.75l-1.22.98c-.88 0-1.75.02-2.62 0z" fill="#00f" stroke="#eed729" stroke-width=".00130886" stroke-linecap="round" stroke-linejoin="round"/><path d="M115.33 91.9c.36.03.65-.13 1.02-.12 1.19 1.04 2.35 2.09 3.53 3.14-.23.2-.44.36-.69.54l-3.86-3.56z" fill="#59f" fill-rule="evenodd" stroke="#c7aa06" stroke-width=".00136621"/><path d="M115.24 91.74h5.17l.04.01v.16l-.04.01h-5.21v-.17h.04z" fill="#9fb2af"/><path transform="matrix(.75588 .11267 .1072 -.79436 19.58 160.58)" d="M118.02 98.78l-3.92-.57-.67-3.9 3.5-1.85 2.84 2.76z" fill="#5a7aac" fill-rule="evenodd" stroke="#e0c840" stroke-width=".06353789"/><path d="M117.59 93.38l.25-.7.25.7h.71l-.56.43.26.73-.66-.47-.65.47.25-.72-.6-.44z" fill="#e9c342" fill-rule="evenodd"/><ellipse ry="1.7946692" rx="1.8550626" cy="97.560402" cx="117.86949" fill="none" stroke="#1b2d5b" stroke-width=".25862476"/><g><path d="M117.37 97l.52-1.47.53 1.48h1.52l-1.2.91.57 1.55-1.41-1-1.37 1 .53-1.53-1.26-.92z" fill="#e9c342" fill-rule="evenodd"/><path d="M98.6 111.37l-2.37 1.68 2.35-3.1z" fill="url(#b)" transform="matrix(.58021 0 0 .5898 60.7 32.8)"/><path d="M98.58 109.96l-1.43.5-2.17-1.57z" fill="url(#c)" transform="matrix(.58021 0 0 .5898 60.7 32.8)"/><path d="M98.58 109.96l-.9-1.09.9-2.47z" fill="url(#d)" transform="matrix(.58021 0 0 .5898 60.7 32.8)"/><path d="M99.5 108.88h2.6l-3.52 1.08z" fill="url(#e)" transform="matrix(.58021 0 0 .5898 60.7 32.8)"/><path d="M100.06 110.43l.96 2.61-2.44-3.08z" fill="url(#f)" transform="matrix(.58021 0 0 .5898 60.7 32.8)"/></g><g fill="#e9c342" fill-rule="evenodd"><path d="M115.91 92.76l.14-.4.13.4h.38l-.3.24.14.42-.35-.27-.35.27.14-.41-.32-.25zM119.48 92.76l.14-.4.13.4h.38l-.3.24.14.42-.35-.27-.35.27.14-.41-.32-.25z"/></g></g></svg>