<svg xmlns="http://www.w3.org/2000/svg" xmlns:xlink="http://www.w3.org/1999/xlink" viewBox="0 0 5.2414707 10.588973"><defs><linearGradient xlink:href="#a" id="f" gradientUnits="userSpaceOnUse" x1="113.50485" y1="72.66468" x2="120.63326" y2="72.66468" gradientTransform="translate(-18.52 37.06)"/><radialGradient gradientUnits="userSpaceOnUse" r="29.031401" cy="106.3116" cx="48.0952" id="a"><stop offset="0.0056" stop-color="#fbc926"/><stop offset="0.2528" stop-color="#fffbcc"/><stop offset="0.2986" stop-color="#f7eab8"/><stop offset="0.3896" stop-color="#e7cf8e"/><stop offset="0.5159" stop-color="#d1a954"/><stop offset="0.5955" stop-color="#c3922e"/><stop offset="0.8143" stop-color="#e2c675"/><stop offset="0.8708" stop-color="#eed688"/><stop offset="1" stop-color="#fffbcc"/></radialGradient><linearGradient xlink:href="#a" id="b" gradientUnits="userSpaceOnUse" gradientTransform="translate(-18.52 37.06)" x1="113.50485" y1="72.66468" x2="120.63326" y2="72.66468"/><linearGradient xlink:href="#a" id="c" gradientUnits="userSpaceOnUse" gradientTransform="translate(-18.52 37.06)" x1="113.50485" y1="72.66468" x2="120.63326" y2="72.66468"/><linearGradient xlink:href="#a" id="d" gradientUnits="userSpaceOnUse" gradientTransform="translate(-18.52 37.06)" x1="113.50485" y1="72.66468" x2="120.63326" y2="72.66468"/><linearGradient xlink:href="#a" id="e" gradientUnits="userSpaceOnUse" gradientTransform="translate(-18.52 37.06)" x1="113.50485" y1="72.66468" x2="120.63326" y2="72.66468"/></defs><path d="M2.62 0v3.74" fill="none" stroke="#000" stroke-width=".00054989"/><path d="M.03 2.74V0h5.18v1.37L5.2 2.74l-1.22.98c-.87.01-1.74.02-2.62 0z" fill="#00f" stroke="#eed729" stroke-width=".00130886" stroke-linecap="round" stroke-linejoin="round"/><path d="M.12.16C.5.2.78.02 1.14.03c1.2 1.04 2.36 2.1 3.54 3.14-.23.2-.45.37-.7.55L.13.16z" fill="#59f" fill-rule="evenodd" stroke="#c7aa06" stroke-width=".00136621"/><path d="M.04 0h5.2v.17H0V0h.04z" fill="#9fb2af"/><g><path d="M118.02 98.78l-3.92-.57-.67-3.9 3.5-1.85 2.84 2.76z" transform="matrix(.75588 .11267 .1072 -.79436 -95.62 68.84)" fill="#5a7aac" fill-rule="evenodd" stroke="#1e3a81" stroke-width=".06353789"/><path d="M2.17 5.15l.52-1.47.53 1.47 1.51.01-1.18.9.55 1.55-1.4-.99-1.38 1 .54-1.54L.6 5.16z" fill="#e9c342" fill-rule="evenodd"/><path d="M98.6 111.37l-2.37 1.68 2.35-3.1z" fill="url(#b)" transform="matrix(.58021 0 0 .5898 -54.51 -59.06)"/><path d="M98.58 109.96l-1.43.5-2.17-1.57z" fill="url(#c)" transform="matrix(.58021 0 0 .5898 -54.51 -59.06)"/><path d="M98.58 109.96l-.9-1.09.9-2.47z" fill="url(#d)" transform="matrix(.58021 0 0 .5898 -54.51 -59.06)"/><path d="M99.5 108.88h2.6l-3.52 1.08z" fill="url(#e)" transform="matrix(.58021 0 0 .5898 -54.51 -59.06)"/><path d="M100.06 110.43l.96 2.61-2.44-3.08z" fill="url(#f)" transform="matrix(.58021 0 0 .5898 -54.51 -59.06)"/></g><path d="M2.38 1.64l.25-.7.25.7h.72l-.56.43.26.73-.67-.47L2 2.8l.25-.73-.6-.43z" fill="#e9c342" fill-rule="evenodd"/></svg>