<svg xmlns="http://www.w3.org/2000/svg" xmlns:xlink="http://www.w3.org/1999/xlink" viewBox="0 0 10.583333 2.244134"><defs><linearGradient id="b"><stop offset="0" stop-color="#bb8910"/><stop offset="1" stop-color="#bb8910" stop-opacity="0"/></linearGradient><linearGradient id="a" gradientUnits="userSpaceOnUse" x1="2802.6499" y1="-822.48932" x2="2861.1558" y2="-822.48932" gradientTransform="matrix(-.06649 -.00802 -.00848 .10102 291.53 219)"><stop offset="0.0056" stop-color="#fac826"/><stop offset="0.2528" stop-color="#fffacb"/><stop offset="0.3048" stop-color="#f8eeba"/><stop offset="0.408" stop-color="#e7d08d"/><stop offset="0.5516" stop-color="#cba145"/><stop offset="0.5955" stop-color="#c2912e"/><stop offset="0.8708" stop-color="#edd688"/><stop offset="1" stop-color="#fffacb"/></linearGradient><linearGradient xlink:href="#b" id="c" x1="108.51099" y1="115.70916" x2="111.82345" y2="115.70916" gradientUnits="userSpaceOnUse"/><linearGradient xlink:href="#b" id="d" x1="108.51099" y1="115.70916" x2="111.82345" y2="115.70916" gradientUnits="userSpaceOnUse"/></defs><g fill-rule="evenodd" transform="translate(-108.1 -112.17)"><path fill="#6c848f" stroke="#0010b1" stroke-width=".07543017" d="M108.14 112.4h10.5v1.78h-10.5z"/><circle r="1.0583328" cy="113.28989" cx="113.39285" fill="#0015b5"/><path d="M111.75 112.73c-.09 0-.16.05-.16.12v.12h-1.68v-.14c0-.05-.05-.08-.12-.08h-1.38c-.07 0-.12.03-.12.08v.92c0 .05.05.08.12.08h1.38c.07 0 .12-.03.12-.08v-.14h1.68v.12c0 .07.07.12.16.12h.21c.1 0 .16-.05.16-.12v-.88c0-.07-.07-.12-.16-.12z" fill="#ff0"/><path d="M111.5 115.02a.14.14 0 0 0-.14.14v.15h-1.45v-.17a.1.1 0 0 0-.1-.1h-1.2a.1.1 0 0 0-.1.1v1.14c0 .05.05.1.1.1h1.2a.1.1 0 0 0 .1-.1v-.17h1.45v.15c0 .08.06.14.14.14h.18c.08 0 .14-.06.14-.14v-1.1a.14.14 0 0 0-.14-.14z" fill="url(#c)" transform="matrix(1.1579 0 0 .8101 -17.36 19.55)"/><g><path d="M115.03 112.73c.1 0 .17.05.17.12v.12h1.67v-.14c0-.05.06-.08.12-.08h1.39c.06 0 .12.03.12.08v.92c0 .05-.06.08-.12.08h-1.39c-.06 0-.12-.03-.12-.08v-.14h-1.67v.12c0 .07-.08.12-.17.12h-.2c-.1 0-.17-.05-.17-.12v-.88c0-.07.07-.12.16-.12z" fill="#ff0"/><path d="M111.5 115.02a.14.14 0 0 0-.14.14v.15h-1.45v-.17a.1.1 0 0 0-.1-.1h-1.2a.1.1 0 0 0-.1.1v1.14c0 .05.05.1.1.1h1.2a.1.1 0 0 0 .1-.1v-.17h1.45v.15c0 .08.06.14.14.14h.18c.08 0 .14-.06.14-.14v-1.1a.14.14 0 0 0-.14-.14z" fill="url(#d)" transform="matrix(-1.1579 0 0 .8101 244.14 19.55)"/></g><path d="M113.14 112.23v.81h-.8v.5h.8v.8h.5v-.8h.81v-.5h-.8v-.8z" fill="#ff0"/></g></svg>