<svg xmlns="http://www.w3.org/2000/svg" xmlns:xlink="http://www.w3.org/1999/xlink" viewBox="0 0 5.2916665 8.3925924"><defs><linearGradient xlink:href="#a" id="i" gradientUnits="userSpaceOnUse" x1="113.50485" y1="72.66468" x2="120.63326" y2="72.66468" gradientTransform="translate(.017 -.547)"/><radialGradient gradientUnits="userSpaceOnUse" r="29.031401" cy="106.3116" cx="48.0952" id="a"><stop offset="0.0056" stop-color="#fbc926"/><stop offset="0.2528" stop-color="#fffbcc"/><stop offset="0.2986" stop-color="#f7eab8"/><stop offset="0.3896" stop-color="#e7cf8e"/><stop offset="0.5159" stop-color="#d1a954"/><stop offset="0.5955" stop-color="#c3922e"/><stop offset="0.8143" stop-color="#e2c675"/><stop offset="0.8708" stop-color="#eed688"/><stop offset="1" stop-color="#fffbcc"/></radialGradient><linearGradient y2="121.9607" x2="61.983898" y1="-0.7676" x1="40.813499" gradientUnits="userSpaceOnUse" id="b"><stop offset="0" stop-color="#fff"/><stop offset="0.4011"/><stop offset="0.7637" stop-color="#fff"/><stop offset="0.8352"/><stop offset="0.9121" stop-color="#fff"/><stop offset="0.978"/></linearGradient><linearGradient xlink:href="#a" id="e" gradientUnits="userSpaceOnUse" gradientTransform="translate(.017 -.547)" x1="113.50485" y1="72.66468" x2="120.63326" y2="72.66468"/><linearGradient xlink:href="#a" id="f" gradientUnits="userSpaceOnUse" gradientTransform="translate(.017 -.547)" x1="113.50485" y1="72.66468" x2="120.63326" y2="72.66468"/><linearGradient xlink:href="#a" id="g" gradientUnits="userSpaceOnUse" gradientTransform="translate(.017 -.547)" x1="113.50485" y1="72.66468" x2="120.63326" y2="72.66468"/><linearGradient xlink:href="#a" id="h" gradientUnits="userSpaceOnUse" gradientTransform="translate(.017 -.547)" x1="113.50485" y1="72.66468" x2="120.63326" y2="72.66468"/><linearGradient xlink:href="#b" id="c" x1="89.010323" y1="102.56882" x2="94.890366" y2="102.56882" gradientUnits="userSpaceOnUse"/><linearGradient xlink:href="#b" id="d" x1="89.010323" y1="102.56882" x2="94.890366" y2="102.56882" gradientUnits="userSpaceOnUse"/></defs><path d="M2.23 3.302c0-.697.18-1.262.403-1.262.222 0 .402.565.402 1.262 0 .698-.18 1.263-.402 1.263-.223 0-.403-.565-.403-1.263zm.054 0c0 .605.156 1.093.349 1.095.192-.001.348-.49.348-1.095 0-.604-.156-1.093-.348-1.094-.193 0-.349.49-.35 1.094z" fill="#807e77"/><path fill="teal" fill-rule="evenodd" d="M.056.09h5.153v2.918H.056z"/><path fill="#ccc" fill-rule="evenodd" d="M1.668.09h1.93v2.918h-1.93z"/><path d="M.064.002h5.15c.02 0 .036.002.036.004v.088c0 .002-.016.004-.036.004H.064C.044.098.028.096.028.094V.006c0-.002.016-.004.036-.004z" fill="#3b3933"/><path d="M.051 0h5.15c.02 0 .037.002.037.004v.088c0 .003-.017.005-.037.005H.051C.031.097.015.095.015.092V.004C.015.002.03 0 .05 0z" fill="#a8a6a0"/><path d="M89.051 101.853h5.798c.023 0 .041.028.041.063v1.306c0 .035-.018.063-.04.063H89.05c-.022 0-.04-.028-.04-.063v-1.306c0-.035.018-.063.04-.063z" opacity=".45199998" fill="url(#c)" transform="matrix(.88823 0 0 .06744 -79.047 -6.869)"/><g><path d="M.064 2.922h5.15c.02 0 .036.002.036.004v.088c0 .003-.016.005-.036.005H.064c-.02 0-.036-.002-.036-.005v-.088c0-.002.016-.004.036-.004z" fill="#3b3933"/><path d="M.051 2.92h5.15c.02 0 .037.002.037.005v.088c0 .002-.017.004-.037.004H.051c-.02 0-.036-.002-.036-.004v-.088c0-.003.016-.005.036-.005z" fill="#a8a6a0"/><path d="M89.051 101.853h5.798c.023 0 .041.028.041.063v1.306c0 .035-.018.063-.04.063H89.05c-.022 0-.04-.028-.04-.063v-1.306c0-.035.018-.063.04-.063z" opacity=".45199998" fill="url(#d)" transform="matrix(.88823 0 0 .06744 -79.047 -3.948)"/></g><g><path d="M5.196 5.018c-.046-.16-2.36-1.972-2.518-1.972C2.52 3.046.123 4.861.07 5.021c-.052.16.78 3.093.906 3.192.126.098 3.037.097 3.168-.002.13-.098 1.097-3.033 1.052-3.193z" fill="#044f4f" fill-rule="evenodd"/><path d="M4.729 6.582L3.126 6.6l-.508 1.62-.506-1.608-1.61-.006 1.29-1.012-.487-1.624 1.303.983 1.309-.997-.485 1.62z" fill="#ccc" fill-rule="evenodd"/><path d="M2.4 5.56l.213-.632.214.633.614.003-.481.388.225.663-.57-.425-.556.425.216-.656-.51-.395z" fill="#e9c342" fill-rule="evenodd"/><path d="M117.135 73.761l-2.364 1.68 2.354-3.089z" fill="url(#e)" transform="matrix(.23512 0 0 .25285 -24.926 -12.46)"/><path d="M117.125 72.352l-1.434.495-2.169-1.564z" fill="url(#f)" transform="matrix(.23512 0 0 .25285 -24.926 -12.46)"/><path d="M117.125 72.353l-.907-1.088.901-2.472z" fill="url(#g)" transform="matrix(.23512 0 0 .25285 -24.926 -12.46)"/><path d="M118.036 71.273l2.614.01-3.525 1.07z" fill="url(#h)" transform="matrix(.23512 0 0 .25285 -24.926 -12.46)"/><path d="M118.603 72.82l.958 2.619-2.436-3.086z" fill="url(#i)" transform="matrix(.23512 0 0 .25285 -24.926 -12.46)"/></g></svg>