<svg xmlns="http://www.w3.org/2000/svg" xmlns:xlink="http://www.w3.org/1999/xlink" viewBox="0 0 5.2916665 8.3925924"><defs><linearGradient xlink:href="#a" id="i" gradientUnits="userSpaceOnUse" x1="113.50485" y1="72.66468" x2="120.63326" y2="72.66468" gradientTransform="translate(.017 -.547)"/><radialGradient gradientUnits="userSpaceOnUse" r="29.031401" cy="106.3116" cx="48.0952" id="a"><stop offset="0.0056" stop-color="#fbc926"/><stop offset="0.2528" stop-color="#fffbcc"/><stop offset="0.2986" stop-color="#f7eab8"/><stop offset="0.3896" stop-color="#e7cf8e"/><stop offset="0.5159" stop-color="#d1a954"/><stop offset="0.5955" stop-color="#c3922e"/><stop offset="0.8143" stop-color="#e2c675"/><stop offset="0.8708" stop-color="#eed688"/><stop offset="1" stop-color="#fffbcc"/></radialGradient><linearGradient y2="121.9607" x2="61.983898" y1="-0.7676" x1="40.813499" gradientUnits="userSpaceOnUse" id="b"><stop offset="0" stop-color="#fff"/><stop offset="0.4011"/><stop offset="0.7637" stop-color="#fff"/><stop offset="0.8352"/><stop offset="0.9121" stop-color="#fff"/><stop offset="0.978"/></linearGradient><linearGradient xlink:href="#a" id="e" gradientUnits="userSpaceOnUse" gradientTransform="translate(.017 -.547)" x1="113.50485" y1="72.66468" x2="120.63326" y2="72.66468"/><linearGradient xlink:href="#a" id="f" gradientUnits="userSpaceOnUse" gradientTransform="translate(.017 -.547)" x1="113.50485" y1="72.66468" x2="120.63326" y2="72.66468"/><linearGradient xlink:href="#a" id="g" gradientUnits="userSpaceOnUse" gradientTransform="translate(.017 -.547)" x1="113.50485" y1="72.66468" x2="120.63326" y2="72.66468"/><linearGradient xlink:href="#a" id="h" gradientUnits="userSpaceOnUse" gradientTransform="translate(.017 -.547)" x1="113.50485" y1="72.66468" x2="120.63326" y2="72.66468"/><linearGradient xlink:href="#b" id="c" x1="89.010323" y1="102.56882" x2="94.890366" y2="102.56882" gradientUnits="userSpaceOnUse"/><linearGradient xlink:href="#b" id="d" x1="89.010323" y1="102.56882" x2="94.890366" y2="102.56882" gradientUnits="userSpaceOnUse"/></defs><path d="M2.2 3.302c0-.697.18-1.262.402-1.262.222 0 .402.565.402 1.262 0 .698-.18 1.263-.402 1.263-.223 0-.403-.565-.403-1.263zm.053 0c0 .605.156 1.093.349 1.095.192-.001.348-.49.349-1.095 0-.604-.157-1.093-.35-1.094-.192 0-.348.49-.348 1.094z" fill="#807e77"/><path fill="teal" fill-rule="evenodd" d="M.07.09h5.152v2.918H.07z"/><path fill="#ccc" fill-rule="evenodd" d="M1.681.09h1.93v2.918H1.68z"/><path d="M5.289 6.36c-.077.27-1.694-.007-1.907.16-.213.166-.421 1.873-.689 1.873-.268 0-.556-1.709-.777-1.876-.22-.167-1.823.111-1.912-.16-.089-.27 1.35-1.047 1.426-1.317.077-.27-.705-1.805-.492-1.972.213-.167 1.39 1.06 1.659 1.06.268.001 1.386-1.225 1.607-1.058.22.167-.49 1.703-.401 1.974.089.27 1.563 1.047 1.486 1.316z" fill="#044f4f" fill-rule="evenodd"/><path d="M.077.002h5.15c.02 0 .037.002.037.004v.088c0 .002-.017.004-.037.004H.077C.057.098.041.096.041.094V.006C.04.004.057.002.077.002z" fill="#3b3933"/><path d="M.064 0h5.15c.02 0 .037.002.037.004v.088c0 .003-.016.005-.037.005H.064C.044.097.028.095.028.092V.004C.028.002.044 0 .064 0z" fill="#a8a6a0"/><path d="M89.051 101.853h5.798c.023 0 .041.028.041.063v1.306c0 .035-.018.063-.04.063H89.05c-.022 0-.04-.028-.04-.063v-1.306c0-.035.018-.063.04-.063z" opacity=".45199998" fill="url(#c)" transform="matrix(.88823 0 0 .06744 -79.034 -6.869)"/><path d="M.077 2.922h5.15c.02 0 .037.002.037.004v.088c0 .003-.017.005-.037.005H.077c-.02 0-.036-.002-.036-.005v-.088c0-.002.016-.004.036-.004z" fill="#3b3933"/><path d="M.064 2.92h5.15c.02 0 .037.002.037.005v.088c0 .002-.016.004-.037.004H.064c-.02 0-.036-.002-.036-.004v-.088c0-.003.016-.005.036-.005z" fill="#a8a6a0"/><path d="M89.051 101.853h5.798c.023 0 .041.028.041.063v1.306c0 .035-.018.063-.04.063H89.05c-.022 0-.04-.028-.04-.063v-1.306c0-.035.018-.063.04-.063z" opacity=".45199998" fill="url(#d)" transform="matrix(.88823 0 0 .06744 -79.034 -3.948)"/><path d="M5.031 6.303l-1.808.01L2.69 8.15l-.61-1.832-1.817-.017 1.43-1.142-.588-1.848L2.6 4.437l1.453-1.125-.508 1.837z" fill="#ccc" fill-rule="evenodd"/><g><path d="M2.424 5.124l.233-.696.233.697.672.003-.526.428.246.73-.624-.468-.607.468.236-.723-.557-.435z" fill="#e9c342" fill-rule="evenodd"/><path d="M117.135 73.761l-2.364 1.68 2.354-3.089z" fill="url(#e)" transform="matrix(.25706 0 0 .27851 -27.453 -14.725)"/><path d="M117.125 72.352l-1.434.495-2.169-1.564z" fill="url(#f)" transform="matrix(.25706 0 0 .27851 -27.453 -14.725)"/><path d="M117.125 72.353l-.907-1.088.901-2.472z" fill="url(#g)" transform="matrix(.25706 0 0 .27851 -27.453 -14.725)"/><path d="M118.036 71.273l2.614.01-3.525 1.07z" fill="url(#h)" transform="matrix(.25706 0 0 .27851 -27.453 -14.725)"/><path d="M118.603 72.82l.958 2.619-2.436-3.086z" fill="url(#i)" transform="matrix(.25706 0 0 .27851 -27.453 -14.725)"/></g></svg>