<svg xmlns="http://www.w3.org/2000/svg" viewBox="0 0 5.2414707 8.5924632"><g transform="translate(-115.2 -91.74)"><path d="M117.82 91.74v3.74" fill="none" stroke="#000" stroke-width=".00054989"/><path d="M116.1 94.98l-.86-.5v-2.74h5.18l-.01 1.38v1.37l-.87.5-.86.5-.86-.01h-.85z" fill="#250" stroke="#eed729" stroke-width=".00130886" stroke-linecap="round" stroke-linejoin="round"/><path d="M117.83 93.61v-1.87h2.59l-.01.6v1.37l-.01.78s-.4.22-.86.5l-.86.49h-.85z" fill="#e5ffd5" fill-rule="evenodd" stroke="#f6d82a" stroke-width=".00000942"/><path d="M115.24 91.74h5.17l.04.01v.16l-.04.01h-5.21v-.17h.04z" fill="#e0b944"/><circle r="2.3518519" cy="97.955002" cx="117.7946" fill="#e9c240" fill-rule="evenodd"/><path d="M117.81 100.34c-.61 0-.95-.56-1.39-1-.43-.43-1-.75-1-1.37-.01-.61.55-.95.98-1.39.43-.43.76-1 1.38-1 .61-.01.95.55 1.39.98.43.44 1 .76 1 1.38.01.61-.55.95-.99 1.39-.43.43-.76 1-1.37 1z" fill="#250" fill-rule="evenodd"/><circle r="1.4552078" cy="97.955002" cx="117.7946" fill="#e9c240" fill-rule="evenodd"/><circle r="0.66145813" cy="97.955002" cx="117.7946" fill="#050" fill-rule="evenodd"/><text transform="scale(.98698 1.01319)" y="93.624237" x="117.14548" style="line-height:1.25;-inkscape-font-specification:'Arial Bold'" font-weight="700" font-size="3.70965838px" font-family="Arial" letter-spacing="0" word-spacing="0" fill="#e5ffd5" stroke-width=".21401875"><tspan style="-inkscape-font-specification:'Arial Bold'" y="93.624237" x="117.14548">1</tspan></text><text transform="scale(.98698 1.01319)" y="93.601593" x="119.66315" style="line-height:1.25;-inkscape-font-specification:'Arial Bold'" font-weight="700" font-size="3.70965838px" font-family="Arial" letter-spacing="0" word-spacing="0" fill="#250" stroke-width=".21401875"><tspan style="-inkscape-font-specification:'Arial Bold'" y="93.601593" x="119.66315">0</tspan></text></g></svg>