<svg xmlns="http://www.w3.org/2000/svg" viewBox="0 0 5.2414707 8.5924632"><g transform="translate(-115.204 -91.744)"><path d="M117.825 91.744v3.736" fill="none" stroke="#000" stroke-width=".00054989"/><path d="M116.102 94.98l-.864-.5V91.745h5.173l-.004 1.372-.004 1.37-.86.498-.859.497H116.965z" fill="#250" stroke="#eed729" stroke-width=".00130886" stroke-linecap="round" stroke-linejoin="round"/><path d="M117.828 93.612v-1.868h2.582l-.002.597-.005 1.37c-.001.425-.004.774-.006.776l-.86.498-.856.495h-.853z" fill="#e5ffd5" fill-rule="evenodd" stroke="#f6d82a" stroke-width=".00000942"/><path d="M115.24 91.744h5.169c.02 0 .036.004.036.008v.16c0 .005-.016.008-.036.008h-5.169c-.02 0-.036-.003-.036-.007v-.16c0-.005.016-.009.036-.009z" fill="#e0b944"/><circle r="2.3518519" cy="97.955002" cx="117.7946" fill="#e9c240" fill-rule="evenodd"/><path d="M117.811 100.336c-.614.005-.95-.56-1.388-.99-.437-.432-1.005-.76-1.01-1.374-.004-.614.56-.951.991-1.388.43-.438.76-1.006 1.374-1.01.614-.005.95.56 1.388.99.437.432 1.006.76 1.01 1.374.004.614-.56.951-.991 1.388-.43.438-.76 1.006-1.374 1.01z" fill="#250" fill-rule="evenodd"/><circle r="1.4552078" cy="97.955002" cx="117.7946" fill="#e9c240" fill-rule="evenodd"/><circle r="0.66145813" cy="97.955002" cx="117.7946" fill="#050" fill-rule="evenodd"/><text transform="scale(.98698 1.01319)" y="93.571266" x="119.54262" style="line-height:1.25;-inkscape-font-specification:'Arial Bold'" font-weight="700" font-size="3.70965838px" font-family="Arial" letter-spacing="0" word-spacing="0" fill="#250" stroke-width=".21401875"><tspan style="-inkscape-font-specification:'Arial Bold'" y="93.571266" x="119.54262">1</tspan></text><text transform="scale(.98698 1.01319)" y="93.625961" x="117.15887" style="line-height:1.25;-inkscape-font-specification:'Arial Bold'" font-weight="700" font-size="3.70965838px" font-family="Arial" letter-spacing="0" word-spacing="0" fill="#e5ffd5" stroke-width=".21401875"><tspan style="-inkscape-font-specification:'Arial Bold'" y="93.625961" x="117.15887">0</tspan></text></g></svg>