<svg xmlns="http://www.w3.org/2000/svg" xmlns:xlink="http://www.w3.org/1999/xlink" viewBox="0 0 5.291667 8.1269398"><defs><linearGradient id="a"><stop offset="0" stop-color="#d40000"/><stop offset="1" stop-color="#d40000" stop-opacity="0"/></linearGradient><radialGradient gradientUnits="userSpaceOnUse" r="29.031401" cy="106.3116" cx="48.0952" id="b" gradientTransform="matrix(.03311 0 0 .03006 61.187 85.206)"><stop offset="0.0056" stop-color="#fbc926"/><stop offset="0.2528" stop-color="#fffbcc"/><stop offset="0.2986" stop-color="#f7eab8"/><stop offset="0.3896" stop-color="#e7cf8e"/><stop offset="0.5159" stop-color="#d1a954"/><stop offset="0.5955" stop-color="#c3922e"/><stop offset="0.8143" stop-color="#e2c675"/><stop offset="0.8708" stop-color="#eed688"/><stop offset="1" stop-color="#fffbcc"/></radialGradient><linearGradient xlink:href="#a" id="c" x1="63.025715" y1="87.117836" x2="63.043255" y2="87.117836" gradientUnits="userSpaceOnUse" gradientTransform="matrix(.66001 0 0 .66001 21.17 29.197)"/></defs><g transform="translate(-60.098 -84.862)"><path d="M62.247 88.377c0-.249.223-.45.497-.45s.497.201.497.45c0 .25-.223.451-.497.451s-.497-.202-.497-.45zm.067 0c0 .216.192.39.43.391.238 0 .43-.175.43-.39 0-.216-.192-.39-.43-.391-.238 0-.43.175-.43.39z" fill="url(#b)" transform="matrix(1 0 0 .91762 0 6.991)"/><path d="M60.148 84.864h5.205c.02 0 .037.002.037.004v.083c0 .002-.017.004-.037.004h-5.205c-.02 0-.037-.002-.037-.004v-.083c0-.002.017-.004.037-.004z" fill="#3b3933"/><path d="M60.135 84.862h5.205c.02 0 .037.002.037.004v.084c0 .002-.017.004-.037.004h-5.205c-.02 0-.037-.002-.037-.004v-.084c0-.002.017-.004.037-.004z" fill="#c69912"/><path d="M61.88 88.086h1.732c.007 0 .012.001.012.003v.067c0 .001-.006.003-.012.003H61.88c-.007 0-.013-.002-.013-.003v-.067c0-.002.006-.003.013-.003z" fill="#3b3933"/><path d="M61.876 88.085h1.731c.007 0 .013.001.013.003v.066c0 .002-.006.004-.013.004h-1.73c-.007 0-.013-.002-.013-.004v-.066c0-.002.006-.003.012-.003z" fill="#c69912"/><path d="M60.127 87.79c-.005-.941 0-1.888 0-2.83h5.233c-.003.84.002 1.99 0 2.83l-1.746.601h-1.74z" fill="#fea" stroke="#eed729" stroke-width=".00126163" stroke-linecap="round" stroke-linejoin="round" transform="matrix(1 0 0 .91762 0 6.991)"/><path d="M60.127 87.79c-.005-.941 0-1.888 0-2.83H65.36c-.003.84.002 1.99 0 2.83l-1.746.601h-1.74z" fill="url(#c)" stroke="#eed729" stroke-width=".00126163" stroke-linecap="round" stroke-linejoin="round" transform="matrix(1 0 0 .91762 0 6.991)"/><circle r="2.3812487" cy="90.607834" cx="62.752396" fill="#ddc60a" fill-rule="evenodd"/><path d="M64.182 92.577c-.51.405-.753-1.394-1.403-1.389-.658.006-.868 1.777-1.416 1.411-.542-.361 1.087-1.15.881-1.768-.208-.627-1.952-.28-1.774-.917.175-.629 1.425.683 1.947.295.53-.393-.337-1.95.32-1.977.65-.027-.206 1.571.323 1.95.536.385 1.743-.924 1.972-.305.226.612-1.553.288-1.748.91-.199.631 1.415 1.38.898 1.79z" fill="#1a1a1a" fill-rule="evenodd"/><path d="M63.07 91.11c-.07.05-.583.039-.65-.014-.068-.052-.216-.553-.188-.634.027-.081.449-.38.534-.379.084.002.494.318.518.4.025.083-.144.578-.214.627z" fill="#d40000" fill-rule="evenodd"/><g><path d="M61.963 86.263l-.455-.085-.139.432-.154-.436-.443.097.3-.352-.304-.336.454.085.139-.432.154.436.443-.096-.3.351z" fill="#ffe304" fill-rule="evenodd" stroke="#875b11" stroke-width=".00079375"/><path d="M60.772 86.27l1.186-.694M60.768 85.583l1.195.68M61.36 85.236l.01 1.374M61.073 85.92l.585.007M61.222 85.668l.286.51M61.215 86.174l.3-.502" fill="none" stroke="#000" stroke-width=".00026458"/><path d="M61.225 85.92a5.21 5.21 0 0 1-.138-.002l-.015-.001-.148-.163c-.081-.09-.148-.163-.147-.164l.052.03a419.482 419.482 0 0 0 .528.3l.005.003h-.007c-.004 0-.062-.002-.13-.002zM61.294 85.793l-.07-.125.067-.212.069-.21.004.673-.07-.126zM61.379 85.902a62.634 62.634 0 0 0 .136-.228c.002-.002.431-.095.433-.094l-.011.007a38.485 38.485 0 0 0-.222.13 394.476 394.476 0 0 0-.346.202l.01-.017zM61.37 86.566a117.75 117.75 0 0 0-.003-.615v-.022l.07.124.069.126-.135.423-.001-.036zM61.727 86.218a4.61 4.61 0 0 1-.22-.043 14.968 14.968 0 0 1-.136-.246s.007.002.015.007a71.337 71.337 0 0 1 .562.323l-.221-.04zM60.782 86.26a89.995 89.995 0 0 0 .288-.336l.005-.004.141.002c.078 0 .142.002.143.003l-.011.007a35.763 35.763 0 0 0-.222.13 431.1 431.1 0 0 0-.346.202l.002-.004z" fill="#d4aa00" fill-rule="evenodd" stroke="#875b11" stroke-width=".0000052281007999999995"/></g></g></svg>