<svg xmlns="http://www.w3.org/2000/svg" xmlns:xlink="http://www.w3.org/1999/xlink" viewBox="0 0 5.291667 9.2242832"><defs><linearGradient id="a"><stop offset="0" stop-color="#d40000"/><stop offset="1" stop-color="#d40000" stop-opacity="0"/></linearGradient><radialGradient gradientUnits="userSpaceOnUse" r="29.031401" cy="106.3116" cx="48.0952" id="b" gradientTransform="matrix(.03311 0 0 .03006 61.187 85.206)"><stop offset="0.0056" stop-color="#fbc926"/><stop offset="0.2528" stop-color="#fffbcc"/><stop offset="0.2986" stop-color="#f7eab8"/><stop offset="0.3896" stop-color="#e7cf8e"/><stop offset="0.5159" stop-color="#d1a954"/><stop offset="0.5955" stop-color="#c3922e"/><stop offset="0.8143" stop-color="#e2c675"/><stop offset="0.8708" stop-color="#eed688"/><stop offset="1" stop-color="#fffbcc"/></radialGradient><linearGradient xlink:href="#a" id="c" x1="63.025715" y1="87.117836" x2="63.043255" y2="87.117836" gradientUnits="userSpaceOnUse" gradientTransform="matrix(.66001 0 0 .66001 21.17 29.197)"/></defs><g transform="translate(-60.098 -84.862)"><path d="M61.963 86.263l-.455-.085-.139.432-.154-.436-.443.097.3-.352-.304-.336.454.085.139-.432.154.436.443-.096-.3.351z" transform="matrix(.97873 -1.0769 1.13425 1.12906 -96.405 58.084)" fill="#fc0" fill-rule="evenodd" stroke="#875b11" stroke-width=".00079375"/><path d="M61.963 86.263l-.455-.085-.139.432-.154-.436-.443.097.3-.352-.304-.336.454.085.139-.432.154.436.443-.096-.3.351z" transform="matrix(.95326 1.10224 -1.24073 1.00495 112.473 -64.933)" fill="#fc0" fill-rule="evenodd" stroke="#875b11" stroke-width=".00079375"/><path d="M61.963 86.263l-.455-.085-.139.432-.154-.436-.443.097.3-.352-.304-.336.454.085.139-.432.154.436.443-.096-.3.351z" transform="matrix(1.54424 -.05545 -.02666 1.6987 -29.716 -49.637)" fill="#fc0" fill-rule="evenodd" stroke="#875b11" stroke-width=".00079375"/><path d="M62.247 88.377c0-.249.223-.45.497-.45s.497.201.497.45c0 .25-.223.451-.497.451s-.497-.202-.497-.45zm.067 0c0 .216.192.39.43.391.238 0 .43-.175.43-.39 0-.216-.192-.39-.43-.391-.238 0-.43.175-.43.39z" fill="url(#b)" transform="matrix(1 0 0 .91762 0 6.991)"/><path d="M60.148 84.864h5.205c.02 0 .037.002.037.004v.083c0 .002-.017.004-.037.004h-5.205c-.02 0-.037-.002-.037-.004v-.083c0-.002.017-.004.037-.004z" fill="#3b3933"/><path d="M60.135 84.862h5.205c.02 0 .037.002.037.004v.084c0 .002-.017.004-.037.004h-5.205c-.02 0-.037-.002-.037-.004v-.084c0-.002.017-.004.037-.004z" fill="#c69912"/><path d="M61.88 88.086h1.732c.007 0 .012.001.012.003v.067c0 .001-.006.003-.012.003H61.88c-.007 0-.013-.002-.013-.003v-.067c0-.002.006-.003.013-.003z" fill="#3b3933"/><path d="M61.876 88.085h1.731c.007 0 .013.001.013.003v.066c0 .002-.006.004-.013.004h-1.73c-.007 0-.013-.002-.013-.004v-.066c0-.002.006-.003.012-.003z" fill="#c69912"/><path d="M60.127 87.79c-.005-.941 0-1.888 0-2.83h5.233c-.003.84.002 1.99 0 2.83l-1.746.601h-1.74z" fill="#fea" stroke="#eed729" stroke-width=".00126163" stroke-linecap="round" stroke-linejoin="round" transform="matrix(1 0 0 .91762 0 6.991)"/><path d="M60.127 87.79c-.005-.941 0-1.888 0-2.83H65.36c-.003.84.002 1.99 0 2.83l-1.746.601h-1.74z" fill="url(#c)" stroke="#eed729" stroke-width=".00126163" stroke-linecap="round" stroke-linejoin="round" transform="matrix(1 0 0 .91762 0 6.991)"/><circle cx="62.752396" cy="90.607834" r="2.3812487" fill="#ddc60a" fill-rule="evenodd"/><path d="M64.182 92.577c-.678.538-.528-1.155-1.393-1.148-.884.007-.69 1.662-1.426 1.17-.72-.48.93-.86.656-1.684-.28-.843-1.788-.146-1.55-1.001.234-.836 1.104.622 1.8.106.71-.527-.415-1.752.469-1.788.864-.036-.25 1.245.455 1.75.72.516 1.531-.937 1.84-.105.3.814-1.258.148-1.518.976-.267.846 1.36 1.172.667 1.724z" fill="maroon" fill-rule="evenodd"/><path d="M64.182 92.577c-.51.405-.753-1.394-1.403-1.389-.658.006-.868 1.777-1.416 1.411-.542-.361 1.087-1.15.881-1.768-.208-.627-1.952-.28-1.774-.917.175-.629 1.425.683 1.947.295.53-.393-.337-1.95.32-1.977.65-.027-.206 1.571.323 1.95.536.385 1.743-.924 1.972-.305.226.612-1.553.288-1.748.91-.199.631 1.415 1.38.898 1.79z" fill="#1a1a1a" fill-rule="evenodd"/><path d="M63.07 91.11c-.07.05-.583.039-.65-.014-.068-.052-.216-.553-.188-.634.027-.081.449-.38.534-.379.084.002.494.318.518.4.025.083-.144.578-.214.627z" fill="#d40000" fill-rule="evenodd"/><g><path d="M61.963 86.263l-.455-.085-.139.432-.154-.436-.443.097.3-.352-.304-.336.454.085.139-.432.154.436.443-.096-.3.351z" fill="#ffe304" fill-rule="evenodd" stroke="#875b11" stroke-width=".00079375" transform="matrix(1.67098 0 0 1.81538 -39.804 -69.586)"/><path d="M60.772 86.27l1.186-.694M60.768 85.583l1.195.68M61.36 85.236l.01 1.374M61.073 85.92l.585.007M61.222 85.668l.286.51M61.215 86.174l.3-.502" fill="none" stroke="#000" stroke-width=".00026458" transform="matrix(1.67098 0 0 1.81538 -39.804 -69.586)"/><path transform="matrix(.44211 0 0 .48032 60.619 84.47)" d="M4.26 4c-.255-.002-.49-.007-.522-.01l-.058-.005-.559-.615a51.413 51.413 0 0 1-.556-.618 1585.445 1585.445 0 0 0 2.193 1.244l.02.012H4.75L4.26 4zM4.518 3.52l-.265-.475.257-.8c.141-.441.257-.797.257-.791l.018 2.54-.267-.474zM4.84 3.931l.273-.46c.13-.216.238-.398.243-.402.007-.007 1.63-.361 1.634-.356a.176.176 0 0 1-.042.028 145.453 145.453 0 0 0-.837.49 1490.933 1490.933 0 0 0-1.307.764.45.45 0 0 1 .035-.064zM4.807 6.441L4.8 5.253c-.004-.578-.006-1.089-.005-1.136l.002-.085.262.468c.144.257.261.472.261.477 0 .009-.506 1.594-.51 1.6a1.75 1.75 0 0 1-.003-.136zM6.154 5.125a17.422 17.422 0 0 1-.828-.162c-.028-.044-.52-.93-.517-.932a.25.25 0 0 1 .058.027l.266.151a70401.849 70401.849 0 0 1 1.863 1.062c.013.008.013.008-.003.008-.009 0-.386-.07-.839-.154zM2.586 5.284l.541-.633.546-.636.018-.017.534.007c.295.004.537.009.539.01.001.003-.017.016-.041.03a135.167 135.167 0 0 0-.838.49 1629.354 1629.354 0 0 0-1.308.764c-.003 0 .001-.006.009-.015z" fill="#d4aa00" fill-rule="evenodd" stroke="#875b11" stroke-width=".00001976"/></g><path d="M61.963 86.263l-.455-.085-.139.432-.154-.436-.443.097.3-.352-.304-.336.454.085.139-.432.154.436.443-.096-.3.351z" transform="matrix(.38074 0 0 .35422 39.372 55.96)" fill="#a00" fill-rule="evenodd" stroke="#875b11" stroke-width=".00079375"/></g></svg>