<svg xmlns="http://www.w3.org/2000/svg" xmlns:xlink="http://www.w3.org/1999/xlink" viewBox="0 0 5.291667 9.0229919"><defs><linearGradient id="a"><stop offset="0" stop-color="#fff"/><stop offset="1" stop-color="#fff" stop-opacity="0"/></linearGradient><radialGradient xlink:href="#a" id="b" cx="83.905342" cy="103.44652" fx="83.905342" fy="103.44652" r="0.3968749" gradientUnits="userSpaceOnUse" gradientTransform="translate(-.02 -.02)"/></defs><g transform="translate(-81.2 -96.94)"><circle cx="83.848335" cy="103.32166" r="2.5045812" fill="none" stroke="#e7c92b" stroke-width=".28250441"/><g transform="translate(-.04 -.1)"><path d="M83 105.75c.28-.57.46-1.2.52-1.85l.01-.1h-.1c-.66.07-1.3.28-1.87.61v-1.97c.57.33 1.21.54 1.87.6l.1.01v-.1a5.18 5.18 0 0 0-.54-1.85h1.79c-.3.57-.48 1.2-.54 1.85v.1h.1c.65-.07 1.3-.28 1.87-.61v1.97a4.68 4.68 0 0 0-1.87-.6l-.1-.01v.1c.06.64.25 1.28.54 1.85h-1.79z" fill="#9a510d" stroke="#e7c92b" stroke-width=".11489316"/><path d="M83.66 101.38v1.82h-1.82v.45h1.82v1.82h.45v-1.82h1.82v-.45H84.1v-1.82z" fill="#ae0404" fill-rule="evenodd"/><circle r="0.3968744" cy="103.42519" cx="83.884056" fill="#e1b92b" fill-rule="evenodd"/><circle r="0.3968744" cy="103.42519" cx="83.884056" fill="url(#b)" fill-rule="evenodd"/></g></g><path fill="#f60" fill-rule="evenodd" d="M.36 0h4.58v3.7H.36z"/><path fill="#ffe6d5" fill-rule="evenodd" stroke="#5900fb" stroke-width=".0016933" d="M1.84.14h1.61v3.38H1.84z"/><path d="M.37 0h4.55l.04.01v.2l-.04.01H.34V0L.37 0zM.37 3.48h4.59v.22H.34v-.21l.03-.01z" fill="#fae742"/><path d="M4.87 1.79c0 .44-.15-.12-.47.2-.31.3.25.46-.2.46-.44 0 .12-.15-.2-.47-.3-.31-.46.25-.46-.2 0-.44.15.13.47-.19.31-.31-.25-.46.2-.46.44 0-.12.15.2.46.3.32.46-.25.46.2z" fill="#ff0" fill-rule="evenodd"/></svg>