<svg xmlns="http://www.w3.org/2000/svg" xmlns:xlink="http://www.w3.org/1999/xlink" viewBox="0 0 4.7625561 8.5852993"><defs><linearGradient id="a"><stop offset="0" stop-color="#fff"/><stop offset="1" stop-color="#fff" stop-opacity="0"/></linearGradient><radialGradient xlink:href="#a" id="b" cx="83.905342" cy="103.44652" fx="83.905342" fy="103.44652" r="0.3968749" gradientUnits="userSpaceOnUse" gradientTransform="translate(-.02 -.02)"/></defs><g transform="translate(-81.5 -97.22)"><path d="M83 105.75c.28-.57.46-1.2.52-1.85l.01-.1h-.1c-.66.07-1.3.28-1.87.61v-1.97c.57.33 1.21.54 1.87.6l.1.01v-.1a5.18 5.18 0 0 0-.54-1.85h1.79c-.3.57-.48 1.2-.54 1.85v.1h.1c.65-.07 1.3-.28 1.87-.61v1.97a4.68 4.68 0 0 0-1.87-.6l-.1-.01v.1c.06.64.25 1.28.54 1.85h-1.79z" fill="#9a510d" stroke="#e7c92b" stroke-width=".11489316"/><path d="M83.66 101.38v1.82h-1.82v.45h1.82v1.82h.45v-1.82h1.82v-.45H84.1v-1.82z" fill="#ae0404" fill-rule="evenodd"/><circle cx="83.884056" cy="103.42519" r="0.3968744" fill="#e1b92b" fill-rule="evenodd"/><circle cx="83.884056" cy="103.42519" r="0.3968744" fill="url(#b)" fill-rule="evenodd"/></g><path fill="#f60" fill-rule="evenodd" d="M.1 0h4.57v3.7H.1z"/><path fill="#ffe6d5" fill-rule="evenodd" stroke="#5900fb" stroke-width=".0016933" d="M1.57.14H3.2v3.38H1.57z"/><path d="M.1 0h4.56l.03.01v.2l-.03.01H.07V0L.1 0zM.1 3.48H4.7v.22H.07v-.21l.03-.01z" fill="#fae742"/><path d="M4.6 1.79c0 .44-.15-.12-.46.2-.32.3.24.46-.2.46s.12-.15-.2-.47c-.31-.31-.46.25-.46-.2 0-.44.15.13.46-.19.32-.31-.24-.46.2-.46s-.12.15.2.46c.31.32.46-.25.46.2z" fill="#ff0" fill-rule="evenodd"/></svg>