<svg xmlns="http://www.w3.org/2000/svg" xmlns:xlink="http://www.w3.org/1999/xlink" viewBox="0 0 5.291667 9.0229919"><defs><linearGradient id="a"><stop offset="0" stop-color="#fff"/><stop offset="1" stop-color="#fff" stop-opacity="0"/></linearGradient><radialGradient xlink:href="#a" id="b" cx="83.905342" cy="103.44652" fx="83.905342" fy="103.44652" r="0.3968749" gradientUnits="userSpaceOnUse" gradientTransform="translate(-.02 -.02)"/></defs><g transform="translate(-81.22 -97.03)"><circle r="2.5045812" cy="103.4068" cx="83.869621" fill="none" stroke="#e7c92b" stroke-width=".28250441"/><path d="M86.35 105.92l-2.48-1.7-2.51 1.67 1.7-2.49-1.67-2.5 2.48 1.7 2.51-1.68-1.7 2.5z" fill="#ccc" fill-rule="evenodd"/><path d="M81.36 105.9l5.02-4.98M81.39 100.9l4.96 5.02M83.06 103.4l1.62.01M83.87 104.22v-1.63" fill="none" stroke="#000" stroke-width=".0044037322020999995"/><path d="M83.44 103.4l-.39-.01-.8-1.21-.8-1.21 1.17 1.2 1.2 1.2c.01.02-.16.02-.37.02zM85.07 105.04l-1.2-.82v-.8l1.2 1.2 1.19 1.22-1.19-.8zM82.6 105.05l-1.17.77.44-.42 1.21-1.2.78-.78v.4c-.01.3-.02.4-.05.42l-1.2.8zM84.3 103.4h-.4l1.19-1.19 1.2-1.18a75.9 75.9 0 0 1-1.59 2.35l-.4.01z" fill="gray" fill-rule="evenodd" stroke="#2a1254" stroke-width=".00019519561580000003"/><g transform="translate(-.01 -.02)"><path d="M83 105.75c.28-.57.46-1.2.52-1.85l.01-.1h-.1c-.66.07-1.3.28-1.87.61v-1.97c.57.33 1.21.54 1.87.6l.1.01v-.1a5.18 5.18 0 0 0-.54-1.85h1.79c-.3.57-.48 1.2-.54 1.85v.1h.1c.65-.07 1.3-.28 1.87-.61v1.97a4.68 4.68 0 0 0-1.87-.6l-.1-.01v.1c.06.64.25 1.28.54 1.85h-1.79z" fill="#9a510d" stroke="#e7c92b" stroke-width=".11489316"/><path d="M83.66 101.38v1.82h-1.82v.45h1.82v1.82h.45v-1.82h1.82v-.45H84.1v-1.82z" fill="#ae0404" fill-rule="evenodd"/><circle cx="83.884056" cy="103.42519" r="0.3968744" fill="#e1b92b" fill-rule="evenodd"/><circle cx="83.884056" cy="103.42519" r="0.3968744" fill="url(#b)" fill-rule="evenodd"/></g><path fill="#f60" fill-rule="evenodd" d="M81.58 97.03h4.58v3.7h-4.58z"/><path fill="#ffe6d5" fill-rule="evenodd" stroke="#5900fb" stroke-width=".0016933" d="M83.06 97.17h1.62v3.38h-1.62z"/><path d="M81.6 97.03h4.55l.03.01v.2l-.03.01h-4.59v-.21l.03-.01zM81.6 100.5h4.55c.02 0 .03.01.03.02v.2l-.03.01h-4.59v-.21l.03-.01z" fill="#fae742"/><path d="M86.09 98.83c0 .45-.15-.11-.46.2-.32.31.24.46-.2.46-.45 0 .12-.15-.2-.46-.31-.31-.46.25-.46-.2 0-.44.15.12.46-.2.32-.3-.25-.46.2-.46.44 0-.12.15.2.47.3.31.46-.25.46.2zM82.97 98.83c0 .45-.15-.11-.46.2-.32.31.24.46-.2.46s.12-.15-.2-.46c-.31-.31-.46.25-.46-.2 0-.44.15.12.46-.2.32-.3-.24-.46.2-.46s-.12.15.2.47c.31.31.46-.25.46.2z" fill="#ff0" fill-rule="evenodd"/></g></svg>