<svg xmlns="http://www.w3.org/2000/svg" xmlns:xlink="http://www.w3.org/1999/xlink" viewBox="0 0 5.2916664 9.4859506"><defs><linearGradient id="b"><stop offset="0" stop-color="#ff0"/><stop offset="1" stop-color="#ffda00" stop-opacity="0"/></linearGradient><linearGradient id="a"><stop offset="0" stop-color="#a80"/><stop offset="1" stop-color="#a80" stop-opacity="0"/></linearGradient><linearGradient xlink:href="#a" id="f" x1="117.66747" y1="98.41806" x2="118.19664" y2="98.41806" gradientUnits="userSpaceOnUse" gradientTransform="translate(-216.45 -216.38)"/><linearGradient xlink:href="#b" id="c" x1="117.82961" y1="92.966309" x2="117.81979" y2="94.174248" gradientUnits="userSpaceOnUse" gradientTransform="translate(.01)"/><linearGradient gradientTransform="matrix(1 0 0 .46684 -1.7 47.2)" xlink:href="#b" id="d" x1="117.82961" y1="92.966309" x2="117.81979" y2="94.174248" gradientUnits="userSpaceOnUse"/><linearGradient gradientTransform="matrix(.33594 0 0 .32093 74.29 64.71)" xlink:href="#b" id="e" x1="117.82961" y1="92.966309" x2="117.81979" y2="94.174248" gradientUnits="userSpaceOnUse"/><linearGradient xlink:href="#b" id="g" gradientUnits="userSpaceOnUse" x1="117.82961" y1="92.966309" x2="117.81979" y2="94.174248"/></defs><g transform="translate(-115.31 -91.68)"><g stroke="#eed729" stroke-width=".00145279" stroke-linecap="round" stroke-linejoin="round"><path d="M116.46 96.45l-.74-.72v-3.92h4.44V95.74l-.74.71-.74.72h-1.48z" fill="#1a1a1a"/><path d="M116.42 96.42l-.74-.71V91.78h4.45V95.71l-.75.72-.74.7h-1.47z" fill="#fea"/></g><rect ry="0" y="91.738556" x="117.15501" height="5.4137259" width="1.5361474" fill="#1a1a1a" stroke="#eed729" stroke-width=".00828076" stroke-linecap="round" stroke-linejoin="round"/><path d="M115.7 92.97h4.44c.01 0 .03.01.03.03v.46l-.03.02h-4.45l-.03-.02V93c0-.02.02-.03.03-.03z" fill="#e0b944"/><path d="M115.7 93.4h4.44c.02 0 .04.02.04.03v.46l-.04.02h-4.44c-.02 0-.03 0-.03-.02v-.46c0-.01.01-.02.03-.02z" fill="url(#c)" transform="translate(0 -.43)"/><path d="M115.7 91.68h4.48v.24H115.67v-.23l.03-.01z" fill="#e0b944"/><path d="M114 90.81h4.44l.03.01v.22l-.03.01H114l-.03-.01v-.22h.03z" fill="url(#d)" transform="translate(1.7 .86)"/><path d="M117.17 97.14h1.51v.16h-1.52v-.15l.01-.01z" fill="#e0b944"/><path d="M113.16 94.69h1.49v.16h-1.5v-.15-.01z" fill="url(#e)" transform="translate(4.02 2.45)"/><path fill="#1a1a1a" fill-rule="evenodd" d="M116.77 97.33h2.38v2.38h-2.38z"/><path d="M120.31 100.9l-2.35-1.61-2.38 1.58 1.61-2.36-1.58-2.37 2.35 1.6 2.38-1.58-1.61 2.36z" fill="#ff0" fill-rule="evenodd"/><path d="M111.88 97.87l4.25.02M114.02 95.76l-.03 4.24M113.66 97.53l.69.7M113.66 98.22l.69-.68" fill="none" stroke="#000" stroke-width=".00264583" transform="rotate(-45 81.48 201.03) scale(1.5768 1.57679)"/><path d="M-5.23 22.6l-.62-.62.65-3.24.65-3.24-.02 3.82c0 2.1-.02 3.83-.02 3.86 0 .04-.3-.22-.64-.57zM-5.25 27.86l-.6-3.22.63-.64.63-.64-.02 3.83-.03 3.86-.61-3.2zM-9.23 23.92l-3.13-.64 1.38.03 3.88.02h2.5l-.64.62c-.49.46-.67.61-.76.61-.06 0-1.51-.29-3.23-.64zM-3.86 23.98l-.64-.64 3.8.02 3.85.03-3.13.6-3.2.6a5.3 5.3 0 0 1-.68-.61z" transform="matrix(.295 -.295 .295 .295 112.43 90.3)" fill="#a80" fill-rule="evenodd" stroke="#2a1254" stroke-width=".00044324"/><g><path d="M120.6 98.53l-2.21.42-.45 2.21-.41-2.22-2.22-.44 2.22-.42.44-2.21.42 2.22z" fill="#ff0" fill-rule="evenodd"/><path d="M111.88 97.87l4.25.02M114.02 95.76l-.03 4.24M113.66 97.53l.69.7M113.66 98.22l.69-.68" fill="none" stroke="#000" stroke-width=".00264583" transform="matrix(0 -1.24645 1.24645 0 -4.04 240.62)"/><path d="M-5.23 22.6l-.62-.62.65-3.24.65-3.24-.02 3.82c0 2.1-.02 3.83-.02 3.86 0 .04-.3-.22-.64-.57zM-5.25 27.86l-.6-3.22.63-.64.63-.64-.02 3.83-.03 3.86-.61-3.2zM-9.23 23.92l-3.13-.64 1.38.03 3.88.02h2.5l-.64.62c-.49.46-.67.61-.76.61-.06 0-1.51-.29-3.23-.64zM-3.86 23.98l-.64-.64 3.8.02 3.85.03-3.13.6-3.2.6a5.3 5.3 0 0 1-.68-.61z" transform="matrix(0 -.3298 .3298 0 110.27 97.01)" fill="#a80" fill-rule="evenodd" stroke="#2a1254" stroke-width=".00044324"/></g><path fill="#ff0" fill-rule="evenodd" d="M117.7 98.25h.52v.53h-.53z"/><path transform="matrix(0 -1 -1 0 0 0)" fill="url(#f)" fill-rule="evenodd" d="M-98.78-118.22h.53v.53h-.53z"/><g><path d="M115.7 94.32h4.44c.01 0 .03.01.03.03v.46l-.03.02h-4.45l-.03-.02v-.46c0-.02.02-.03.03-.03z" fill="#e0b944"/><path d="M115.7 93.4h4.44c.02 0 .03.02.03.03v.46c0 .01-.01.02-.03.02h-4.44c-.02 0-.03 0-.03-.02v-.46c0-.01.01-.02.03-.02z" fill="url(#g)" transform="translate(0 .92)"/></g></g></svg>