<svg xmlns="http://www.w3.org/2000/svg" xmlns:xlink="http://www.w3.org/1999/xlink" viewBox="0 0 5.2414707 9.1183994"><defs><linearGradient xlink:href="#a" id="f" gradientUnits="userSpaceOnUse" x1="113.50485" y1="72.66468" x2="120.63326" y2="72.66468" gradientTransform="translate(-18.52 37.06)"/><radialGradient gradientUnits="userSpaceOnUse" r="29.031401" cy="106.3116" cx="48.0952" id="a"><stop offset="0.0056" stop-color="#fbc926"/><stop offset="0.2528" stop-color="#fffbcc"/><stop offset="0.2986" stop-color="#f7eab8"/><stop offset="0.3896" stop-color="#e7cf8e"/><stop offset="0.5159" stop-color="#d1a954"/><stop offset="0.5955" stop-color="#c3922e"/><stop offset="0.8143" stop-color="#e2c675"/><stop offset="0.8708" stop-color="#eed688"/><stop offset="1" stop-color="#fffbcc"/></radialGradient><linearGradient xlink:href="#a" id="b" gradientUnits="userSpaceOnUse" gradientTransform="translate(-18.52 37.06)" x1="113.50485" y1="72.66468" x2="120.63326" y2="72.66468"/><linearGradient xlink:href="#a" id="c" gradientUnits="userSpaceOnUse" gradientTransform="translate(-18.52 37.06)" x1="113.50485" y1="72.66468" x2="120.63326" y2="72.66468"/><linearGradient xlink:href="#a" id="d" gradientUnits="userSpaceOnUse" gradientTransform="translate(-18.52 37.06)" x1="113.50485" y1="72.66468" x2="120.63326" y2="72.66468"/><linearGradient xlink:href="#a" id="e" gradientUnits="userSpaceOnUse" gradientTransform="translate(-18.52 37.06)" x1="113.50485" y1="72.66468" x2="120.63326" y2="72.66468"/></defs><path d="M2.62 0v3.74" fill="none" stroke="#000" stroke-width=".00054989"/><path d="M.9 3.24l-.87-.5V0h5.18v1.37L5.2 2.74l-.86.5-.86.5H1.76z" fill="navy" stroke="#eed729" stroke-width=".00130886" stroke-linecap="round" stroke-linejoin="round"/><path d="M2.62 1.9V.08h2.59v.59L5.2 2v.76l-.87.5-.85.48h-.86z" fill="#999" fill-rule="evenodd" stroke="#f6d82a" stroke-width=".00000933"/><path d="M.04 0h5.2v.17H0V0h.04z" fill="#d5bb41"/><path transform="matrix(1.08327 0 0 1 -125.02 -91.74)" d="M119.26 99.83l-1.42-1.17-1.4 1.19.67-1.72-1.57-.97 1.84.11.44-1.79.47 1.78 1.84-.13-1.56 1z" fill="#1f347e" fill-rule="evenodd" stroke="#686e71" stroke-width=".02645833"/><path d="M2.3 5.7l.32-.93.33.93h.95l-.75.58.35.98-.88-.63-.86.63.34-.97-.79-.58z" fill="#e9c342" fill-rule="evenodd"/><path d="M98.6 111.37l-2.37 1.68 2.35-3.1z" fill="url(#b)" transform="matrix(.36317 0 0 .37317 -33.18 -34.93)"/><path d="M98.58 109.96l-1.43.5-2.17-1.57z" fill="url(#c)" transform="matrix(.36317 0 0 .37317 -33.18 -34.93)"/><path d="M98.58 109.96l-.9-1.09.9-2.47z" fill="url(#d)" transform="matrix(.36317 0 0 .37317 -33.18 -34.93)"/><path d="M99.5 108.88h2.6l-3.52 1.08z" fill="url(#e)" transform="matrix(.36317 0 0 .37317 -33.18 -34.93)"/><path d="M100.06 110.43l.96 2.61-2.44-3.08z" fill="url(#f)" transform="matrix(.36317 0 0 .37317 -33.18 -34.93)"/><g fill-rule="evenodd"><path d="M2.39 8.44l.23.63.23-.63h.67L3 8.03l.24-.66-.62.43-.6-.43.23.66-.56.4z" fill="#1f347e"/><path d="M2.47 8.36l.15.4.14-.4h.43l-.33-.25.15-.43-.4.28-.38-.28.15.42-.36.26z" fill="#e9c342"/></g><path d="M1.24 2.05l-.27-.5-.5-.27.5-.27.27-.5.27.5.5.27-.5.27z" fill="#607da8" fill-rule="evenodd"/><g fill-rule="evenodd"><path d="M1.2 4.85l.24.63.23-.63h.67l-.52-.4.24-.66-.62.43-.6-.43.23.66-.56.4z" fill="#1f347e"/><path d="M1.29 4.77l.14.4.15-.4h.43l-.33-.25.15-.42-.4.27-.38-.27.15.42-.36.25z" fill="#e9c342"/></g><g fill-rule="evenodd"><path d="M3.61 4.85l.24.63.23-.63h.67l-.53-.4.25-.66-.62.43-.6-.43.23.66-.56.4z" fill="#1f347e"/><path d="M3.7 4.77l.14.4.15-.4h.43l-.34-.25.16-.42-.4.27-.39-.27.16.42-.36.25z" fill="#e9c342"/></g><path d="M4.18 8.09l-1.56.98-1.5-.96-.97-2.7.68-1.62 1.8-.05 1.84.05.64 1.6z" fill="none" stroke="#686e71" stroke-width=".07884583"/></svg>