<svg xmlns="http://www.w3.org/2000/svg" viewBox="0 0 5.1981978 8.6874238"><path d="M2.37 8.49c-.41-.37-.67-.63-1.02-1-.4-.45-.53-.6-.76-.97C.18 5.85.03 5.46.01 5.06 0 4.6.21 3.99.53 3.59c.23-.28.54-.47.78-.47.25 0 .68.25 1.12.64.08.08.16.14.17.14l.12-.1c.32-.3.7-.55.96-.64.3-.1.6.02.92.36.32.36.59 1.03.59 1.5 0 .12-.05.38-.1.53a6.26 6.26 0 0 1-1.82 2.52l-.66.62-.25-.2z" fill="#ddfffc" fill-rule="evenodd" stroke="#5900fb" stroke-width=".00149805"/><path d="M2.39 8.26c-.37-.34-.61-.57-.93-.92-.37-.4-.49-.55-.69-.87C.4 5.85.26 5.5.24 5.13c-.01-.41.18-.97.48-1.34.2-.25.48-.43.7-.42.24 0 .63.22 1.02.58a.8.8 0 0 0 .16.12c.01 0 .06-.03.11-.08.3-.28.64-.5.88-.59.27-.1.55.02.83.33.3.32.54.94.54 1.36a2 2 0 0 1-.1.5 5.7 5.7 0 0 1-1.65 2.29l-.6.56-.22-.18z" fill="#641564" fill-rule="evenodd" stroke="#5900fb" stroke-width=".00140661"/><path fill="#641564" fill-rule="evenodd" d="M.02 0h5.16v2.92H.02z"/><path fill="#7200ff" fill-rule="evenodd" stroke="#5900fb" stroke-width=".00147769" d="M1.82.1h1.56v2.68H1.82z"/><path fill="#98bad1" fill-rule="evenodd" stroke="#5900fb" stroke-width=".00128544" d="M2.15 1.23h.9v1.6h-.9z"/><path transform="scale(1.11882 .86502) rotate(-45 -172.4 31.42)" fill="#ddfffc" fill-rule="evenodd" stroke="#5900fb" stroke-width=".00166392" d="M-28.09 132.93h1.29v1.25h-1.29z"/><path d="M.04 0H5.2v.17H0V0L.04 0zM.04 2.75H5.2v.17H0v-.17h.04z" fill="#fbeb1c"/><path transform="scale(1.10546 .88202) rotate(-45 -170.22 33.56)" fill="#98bad1" fill-rule="evenodd" stroke="#5900fb" stroke-width=".0010205" d="M-25.65 132.26h.79v.77h-.79z"/><g fill="#ddfffc" stroke="#cbb4f6" clip-rule="evenodd" fill-rule="evenodd" stroke-width=".01689737"><path d="M1.76 2.54c.02-.12-.23-.22-.17-.4-.13-.03-.1.03-.16.04-.08-.09.12-.26-.01-.4a.32.32 0 0 1-.13.03c.04-.1.15-.15.13-.28-.07 0-.08.02-.13.02.18-.18-.17-.34-.34-.47-.1.12-.01.3.13.36-.02.07-.09-.02-.16 0 .16.12-.07.33.2.4-.02.06-.08-.03-.16 0 .08.13.05.32.34.34-.01.03-.1.02-.17.02.02.13.31.15.26.26.1.04.28.04.37.08zM3.44 2.54c-.02-.12.23-.22.17-.4.13-.03.1.03.16.04.07-.09-.12-.26 0-.4.04.02.08.03.13.03-.04-.1-.15-.15-.12-.28.07 0 .07.02.13.02-.18-.18.17-.34.34-.47.1.12 0 .3-.13.36.02.07.09-.02.16 0-.16.12.07.33-.21.4.03.06.09-.03.17 0-.09.13-.05.32-.34.34.01.03.1.02.16.02-.02.13-.3.15-.25.26-.1.04-.28.04-.37.08z"/></g><path d="M2.5 4.56c-.05-.04-.1-.02-.1-.02s.1.4.1.58c-.24-.1-.18.2-.18.2s-.12.15-.1.3c.24-.13.27.05.27.05s-.13.09-.15.27c.32-.2.16.34.07.59h-.2c-.08-.14-.37-.72-.06-.6-.05-.16-.15-.2-.15-.2s0-.17.19-.13c0-.13-.12-.23-.12-.23s0-.3-.16-.14c-.03-.15 0-.53 0-.53s-.05-.01-.09.03c-.03-.16-.13-.37-.13-.37s-.03.25 0 .42c-.06-.01-.1.02-.1.02s.15.32.17.48c-.2-.03-.11.23-.11.23s-.07.16-.04.28c.17-.16.21-.01.21-.01s-.08.1-.07.28c.2-.25.17.22.14.47h-.22c-.08-.14-.29-.51-.1-.45-.05-.13-.12-.16-.12-.16s-.03-.14.1-.11c-.03-.1-.1-.19-.1-.19s-.05-.24-.13-.1c-.04-.12-.08-.44-.08-.44s-.03 0-.05.04a2.04 2.04 0 0 0-.13-.3l.56 1.87c.01.04.04.08.08.08h1.8c.03 0 .06-.04.08-.08l.56-1.86c-.02.03-.1.17-.14.29-.01-.04-.04-.04-.04-.04s-.04.32-.08.44c-.08-.14-.12.1-.12.1s-.09.08-.1.19c.12-.03.1.11.1.11s-.08.03-.13.16c.18-.06-.02.3-.1.45H3.3c-.02-.25-.05-.72.15-.47a.45.45 0 0 0-.07-.28s.04-.15.2.01c.04-.12-.03-.28-.03-.28s.1-.26-.1-.23c.01-.16.15-.48.15-.48s-.04-.03-.09-.02c.02-.17 0-.42 0-.42s-.1.2-.14.37c-.04-.04-.08-.03-.08-.03s.03.38 0 .53c-.17-.15-.16.14-.16.14S3 5.47 3 5.6c.2-.04.2.12.2.12s-.11.05-.16.2c.3-.1.02.47-.05.6h-.22c-.08-.24-.24-.78.08-.58-.02-.18-.15-.27-.15-.27s.03-.18.27-.06c.01-.14-.1-.29-.1-.29s.06-.3-.18-.2c-.01-.18.1-.58.1-.58s-.05-.02-.11.02c0-.2-.1-.45-.1-.45s-.07.25-.08.45m-.81 2.3c-.05 0-.08.06-.08.13 0 .06.03.12.08.12h1.8c.04 0 .08-.06.08-.12 0-.07-.04-.12-.08-.12zm0 .35c-.05 0-.08.05-.08.12 0 .07.03.12.08.12h1.8c.04 0 .08-.05.08-.12 0-.07-.04-.12-.08-.12z" fill="#add4d1"/></svg>