<svg xmlns="http://www.w3.org/2000/svg" viewBox="0 0 5.1981978 8.6874238"><path d="M2.365 8.49A14.635 14.635 0 0 1 1.35 7.484C.942 7.043.816 6.882.594 6.52.18 5.846.027 5.462.012 5.06c-.018-.456.199-1.065.523-1.474.222-.28.533-.469.771-.466.259.003.688.25 1.123.643.081.073.158.133.17.133a.46.46 0 0 0 .122-.094c.322-.303.697-.555.96-.644.3-.102.605.018.917.362.323.355.59 1.03.59 1.496 0 .125-.047.38-.099.537-.113.345-.497 1.032-.787 1.409a14.976 14.976 0 0 1-1.696 1.725 1.637 1.637 0 0 1-.241-.198z" fill="#d77a03" fill-rule="evenodd" stroke="#5900fb" stroke-width=".00149805"/><path d="M2.386 8.26c-.369-.335-.607-.57-.925-.915-.372-.403-.487-.55-.69-.88-.376-.614-.516-.964-.53-1.33-.015-.415.182-.971.477-1.344.202-.255.486-.427.703-.424.236.003.627.227 1.023.586a.801.801 0 0 0 .155.12.418.418 0 0 0 .111-.084c.293-.277.635-.506.875-.588.273-.093.551.017.836.33.294.324.537.94.537 1.363 0 .115-.042.346-.09.49-.103.314-.453.94-.717 1.284A13.645 13.645 0 0 1 2.606 8.44a1.466 1.466 0 0 1-.22-.18z" fill="#641564" fill-rule="evenodd" stroke="#5900fb" stroke-width=".00140661"/><path d="M2.432 4.566l.138.248c-.084.63-.506.867-.134 1.17l-.776-.112c.09-.262-.385-.218-.755-.428l-.057-.248-.266-.083.063.281.178.056c.105.224.404.795.668.642.195.374.286.936.274 1.216-.011.251.502.156.82.072.32.084.832.18.821-.072-.012-.28.08-.845.275-1.218.262.16.56-.402.67-.632l.202-.064.064-.281-.267.083-.053.234c-.373.225-.872.174-.78.44l-.77.112c.313-.256.057-.466-.08-.909a1.625 1.625 0 0 1-.056-.254l.141-.254-.16-.287zm.042 2.175c0-.213.057-.385.127-.385.071 0 .128.172.128.385 0 .212-.057.385-.128.385-.07 0-.127-.173-.127-.385m.51.367c-.068-.022-.072-.205-.01-.408.062-.202.166-.348.233-.326.068.022.072.204.01.407-.058.189-.153.329-.22.329a.05.05 0 0 1-.014-.002M1.978 6.78c-.062-.203-.058-.385.01-.407.066-.022.17.124.233.327.062.202.058.385-.01.407a.064.064 0 0 1-.013.002c-.067 0-.162-.14-.22-.33" fill="#ffb500"/><path fill="#641564" fill-rule="evenodd" d="M.023 0h5.153v2.918H.023z"/><path fill="#7200ff" fill-rule="evenodd" stroke="#5900fb" stroke-width=".0011656" d="M2.114.107h.97v2.672h-.97z"/><path transform="scale(.98695 1.01288) rotate(-45 -157.397 51.368)" fill="#97a19f" fill-rule="evenodd" stroke="#5900fb" stroke-width=".0012515" d="M-9.884 128.264h.967v.94h-.967zM-8.93 129.218h.968v.941h-.967z"/><path d="M.036 0h5.126c.02 0 .036.003.036.008v.159c0 .004-.016.007-.036.007H.036C.016.174 0 .171 0 .167v-.16C0 .005.016 0 .036 0zM.036 2.747h5.126c.02 0 .036.004.036.007v.164c0 .004-.016.007-.036.007H.036C.016 2.925 0 2.92 0 2.918v-.164c0-.004.016-.007.036-.007z" fill="#d77a03"/></svg>