<svg xmlns="http://www.w3.org/2000/svg" xmlns:xlink="http://www.w3.org/1999/xlink" viewBox="0 0 5.2797771 8.6640119"><defs><linearGradient y2="122.2001" x2="60.4986" y1="-0.50340003" x1="39.3325" gradientUnits="userSpaceOnUse" id="a"><stop offset="0" stop-color="#fff"/><stop offset="0.4011"/><stop offset="0.7637" stop-color="#fff"/><stop offset="0.8352"/><stop offset="0.9121" stop-color="#fff"/><stop offset="0.978"/></linearGradient><linearGradient xlink:href="#a" id="b" x1="113.52195" y1="72.117393" x2="120.65036" y2="72.117393" gradientUnits="userSpaceOnUse"/><linearGradient xlink:href="#a" id="c" gradientUnits="userSpaceOnUse" x1="113.52195" y1="72.117393" x2="120.65036" y2="72.117393"/><linearGradient xlink:href="#a" id="d" gradientUnits="userSpaceOnUse" x1="113.52195" y1="72.117393" x2="120.65036" y2="72.117393"/><linearGradient xlink:href="#a" id="e" gradientUnits="userSpaceOnUse" x1="113.52195" y1="72.117393" x2="120.65036" y2="72.117393"/><linearGradient xlink:href="#a" id="f" gradientUnits="userSpaceOnUse" x1="113.52195" y1="72.117393" x2="120.65036" y2="72.117393"/><linearGradient xlink:href="#a" id="g" gradientUnits="userSpaceOnUse" x1="113.52195" y1="72.117393" x2="120.65036" y2="72.117393"/></defs><path fill="#a00" fill-rule="evenodd" d="M.06.02h5.16v3.86H.06z"/><path d="M2.64 3.88L.08.05H5.2z" fill="#fff6d5" fill-rule="evenodd"/><path d="M.06 3.7h5.16l.04.01v.22H.02V3.7l.04-.01zM.06 0h5.2v.14H.02V0L.06 0z" fill="#e0b944"/><path d="M2.65 4s-1.43.97-1.9 1.67C.34 6.3 0 7.82 0 7.82s1.72.84 2.64.84c.92 0 2.64-.83 2.64-.83S4.9 6.3 4.47 5.67C4.01 4.99 2.65 4 2.65 4z" fill="maroon" fill-rule="evenodd"/><path d="M2.65 4L0 7.83h5.28z" fill="#fd5" fill-rule="evenodd"/><g fill="#e9c342" fill-rule="evenodd"><path d="M1.7 8.04l.05-.14.04.14h.14l-.1.08.04.15-.12-.1-.12.1.05-.15-.11-.08zM2 8.27l.05-.14.05.14h.13l-.1.08.05.15-.13-.1-.12.1.05-.14-.1-.1zM3.49 8.04l.05-.14.04.14h.13l-.1.08.05.15-.12-.1-.12.1.04-.15-.1-.08z"/><path d="M3.2 8.27l.04-.14.04.14h.14l-.1.08.04.15-.12-.1-.12.1.05-.14-.11-.1z"/></g><path d="M2.12 5.55l.52-1.65.53 1.65h1.5L3.5 6.58l.56 1.73-1.4-1.1-1.37 1.1.53-1.71L.56 5.56z" fill="#d40000" fill-rule="evenodd"/><path d="M2.23 5.7l.4-1.29.4 1.3H4.2l-.91.79.43 1.34-1.09-.86-1.05.86.41-1.33-.97-.8z" fill="#b2aea5" fill-rule="evenodd"/><g transform="matrix(.44593 0 0 .51365 -49.6 -30.9)" fill="url(#b)"><path d="M117.13 73.76l-2.36 1.68 2.36-3.09z" fill="url(#c)"/><path d="M117.12 72.35l-1.43.5-2.17-1.57z" fill="url(#d)"/><path d="M117.12 72.35l-.9-1.08.9-2.48z" fill="url(#e)"/><path d="M118.04 71.27l2.61.01-3.52 1.07z" fill="url(#f)"/><path d="M118.6 72.82l.96 2.62-2.43-3.09z" fill="url(#g)"/></g><path d="M2.47 3.53L2.65 3l.17.54h.52l-.4.33.18.56-.47-.36-.46.36.18-.55-.43-.34z" fill="#d40000" fill-rule="evenodd"/><path d="M2.57 3.68l.07-.23.08.23h.21l-.17.14.08.24-.2-.16-.2.16.08-.24-.18-.14z" fill="#fd5" fill-rule="evenodd"/><path d="M.05 2.58h5.17c.02 0 .03 0 .03.02v.42c0 .01-.01.02-.03.02H.05L0 3.02V2.6l.04-.02z" fill="#e0b944"/><path d="M.67 7.17l.4-.4-.09.56.45.24-.5.1-.1.59-.25-.54-.58.1.42-.4-.22-.5z" fill="#d40000" fill-rule="evenodd"/><path d="M.68 7.34l.18-.16-.04.23.19.1-.22.05-.04.24-.1-.22-.25.04.18-.17-.1-.21z" fill="#fd5" fill-rule="evenodd"/><path d="M4.61 7.17l-.4-.4.09.57-.45.24.5.1.1.58.25-.53.58.1-.42-.41.22-.5z" fill="#d40000" fill-rule="evenodd"/><path d="M4.6 7.35l-.18-.17.04.24-.19.1.22.04.04.25.1-.23.25.04-.18-.17.1-.2z" fill="#fd5" fill-rule="evenodd"/></svg>