<svg xmlns="http://www.w3.org/2000/svg" xmlns:xlink="http://www.w3.org/1999/xlink" viewBox="0 0 5.2916669 9.2530127"><defs><radialGradient gradientUnits="userSpaceOnUse" r="29.031401" cy="106.3116" cx="48.0952" id="c"><stop offset="0.0056" stop-color="#fbc926"/><stop offset="0.2528" stop-color="#fffbcc"/><stop offset="0.2986" stop-color="#f7eab8"/><stop offset="0.3896" stop-color="#e7cf8e"/><stop offset="0.5159" stop-color="#d1a954"/><stop offset="0.5955" stop-color="#c3922e"/><stop offset="0.8143" stop-color="#e2c675"/><stop offset="0.8708" stop-color="#eed688"/><stop offset="1" stop-color="#fffbcc"/></radialGradient><linearGradient xlink:href="#a" id="h" gradientUnits="userSpaceOnUse" x1="113.50485" y1="72.66468" x2="120.63326" y2="72.66468" gradientTransform="translate(.017 -.547)"/><radialGradient gradientUnits="userSpaceOnUse" r="29.031401" cy="106.3116" cx="48.0952" id="a"><stop offset="0.0056" stop-color="#fbc926"/><stop offset="0.2528" stop-color="#fffbcc"/><stop offset="0.2986" stop-color="#f7eab8"/><stop offset="0.3896" stop-color="#e7cf8e"/><stop offset="0.5159" stop-color="#d1a954"/><stop offset="0.5955" stop-color="#c3922e"/><stop offset="0.8143" stop-color="#e2c675"/><stop offset="0.8708" stop-color="#eed688"/><stop offset="1" stop-color="#fffbcc"/></radialGradient><linearGradient gradientTransform="translate(6.975 .934)" xlink:href="#b" id="i" x1="89.010323" y1="102.56882" x2="94.890366" y2="102.56882" gradientUnits="userSpaceOnUse"/><linearGradient y2="121.9607" x2="61.983898" y1="-0.7676" x1="40.813499" gradientUnits="userSpaceOnUse" id="b"><stop offset="0" stop-color="#fff"/><stop offset="0.4011"/><stop offset="0.7637" stop-color="#fff"/><stop offset="0.8352"/><stop offset="0.9121" stop-color="#fff"/><stop offset="0.978"/></linearGradient><linearGradient xlink:href="#a" id="d" gradientUnits="userSpaceOnUse" gradientTransform="translate(.017 -.547)" x1="113.50485" y1="72.66468" x2="120.63326" y2="72.66468"/><linearGradient xlink:href="#a" id="e" gradientUnits="userSpaceOnUse" gradientTransform="translate(.017 -.547)" x1="113.50485" y1="72.66468" x2="120.63326" y2="72.66468"/><linearGradient xlink:href="#a" id="f" gradientUnits="userSpaceOnUse" gradientTransform="translate(.017 -.547)" x1="113.50485" y1="72.66468" x2="120.63326" y2="72.66468"/><linearGradient xlink:href="#a" id="g" gradientUnits="userSpaceOnUse" gradientTransform="translate(.017 -.547)" x1="113.50485" y1="72.66468" x2="120.63326" y2="72.66468"/><linearGradient gradientTransform="translate(6.975 .934)" xlink:href="#b" id="j" x1="89.010323" y1="102.56882" x2="94.890366" y2="102.56882" gradientUnits="userSpaceOnUse"/></defs><g transform="translate(-115.211 -91.71)"><path d="M32.03 105.497c.002-8.284 6.715-15 15.001-15 8.283 0 14.998 6.716 14.998 15 0 8.284-6.715 14.997-14.998 14.999-8.285-.002-14.999-6.715-15.001-14.999zm2.002 0c.012 7.18 5.82 12.985 13 12.999 7.178-.014 12.985-5.819 12.998-12.999-.013-7.18-5.82-12.988-12.998-13-7.18.012-12.988 5.82-13 13z" fill="url(#c)" transform="translate(116.318 92.024) scale(.03273)"/><path d="M116.175 95.011l-.863-.5V91.777h5.173l-.004 1.37-.004 1.372-.86.497-.86.497H117.039z" fill="#1a1a1a" stroke="#eed729" stroke-width=".00130886" stroke-linecap="round" stroke-linejoin="round"/><path d="M116.134 94.992l-.864-.5v-2.736h5.174l-.004 1.371-.004 1.371-.86.497-.86.497H116.998z" fill="#ffdf00" stroke="#eed729" stroke-width=".00130886" stroke-linecap="round" stroke-linejoin="round"/><rect ry="0" y="91.724335" x="117.10384" height="3.7529376" width="1.5064853" fill="#1a1a1a" stroke="#eed729" stroke-width=".0068277" stroke-linecap="round" stroke-linejoin="round"/><circle r="2.3564956" cy="98.199341" cx="117.85616" fill="#1f0404"/><path transform="matrix(.43793 0 0 -.57764 65.495 33.347)" d="M124.085-109.293l-4.506-1.991-4.451 2.031 3.977-2.906.467-4.87.528 4.897z" fill="#d40000" stroke="#050505" stroke-width=".05344583" stroke-linecap="round" stroke-linejoin="round"/><path d="M117.411 97.455l.442-1.405.444 1.407 1.278.006-1.001.863.468 1.472-1.186-.943-1.155.944.45-1.458-1.061-.878z" fill="#e9c342" fill-rule="evenodd"/><path d="M117.135 73.761l-2.364 1.68 2.354-3.089z" fill="url(#d)" transform="matrix(.4889 0 0 .5619 60.59 57.409)"/><path d="M117.125 72.352l-1.434.495-2.169-1.564z" fill="url(#e)" transform="matrix(.4889 0 0 .5619 60.59 57.409)"/><path d="M117.125 72.353l-.907-1.088.901-2.472z" fill="url(#f)" transform="matrix(.4889 0 0 .5619 60.59 57.409)"/><path d="M118.036 71.273l2.614.01-3.525 1.07z" fill="url(#g)" transform="matrix(.4889 0 0 .5619 60.59 57.409)"/><path d="M118.603 72.82l.958 2.619-2.436-3.086z" fill="url(#h)" transform="matrix(.4889 0 0 .5619 60.59 57.409)"/><g><path d="M115.3 91.722h5.168c.02 0 .037.004.037.008v.16c0 .005-.017.008-.037.008H115.3c-.02 0-.037-.003-.037-.007v-.16c0-.005.016-.009.037-.009z" fill="#3b3933"/><path d="M115.287 91.72h5.168c.02 0 .037.003.037.007v.16c0 .005-.017.008-.037.008h-5.168c-.02 0-.037-.003-.037-.007v-.16c0-.005.017-.009.037-.009z" fill="#e0b944"/><path d="M96.026 102.787h5.799c.022 0 .04.028.04.063v1.306c0 .035-.018.063-.04.063h-5.799c-.022 0-.04-.028-.04-.063v-1.306c0-.035.018-.063.04-.063z" opacity=".45199998" fill="url(#i)" transform="matrix(.8914 0 0 .1228 29.69 79.098)"/></g><g><path d="M117.01 95.47h1.72c.006 0 .011.001.011.004v.108c0 .003-.005.005-.012.005h-1.719c-.007 0-.012-.002-.012-.005v-.108c0-.003.005-.005.012-.005z" fill="#3b3933"/><path d="M117.006 95.467h1.719c.007 0 .012.002.012.005v.108c0 .003-.005.005-.012.005h-1.72c-.006 0-.011-.002-.011-.005v-.108c0-.003.005-.005.012-.005z" fill="#e0b944"/><path d="M96.026 102.787h5.799c.022 0 .04.028.04.063v1.306c0 .035-.018.063-.04.063h-5.799c-.022 0-.04-.028-.04-.063v-1.306c0-.035.018-.063.04-.063z" opacity=".45199998" fill="url(#j)" transform="matrix(.29652 0 0 .08255 88.532 86.983)"/></g></g></svg>