<svg xmlns="http://www.w3.org/2000/svg" viewBox="0 0 4.7624999 8.4936359"><path fill="green" fill-rule="evenodd" d="M.09 0h4.582v3.696H.09z"/><path fill="#1a1a1a" fill-rule="evenodd" stroke="#5900fb" stroke-width=".00184747" d="M1.419.135h1.925V3.52H1.419z"/><path d="M.103 0H4.66c.017 0 .032.004.032.01V.21c0 .005-.015.01-.032.01H.103C.085.22.07.217.07.21V.01C.07.005.085 0 .103 0zM.103 3.48H4.66c.017 0 .032.005.032.009v.207c0 .005-.015.01-.032.01H.103c-.018 0-.032-.006-.032-.01V3.49c0-.005.014-.01.032-.01z" fill="#b3b3b3"/><path d="M4.639 6.126l-.677.652.006.94-.94-.017-.66.669-.652-.676-.94.005.017-.94-.669-.66.676-.652-.006-.94.94.017.66-.669.653.676.94-.005-.017.94z" fill="#d4aa00" fill-rule="evenodd" stroke="#feef1d" stroke-width=".1732375195437"/><g transform="translate(-81.474 -97.03)" fill-rule="evenodd"><ellipse cx="83.854866" cy="103.16288" rx="0.91861105" ry="0.61873782" fill="#f8ec69"/><ellipse cx="83.868622" cy="103.32101" rx="0.30210897" ry="0.2516526" fill="#9e771e" stroke="#fea61d" stroke-width=".19232455"/></g><path d="M.074 1.711c4.527.005.056.002 4.627 0 .005-.658.007-.017 0-.684-4.629.002-.007.004-4.622 0-.01.684 0 .684 0 .684zm4.32-.485l-.006.26-3.993.01c-.006-.267 0-.268 0-.268 3.995-.004 3.993-.002 3.993-.002z" fill="#504d44"/><path d="M.057 1.698c4.527.004.056.002 4.627 0 .005-.659.007-.017 0-.685-4.629.002-.006.005-4.622 0-.01.684 0 .684 0 .684zm4.32-.485l-.006.26c-3.993.009-.004-.001-3.993.009-.005-.266 0-.268 0-.268 3.995-.004 3.993-.001 3.993-.001z" fill="#f6c51c"/></svg>