<svg xmlns="http://www.w3.org/2000/svg" viewBox="0 0 4.4490323 10.148627"><path fill="#4822aa" fill-rule="evenodd" d="M.3 0h3.85v5.66H.3z"/><path fill="#00caff" fill-rule="evenodd" stroke="#5900fb" stroke-width=".00135373" d="M83.3 97.6h1.3v2.67h-1.3z" transform="matrix(.74827 0 0 1.93957 -60.6 -189.09)"/><path d="M.3 0h3.84c.02 0 .03 0 .03.02v.3c0 .01-.01.02-.03.02H.31C.29.34.28.34.28.32v-.3C.28 0 .29 0 .31 0zM.3 5.33h3.84l.03.01v.32l-.03.01H.31l-.03-.01v-.32l.03-.01z" fill="#7ca5c1"/><g aria-label="G" style="line-height:1.25" font-weight="400" font-size="2.21004128px" font-family="sans-serif" letter-spacing="0" word-spacing="0" stroke-width=".05525102"><path d="M1.74 1.2q0 .27-.05.44-.08.26-.24.4-.16.14-.39.14-.36 0-.55-.32-.14-.23-.14-.56 0-.36.17-.6.2-.29.54-.29.23 0 .39.15.11.1.2.32l-.33.17Q1.3.93 1.24.87 1.18.8 1.07.8q-.22 0-.3.29-.04.1-.04.22 0 .24.12.4.08.11.23.11.13 0 .2-.1.05-.05.07-.18h-.28V1.2z" style="-inkscape-font-specification:Aharoni" font-family="Aharoni" fill="#fff"/></g><g fill-rule="evenodd"><path d="M2.22 10.15L1.6 8.6 0 7.92l1.55-.63.67-1.59.64 1.55 1.59.67-1.55.64z" fill="#ffff51"/><g transform="translate(-81.72 -97.51)"><path d="M82.37 103.86l1.09 1.36a.53.53 0 0 0-.05.22.53.53 0 0 0 .05.21l-1.09 1.36 1.36-1.1a.53.53 0 0 0 .21.06.53.53 0 0 0 .22-.05l1.36 1.09-1.1-1.36a.53.53 0 0 0 .05-.21.53.53 0 0 0-.04-.22l1.09-1.36-1.36 1.1a.53.53 0 0 0-.22-.05.53.53 0 0 0-.21.04z" fill="navy"/><circle r="0.26458278" cy="105.43653" cx="83.943291" fill="#ffff51"/></g></g></svg>