<svg xmlns="http://www.w3.org/2000/svg" viewBox="0 0 5.2414707 9.1326768"><g transform="translate(-115.22 -91.74)"><path d="M117.84 91.74v3.74" fill="none" stroke="#000" stroke-width=".00054989"/><path d="M116.11 94.98l-.86-.5v-2.74h5.17v2.75l-.86.5-.86.5-.86-.01h-.86z" fill="#1a1a1a" stroke="#eed729" stroke-width=".00130886" stroke-linecap="round" stroke-linejoin="round"/><path d="M117.84 93.61v-1.87h2.58V93.71l-.01.78-.86.5-.86.49h-.85z" fill="#d40000" fill-rule="evenodd" stroke="#f6d82a" stroke-width=".00000942"/><path d="M115.25 91.74h5.17l.04.01v.16l-.04.01h-5.2v-.17h.03z" fill="#e0b944"/><ellipse ry="2.4022005" rx="2.4292898" cy="98.252472" cx="117.83723" fill="none" stroke="#8f9ea2" stroke-width=".242"/><path transform="matrix(4.31027 0 0 3.74637 -153.42 -345.38)" d="M63.53 118.77l-.46-.09-.13.43-.16-.43-.44.1.3-.36-.3-.33.45.08.14-.43.15.44.44-.1-.3.35z" fill="#afc3c6" fill-rule="evenodd" stroke="#117087" stroke-width=".00079375"/><path d="M115.28 99.6l5.11-2.6M115.26 97.02l5.15 2.55M117.82 95.72l.04 5.15M116.58 98.28l2.52.03M117.22 97.34l1.23 1.91M117.2 99.24l1.28-1.88" fill="none" stroke="#000" stroke-width=".00106319"/><path d="M117.23 98.29l-.6-.01h-.06l-.63-.62-.64-.61.23.1a547.28 547.28 0 0 0 .98.5l1.02.5.27.13.02.01H117.23zM117.53 97.81l-.3-.47.29-.8.3-.78.01 2.52-.3-.47zM117.9 98.22l.3-.46.28-.4a113.7 113.7 0 0 1 1.82-.32l-.3.15-.65.33a1984.6 1984.6 0 0 0-1.5.76l.05-.06zM117.86 100.7l-.01-1.17v-1.21l.3.46.3.48-.59 1.58v-.13zM119.4 99.4l-.95-.16-.59-.92.07.02.3.15 1.36.68.52.26.24.12c.02 0 .02 0 0 0l-.96-.15zM115.32 99.56l.62-.63.63-.63.02-.01h.6l.62.01-.05.03-.3.16-.65.33a1725.51 1725.51 0 0 0-1.48.74z" fill="#8c9c9f" fill-rule="evenodd" stroke="#875b11" stroke-width=".00002101"/><path d="M117.54 100.51a2.36 2.36 0 0 1-1.44-.77c-.17-.2-.2-.24-.17-.25l1.24-.23.25.57.26.64c.03.07.04.06-.14.04zM118 100.5l.23-.62c.2-.52.23-.6.26-.6l1.27.2a2.32 2.32 0 0 1-1.7 1.04l-.06-.01z" fill="#d40000" fill-rule="evenodd" stroke="#facd23" stroke-width=".01439364"/><path d="M116.53 97.22l-.67-.11c-.02 0 .11-.2.24-.35.38-.43.94-.72 1.5-.77l.11-.01-.04.12c-.27.75-.46 1.23-.47 1.23l-.67-.1zM118.49 97.34l-.53-1.3-.03-.06h.12a2.32 2.32 0 0 1 1.76 1.11 19.39 19.39 0 0 1-1.32.25zM115.7 99.11c-.02-.04-.1-.3-.12-.43a3.29 3.29 0 0 1 0-.86l.1-.37c.02 0 .87.82.87.84a18.9 18.9 0 0 1-.84.82zM119.54 98.72a7.9 7.9 0 0 1-.42-.41l.44-.45.43-.44.04.15c.08.26.1.36.1.68a2.05 2.05 0 0 1-.17.87l-.42-.4z" fill="#1a1a1a" fill-rule="evenodd" stroke="#facd23" stroke-width=".01321241"/><path fill="#1a1a1a" fill-rule="evenodd" d="M117.84 93.03h2.58v1.46h-2.58z"/><path fill="#d40000" fill-rule="evenodd" d="M115.24 93.03h2.6v1.46h-2.6z"/><path d="M63.53 118.77l-.46-.09-.13.43-.16-.43-.44.1.3-.36-.3-.33.45.08.14-.43.15.44.44-.1-.3.35z" transform="matrix(1.60186 0 0 1.59867 17.03 -95.72)" fill="#ffe304" fill-rule="evenodd" stroke="#875b11" stroke-width=".00079375"/><path d="M118.57 93.17l1.34-.7M118.56 92.48l1.36.69M119.23 92.12l.01 1.4M118.9 92.82h.67M119.08 92.56l.32.52M119.07 93.08l.34-.51" fill="none" stroke="#000" stroke-width=".00028373" transform="matrix(1.415 0 0 1.5737 -50.88 -52.47)"/><path d="M119.24 93.47v-.31-.33l.08.12.08.13a48.1 48.1 0 0 1-.16.4z" fill="#d4aa00" fill-rule="evenodd" stroke="#875b11" stroke-width=".00000561" transform="matrix(1.415 0 0 1.5737 -50.88 -52.47)"/><path d="M119.24 92.18v.65l.08-.13.08-.13a48.1 48.1 0 0 0-.16-.4z" fill="#d4aa00" fill-rule="evenodd" stroke="#875b11" stroke-width=".00000561" transform="matrix(1.415 0 0 1.5737 -50.88 -52.47)"/><path d="M116.6 96.4l.12-.38.13.37h.35l-.28.23.13.4-.33-.25-.32.25.12-.4-.3-.23zM118.86 96.4l.12-.38.12.37h.36l-.28.23.13.4-.33-.25-.32.25.12-.4-.3-.23zM116.6 99.78l.12-.38.13.38h.35l-.28.23.13.39-.33-.25-.32.25.12-.39-.3-.23zM118.86 99.78l.12-.38.12.38h.36l-.28.23.13.39-.33-.25-.32.25.12-.39-.3-.23z" fill="#ff0" fill-rule="evenodd"/></g></svg>