<svg xmlns="http://www.w3.org/2000/svg" viewBox="0 0 4.6993075 8.3855875"><path fill="#fff6d5" fill-rule="evenodd" d="M.1 0h4.58v3.7H.1z"/><path fill="#f15151" fill-rule="evenodd" stroke="#5900fb" stroke-width=".00184747" d="M1.43.14h1.92v3.38H1.43z"/><path d="M.11 0h4.56l.03.01v.2l-.03.01H.08V0L.1 0zM.11 3.48H4.7v.22H.08v-.21l.03-.01z" fill="#fae742"/><path d="M2.15 1.45l.23-.68.24.68h.68l-.54.42.25.7-.63-.45-.61.46.24-.7-.56-.43z" fill="#e9c342" fill-rule="evenodd" stroke="#8b5d3b" stroke-width=".02645833"/><path d="M3.22 8.22H1.47L.24 6.98V5.24L1.47 4h1.75l1.23 1.23v1.75z" fill="#eee4dd" fill-rule="evenodd" stroke="#7b8284" stroke-width=".05291667"/><path d="M1.95 4.1v1.62H.34v.79h1.6v1.6h.8v-1.6h1.6v-.8h-1.6v-1.6z" fill="red" fill-rule="evenodd" stroke="#2a1254" stroke-width=".079375"/><path d="M4.44 4.06l-.51.3-.28-.52v.6l.41.4.58.03-.51-.3zM.21 4.06l.51.3.29-.52v.6l-.42.4-.58.03.51-.3zM4.44 8.15l-.51-.3-.28.53v-.6l.41-.41.58-.02-.51.3zM.21 8.15l.51-.3.29.53v-.6l-.42-.41L0 7.35l.51.3z" fill="#ff0" fill-rule="evenodd" stroke="#7b8284" stroke-width=".02645833"/><path d="M.57.28V.8H.04v.26h.53v.53h.26v-.53h.53V.8H.83V.28z" fill="red" fill-rule="evenodd" stroke="#5900fb" stroke-width=".00042561"/></svg>