<svg xmlns="http://www.w3.org/2000/svg" xmlns:xlink="http://www.w3.org/1999/xlink" viewBox="0 0 4.7099491 9.4014347"><defs><linearGradient id="a"><stop offset="0" stop-color="#fc0"/><stop offset="1" stop-color="#fc0" stop-opacity="0"/></linearGradient><radialGradient xlink:href="#a" id="b" cx="83.915985" cy="103.4727" fx="83.915985" fy="103.4727" r="1.3229165" gradientTransform="translate(-.01)" gradientUnits="userSpaceOnUse"/></defs><path fill="#fff6d5" fill-rule="evenodd" d="M.1 0H4.7v3.7H.11z"/><path fill="#f15151" fill-rule="evenodd" stroke="#5900fb" stroke-width=".00184747" d="M1.44.14h1.92v3.38H1.44z"/><path d="M.12 0h4.56l.03.01v.2l-.03.01H.09V0L.12 0zM.12 3.48h4.59v.22H.09v-.21l.03-.01z" fill="#fae742"/><path d="M2.16 1.45l.23-.68.24.68h.68l-.53.42.24.7-.63-.45-.6.46.23-.7-.56-.43z" fill="#e9c342" fill-rule="evenodd" stroke="#8b5d3b" stroke-width=".02645833"/><path d="M3.22 8.57H1.47L.24 7.34V5.59l1.23-1.23h1.75l1.23 1.23v1.75z" fill="#eee4dd" fill-rule="evenodd" stroke="#7b8284" stroke-width=".05291667"/><path d="M1.95 4.46v1.6H.34v.8h1.6v1.6h.8v-1.6h1.6v-.8h-1.6v-1.6z" fill="red" fill-rule="evenodd" stroke="#2a1254" stroke-width=".079375"/><path d="M4.44 4.41l-.51.3-.28-.52v.6l.41.4.58.03-.51-.3zM.21 4.41l.51.3.29-.52v.6l-.42.4-.58.03.51-.3zM4.44 8.5l-.51-.3-.28.53v-.6l.41-.4.58-.03-.51.3zM.21 8.5l.51-.3.29.53v-.6l-.42-.4L0 7.7l.51.3z" fill="#ff0" fill-rule="evenodd" stroke="#7b8284" stroke-width=".02645833"/><path d="M.58.28V.8H.05v.26h.53v.53h.26v-.53h.53V.8H.84V.28zM.58 1.6v.53H.05v.26h.53v.53h.26v-.53h.53v-.26H.84V1.6z" fill="red" fill-rule="evenodd" stroke="#5900fb" stroke-width=".00042561"/><path d="M2.32 3.5l.15.58.57-.17-.42.42h-.59l-.42-.4.57.16zM2.32 9.4l.15-.58.57.17-.42-.42h-.59l-.42.4.57-.15z" fill="#ff0" fill-rule="evenodd" stroke="#7b8284" stroke-width=".02645833"/><path d="M83.64 102.15v1.06h-1.06v.52h1.06v1.07h.53v-1.07h1.06v-.52h-1.06v-1.06z" opacity=".724" fill="url(#b)" fill-rule="evenodd" transform="translate(-81.55 -97.03)"/></svg>