<svg xmlns="http://www.w3.org/2000/svg" xmlns:xlink="http://www.w3.org/1999/xlink" viewBox="0 0 5.2414707 10.588973"><defs><linearGradient xlink:href="#a" id="f" gradientUnits="userSpaceOnUse" x1="113.50485" y1="72.66468" x2="120.63326" y2="72.66468" gradientTransform="translate(-18.52 37.06)"/><radialGradient gradientUnits="userSpaceOnUse" r="29.031401" cy="106.3116" cx="48.0952" id="a"><stop offset="0.0056" stop-color="#fbc926"/><stop offset="0.2528" stop-color="#fffbcc"/><stop offset="0.2986" stop-color="#f7eab8"/><stop offset="0.3896" stop-color="#e7cf8e"/><stop offset="0.5159" stop-color="#d1a954"/><stop offset="0.5955" stop-color="#c3922e"/><stop offset="0.8143" stop-color="#e2c675"/><stop offset="0.8708" stop-color="#eed688"/><stop offset="1" stop-color="#fffbcc"/></radialGradient><linearGradient xlink:href="#a" id="b" gradientUnits="userSpaceOnUse" gradientTransform="translate(-18.52 37.06)" x1="113.50485" y1="72.66468" x2="120.63326" y2="72.66468"/><linearGradient xlink:href="#a" id="c" gradientUnits="userSpaceOnUse" gradientTransform="translate(-18.52 37.06)" x1="113.50485" y1="72.66468" x2="120.63326" y2="72.66468"/><linearGradient xlink:href="#a" id="d" gradientUnits="userSpaceOnUse" gradientTransform="translate(-18.52 37.06)" x1="113.50485" y1="72.66468" x2="120.63326" y2="72.66468"/><linearGradient xlink:href="#a" id="e" gradientUnits="userSpaceOnUse" gradientTransform="translate(-18.52 37.06)" x1="113.50485" y1="72.66468" x2="120.63326" y2="72.66468"/></defs><path d="M2.62 0v3.74" fill="none" stroke="#000" stroke-width=".00054989"/><path d="M.03 2.74V0h5.18v1.37L5.2 2.74l-1.22.98c-.87.01-1.74.02-2.62 0z" fill="#00f" stroke="#eed729" stroke-width=".00130886" stroke-linecap="round" stroke-linejoin="round"/><g fill-rule="evenodd"><path fill="#ccc" d="M1.36.09h2.62v3.63H1.36z"/><path fill="#00f" d="M1.75.09H3.6v3.63H1.75z"/><path fill="#ccc" d="M2.08.09h1.19v3.63h-1.2z"/></g><path d="M.04 0h5.2v.17H0V0h.04z" fill="#9fb2af"/><g transform="translate(-115.2 -91.6)"><path d="M124.08-109.3l-1.68-.61 1.17 1.36-1.55-.9.92 1.54-1.38-1.16.64 1.68-1.15-1.38.34 1.76-.9-1.56.03 1.8-.61-1.69-.3 1.77-.3-1.77-.6 1.7.02-1.8-.88 1.57.32-1.77-1.14 1.4.62-1.7-1.36 1.18.9-1.55-1.54.91 1.16-1.37-1.68.64 1.38-1.15-1.77.33 1.56-.89-1.8.02 1.7-.6-1.78-.3 1.77-.3-1.7-.6 1.8.01-1.56-.88 1.77.32-1.4-1.13 1.7.62-1.18-1.36 1.55.9-.92-1.54 1.38 1.15-.64-1.67 1.15 1.38-.34-1.77.9 1.56-.03-1.8.61 1.7.3-1.78.3 1.77.59-1.7v1.8l.87-1.57-.32 1.77 1.14-1.39-.62 1.69 1.36-1.17-.9 1.55 1.54-.92-1.16 1.37 1.68-.63-1.38 1.15 1.77-.34-1.56.9 1.8-.03-1.7.6 1.78.3-1.77.3 1.7.6-1.8-.01 1.56.88-1.77-.32z" transform="matrix(.49988 0 0 -.66108 58.04 24.8)" fill="#e7c416" stroke="#c7aa06" stroke-width=".04602601" stroke-linecap="round" stroke-linejoin="round"/><ellipse cx="117.8247" cy="98.753815" rx="1.5489023" ry="2.1661851" fill="#00f" stroke="#f6d82a" stroke-width=".01922803" stroke-linecap="round" stroke-linejoin="round"/><text style="line-height:1.25" x="90.417885" y="129.10724" transform="scale(1.28745 .77673)" font-weight="400" font-size="8.8774395px" font-family="sans-serif" letter-spacing="0" word-spacing="0" fill="#ccc" stroke-width=".22193599"><tspan x="90.417885" y="129.10724" style="-inkscape-font-specification:Calibri" font-size="5.918293px" font-family="Calibri">!</tspan></text></g><g><path d="M2.3 1.59L2.65.52l.38 1.07H4.1l-.84.66.4 1.11-1-.71-.97.71.37-1.1-.89-.67z" fill="#e9c342" fill-rule="evenodd"/><path d="M98.6 111.37l-2.37 1.68 2.35-3.1z" fill="url(#b)" transform="matrix(.41036 0 0 .42561 -37.8 -44.75)"/><path d="M98.58 109.96l-1.43.5-2.17-1.57z" fill="url(#c)" transform="matrix(.41036 0 0 .42561 -37.8 -44.75)"/><path d="M98.58 109.96l-.9-1.09.9-2.47z" fill="url(#d)" transform="matrix(.41036 0 0 .42561 -37.8 -44.75)"/><path d="M99.5 108.88h2.6l-3.52 1.08z" fill="url(#e)" transform="matrix(.41036 0 0 .42561 -37.8 -44.75)"/><path d="M100.06 110.43l.96 2.61-2.44-3.08z" fill="url(#f)" transform="matrix(.41036 0 0 .42561 -37.8 -44.75)"/></g></svg>