<svg xmlns="http://www.w3.org/2000/svg" viewBox="0 0 5.2414707 10.428642"><g transform="matrix(.9167 0 0 1 -105.48 -91.8)"><path d="M120.37 97.12c-.13-.28-1.8 1.37-1.99 1.14-.18-.22 1.2-2.24.96-2.4-.23-.16-1 2.28-1.25 2.2-.25-.09.1-2.66-.16-2.66s.08 2.57-.17 2.66c-.26.08-1-2.37-1.24-2.21-.23.16 1.13 2.18.95 2.4-.2.23-1.85-1.43-1.98-1.16-.14.28 1.88 1.21 1.8 1.52-.06.3-2.19-.13-2.19.2 0 .31 2.13-.1 2.2.2.06.32-1.96 1.22-1.83 1.5.13.28 1.8-1.37 2-1.14.18.23-1.2 2.24-.97 2.4.23.16 1-2.28 1.25-2.2.26.09-.1 2.66.16 2.67.26 0-.08-2.58.18-2.66.25-.08 1 2.36 1.23 2.2.23-.15-1.13-2.18-.94-2.4.19-.23 1.84 1.44 1.98 1.16.13-.28-1.88-1.2-1.81-1.52.07-.3 2.2.13 2.2-.19s-2.13.1-2.2-.21c-.07-.31 1.95-1.22 1.82-1.5z" fill="#f9d626"/><ellipse cx="117.92188" cy="98.816505" rx="2.198174" ry="2.8900979" fill="#1a1a1a" stroke="#f6d82a" stroke-width=".02645833" stroke-linecap="round" stroke-linejoin="round"/><path d="M117.6 97.4l.34-1.15.35 1.15h1l-.79.7.37 1.2-.93-.76-.9.77.35-1.2-.84-.7z" fill="#ff0" fill-rule="evenodd"/><g fill="#ff0" fill-rule="evenodd"><path d="M116.94 100.12l.13-.46.13.46h.38l-.3.29.14.48-.35-.31-.34.3.13-.47-.31-.29zM118.66 100.12l.13-.46.13.46h.38l-.3.29.14.48-.35-.31-.34.3.13-.47-.32-.29z"/></g></g><path d="M2.62 0v3.74" fill="none" stroke="#000" stroke-width=".00054989"/><path d="M.9 3.24l-.87-.5V0h5.18v1.37L5.2 2.74l-.86.5-.86.5H1.76z" fill="#ffdf00" stroke="#eed729" stroke-width=".00130886" stroke-linecap="round" stroke-linejoin="round"/><path d="M2.62 1.87V0h2.59v.6a1678.33 1678.33 0 0 0-.02 2.14l-.86.5-.85.5h-.86z" fill-rule="evenodd" stroke="#f6d82a" stroke-width=".0000094243396"/><path d="M.04 0h5.2v.17H0V0h.04z" fill="#e0b944"/></svg>