<svg xmlns="http://www.w3.org/2000/svg" viewBox="0 0 4.7783399 9.7967584"><path fill="#6333b0" fill-rule="evenodd" d="M.1 0h4.58v4.75H.1z"/><path fill="#1a1a1a" fill-rule="evenodd" stroke="#5900fb" stroke-width=".00220396" d="M1.32.17h2.13v4.36H1.32z"/><path d="M.11 0h4.56l.03.01v.26l-.03.01H.08V0L.1 0zM.11 4.47h4.56l.03.01v.27l-.03.01H.08v-.28H.1z" fill="#fae742"/><g transform="translate(-81.63 -97.26)" fill-rule="evenodd"><path d="M84.02 107.05l-.38-1.9-2 .65 1.62-1.25-1.61-1.24 1.99.64.38-1.9.38 1.9 1.99-.64-1.61 1.24 1.61 1.25-1.99-.65z" fill="#ff0" stroke="#310ba0" stroke-width=".06217355"/><circle cx="84.019615" cy="104.55321" r="0.26458278" fill="#40a"/></g><path d="M2.04 1.8L2.41.66l.36 1.12h1.06L3 2.5l.4 1.16-1-.75-.95.75.37-1.15-.87-.7z" fill="#fc0" fill-rule="evenodd"/></svg>