<svg xmlns="http://www.w3.org/2000/svg" xmlns:xlink="http://www.w3.org/1999/xlink" viewBox="0 0 5.278615 7.6659804"><defs><linearGradient id="a"><stop offset="0" stop-color="#d40000"/><stop offset="1" stop-color="#d40000" stop-opacity="0"/></linearGradient><linearGradient xlink:href="#a" id="b" x1="63.025715" y1="87.117836" x2="63.043255" y2="87.117836" gradientUnits="userSpaceOnUse" gradientTransform="matrix(-.66001 0 0 .54027 104.32 39.65)"/></defs><path d="M.03 2.4V.08h5.23V2.4l-1.74.49H1.78z" fill="#fc0" stroke="#eed729" stroke-width=".00114145" stroke-linecap="round" stroke-linejoin="round"/><path d="M65.36 87.6v-2.3h-5.23v2.3l1.74.5h1.74z" fill="url(#b)" stroke="#eed729" stroke-width=".00114145" stroke-linecap="round" stroke-linejoin="round" transform="translate(-60.1 -85.21)"/><g transform="matrix(1.33333 0 0 1.33333 -86.2 -121.05)"><circle cy="94.750435" cx="66.638672" r="1.4552083" fill="#516374"/><path fill="#666" d="M67.32 96.22l.27.01-.95-1.48z"/><path fill="#ccc" d="M67.69 95.98l-.1.25-.95-1.48z"/><path fill="gray" d="M65.6 93.52l.08-.25.96 1.48z"/><path fill="#ccc" d="M65.95 93.28l-.27-.01.96 1.48z"/><g><path fill="#666" d="M66.64 94.75l-1.52-.56-.04-.26z"/><path fill="#ccc" d="M66.64 94.75l-1.32-.94-.24.12z"/><path fill="gray" d="M66.64 94.75l1.31.94.25-.12z"/><path fill="#ccc" d="M66.64 94.75l1.52.55.04.27z"/></g><g><path fill="#666" d="M66.64 94.75l-1.47.69-.01.26z"/><path fill="#ccc" d="M66.64 94.75L65.4 95.8l-.25-.1z"/><path fill="gray" d="M66.64 94.75l1.22-1.05.26.1z"/><path fill="#ccc" d="M66.64 94.75l1.46-.68.02-.27z"/><g><path fill="#666" d="M67.46 93.19l-.82 1.56.55-1.52z"/><path fill="#ccc" d="M67.46 93.19l-.82 1.56.94-1.31z"/><path fill="gray" d="M65.82 96.31l.82-1.56-.94 1.31z"/><path fill="#ccc" d="M65.82 96.31l.82-1.56-.56 1.52z"/></g></g><g><path d="M64.85 94.54l.22.21-.22.21h3.57l-.2-.2.2-.22h-3.57z" fill="maroon"/><path d="M66.85 92.96l-.22.23-.2-.23v3.58l.2-.2.22.2v-3.58z" fill="maroon"/></g></g><g fill="#e79937" fill-rule="evenodd"><path d="M.76 1.31L.9.87l.15.44h.42l-.33.28.15.46-.38-.3-.38.3.14-.46-.34-.28zM4.26 1.31L4.4.87l.15.44h.41l-.32.28.15.46-.39-.3-.38.3.15-.46-.34-.28z"/></g><g fill="#e79937" fill-rule="evenodd"><path d="M2.07 1.23l.1-.3.1.3h.3l-.24.2.11.32-.27-.2-.26.2.1-.32-.24-.2zM3.03 1.23l.1-.3.1.3h.29l-.23.2.1.32-.26-.2-.26.2.1-.32-.24-.2z"/></g><path d="M.04 0h5.24v.16l-.04.01H0V0L.04 0z" fill="#e8b642"/></svg>