<svg xmlns="http://www.w3.org/2000/svg" xmlns:xlink="http://www.w3.org/1999/xlink" viewBox="0 0 5.1982608 8.5695238"><defs><linearGradient xlink:href="#a" id="f" gradientUnits="userSpaceOnUse" gradientTransform="translate(.02 -.55)" x1="113.50485" y1="72.66468" x2="120.63326" y2="72.66468"/><radialGradient gradientUnits="userSpaceOnUse" r="29.031401" cy="106.3116" cx="48.0952" id="a"><stop offset="0.0056" stop-color="#fbc926"/><stop offset="0.2528" stop-color="#fffbcc"/><stop offset="0.2986" stop-color="#f7eab8"/><stop offset="0.3896" stop-color="#e7cf8e"/><stop offset="0.5159" stop-color="#d1a954"/><stop offset="0.5955" stop-color="#c3922e"/><stop offset="0.8143" stop-color="#e2c675"/><stop offset="0.8708" stop-color="#eed688"/><stop offset="1" stop-color="#fffbcc"/></radialGradient><linearGradient xlink:href="#a" id="b" gradientUnits="userSpaceOnUse" gradientTransform="translate(.02 -.55)" x1="113.50485" y1="72.66468" x2="120.63326" y2="72.66468"/><linearGradient xlink:href="#a" id="c" gradientUnits="userSpaceOnUse" gradientTransform="translate(.02 -.55)" x1="113.50485" y1="72.66468" x2="120.63326" y2="72.66468"/><linearGradient xlink:href="#a" id="d" gradientUnits="userSpaceOnUse" gradientTransform="translate(.02 -.55)" x1="113.50485" y1="72.66468" x2="120.63326" y2="72.66468"/><linearGradient xlink:href="#a" id="e" gradientUnits="userSpaceOnUse" gradientTransform="translate(.02 -.55)" x1="113.50485" y1="72.66468" x2="120.63326" y2="72.66468"/></defs><g transform="translate(-110.78 -138.29)"><path d="M115.74 144.28c.3-.1.25-.54-.07-.57.27-.16.11-.57-.2-.53.22-.22-.03-.58-.32-.46.15-.27-.17-.56-.43-.38.09-.3-.3-.5-.5-.26.01-.31-.42-.42-.55-.13a.28.28 0 0 0-.3-.23.28.28 0 0 0-.28.23c-.13-.29-.56-.18-.55.13-.2-.24-.59-.04-.5.26-.26-.18-.59.1-.43.38-.3-.12-.54.24-.33.46-.3-.04-.46.36-.2.53-.31.03-.36.47-.06.57-.3.1-.25.53.06.56-.26.17-.1.58.2.53-.21.23.04.59.33.47-.16.27.17.56.43.37-.09.3.3.5.5.26-.01.32.42.42.55.14.03.15.16.23.29.23.13 0 .25-.08.29-.23.13.28.56.18.55-.14.2.24.59.04.5-.26.26.19.59-.1.43-.37.29.12.54-.24.32-.47.32.05.47-.36.2-.53.32-.03.37-.46.07-.56z" fill="#937200"/><path d="M115.56 144.28c.28-.1.23-.5-.06-.52.24-.16.1-.53-.19-.5.2-.2-.03-.53-.3-.42.15-.25-.16-.52-.39-.35.08-.28-.28-.46-.47-.24.02-.29-.38-.39-.5-.13a.26.26 0 0 0-.27-.2.26.26 0 0 0-.26.2c-.13-.26-.53-.16-.52.13-.18-.22-.54-.04-.46.24-.23-.17-.54.1-.4.35-.26-.11-.5.22-.3.43-.28-.05-.42.33-.18.49-.29.02-.34.42-.06.52-.28.1-.23.5.06.52-.24.15-.1.53.19.49-.2.2.03.54.3.43-.15.25.16.52.39.34-.08.28.28.47.46.25 0 .28.39.38.52.12.02.14.14.21.26.21s.23-.07.26-.21c.13.26.52.16.51-.12.19.22.55.03.47-.25.23.17.54-.1.4-.34.26.1.5-.23.3-.43.28.04.42-.34.18-.5.29-.02.33-.42.06-.51z" fill="#800066"/><path d="M112.57 143.45l-1.39-.73.79.13-.17-.8z" fill="#ff0" fill-rule="evenodd"/><rect transform="rotate(45)" ry="0" y="20.682762" x="181.02505" height="2.3311136" width="2.3311136" fill="#d42aff" fill-rule="evenodd"/><path d="M112.39 146.86c.32-.64.52-1.34.59-2.05l.01-.12-.12.01a5.2 5.2 0 0 0-2.07.67s.23-.72.23-1.1c0-.37-.23-1.09-.23-1.09.63.37 1.35.6 2.07.67l.12.02-.01-.12a5.76 5.76 0 0 0-.6-2.05s.66.23 1 .23c.34 0 .99-.23.99-.23a5.75 5.75 0 0 0-.6 2.05v.12l.12-.02a5.2 5.2 0 0 0 2.07-.67s-.22.72-.22 1.1c0 .37.22 1.1.22 1.1a5.2 5.2 0 0 0-2.07-.68l-.12-.01v.12c.07.7.28 1.41.6 2.05 0 0-.65-.24-1-.24-.33 0-.98.24-.98.24z" fill="#eec505"/><g transform="matrix(1.73074 0 0 1.7266 -59.94 -51.53)" fill="#d42aff" fill-rule="evenodd"><rect width="0.44635952" height="0.46088874" x="99.919922" y="113.17587" ry="0.067980155"/><rect width="0.22239992" height="0.27425581" x="100.03191" y="113.26919" ry="0.040452179"/></g><g transform="matrix(1.01695 0 0 1.01452 11.54 29.22)" fill="#ff0" fill-rule="evenodd"><rect width="0.44635952" height="0.46088874" x="99.919922" y="113.17587" ry="0.067980155"/><rect width="0.22239992" height="0.27425581" x="100.03191" y="113.26919" ry="0.040452179"/></g><path fill="#aa00d4" fill-rule="evenodd" d="M110.8 138.33h5.16v3.28h-5.16z"/><path fill="#501644" fill-rule="evenodd" d="M112.41 138.33h1.93v3.28h-1.93z"/><path d="M110.82 138.29h5.16v.16l-.04.01h-5.16v-.16l.04-.01z" fill="#e0b944"/><path d="M113.18 139.67l.2-.7.22.7h.62l-.48.44.22.75-.57-.48-.56.48.22-.74-.5-.44z" fill="#e9c342" fill-rule="evenodd"/><path d="M117.13 73.76l-2.36 1.68 2.36-3.09z" fill="url(#b)" transform="matrix(.23512 0 0 .2839 85.85 119.44)"/><path d="M117.12 72.35l-1.43.5-2.17-1.57z" fill="url(#c)" transform="matrix(.23512 0 0 .2839 85.85 119.44)"/><path d="M117.12 72.35l-.9-1.08.9-2.48z" fill="url(#d)" transform="matrix(.23512 0 0 .2839 85.85 119.44)"/><path d="M118.04 71.27l2.61.01-3.52 1.07z" fill="url(#e)" transform="matrix(.23512 0 0 .2839 85.85 119.44)"/><path d="M118.6 72.82l.96 2.62-2.43-3.09z" fill="url(#f)" transform="matrix(.23512 0 0 .2839 85.85 119.44)"/><g fill="#e9c342" fill-rule="evenodd"><path d="M111.4 139.24l.14-.41.13.42h.37l-.3.25.14.44-.34-.28-.34.28.13-.43-.31-.26zM115.1 139.24l.13-.41.13.42h.38l-.3.25.14.44-.34-.28-.34.28.13-.43-.31-.26z"/></g><path d="M110.82 141.4h5.16v.21l-.04.01h-5.16v-.21l.04-.01z" fill="#e0b944"/><path d="M114.18 143.45l1.4-.73-.8.13.17-.8zM112.57 145.08l-1.39.73.79-.13-.17.8zM114.18 145.08l1.4.73-.8-.13.17.8z" fill="#ff0" fill-rule="evenodd"/></g></svg>