<svg xmlns="http://www.w3.org/2000/svg" xmlns:xlink="http://www.w3.org/1999/xlink" viewBox="0 0 5.2414112 9.4659367"><defs><linearGradient y2="121.9607" x2="61.983898" y1="-0.7676" x1="40.813499" gradientUnits="userSpaceOnUse" id="a"><stop offset="0" stop-color="#fff"/><stop offset="0.4011"/><stop offset="0.7637" stop-color="#fff"/><stop offset="0.8352"/><stop offset="0.9121" stop-color="#fff"/><stop offset="0.978"/></linearGradient><linearGradient gradientTransform="matrix(.8914 0 0 .1666 -6.436 142.416)" xlink:href="#a" id="d" x1="89.010323" y1="102.56882" x2="94.890366" y2="102.56882" gradientUnits="userSpaceOnUse"/><linearGradient y2="122.2001" x2="60.4986" y1="-0.50340003" x1="39.3325" gradientUnits="userSpaceOnUse" id="c"><stop offset="0" stop-color="#fff"/><stop offset="0.4011"/><stop offset="0.7637" stop-color="#fff"/><stop offset="0.8352"/><stop offset="0.9121" stop-color="#fff"/><stop offset="0.978"/></linearGradient><linearGradient xlink:href="#a" id="e" gradientUnits="userSpaceOnUse" gradientTransform="matrix(.8914 0 0 .1666 -6.436 142.416)" x1="89.010323" y1="102.56882" x2="94.890366" y2="102.56882"/><linearGradient xlink:href="#b" id="j" gradientUnits="userSpaceOnUse" gradientTransform="translate(.017 -.547)" x1="113.50485" y1="72.66468" x2="120.63326" y2="72.66468"/><radialGradient gradientUnits="userSpaceOnUse" r="29.031401" cy="106.3116" cx="48.0952" id="b"><stop offset="0.0056" stop-color="#fbc926"/><stop offset="0.2528" stop-color="#fffbcc"/><stop offset="0.2986" stop-color="#f7eab8"/><stop offset="0.3896" stop-color="#e7cf8e"/><stop offset="0.5159" stop-color="#d1a954"/><stop offset="0.5955" stop-color="#c3922e"/><stop offset="0.8143" stop-color="#e2c675"/><stop offset="0.8708" stop-color="#eed688"/><stop offset="1" stop-color="#fffbcc"/></radialGradient><linearGradient xlink:href="#b" id="f" gradientUnits="userSpaceOnUse" gradientTransform="translate(.017 -.547)" x1="113.50485" y1="72.66468" x2="120.63326" y2="72.66468"/><linearGradient xlink:href="#b" id="g" gradientUnits="userSpaceOnUse" gradientTransform="translate(.017 -.547)" x1="113.50485" y1="72.66468" x2="120.63326" y2="72.66468"/><linearGradient xlink:href="#b" id="h" gradientUnits="userSpaceOnUse" gradientTransform="translate(.017 -.547)" x1="113.50485" y1="72.66468" x2="120.63326" y2="72.66468"/><linearGradient xlink:href="#b" id="i" gradientUnits="userSpaceOnUse" gradientTransform="translate(.017 -.547)" x1="113.50485" y1="72.66468" x2="120.63326" y2="72.66468"/><linearGradient xlink:href="#c" id="k" x1="113.52195" y1="72.117393" x2="120.65036" y2="72.117393" gradientUnits="userSpaceOnUse"/><linearGradient xlink:href="#c" id="l" gradientUnits="userSpaceOnUse" x1="113.52195" y1="72.117393" x2="120.65036" y2="72.117393"/><linearGradient xlink:href="#c" id="m" gradientUnits="userSpaceOnUse" x1="113.52195" y1="72.117393" x2="120.65036" y2="72.117393"/><linearGradient xlink:href="#c" id="n" gradientUnits="userSpaceOnUse" x1="113.52195" y1="72.117393" x2="120.65036" y2="72.117393"/><linearGradient xlink:href="#c" id="o" gradientUnits="userSpaceOnUse" x1="113.52195" y1="72.117393" x2="120.65036" y2="72.117393"/><linearGradient xlink:href="#c" id="p" gradientUnits="userSpaceOnUse" x1="113.52195" y1="72.117393" x2="120.65036" y2="72.117393"/></defs><path d="M1.72 5.99c.492-1.645.899-3.002.904-3.014.007-.016.31.94.943 2.98.513 1.652.93 3.006.927 3.01-.004.002-.42-.332-.924-.745-.514-.42-.926-.748-.935-.744-.01.003-.418.343-.908.756-.49.412-.893.75-.895.75-.002 0 .398-1.347.889-2.992z" fill="#1a1a1a" fill-rule="evenodd" stroke="#875b11" stroke-width=".00130501"/><path d="M5.186 7.932c-.027.055-2.477-1.314-2.534-1.315-.058 0-2.566 1.317-2.597 1.263-.03-.055 1.825-1.99 1.854-2.044.03-.055.695-2.87.753-2.872.056-.002.643 2.817.67 2.872.029.054 1.881 2.04 1.854 2.096z" fill="#1a1a1a" fill-rule="evenodd"/><path fill="maroon" fill-rule="evenodd" d="M.044.035h5.153v2.917H.044z"/><path d="M2.625 9.466L.655 2.959l3.93-.01zM.656.032h3.93v2.917H.656z" fill="#1a1a1a" fill-rule="evenodd"/><path d="M.036 2.679h5.169c.02 0 .036.006.036.013v.266c0 .007-.016.012-.036.012H.036C.016 2.97 0 2.964 0 2.958v-.266c0-.008.016-.013.036-.013z" fill="#e0b944"/><path d="M72.944 159.385h5.169c.02 0 .036.005.036.01v.218c0 .006-.016.01-.036.01h-5.169c-.02 0-.036-.004-.036-.01v-.218c0-.006.016-.01.036-.01z" opacity=".45199998" fill="url(#d)" transform="matrix(1 0 0 1.22276 -72.908 -192.212)"/><path d="M.036 0h5.169c.02 0 .036.003.036.006v.13c0 .004-.016.007-.036.007H.036C.016.143 0 .14 0 .137v-.13C0 .002.016 0 .036 0z" fill="#e0b944"/><path d="M72.944 159.385h5.169c.02 0 .036.005.036.01v.218c0 .006-.016.01-.036.01h-5.169c-.02 0-.036-.004-.036-.01v-.218c0-.006.016-.01.036-.01z" opacity=".45199998" fill="url(#e)" transform="matrix(1 0 0 .59903 -72.908 -95.476)"/><g fill="#e9c342" fill-rule="evenodd"><path d="M2.412 1.494l.232-.683.234.684.671.002-.526.42.246.715-.623-.458-.607.459.236-.709-.557-.427z"/><path d="M1.18.751l.145-.447.147.448.422.001-.33.275.154.47-.392-.301-.38.3.147-.464-.35-.28zM3.784.751L3.93.303l.146.449h.422l-.33.276.154.469-.391-.3-.382.3.149-.464-.35-.28z"/></g><g><path d="M2.058 5.342l.59-1.872.593 1.875 1.71.008-1.339 1.15.626 1.96-1.586-1.255-1.544 1.258.6-1.943-1.417-1.17z" fill="#e9c342" fill-rule="evenodd"/><path d="M117.135 73.761l-2.364 1.68 2.354-3.089z" fill="url(#f)" transform="matrix(.65364 0 0 .74868 -73.911 -48.015)"/><path d="M117.125 72.352l-1.434.495-2.169-1.564z" fill="url(#g)" transform="matrix(.65364 0 0 .74868 -73.911 -48.015)"/><path d="M117.125 72.353l-.907-1.088.901-2.472z" fill="url(#h)" transform="matrix(.65364 0 0 .74868 -73.911 -48.015)"/><path d="M118.036 71.273l2.614.01-3.525 1.07z" fill="url(#i)" transform="matrix(.65364 0 0 .74868 -73.911 -48.015)"/><path d="M118.603 72.82l.958 2.619-2.436-3.086z" fill="url(#j)" transform="matrix(.65364 0 0 .74868 -73.911 -48.015)"/><g><path d="M2.465 5.944l.163-.483.165.484.473.002-.37.297.173.506-.44-.324-.427.324.166-.501-.393-.302z" fill="#b2aea5" fill-rule="evenodd"/><g transform="matrix(.18105 0 0 .19328 -18.577 -7.83)" fill="url(#k)"><path d="M117.135 73.761l-2.364 1.68 2.354-3.089z" fill="url(#l)"/><path d="M117.125 72.352l-1.434.495-2.169-1.564z" fill="url(#m)"/><path d="M117.125 72.353l-.907-1.088.901-2.472z" fill="url(#n)"/><path d="M118.036 71.273l2.614.01-3.525 1.07z" fill="url(#o)"/><path d="M118.603 72.82l.958 2.619-2.436-3.086z" fill="url(#p)"/></g></g></g></svg>