<svg xmlns="http://www.w3.org/2000/svg" viewBox="0 0 5.2414707 8.956413"><path d="M2.62 0v3.74" fill="none" stroke="#000" stroke-width=".00054989"/><path d="M.9 3.24l-.87-.5V0h5.18v1.37L5.2 2.74l-.86.5-.86.5H1.76z" fill="#0f0" stroke="#eed729" stroke-width=".00130886" stroke-linecap="round" stroke-linejoin="round"/><path d="M2.62 1.87V0h2.59v.6L5.2 1.97v.77l-.87.5-.85.5h-.86z" fill="red" fill-rule="evenodd" stroke="#f6d82a" stroke-width=".00000942"/><path d="M1.76.13h1.72v3.6H1.76z" fill="#00f" fill-rule="evenodd"/><path d="M.04 0h5.2v.17H0V0h.04z" fill="#e0b944"/><g fill="#ff0" fill-rule="evenodd"><path d="M2.3 1.74L2.6.8l.32.95h.92l-.72.58.34 1-.85-.64-.84.64.33-.99-.76-.59zM4.05 1.08l.12-.4.12.4h.34l-.27.25.13.42-.32-.27-.32.27.12-.41-.28-.25z"/><path d="M.9 1.08l.12-.4.12.4h.35l-.27.25.13.42-.33-.27-.31.27.12-.41-.29-.25z"/></g><g transform="translate(-114.97 -91.73)" fill-rule="evenodd"><path d="M118.85 100.35c-.2.12-.24-.15-.46-.07-.22.09-.07.31-.3.36-.22.05-.18-.22-.41-.2-.24 0-.17.27-.4.25-.23-.03-.1-.27-.33-.33-.22-.06-.24.21-.45.12-.21-.1-.02-.29-.22-.42-.2-.12-.29.13-.46-.03-.17-.15.07-.27-.08-.45-.15-.18-.31.03-.43-.18-.12-.2.15-.24.07-.46-.09-.21-.31-.07-.36-.3-.05-.22.22-.18.2-.4 0-.24-.27-.17-.24-.4.02-.23.26-.11.32-.34.06-.22-.21-.23-.12-.45.1-.2.29-.02.42-.21.12-.2-.13-.3.03-.47.15-.17.27.07.45-.07.18-.15-.03-.32.18-.44.2-.11.24.15.46.07.21-.08.07-.3.3-.36.22-.05.18.22.41.2.23 0 .16-.26.4-.24.22.02.1.26.33.32.22.06.23-.2.45-.11.2.1.02.28.21.41.2.13.3-.13.47.03.17.16-.07.28.08.46.14.18.31-.03.43.17.11.2-.15.24-.07.46.08.22.31.07.36.3.05.22-.22.18-.2.41 0 .24.27.17.24.4-.02.23-.26.1-.32.33-.06.22.2.24.11.45-.1.21-.28.02-.4.22-.14.2.12.29-.04.46-.15.17-.28-.07-.46.08-.18.15.03.32-.17.43z" fill="#d7b53b"/><circle cx="117.56331" cy="98.114662" r="2.1166661" fill="#9cb6b8" stroke="#413e14" stroke-width=".05291667"/></g><g transform="matrix(.0277 0 0 .02247 .78 4.89)"><radialGradient id="a" cx="46.802601" cy="66.0634" gradientTransform="matrix(.8388 -.5444 .3401 .5241 -14.93 56.92)" gradientUnits="userSpaceOnUse" r="67.0774"><stop offset="0" stop-color="#d4b468"/><stop offset="1" stop-color="#b4822a"/></radialGradient><path d="M7.09 72.44c-3.42 13.08 1.67 25.15 9.06 36.57 14.53 22.46 49.1 9.53 65.73-3.32a56.98 56.98 0 0 0 10.23-10c2.07-2.66 3.4-5.89 5.42-8.54 2.02-2.66 4.93-4.83 7.2-7.32 9.27-10.16 18.45-24.54 16.9-38.88-.83-7.66-5.27-18.41-12.52-22.25-2.51-1.33-6.34-5.75-13.43-7.23-10-2.08-22.43-1.87-31.31 3.73-4.87 3.07-7.04 8.63-10.78 12.93-5.51 6.32-11.75 10.23-19.02 14.07-10.36 5.48-20.89 13.97-25.65 24.95a35.74 35.74 0 0 0-1.83 5.29z" fill="url(#a)"/><path d="M84.08 13.26c3.58 0 7.38.4 10.99 1.15 4.45.93 7.41 3.18 9.78 4.98 1.04.79 1.94 1.48 2.85 1.96 2.77 1.46 5.32 4.37 7.4 8.41a34.2 34.2 0 0 1 3.54 11.51c1.58 14.68-9.43 29.19-16.13 36.54-.85.93-1.81 1.83-2.83 2.78a38.53 38.53 0 0 0-4.54 4.74 39.57 39.57 0 0 0-2.84 4.49 33.93 33.93 0 0 1-2.55 4.03 54.35 54.35 0 0 1-9.7 9.47c-9.62 7.43-25.59 14.93-39.58 14.93-9.8 0-17.13-3.66-21.8-10.86C10 93.97 7.32 83.43 9.99 73.2c.42-1.61.99-3.25 1.68-4.85 5.21-12.02 17.46-19.88 24.29-23.49 7.81-4.13 14.18-8.22 19.88-14.75a51.4 51.4 0 0 0 3.83-5.21c1.9-2.84 3.7-5.51 6.29-7.15 4.67-2.94 10.93-4.49 18.12-4.49m0-3c-6.98 0-14.06 1.38-19.71 4.94-4.87 3.07-7.04 8.63-10.78 12.93-5.51 6.32-11.75 10.23-19.02 14.07-10.36 5.48-20.89 13.97-25.65 24.95a35.74 35.74 0 0 0-1.83 5.29c-3.42 13.08 1.67 25.15 9.06 36.57 5.75 8.89 14.64 12.24 24.32 12.24 14.77 0 31.37-7.79 41.41-15.56a56.98 56.98 0 0 0 10.23-10c2.07-2.66 3.4-5.89 5.42-8.54 2.02-2.66 4.93-4.83 7.2-7.32 9.27-10.16 18.45-24.54 16.9-38.88-.83-7.66-5.27-18.41-12.52-22.25-2.51-1.33-6.34-5.75-13.43-7.23a57.21 57.21 0 0 0-11.6-1.21z" fill="#424242" opacity=".2"/></g><path d="M3.76 6.38c-.01 0-.03 0-.04-.02v-.04c0-.02-.02-.04-.01-.05 0-.02.02-.04.04-.03.02 0 .02.02.03.04 0 .01.01.03.03.03a.29.29 0 0 1-.05.07" fill="#5c2e08"/><path d="M2.28 7.07v.04c0 .02.02.03.04.02l.02-.03s0-.02-.02-.03H2.3c-.01 0-.02.01-.01.02" fill="#a67c52"/><path d="M2.56 7.25a.15.15 0 0 1-.07 0c-.03 0-.05-.01-.05-.04 0-.01.02-.03.05-.03a.1.1 0 0 1 .06.02l.02.03c0 .01-.01.03-.03.02M1.23 6.78l-.04-.02.01-.04c.02 0 .03 0 .04.02.01.01.02.03.01.05h-.04" fill="#736357"/><path d="M1.24 6.9c0 .03.01.05.03.07.02.02.05.03.07.02.04 0 .05-.05.04-.08a.1.1 0 0 0-.1-.06c-.04 0-.07.05-.05.08" fill="#8c6239"/><path d="M1.43 7.18a.1.1 0 0 0 .04.03l.05-.01v-.04a.07.07 0 0 0-.05-.02l-.04.02" fill="#534741"/><path d="M1.8 6a.2.2 0 0 0 .17.01.14.14 0 0 0-.1-.07c-.05 0-.1.02-.1.06" fill="#a67c52"/><path d="M3.1 5.53c.14.05.26.15.3.28a3.5 3.5 0 0 0-.67-.36c.12.02.25.03.36.08zM3.3 6.11c-.05-.1-.35-.22-.34-.3.15.05.28.18.34.3zM1.91 7.25c-.08-.08-.2-.17-.26-.27.15.06.17.18.26.27z" fill="#736357"/></svg>