<svg xmlns="http://www.w3.org/2000/svg" xmlns:xlink="http://www.w3.org/1999/xlink" viewBox="0 0 4.9863043 8.5320432"><defs><linearGradient xlink:href="#a" id="h" gradientUnits="userSpaceOnUse" x1="113.50485" y1="72.66468" x2="120.63326" y2="72.66468" gradientTransform="translate(-18.52 37.06)"/><radialGradient gradientUnits="userSpaceOnUse" r="29.031401" cy="106.3116" cx="48.0952" id="a"><stop offset="0.0056" stop-color="#fbc926"/><stop offset="0.2528" stop-color="#fffbcc"/><stop offset="0.2986" stop-color="#f7eab8"/><stop offset="0.3896" stop-color="#e7cf8e"/><stop offset="0.5159" stop-color="#d1a954"/><stop offset="0.5955" stop-color="#c3922e"/><stop offset="0.8143" stop-color="#e2c675"/><stop offset="0.8708" stop-color="#eed688"/><stop offset="1" stop-color="#fffbcc"/></radialGradient><linearGradient xlink:href="#a" id="d" gradientUnits="userSpaceOnUse" gradientTransform="translate(-18.52 37.06)" x1="113.50485" y1="72.66468" x2="120.63326" y2="72.66468"/><linearGradient xlink:href="#a" id="e" gradientUnits="userSpaceOnUse" gradientTransform="translate(-18.52 37.06)" x1="113.50485" y1="72.66468" x2="120.63326" y2="72.66468"/><linearGradient xlink:href="#a" id="f" gradientUnits="userSpaceOnUse" gradientTransform="translate(-18.52 37.06)" x1="113.50485" y1="72.66468" x2="120.63326" y2="72.66468"/><linearGradient xlink:href="#a" id="g" gradientUnits="userSpaceOnUse" gradientTransform="translate(-18.52 37.06)" x1="113.50485" y1="72.66468" x2="120.63326" y2="72.66468"/><linearGradient xlink:href="#b" id="r" gradientUnits="userSpaceOnUse" gradientTransform="translate(-18.52 37.06)" x1="113.50485" y1="72.66468" x2="120.63326" y2="72.66468"/><radialGradient gradientUnits="userSpaceOnUse" r="29.031401" cy="106.3116" cx="48.0952" id="b"><stop offset="0.0056" stop-color="#fbc926"/><stop offset="0.2528" stop-color="#fffbcc"/><stop offset="0.2986" stop-color="#f7eab8"/><stop offset="0.3896" stop-color="#e7cf8e"/><stop offset="0.5159" stop-color="#d1a954"/><stop offset="0.5955" stop-color="#c3922e"/><stop offset="0.8143" stop-color="#e2c675"/><stop offset="0.8708" stop-color="#eed688"/><stop offset="1" stop-color="#fffbcc"/></radialGradient><linearGradient xlink:href="#b" id="n" gradientUnits="userSpaceOnUse" gradientTransform="translate(-18.52 37.06)" x1="113.50485" y1="72.66468" x2="120.63326" y2="72.66468"/><linearGradient xlink:href="#b" id="o" gradientUnits="userSpaceOnUse" gradientTransform="translate(-18.52 37.06)" x1="113.50485" y1="72.66468" x2="120.63326" y2="72.66468"/><linearGradient xlink:href="#b" id="p" gradientUnits="userSpaceOnUse" gradientTransform="translate(-18.52 37.06)" x1="113.50485" y1="72.66468" x2="120.63326" y2="72.66468"/><linearGradient xlink:href="#b" id="q" gradientUnits="userSpaceOnUse" gradientTransform="translate(-18.52 37.06)" x1="113.50485" y1="72.66468" x2="120.63326" y2="72.66468"/><linearGradient xlink:href="#c" id="m" gradientUnits="userSpaceOnUse" gradientTransform="translate(-18.52 37.06)" x1="113.50485" y1="72.66468" x2="120.63326" y2="72.66468"/><radialGradient gradientUnits="userSpaceOnUse" r="29.031401" cy="106.3116" cx="48.0952" id="c"><stop offset="0.0056" stop-color="#fbc926"/><stop offset="0.2528" stop-color="#fffbcc"/><stop offset="0.2986" stop-color="#f7eab8"/><stop offset="0.3896" stop-color="#e7cf8e"/><stop offset="0.5159" stop-color="#d1a954"/><stop offset="0.5955" stop-color="#c3922e"/><stop offset="0.8143" stop-color="#e2c675"/><stop offset="0.8708" stop-color="#eed688"/><stop offset="1" stop-color="#fffbcc"/></radialGradient><linearGradient xlink:href="#c" id="i" gradientUnits="userSpaceOnUse" gradientTransform="translate(-18.52 37.06)" x1="113.50485" y1="72.66468" x2="120.63326" y2="72.66468"/><linearGradient xlink:href="#c" id="j" gradientUnits="userSpaceOnUse" gradientTransform="translate(-18.52 37.06)" x1="113.50485" y1="72.66468" x2="120.63326" y2="72.66468"/><linearGradient xlink:href="#c" id="k" gradientUnits="userSpaceOnUse" gradientTransform="translate(-18.52 37.06)" x1="113.50485" y1="72.66468" x2="120.63326" y2="72.66468"/><linearGradient xlink:href="#c" id="l" gradientUnits="userSpaceOnUse" gradientTransform="translate(-18.52 37.06)" x1="113.50485" y1="72.66468" x2="120.63326" y2="72.66468"/></defs><g transform="translate(-81.42 -97)"><path fill="#ff0" fill-rule="evenodd" d="M81.89 97h4.05v3.7H81.9z"/><path fill="#333" fill-rule="evenodd" stroke="#5900fb" stroke-width=".00227505" d="M82.46 97.14h2.91v3.39h-2.91z"/><path d="M81.9 97h4.03c.02 0 .03.01.03.02v.2H81.87v-.2l.03-.01zM81.9 100.49H85.96v.21l-.03.01H81.87v-.21l.03-.01z" fill="#e6c010"/><path d="M85.39 100.87l-2.97.01-.9 2.83 2.4 1.74 2.4-1.76z" fill="#b8c6c5" fill-rule="evenodd" stroke="#3d4948" stroke-width=".15213542"/><circle r="1.932687" cy="102.87914" cx="83.914841" fill="#a8861f" fill-rule="evenodd" stroke="#6b5c11" stroke-width=".05053542"/><path d="M83.34 103.66l.6 1.79.6-1.8h1.76l-1.37-1.1.64-1.86-1.62 1.2-1.58-1.2.61 1.85-1.45 1.11z" fill="#e9c342" fill-rule="evenodd"/><path d="M98.6 111.37l-2.37 1.68 2.35-3.1z" fill="url(#d)" transform="matrix(.6681 0 0 -.71366 18.08 181.36)"/><path d="M98.58 109.96l-1.43.5-2.17-1.57z" fill="url(#e)" transform="matrix(.6681 0 0 -.71366 18.08 181.36)"/><path d="M98.58 109.96l-.9-1.09.9-2.47z" fill="url(#f)" transform="matrix(.6681 0 0 -.71366 18.08 181.36)"/><path d="M99.5 108.88h2.6l-3.52 1.08z" fill="url(#g)" transform="matrix(.6681 0 0 -.71366 18.08 181.36)"/><path d="M100.06 110.43l.96 2.61-2.44-3.08z" fill="url(#h)" transform="matrix(.6681 0 0 -.71366 18.08 181.36)"/><g><path d="M83.34 102.12l.6-1.79.6 1.79h1.76l-1.37 1.1.64 1.87-1.62-1.2-1.58 1.2.61-1.85-1.45-1.11z" fill="#e9c342" fill-rule="evenodd"/><path d="M98.6 111.37l-2.37 1.68 2.35-3.1z" fill="url(#i)" transform="matrix(.6681 0 0 .71366 18.08 24.42)"/><path d="M98.58 109.96l-1.43.5-2.17-1.57z" fill="url(#j)" transform="matrix(.6681 0 0 .71366 18.08 24.42)"/><path d="M98.58 109.96l-.9-1.09.9-2.47z" fill="url(#k)" transform="matrix(.6681 0 0 .71366 18.08 24.42)"/><path d="M99.5 108.88h2.6l-3.52 1.08z" fill="url(#l)" transform="matrix(.6681 0 0 .71366 18.08 24.42)"/><path d="M100.06 110.43l.96 2.61-2.44-3.08z" fill="url(#m)" transform="matrix(.6681 0 0 .71366 18.08 24.42)"/></g><circle r="0.38980919" cy="102.89059" cx="83.926277" fill="none" stroke="#ff001c" stroke-width=".27871493"/><g><path d="M83.6 98.69l.33-1 .34 1h.97l-.76.62.35 1.03-.9-.66-.87.66.34-1.02-.8-.62z" fill="#e9c342" fill-rule="evenodd"/><path d="M98.6 111.37l-2.37 1.68 2.35-3.1z" fill="url(#n)" transform="matrix(.37117 0 0 .39648 47.34 55.52)"/><path d="M98.58 109.96l-1.43.5-2.17-1.57z" fill="url(#o)" transform="matrix(.37117 0 0 .39648 47.34 55.52)"/><path d="M98.58 109.96l-.9-1.09.9-2.47z" fill="url(#p)" transform="matrix(.37117 0 0 .39648 47.34 55.52)"/><path d="M99.5 108.88h2.6l-3.52 1.08z" fill="url(#q)" transform="matrix(.37117 0 0 .39648 47.34 55.52)"/><path d="M100.06 110.43l.96 2.61-2.44-3.08z" fill="url(#r)" transform="matrix(.37117 0 0 .39648 47.34 55.52)"/></g><path d="M82.9 97.82l.12-.33.12.33h.33l-.26.2.12.35-.3-.22-.3.22.11-.34-.27-.2zM84.73 97.82l.12-.33.11.33h.33l-.26.2.12.35-.3-.22-.3.22.12-.34-.28-.2z" fill="#e9c342" fill-rule="evenodd"/></g></svg>