<svg xmlns="http://www.w3.org/2000/svg" xmlns:xlink="http://www.w3.org/1999/xlink" viewBox="0 0 4.9863043 8.5320432"><defs><linearGradient xlink:href="#a" id="b" x1="113.52195" y1="72.117393" x2="120.65036" y2="72.117393" gradientUnits="userSpaceOnUse"/><linearGradient y2="122.2001" x2="60.4986" y1="-0.50340003" x1="39.3325" gradientUnits="userSpaceOnUse" id="a"><stop offset="0" stop-color="#fff"/><stop offset="0.4011"/><stop offset="0.7637" stop-color="#fff"/><stop offset="0.8352"/><stop offset="0.9121" stop-color="#fff"/><stop offset="0.978"/></linearGradient><linearGradient xlink:href="#a" id="c" gradientUnits="userSpaceOnUse" x1="113.52195" y1="72.117393" x2="120.65036" y2="72.117393"/><linearGradient xlink:href="#a" id="d" gradientUnits="userSpaceOnUse" x1="113.52195" y1="72.117393" x2="120.65036" y2="72.117393"/><linearGradient xlink:href="#a" id="e" gradientUnits="userSpaceOnUse" x1="113.52195" y1="72.117393" x2="120.65036" y2="72.117393"/><linearGradient xlink:href="#a" id="f" gradientUnits="userSpaceOnUse" x1="113.52195" y1="72.117393" x2="120.65036" y2="72.117393"/><linearGradient xlink:href="#a" id="g" gradientUnits="userSpaceOnUse" x1="113.52195" y1="72.117393" x2="120.65036" y2="72.117393"/></defs><g transform="translate(-81.42 -97)"><path fill="#ff0" fill-rule="evenodd" d="M81.89 97h4.05v3.7H81.9z"/><path fill="#333" fill-rule="evenodd" stroke="#5900fb" stroke-width=".00227505" d="M82.45 97.14h2.91v3.39h-2.91z"/><path d="M81.9 97h4.03c.02 0 .03.01.03.02v.2H81.87v-.2l.03-.01zM81.9 100.49H85.96v.21l-.03.01H81.87v-.21l.03-.01z" fill="#96a09f"/><path d="M85.39 100.87l-2.97.01-.9 2.83 2.4 1.74 2.4-1.76z" fill="#b8c6c5" fill-rule="evenodd" stroke="#3d4948" stroke-width=".15213542"/><circle r="1.932687" cy="102.87914" cx="83.914841" fill="#888c8c" fill-rule="evenodd" stroke="#304950" stroke-width=".05053542"/><g><path d="M83.4 102.2l.54-1.59.54 1.6h1.55l-1.21.97.56 1.67-1.44-1.07-1.4 1.07.55-1.65-1.3-.99z" fill="#b2aea5" fill-rule="evenodd"/><g transform="matrix(.59387 0 0 .63437 14.38 56.99)" fill="url(#b)"><path d="M117.13 73.76l-2.36 1.68 2.36-3.09z" fill="url(#c)"/><path d="M117.12 72.35l-1.43.5-2.17-1.57z" fill="url(#d)"/><path d="M117.12 72.35l-.9-1.08.9-2.48z" fill="url(#e)"/><path d="M118.04 71.27l2.61.01-3.52 1.07z" fill="url(#f)"/><path d="M118.6 72.82l.96 2.62-2.43-3.09z" fill="url(#g)"/></g></g><circle r="0.38980919" cy="102.89059" cx="83.914841" fill="none" stroke="#ff001c" stroke-width=".27871493"/></g></svg>