<svg xmlns="http://www.w3.org/2000/svg" viewBox="0 0 5.1064592 8.6095102"><g transform="translate(-81.4 -97.03)"><path fill="#40a" fill-rule="evenodd" d="M81.663 97.03h4.58v3.696h-4.58z"/><path fill="#1a1a1a" fill-rule="evenodd" stroke="#5900fb" stroke-width=".00184747" d="M82.99 97.165h1.925v3.385h-1.924z"/><path d="M81.675 97.03h4.556c.018 0 .032.004.032.01v.2c0 .006-.014.01-.032.01h-4.556c-.018 0-.032-.004-.032-.01v-.2c0-.006.014-.01.032-.01zM81.675 100.51h4.556c.018 0 .032.004.032.008v.208c0 .005-.014.009-.032.009h-4.556c-.018 0-.032-.005-.032-.01v-.207c0-.005.014-.009.032-.009z" fill="#fae742"/><path d="M81.44 103.075a2.514 2.514 0 0 0 0 .01 2.514 2.514 0 0 0 2.513 2.514 2.514 2.514 0 0 0 2.514-2.513 2.514 2.514 0 0 0-.001-.01z" fill="#fc0" fill-rule="evenodd" stroke="#413e14" stroke-width=".079375"/><circle r="2.2489579" cy="103.05929" cx="83.953011" fill="#00002b" fill-rule="evenodd"/><g fill="#ecc025" fill-rule="evenodd"><path d="M83.632 103.031l.304 1.92.338-1.92zM83.632 103.031l.304-1.92.338 1.92z"/></g><g fill="#ecc025" fill-rule="evenodd"><path d="M82.96 102.908l-.67.123.67.138zM82.96 102.908l.672.123-.671.138z"/><g><path d="M84.945 102.908l-.67.123.67.138zM84.945 102.908l.671.123-.67.138z"/></g></g></g></svg>