<svg xmlns="http://www.w3.org/2000/svg" viewBox="0 0 5.1064592 8.6095102"><g transform="translate(-81.4 -97.03)"><path fill="#40a" fill-rule="evenodd" d="M81.663 97.03h4.58v3.696h-4.58z"/><path fill="#1a1a1a" fill-rule="evenodd" stroke="#5900fb" stroke-width=".00184747" d="M82.99 97.165h1.925v3.385h-1.924z"/><path d="M81.675 97.03h4.556c.018 0 .032.004.032.01v.2c0 .006-.014.01-.032.01h-4.556c-.018 0-.032-.004-.032-.01v-.2c0-.006.014-.01.032-.01zM81.675 100.51h4.556c.018 0 .032.004.032.008v.208c0 .005-.014.009-.032.009h-4.556c-.018 0-.032-.005-.032-.01v-.207c0-.005.014-.009.032-.009z" fill="#fae742"/><path d="M81.44 103.075a2.514 2.514 0 0 0 0 .01 2.514 2.514 0 0 0 2.513 2.514 2.514 2.514 0 0 0 2.514-2.513 2.514 2.514 0 0 0-.001-.01z" fill="#fc0" fill-rule="evenodd" stroke="#413e14" stroke-width=".079375"/><circle r="2.2489579" cy="103.05929" cx="83.953011" fill="#00002b" fill-rule="evenodd"/><path d="M83.964 105.04c-.05 0-.32-1.58-.356-1.614-.035-.035-1.618-.289-1.618-.338 0-.05 1.58-.321 1.614-.356.035-.036.289-1.618.338-1.618.05 0 .32 1.579.356 1.614.035.035 1.618.288 1.618.338 0 .05-1.58.32-1.614.356-.035.035-.289 1.617-.338 1.617z" fill="#f9d43b" fill-rule="evenodd"/><path d="M83.957 103.87c-.02 0-.13-.638-.144-.652-.014-.014-.654-.117-.654-.137 0-.02.639-.13.653-.144.014-.014.117-.654.137-.654.02 0 .13.638.144.652.014.015.654.117.654.137 0 .02-.639.13-.653.144-.014.014-.117.654-.137.654z" fill="#d4aa00" fill-rule="evenodd"/><path d="M83.958 99.772c-.023 0-.151-.745-.168-.762-.016-.016-.763-.136-.763-.16 0-.023.745-.15.761-.167.017-.017.136-.763.16-.763.023 0 .151.745.168.761.016.016.763.136.763.16 0 .023-.745.15-.761.167-.017.017-.136.764-.16.764z" fill="#fc0" fill-rule="evenodd"/><path d="M85.612 98.502c-.014 0-.087-.425-.096-.435-.01-.009-.436-.077-.436-.09 0-.014.425-.087.435-.097.01-.01.078-.436.091-.436.013 0 .086.426.096.435.01.01.436.078.436.091 0 .014-.426.087-.435.096-.01.01-.078.436-.091.436zM82.33 100.29c-.014 0-.087-.425-.096-.434-.01-.01-.436-.078-.436-.091 0-.014.425-.087.435-.096.009-.01.077-.436.09-.437.014 0 .087.426.097.436.01.009.436.077.436.09 0 .014-.426.087-.435.097-.01.01-.078.436-.091.436z" fill="#e9ddaf" fill-rule="evenodd"/></g></svg>