<svg xmlns="http://www.w3.org/2000/svg" xmlns:xlink="http://www.w3.org/1999/xlink" viewBox="0 0 5.0270832 8.4729233"><defs><linearGradient id="a" gradientUnits="userSpaceOnUse" x1="35.016602" y1="38.228001" x2="61.959" y2="38.228001"><stop offset="0.0056" stop-color="#401617"/><stop offset="0.0843" stop-color="#6b4c2d"/><stop offset="0.382" stop-color="#a58a55"/><stop offset="0.5618" stop-color="#e5d4b5"/><stop offset="0.8034" stop-color="#967858"/><stop offset="0.9551" stop-color="#814f2f"/></linearGradient><linearGradient id="b" gradientUnits="userSpaceOnUse" x1="-173.53709" y1="-135.2617" x2="-170.9126" y2="-135.2617" gradientTransform="matrix(3.4032 0 0 -3.4032 630.313 -415.317)"><stop offset="0.0056" stop-color="#401617"/><stop offset="0.0843" stop-color="#6b4c2d"/><stop offset="0.382" stop-color="#a58a55"/><stop offset="0.5618" stop-color="#e5d4b5"/><stop offset="0.8034" stop-color="#967858"/><stop offset="0.9551" stop-color="#814f2f"/></linearGradient><linearGradient id="c" gradientUnits="userSpaceOnUse" x1="-174.9248" y1="-133.22749" x2="-170.92329" y2="-133.22749" gradientTransform="matrix(3.4032 0 0 -3.4032 630.313 -415.317)"><stop offset="0.0056" stop-color="#401617"/><stop offset="0.0843" stop-color="#6b4c2d"/><stop offset="0.382" stop-color="#a58a55"/><stop offset="0.5618" stop-color="#e5d4b5"/><stop offset="0.8034" stop-color="#967858"/><stop offset="0.9551" stop-color="#814f2f"/></linearGradient><linearGradient id="d" gradientUnits="userSpaceOnUse" x1="-27.0986" y1="-305.35941" x2="-23.3076" y2="-305.35941" gradientTransform="matrix(.9682 3.2625 3.2625 -.9682 1068.258 -180.68)"><stop offset="0.0056" stop-color="#401617"/><stop offset="0.0843" stop-color="#6b4c2d"/><stop offset="0.382" stop-color="#a58a55"/><stop offset="0.5618" stop-color="#e5d4b5"/><stop offset="0.8034" stop-color="#967858"/><stop offset="0.9551" stop-color="#814f2f"/></linearGradient><linearGradient id="e" gradientUnits="userSpaceOnUse" x1="-170.92329" y1="-132.9473" x2="-167.0078" y2="-132.9473" gradientTransform="matrix(3.4032 0 0 -3.4032 630.313 -415.317)"><stop offset="0.0056" stop-color="#401617"/><stop offset="0.0843" stop-color="#6b4c2d"/><stop offset="0.382" stop-color="#a58a55"/><stop offset="0.5618" stop-color="#e5d4b5"/><stop offset="0.8034" stop-color="#967858"/><stop offset="0.9551" stop-color="#814f2f"/></linearGradient><linearGradient id="f" gradientUnits="userSpaceOnUse" x1="-170.92329" y1="-135.2607" x2="-168.21831" y2="-135.2607" gradientTransform="matrix(3.4032 0 0 -3.4032 630.313 -415.317)"><stop offset="0.0056" stop-color="#401617"/><stop offset="0.0843" stop-color="#6b4c2d"/><stop offset="0.382" stop-color="#a58a55"/><stop offset="0.5618" stop-color="#e5d4b5"/><stop offset="0.8034" stop-color="#967858"/><stop offset="0.9551" stop-color="#814f2f"/></linearGradient><linearGradient xlink:href="#a" id="g" gradientUnits="userSpaceOnUse" x1="35.016602" y1="38.228001" x2="61.959" y2="38.228001"/><linearGradient xlink:href="#b" id="h" gradientUnits="userSpaceOnUse" gradientTransform="matrix(3.4032 0 0 -3.4032 630.313 -415.317)" x1="-173.53709" y1="-135.2617" x2="-170.9126" y2="-135.2617"/><linearGradient xlink:href="#c" id="i" gradientUnits="userSpaceOnUse" gradientTransform="matrix(3.4032 0 0 -3.4032 630.313 -415.317)" x1="-174.9248" y1="-133.22749" x2="-170.92329" y2="-133.22749"/><linearGradient xlink:href="#d" id="j" gradientUnits="userSpaceOnUse" gradientTransform="matrix(.9682 3.2625 3.2625 -.9682 1068.258 -180.68)" x1="-27.0986" y1="-305.35941" x2="-23.3076" y2="-305.35941"/><linearGradient xlink:href="#e" id="k" gradientUnits="userSpaceOnUse" gradientTransform="matrix(3.4032 0 0 -3.4032 630.313 -415.317)" x1="-170.92329" y1="-132.9473" x2="-167.0078" y2="-132.9473"/><linearGradient xlink:href="#f" id="l" gradientUnits="userSpaceOnUse" gradientTransform="matrix(3.4032 0 0 -3.4032 630.313 -415.317)" x1="-170.92329" y1="-135.2607" x2="-168.21831" y2="-135.2607"/><linearGradient xlink:href="#a" id="m" gradientUnits="userSpaceOnUse" x1="35.016602" y1="38.228001" x2="61.959" y2="38.228001"/><linearGradient xlink:href="#b" id="n" gradientUnits="userSpaceOnUse" gradientTransform="matrix(3.4032 0 0 -3.4032 630.313 -415.317)" x1="-173.53709" y1="-135.2617" x2="-170.9126" y2="-135.2617"/><linearGradient xlink:href="#c" id="o" gradientUnits="userSpaceOnUse" gradientTransform="matrix(3.4032 0 0 -3.4032 630.313 -415.317)" x1="-174.9248" y1="-133.22749" x2="-170.92329" y2="-133.22749"/><linearGradient xlink:href="#d" id="p" gradientUnits="userSpaceOnUse" gradientTransform="matrix(.9682 3.2625 3.2625 -.9682 1068.258 -180.68)" x1="-27.0986" y1="-305.35941" x2="-23.3076" y2="-305.35941"/><linearGradient xlink:href="#e" id="q" gradientUnits="userSpaceOnUse" gradientTransform="matrix(3.4032 0 0 -3.4032 630.313 -415.317)" x1="-170.92329" y1="-132.9473" x2="-167.0078" y2="-132.9473"/><linearGradient xlink:href="#f" id="r" gradientUnits="userSpaceOnUse" gradientTransform="matrix(3.4032 0 0 -3.4032 630.313 -415.317)" x1="-170.92329" y1="-135.2607" x2="-168.21831" y2="-135.2607"/></defs><path d="M2.514 3.637V.14" fill="none" stroke="#4f4e26" stroke-width=".00238833"/><g stroke="#4f4e26" stroke-width=".00012108" stroke-linecap="round" stroke-linejoin="round"><path d="M2.527 1.803V.078l1.17.004c.642.002 1.17.007 1.173.01.003.004 0 .555-.008 1.226l-.012 1.22-.027.02-.722.495-.694.475h-.88z" fill="#f4e3d7"/><path d="M.971 3.05l-.815-.486.003-.126.02-1.208C.19.635.2.13.205.107L.21.066h.999c.55 0 1.07.004 1.158.008l.16.008v3.457h-.37l-.37-.001z" fill="#1a1a1a"/></g><path d="M.138.01h4.75c.02 0 .034.004.034.01v.201c0 .005-.014.01-.033.01H.139C.118.231.104.227.104.221v-.2C.105.014.12.01.138.01z" fill="#edc21f" stroke="#ac8800" stroke-width=".02090442" stroke-linecap="square"/><g transform="translate(-120.306 -189.241) scale(1.07005)" fill="#1a1a1a"><circle cx="114.77927" cy="182.69473" r="1.3229163"/><g transform="translate(9.72 .193)" fill-rule="evenodd"><rect ry="0.14754963" y="180.10335" x="104.51398" height="1.5966177" width="1.086509"/><rect transform="rotate(-71.842)" ry="0.13561165" y="154.35257" x="-141.15459" height="1.5966177" width="1.086509"/><rect transform="scale(-1 1) rotate(-71.842)" ry="0.16528633" y="-45.310749" x="-206.64029" height="1.5966177" width="1.086509"/><rect transform="rotate(-143.956)" ry="0.16370632" y="-88.028336" x="-192.83008" height="1.5966177" width="1.086509"/><rect transform="scale(1 -1) rotate(36.044)" ry="0.1715989" y="-211.66788" x="-22.939228" height="1.5966177" width="1.086509"/></g></g><g stroke="#8b5d3b" stroke-width=".1"><path d="M45.233 35.069l3.414-9.452 3.43 9.467 9.882.038-7.739 5.809 3.621 9.897-9.17-6.342-8.932 6.352 3.476-9.806-8.198-5.91z" fill="url(#g)" transform="matrix(.0536 0 0 .0564 -1.402 -.969)"/><path d="M48.671 44.487l-8.932 6.352 8.896-11.676z" fill="url(#h)" transform="matrix(.0536 0 0 .0564 -1.402 -.969)"/><path d="M48.634 39.163l-5.419 1.87-8.198-5.91z" fill="url(#i)" transform="matrix(.0536 0 0 .0564 -1.402 -.969)"/><path d="M48.634 39.164l-3.428-4.109 3.408-9.344z" fill="url(#j)" transform="matrix(.0536 0 0 .0564 -1.402 -.969)"/><path d="M52.077 35.084l9.882.038-13.324 4.041z" fill="url(#k)" transform="matrix(.0536 0 0 .0564 -1.402 -.969)"/><path d="M54.22 40.932l3.621 9.897-9.206-11.665z" fill="url(#l)" transform="matrix(.0536 0 0 .0564 -1.402 -.969)"/><g><path d="M45.233 35.069l3.414-9.452 3.43 9.467 9.882.038-7.739 5.809 3.621 9.897-9.17-6.342-8.932 6.352 3.476-9.806-8.198-5.91z" fill="url(#m)" transform="matrix(.0536 0 0 .0564 1.231 -.969)"/><path d="M48.671 44.487l-8.932 6.352 8.896-11.676z" fill="url(#n)" transform="matrix(.0536 0 0 .0564 1.231 -.969)"/><path d="M48.634 39.163l-5.419 1.87-8.198-5.91z" fill="url(#o)" transform="matrix(.0536 0 0 .0564 1.231 -.969)"/><path d="M48.634 39.164l-3.428-4.109 3.408-9.344z" fill="url(#p)" transform="matrix(.0536 0 0 .0564 1.231 -.969)"/><path d="M52.077 35.084l9.882.038-13.324 4.041z" fill="url(#q)" transform="matrix(.0536 0 0 .0564 1.231 -.969)"/><path d="M54.22 40.932l3.621 9.897-9.206-11.665z" fill="url(#r)" transform="matrix(.0536 0 0 .0564 1.231 -.969)"/></g></g><path d="M1.495 5.182l.403.441c.006-.016.01-.037.018-.044.023-.025.088-.044.17-.058zm2.027 0l-.6.336c.07.012.127.029.148.05.011.012.02.039.03.07zm-.938 1.713a3.587 3.587 0 0 1-.147.003l.071.735z" fill="#e1b420"/><path transform="matrix(.72235 0 0 .7778 -76.863 -136.495)" d="M110.683 184.284c-.146.148-1.448.159-1.596.013-.148-.145-.16-1.448-.014-1.596.146-.148 1.449-.159 1.597-.013.147.145.158 1.448.013 1.596z" fill="none" stroke="#ebd235" stroke-width=".21166667"/></svg>