<svg xmlns="http://www.w3.org/2000/svg" xmlns:xlink="http://www.w3.org/1999/xlink" viewBox="0 0 5.0270832 8.4729233"><defs><linearGradient xlink:href="#a" id="b" x1="113.52195" y1="72.117393" x2="120.65036" y2="72.117393" gradientUnits="userSpaceOnUse"/><linearGradient y2="122.2001" x2="60.4986" y1="-0.50340003" x1="39.3325" gradientUnits="userSpaceOnUse" id="a"><stop offset="0" stop-color="#fff"/><stop offset="0.4011"/><stop offset="0.7637" stop-color="#fff"/><stop offset="0.8352"/><stop offset="0.9121" stop-color="#fff"/><stop offset="0.978"/></linearGradient><linearGradient xlink:href="#a" id="c" gradientUnits="userSpaceOnUse" x1="113.52195" y1="72.117393" x2="120.65036" y2="72.117393"/><linearGradient xlink:href="#a" id="d" gradientUnits="userSpaceOnUse" x1="113.52195" y1="72.117393" x2="120.65036" y2="72.117393"/><linearGradient xlink:href="#a" id="e" gradientUnits="userSpaceOnUse" x1="113.52195" y1="72.117393" x2="120.65036" y2="72.117393"/><linearGradient xlink:href="#a" id="f" gradientUnits="userSpaceOnUse" x1="113.52195" y1="72.117393" x2="120.65036" y2="72.117393"/><linearGradient xlink:href="#a" id="g" gradientUnits="userSpaceOnUse" x1="113.52195" y1="72.117393" x2="120.65036" y2="72.117393"/></defs><path d="M2.514 3.637V.14" fill="none" stroke="#4f4e26" stroke-width=".00238833"/><g stroke="#4f4e26" stroke-width=".00012108" stroke-linecap="round" stroke-linejoin="round"><path d="M2.527 1.803V.078l1.17.004c.642.002 1.17.007 1.173.01.003.004 0 .555-.008 1.226l-.012 1.22-.027.02-.722.495-.694.475h-.88z" fill="#f4e3d7"/><path d="M.971 3.05l-.815-.486.003-.126.02-1.208C.19.635.2.13.205.107L.21.066h.999c.55 0 1.07.004 1.158.008l.16.008v3.457h-.37l-.37-.001z" fill="#1a1a1a"/></g><path d="M.138.01h4.75c.02 0 .034.004.034.01v.201c0 .005-.014.01-.033.01H.139C.118.231.104.227.104.221v-.2C.105.014.12.01.138.01z" fill="#edc21f" stroke="#ac8800" stroke-width=".02090442" stroke-linecap="square"/><g transform="translate(-120.306 -189.241) scale(1.07005)" fill="#1a1a1a"><circle cx="114.77927" cy="182.69473" r="1.3229163"/><g transform="translate(9.72 .193)" fill-rule="evenodd"><rect ry="0.14754963" y="180.10335" x="104.51398" height="1.5966177" width="1.086509"/><rect transform="rotate(-71.842)" ry="0.13561165" y="154.35257" x="-141.15459" height="1.5966177" width="1.086509"/><rect transform="scale(-1 1) rotate(-71.842)" ry="0.16528633" y="-45.310749" x="-206.64029" height="1.5966177" width="1.086509"/><rect transform="rotate(-143.956)" ry="0.16370632" y="-88.028336" x="-192.83008" height="1.5966177" width="1.086509"/><rect transform="scale(1 -1) rotate(36.044)" ry="0.1715989" y="-211.66788" x="-22.939228" height="1.5966177" width="1.086509"/></g></g><path d="M1.495 5.182l.403.441c.006-.016.01-.037.018-.044.023-.025.088-.044.17-.058zm2.027 0l-.6.336c.07.012.127.029.148.05.011.012.02.039.03.07zm-.938 1.713a3.587 3.587 0 0 1-.147.003l.071.735z" fill="#e1b420"/><path transform="matrix(.72235 0 0 .7778 -76.863 -136.495)" d="M110.683 184.284c-.146.148-1.448.159-1.596.013-.148-.145-.16-1.448-.014-1.596.146-.148 1.449-.159 1.597-.013.147.145.158 1.448.013 1.596z" fill="none" stroke="#ebd235" stroke-width=".21166667"/><path d="M2.237 1.485l.285-.922.286.923.825.004-.646.567.302.965-.765-.619-.746.62.29-.957-.684-.576z" fill="#b2aea5" fill-rule="evenodd"/><g transform="matrix(.3155 0 0 .36873 -34.431 -24.794)" fill="url(#b)"><path d="M117.135 73.761l-2.364 1.68 2.354-3.089z" fill="url(#c)"/><path d="M117.125 72.352l-1.434.495-2.169-1.564z" fill="url(#d)"/><path d="M117.125 72.353l-.907-1.088.901-2.472z" fill="url(#e)"/><path d="M118.036 71.273l2.614.01-3.525 1.07z" fill="url(#f)"/><path d="M118.603 72.82l.958 2.619-2.436-3.086z" fill="url(#g)"/></g></svg>