<svg xmlns="http://www.w3.org/2000/svg" xmlns:xlink="http://www.w3.org/1999/xlink" viewBox="0 0 5.2797699 8.6427335"><defs><linearGradient xlink:href="#a" id="b" x1="113.52195" y1="72.117393" x2="120.65036" y2="72.117393" gradientUnits="userSpaceOnUse"/><linearGradient y2="122.2001" x2="60.4986" y1="-0.50340003" x1="39.3325" gradientUnits="userSpaceOnUse" id="a"><stop offset="0" stop-color="#fff"/><stop offset="0.4011"/><stop offset="0.7637" stop-color="#fff"/><stop offset="0.8352"/><stop offset="0.9121" stop-color="#fff"/><stop offset="0.978"/></linearGradient><linearGradient xlink:href="#a" id="c" gradientUnits="userSpaceOnUse" x1="113.52195" y1="72.117393" x2="120.65036" y2="72.117393"/><linearGradient xlink:href="#a" id="d" gradientUnits="userSpaceOnUse" x1="113.52195" y1="72.117393" x2="120.65036" y2="72.117393"/><linearGradient xlink:href="#a" id="e" gradientUnits="userSpaceOnUse" x1="113.52195" y1="72.117393" x2="120.65036" y2="72.117393"/><linearGradient xlink:href="#a" id="f" gradientUnits="userSpaceOnUse" x1="113.52195" y1="72.117393" x2="120.65036" y2="72.117393"/><linearGradient xlink:href="#a" id="g" gradientUnits="userSpaceOnUse" x1="113.52195" y1="72.117393" x2="120.65036" y2="72.117393"/></defs><path d="M2.65 3.98s-1.43.97-1.9 1.67C.34 6.28 0 7.8 0 7.8s1.72.84 2.64.84c.92 0 2.64-.83 2.64-.83s-.38-1.53-.81-2.16c-.46-.68-1.82-1.67-1.82-1.67z" fill="navy" fill-rule="evenodd"/><path d="M2.65 3.98L0 7.8h5.28z" fill="#fd5" fill-rule="evenodd"/><path d="M2.22 5.81l.45-1.42.45 1.42h1.3L3.4 6.7l.48 1.5-1.21-.96-1.18.95.46-1.47-1.08-.9z" fill="#00f" fill-rule="evenodd"/><path d="M2.3 5.94l.36-1.11L3 5.94h1l-.79.69.37 1.16-.93-.74-.91.74.35-1.15-.83-.7z" fill="#b2aea5" fill-rule="evenodd"/><g transform="matrix(.38521 0 0 .4437 -42.46 -25.68)" fill="url(#b)"><path d="M117.13 73.76l-2.36 1.68 2.36-3.09z" fill="url(#c)"/><path d="M117.12 72.35l-1.43.5-2.17-1.57z" fill="url(#d)"/><path d="M117.12 72.35l-.9-1.08.9-2.48z" fill="url(#e)"/><path d="M118.04 71.27l2.61.01-3.52 1.07z" fill="url(#f)"/><path d="M118.6 72.82l.96 2.62-2.43-3.09z" fill="url(#g)"/></g><g fill="#e9c342" fill-rule="evenodd"><path d="M1.7 8.02l.05-.14.04.14h.14l-.1.08.04.15-.12-.1-.12.1.05-.15-.11-.08zM2 8.25l.05-.14.05.14h.13l-.1.08.05.15-.13-.1-.12.1.05-.15-.1-.08zM3.49 8.02l.05-.14.04.14h.13l-.1.08.05.15-.12-.1-.12.1.04-.15-.1-.08z"/><path d="M3.2 8.25l.04-.14.04.14h.14l-.1.08.04.15-.12-.1-.12.1.05-.15-.11-.08z"/></g><g><g fill-rule="evenodd"><path fill="#00f" d="M.06.02h5.16v3.86H.06z"/><path d="M2.64.05L.08 3.88H5.2z" fill="#fff6d5"/></g><path d="M.06 3.7h5.16l.04.01v.22H.02V3.7l.04-.01zM.06 0h5.2v.14H.02V0L.06 0z" fill="#e0b944"/></g></svg>