<svg xmlns="http://www.w3.org/2000/svg" viewBox="0 0 5.0270832 8.4729233"><defs><linearGradient id="a" gradientUnits="userSpaceOnUse" x1="35.016602" y1="38.228001" x2="61.959" y2="38.228001"><stop offset="0.0056" stop-color="#401617"/><stop offset="0.0843" stop-color="#6b4c2d"/><stop offset="0.382" stop-color="#a58a55"/><stop offset="0.5618" stop-color="#e5d4b5"/><stop offset="0.8034" stop-color="#967858"/><stop offset="0.9551" stop-color="#814f2f"/></linearGradient><linearGradient id="b" gradientUnits="userSpaceOnUse" x1="-173.53709" y1="-135.2617" x2="-170.9126" y2="-135.2617" gradientTransform="matrix(3.4032 0 0 -3.4032 630.31 -415.32)"><stop offset="0.0056" stop-color="#401617"/><stop offset="0.0843" stop-color="#6b4c2d"/><stop offset="0.382" stop-color="#a58a55"/><stop offset="0.5618" stop-color="#e5d4b5"/><stop offset="0.8034" stop-color="#967858"/><stop offset="0.9551" stop-color="#814f2f"/></linearGradient><linearGradient id="c" gradientUnits="userSpaceOnUse" x1="-174.9248" y1="-133.22749" x2="-170.92329" y2="-133.22749" gradientTransform="matrix(3.4032 0 0 -3.4032 630.31 -415.32)"><stop offset="0.0056" stop-color="#401617"/><stop offset="0.0843" stop-color="#6b4c2d"/><stop offset="0.382" stop-color="#a58a55"/><stop offset="0.5618" stop-color="#e5d4b5"/><stop offset="0.8034" stop-color="#967858"/><stop offset="0.9551" stop-color="#814f2f"/></linearGradient><linearGradient id="d" gradientUnits="userSpaceOnUse" x1="-27.0986" y1="-305.35941" x2="-23.3076" y2="-305.35941" gradientTransform="matrix(.9682 3.2625 3.2625 -.9682 1068.26 -180.68)"><stop offset="0.0056" stop-color="#401617"/><stop offset="0.0843" stop-color="#6b4c2d"/><stop offset="0.382" stop-color="#a58a55"/><stop offset="0.5618" stop-color="#e5d4b5"/><stop offset="0.8034" stop-color="#967858"/><stop offset="0.9551" stop-color="#814f2f"/></linearGradient><linearGradient id="e" gradientUnits="userSpaceOnUse" x1="-170.92329" y1="-132.9473" x2="-167.0078" y2="-132.9473" gradientTransform="matrix(3.4032 0 0 -3.4032 630.31 -415.32)"><stop offset="0.0056" stop-color="#401617"/><stop offset="0.0843" stop-color="#6b4c2d"/><stop offset="0.382" stop-color="#a58a55"/><stop offset="0.5618" stop-color="#e5d4b5"/><stop offset="0.8034" stop-color="#967858"/><stop offset="0.9551" stop-color="#814f2f"/></linearGradient><linearGradient id="f" gradientUnits="userSpaceOnUse" x1="-170.92329" y1="-135.2607" x2="-168.21831" y2="-135.2607" gradientTransform="matrix(3.4032 0 0 -3.4032 630.31 -415.32)"><stop offset="0.0056" stop-color="#401617"/><stop offset="0.0843" stop-color="#6b4c2d"/><stop offset="0.382" stop-color="#a58a55"/><stop offset="0.5618" stop-color="#e5d4b5"/><stop offset="0.8034" stop-color="#967858"/><stop offset="0.9551" stop-color="#814f2f"/></linearGradient></defs><path d="M2.51 3.64V.14" fill="none" stroke="#4f4e26" stroke-width=".00238833"/><g stroke="#4f4e26" stroke-width=".00012108" stroke-linecap="round" stroke-linejoin="round"><path d="M2.53 1.8V.08H3.7L4.87.1v1.23l-.02 1.22-.03.02-.72.5-.7.47h-.87z" fill="#f4e3d7"/><path d="M.97 3.05l-.81-.49v-.12A348.43 348.43 0 0 0 .2.1L.21.07h2.16l.16.01v3.46h-.74z" fill="#1a1a1a"/></g><g stroke="#8b5d3b" stroke-width=".1"><path d="M45.23 35.07l3.42-9.45 3.43 9.46 9.88.04-7.74 5.81 3.62 9.9-9.17-6.34-8.93 6.35 3.47-9.8-8.2-5.92z" fill="url(#a)" transform="matrix(.08608 0 0 .09429 -1.66 -1.89)"/><path d="M48.67 44.49l-8.93 6.35 8.9-11.68z" fill="url(#b)" transform="matrix(.08608 0 0 .09429 -1.66 -1.89)"/><path d="M48.63 39.16l-5.42 1.87-8.2-5.9z" fill="url(#c)" transform="matrix(.08608 0 0 .09429 -1.66 -1.89)"/><path d="M48.63 39.16l-3.42-4.1 3.4-9.35z" fill="url(#d)" transform="matrix(.08608 0 0 .09429 -1.66 -1.89)"/><path d="M52.08 35.08l9.88.04-13.33 4.04z" fill="url(#e)" transform="matrix(.08608 0 0 .09429 -1.66 -1.89)"/><path d="M54.22 40.93l3.62 9.9-9.2-11.67z" fill="url(#f)" transform="matrix(.08608 0 0 .09429 -1.66 -1.89)"/></g><path d="M.14.01h4.75l.03.01v.2L4.9.23H.1V.01L.14.01z" fill="#edc21f" stroke="#ac8800" stroke-width=".02090442" stroke-linecap="square"/><g transform="translate(-120.3 -189.24) scale(1.07005)" fill="#1a1a1a"><circle r="1.3229163" cy="182.69473" cx="114.77927"/><g transform="translate(9.72 .2)" fill-rule="evenodd"><rect width="1.086509" height="1.5966177" x="104.51398" y="180.10335" ry="0.14754963"/><rect width="1.086509" height="1.5966177" x="-141.15459" y="154.35257" ry="0.13561165" transform="rotate(-71.84)"/><rect width="1.086509" height="1.5966177" x="-206.64029" y="-45.310749" ry="0.16528633" transform="scale(-1 1) rotate(-71.84)"/><rect width="1.086509" height="1.5966177" x="-192.83008" y="-88.028336" ry="0.16370632" transform="rotate(-143.96)"/><rect width="1.086509" height="1.5966177" x="-22.939228" y="-211.66788" ry="0.1715989" transform="scale(1 -1) rotate(36.04)"/></g></g><path d="M2.5 7.63l-.14-1.5-.87-.96 1 .58 1.03-.58-.86.93z" fill="#e1b420"/></svg>