<svg xmlns="http://www.w3.org/2000/svg" xmlns:xlink="http://www.w3.org/1999/xlink" viewBox="0 0 5.2797699 8.6640081"><defs><linearGradient y2="122.2001" x2="60.4986" y1="-0.50340003" x1="39.3325" gradientUnits="userSpaceOnUse" id="a"><stop offset="0" stop-color="#fff"/><stop offset="0.4011"/><stop offset="0.7637" stop-color="#fff"/><stop offset="0.8352"/><stop offset="0.9121" stop-color="#fff"/><stop offset="0.978"/></linearGradient><linearGradient xlink:href="#a" id="b" x1="113.52195" y1="72.117393" x2="120.65036" y2="72.117393" gradientUnits="userSpaceOnUse"/><linearGradient xlink:href="#a" id="c" gradientUnits="userSpaceOnUse" x1="113.52195" y1="72.117393" x2="120.65036" y2="72.117393"/><linearGradient xlink:href="#a" id="d" gradientUnits="userSpaceOnUse" x1="113.52195" y1="72.117393" x2="120.65036" y2="72.117393"/><linearGradient xlink:href="#a" id="e" gradientUnits="userSpaceOnUse" x1="113.52195" y1="72.117393" x2="120.65036" y2="72.117393"/><linearGradient xlink:href="#a" id="f" gradientUnits="userSpaceOnUse" x1="113.52195" y1="72.117393" x2="120.65036" y2="72.117393"/><linearGradient xlink:href="#a" id="g" gradientUnits="userSpaceOnUse" x1="113.52195" y1="72.117393" x2="120.65036" y2="72.117393"/></defs><g fill-rule="evenodd"><path fill="#00f" d="M.06.02h5.16v3.86H.06z"/><path d="M2.64.05L.08 3.88H5.2z" fill="#fff6d5"/></g><path d="M.06 3.7h5.16l.04.01v.22H.02V3.7l.04-.01zM.06 0h5.2v.14H.02V0L.06 0z" fill="#e0b944"/><g><path d="M2.65 4s-1.43.97-1.9 1.67C.34 6.3 0 7.82 0 7.82s1.72.84 2.64.84c.92 0 2.64-.83 2.64-.83S4.9 6.3 4.47 5.67C4.01 4.99 2.65 4 2.65 4z" fill="navy" fill-rule="evenodd"/><path d="M2.65 4L0 7.83h5.28z" fill="#fd5" fill-rule="evenodd"/><g fill="#e9c342" fill-rule="evenodd"><path d="M1.7 8.04l.05-.14.04.14h.14l-.1.08.04.15-.12-.1-.12.1.05-.15-.11-.08zM2 8.27l.05-.14.05.14h.13l-.1.08.05.15-.13-.1-.12.1.05-.14-.1-.1zM3.49 8.04l.05-.14.04.14h.13l-.1.08.05.15-.12-.1-.12.1.04-.15-.1-.08z"/><path d="M3.2 8.27l.04-.14.04.14h.14l-.1.08.04.15-.12-.1-.12.1.05-.14-.11-.1z"/></g><path d="M2.14 5.46l.52-1.65.53 1.65h1.5L3.52 6.49l.56 1.73-1.4-1.1L1.3 8.2l.53-1.71L.58 5.47z" fill="#00f" fill-rule="evenodd"/><path d="M2.25 5.61l.4-1.28.4 1.28h1.17l-.91.8.43 1.34-1.08-.86-1.06.86.41-1.33-.97-.8z" fill="#b2aea5" fill-rule="evenodd"/><g transform="matrix(.44593 0 0 .51365 -49.58 -31)" fill="url(#b)"><path d="M117.13 73.76l-2.36 1.68 2.36-3.09z" fill="url(#c)"/><path d="M117.12 72.35l-1.43.5-2.17-1.57z" fill="url(#d)"/><path d="M117.12 72.35l-.9-1.08.9-2.48z" fill="url(#e)"/><path d="M118.04 71.27l2.61.01-3.52 1.07z" fill="url(#f)"/><path d="M118.6 72.82l.96 2.62-2.43-3.09z" fill="url(#g)"/></g><g fill-rule="evenodd"><path d="M2.5 3.61l.15-.42.14.42h.4l-.32.26.15.44-.37-.28-.36.28.14-.43-.34-.27z" fill="#00f"/><path d="M2.58 3.73l.06-.18.06.18h.17l-.13.1.06.2-.16-.13-.15.12.06-.18-.14-.11z" fill="#fd5"/></g></g></svg>