<svg xmlns="http://www.w3.org/2000/svg" xmlns:xlink="http://www.w3.org/1999/xlink" viewBox="0 0 5.0270832 8.4729233"><defs><linearGradient xlink:href="#a" id="b" x1="113.52195" y1="72.117393" x2="120.65036" y2="72.117393" gradientUnits="userSpaceOnUse"/><linearGradient y2="122.2001" x2="60.4986" y1="-0.50340003" x1="39.3325" gradientUnits="userSpaceOnUse" id="a"><stop offset="0" stop-color="#fff"/><stop offset="0.4011"/><stop offset="0.7637" stop-color="#fff"/><stop offset="0.8352"/><stop offset="0.9121" stop-color="#fff"/><stop offset="0.978"/></linearGradient><linearGradient xlink:href="#a" id="c" gradientUnits="userSpaceOnUse" x1="113.52195" y1="72.117393" x2="120.65036" y2="72.117393"/><linearGradient xlink:href="#a" id="d" gradientUnits="userSpaceOnUse" x1="113.52195" y1="72.117393" x2="120.65036" y2="72.117393"/><linearGradient xlink:href="#a" id="e" gradientUnits="userSpaceOnUse" x1="113.52195" y1="72.117393" x2="120.65036" y2="72.117393"/><linearGradient xlink:href="#a" id="f" gradientUnits="userSpaceOnUse" x1="113.52195" y1="72.117393" x2="120.65036" y2="72.117393"/><linearGradient xlink:href="#a" id="g" gradientUnits="userSpaceOnUse" x1="113.52195" y1="72.117393" x2="120.65036" y2="72.117393"/><linearGradient xlink:href="#a" id="h" x1="113.52195" y1="72.117393" x2="120.65036" y2="72.117393" gradientUnits="userSpaceOnUse"/><linearGradient xlink:href="#a" id="i" gradientUnits="userSpaceOnUse" x1="113.52195" y1="72.117393" x2="120.65036" y2="72.117393"/><linearGradient xlink:href="#a" id="j" gradientUnits="userSpaceOnUse" x1="113.52195" y1="72.117393" x2="120.65036" y2="72.117393"/><linearGradient xlink:href="#a" id="k" gradientUnits="userSpaceOnUse" x1="113.52195" y1="72.117393" x2="120.65036" y2="72.117393"/><linearGradient xlink:href="#a" id="l" gradientUnits="userSpaceOnUse" x1="113.52195" y1="72.117393" x2="120.65036" y2="72.117393"/><linearGradient xlink:href="#a" id="m" gradientUnits="userSpaceOnUse" x1="113.52195" y1="72.117393" x2="120.65036" y2="72.117393"/></defs><g transform="translate(-107.37 -177.313)"><circle r="1.7197912" cy="183.55275" cx="109.88331" fill="#e1b420" fill-rule="evenodd"/><g transform="translate(-12.936 -11.928) scale(1.07005)" fill="#1a1a1a"><circle r="1.3229163" cy="182.69473" cx="114.77927"/><g transform="translate(9.72 .193)" fill-rule="evenodd"><rect width="1.086509" height="1.5966177" x="104.51398" y="180.10335" ry="0.14754963"/><rect width="1.086509" height="1.5966177" x="-141.15459" y="154.35257" ry="0.13561165" transform="rotate(-71.842)"/><rect width="1.086509" height="1.5966177" x="-206.64029" y="-45.310749" ry="0.16528633" transform="scale(-1 1) rotate(-71.842)"/><rect width="1.086509" height="1.5966177" x="-192.83008" y="-88.028336" ry="0.16370632" transform="rotate(-143.956)"/><rect width="1.086509" height="1.5966177" x="-22.939228" y="-211.66788" ry="0.1715989" transform="scale(1 -1) rotate(36.044)"/></g></g><path d="M108.865 182.495l.402.441c.006-.015.012-.036.019-.044.022-.025.088-.043.17-.058zm2.026 0l-.6.336c.07.013.128.029.148.05.012.012.021.04.03.07zm-.937 1.713a3.587 3.587 0 0 1-.147.003l.071.735z" fill="#e1b420"/><path d="M110.683 184.284c-.146.148-1.448.159-1.596.013-.148-.145-.16-1.448-.014-1.596.146-.148 1.449-.159 1.597-.013.147.145.158 1.448.013 1.596z" transform="matrix(.72235 0 0 .7778 30.507 40.818)" fill="none" stroke="#ebd235" stroke-width=".21166667"/><g><path d="M109.883 180.95v-3.498" fill="none" stroke="#4f4e26" stroke-width=".00238833"/><g stroke="#4f4e26" stroke-width=".00012108" stroke-linecap="round" stroke-linejoin="round"><path d="M109.896 179.116v-1.725l1.17.004c.643.002 1.172.007 1.174.01.003.004 0 .555-.008 1.226l-.013 1.22-.027.02-.72.495-.695.475h-.88z" fill="#f4e3d7"/><path d="M108.341 180.364l-.815-.487.003-.125.02-1.209c.01-.595.021-1.1.024-1.123l.006-.04h1c.55 0 1.07.003 1.158.007l.16.008v3.458l-.37-.001-.37-.001z" fill="#1a1a1a"/></g><path d="M107.508 177.324h4.75c.02 0 .034.004.034.01v.2c0 .005-.015.01-.033.01h-4.751c-.019 0-.034-.004-.034-.01v-.2c0-.005.015-.01.034-.01z" fill="#edc21f" stroke="#ac8800" stroke-width=".02090442" stroke-linecap="square"/><path d="M108.33 180.364l-.804-.487h1.165c.64 0 1.175.004 1.187.008.02.007.022.064.022.488v.479h-.382l-.383-.002z" fill="maroon" stroke="#4f4e26" stroke-width=".00279893" stroke-linecap="round" stroke-linejoin="round"/></g><g><path d="M108.43 178.357l.212-.646.213.647.612.003-.48.397.225.677-.569-.433-.553.434.215-.67-.508-.405z" fill="#b2aea5" fill-rule="evenodd"/><g transform="matrix(.23432 0 0 .25853 81.196 159.932)" fill="url(#b)"><path d="M117.135 73.761l-2.364 1.68 2.354-3.089z" fill="url(#c)"/><path d="M117.125 72.352l-1.434.495-2.169-1.564z" fill="url(#d)"/><path d="M117.125 72.353l-.907-1.088.901-2.472z" fill="url(#e)"/><path d="M118.036 71.273l2.614.01-3.525 1.07z" fill="url(#f)"/><path d="M118.603 72.82l.958 2.619-2.436-3.086z" fill="url(#g)"/></g><g><path d="M110.933 178.357l.211-.646.213.647.613.003-.48.397.224.677-.568-.433-.554.434.216-.67-.509-.405z" fill="#b2aea5" fill-rule="evenodd"/><g transform="matrix(.23432 0 0 .25853 83.698 159.932)" fill="url(#h)"><path d="M117.135 73.761l-2.364 1.68 2.354-3.089z" fill="url(#i)"/><path d="M117.125 72.352l-1.434.495-2.169-1.564z" fill="url(#j)"/><path d="M117.125 72.353l-.907-1.088.901-2.472z" fill="url(#k)"/><path d="M118.036 71.273l2.614.01-3.525 1.07z" fill="url(#l)"/><path d="M118.603 72.82l.958 2.619-2.436-3.086z" fill="url(#m)"/></g></g></g></g></svg>