<svg xmlns="http://www.w3.org/2000/svg" xmlns:xlink="http://www.w3.org/1999/xlink" viewBox="0 0 5.0270832 8.4729233"><defs><linearGradient xlink:href="#a" id="f" gradientUnits="userSpaceOnUse" x1="113.50485" y1="72.66468" x2="120.63326" y2="72.66468" gradientTransform="translate(-18.524 37.059)"/><radialGradient gradientUnits="userSpaceOnUse" r="29.031401" cy="106.3116" cx="48.0952" id="a"><stop offset="0.0056" stop-color="#fbc926"/><stop offset="0.2528" stop-color="#fffbcc"/><stop offset="0.2986" stop-color="#f7eab8"/><stop offset="0.3896" stop-color="#e7cf8e"/><stop offset="0.5159" stop-color="#d1a954"/><stop offset="0.5955" stop-color="#c3922e"/><stop offset="0.8143" stop-color="#e2c675"/><stop offset="0.8708" stop-color="#eed688"/><stop offset="1" stop-color="#fffbcc"/></radialGradient><linearGradient xlink:href="#a" id="b" gradientUnits="userSpaceOnUse" gradientTransform="translate(-18.524 37.059)" x1="113.50485" y1="72.66468" x2="120.63326" y2="72.66468"/><linearGradient xlink:href="#a" id="c" gradientUnits="userSpaceOnUse" gradientTransform="translate(-18.524 37.059)" x1="113.50485" y1="72.66468" x2="120.63326" y2="72.66468"/><linearGradient xlink:href="#a" id="d" gradientUnits="userSpaceOnUse" gradientTransform="translate(-18.524 37.059)" x1="113.50485" y1="72.66468" x2="120.63326" y2="72.66468"/><linearGradient xlink:href="#a" id="e" gradientUnits="userSpaceOnUse" gradientTransform="translate(-18.524 37.059)" x1="113.50485" y1="72.66468" x2="120.63326" y2="72.66468"/></defs><g transform="translate(-107.37 -177.313)"><circle r="1.7197912" cy="183.55275" cx="109.88331" fill="#e1b420" fill-rule="evenodd"/><g transform="translate(-12.936 -11.928) scale(1.07005)" fill="#1a1a1a"><circle r="1.3229163" cy="182.69473" cx="114.77927"/><g transform="translate(9.72 .193)" fill-rule="evenodd"><rect width="1.086509" height="1.5966177" x="104.51398" y="180.10335" ry="0.14754963"/><rect width="1.086509" height="1.5966177" x="-141.15459" y="154.35257" ry="0.13561165" transform="rotate(-71.842)"/><rect width="1.086509" height="1.5966177" x="-206.64029" y="-45.310749" ry="0.16528633" transform="scale(-1 1) rotate(-71.842)"/><rect width="1.086509" height="1.5966177" x="-192.83008" y="-88.028336" ry="0.16370632" transform="rotate(-143.956)"/><rect width="1.086509" height="1.5966177" x="-22.939228" y="-211.66788" ry="0.1715989" transform="scale(1 -1) rotate(36.044)"/></g></g><path d="M108.865 182.495l.402.441c.006-.015.012-.036.019-.044.022-.025.088-.043.17-.058zm2.026 0l-.6.336c.07.013.128.029.148.05.012.012.021.04.03.07zm-.937 1.713a3.587 3.587 0 0 1-.147.003l.071.735z" fill="#e1b420"/><path d="M110.683 184.284c-.146.148-1.448.159-1.596.013-.148-.145-.16-1.448-.014-1.596.146-.148 1.449-.159 1.597-.013.147.145.158 1.448.013 1.596z" transform="matrix(.72235 0 0 .7778 30.507 40.818)" fill="none" stroke="#ebd235" stroke-width=".21166667"/><path d="M109.883 180.95v-3.498" fill="none" stroke="#4f4e26" stroke-width=".00238833"/><g stroke="#4f4e26" stroke-width=".00012108" stroke-linecap="round" stroke-linejoin="round"><path d="M109.896 179.116v-1.725l1.17.004c.643.002 1.172.007 1.174.01.003.004 0 .555-.008 1.226l-.013 1.22-.027.02-.72.495-.695.475h-.88z" fill="#f4e3d7"/><path d="M108.341 180.364l-.815-.487.003-.125.02-1.209c.01-.595.021-1.1.024-1.123l.006-.04h1c.55 0 1.07.003 1.158.007l.16.008v3.458l-.37-.001-.37-.001z" fill="#1a1a1a"/></g><rect ry="0" y="177.38194" x="107.53619" height="2.0522804" width="4.6967711" fill="maroon" fill-rule="evenodd"/><path d="M107.508 177.324h4.75c.02 0 .034.004.034.01v.2c0 .005-.015.01-.033.01h-4.751c-.019 0-.034-.004-.034-.01v-.2c0-.005.015-.01.034-.01z" fill="#edc21f" stroke="#ac8800" stroke-width=".02090442" stroke-linecap="square"/><g><path d="M109.573 178.777l.311-.98.313.982.901.004-.705.602.33 1.025-.836-.657-.815.658.317-1.016-.748-.612z" fill="#e9c342" fill-rule="evenodd"/><path d="M98.594 111.367l-2.364 1.68 2.354-3.089z" fill="url(#b)" transform="matrix(.34468 0 0 .39172 75.903 136.129)"/><path d="M98.584 109.958l-1.434.495-2.17-1.564z" fill="url(#c)" transform="matrix(.34468 0 0 .39172 75.903 136.129)"/><path d="M98.584 109.959l-.907-1.088.901-2.472z" fill="url(#d)" transform="matrix(.34468 0 0 .39172 75.903 136.129)"/><path d="M99.495 108.88l2.614.01-3.525 1.068z" fill="url(#e)" transform="matrix(.34468 0 0 .39172 75.903 136.129)"/><path d="M100.062 110.426l.958 2.619-2.436-3.086z" fill="url(#f)" transform="matrix(.34468 0 0 .39172 75.903 136.129)"/></g></g></svg>