<svg xmlns="http://www.w3.org/2000/svg" viewBox="0 0 5.1999831 8.0327406"><path d="M.07 2.6V0h5.06v2.6l-1.69.55H1.76z" fill="#f0c" stroke="#eed729" stroke-width=".00118938" stroke-linecap="round" stroke-linejoin="round"/><path fill="#f4d7e3" fill-rule="evenodd" d="M1.72.16h1.76v2.99H1.72z"/><g fill="#fff005" fill-rule="evenodd"><path d="M1.19 1.77l.18-.58.2.58h.53l-.42.36.2.6-.5-.39-.5.4.2-.6-.46-.37zM3.66 1.77l.18-.58.2.58h.54l-.43.36.2.6-.5-.39-.5.4.2-.6-.45-.37z"/><path d="M2.4.8l.2-.57.18.58h.54l-.42.36.2.6-.5-.39-.5.4.2-.6L1.83.8z"/></g><path d="M1.7 3.09h1.82v.16l-.02.01H1.7h-.02v-.17h.02zM.04 0H5.2v.17H0V0h.04z" fill="#efc533"/><g fill="#520"><path d="M4.72 6.29c-.48-.22-.81.04-2 .06-1.07.02-1.48-.03-1.88-.23-.24-.11-.3-.17-.36-.38-.13-.4-.05-.58.3-.66.12-.02.15-.02.33.05.43.17.82.2 1.85.12 1.3-.1 1.63-.04 2.02.36.12.21.14.64-.26.68z"/><path d="M4.37 7.6c-.85.58-2.27.55-3.23.1-.27-.05-.89-.23-1-.39-.15-.42-.16-.6-.02-.93.1-.22.23-.42.31-.44.02 0 .07.03.12.09.3.36.93.43 1.84.4.36 0 .58-.03 1.51-.15.92-.17 1.31.44 1.28.93-.03.34-.09.3-.8.39zM4.48 5.1C2.65 5.27.32 5.36.9 4.66c.17-.21 1.63-.2 1.77-.52.21-.74 1.33-1.46 1.4.23.48.28.65.45.7.53.12.17-.09.14-.29.2z"/></g></svg>