<svg xmlns="http://www.w3.org/2000/svg" viewBox="0 0 5.2414707 8.6222017"><path d="M2.62 0v3.74" fill="none" stroke="#000" stroke-width=".00054989"/><path d="M.9 3.24l-.87-.5V0h5.18v1.37L5.2 2.74l-.86.5-.86.5H1.76z" fill="#1a1a1a" stroke="#eed729" stroke-width=".00130886" stroke-linecap="round" stroke-linejoin="round"/><path d="M2.62 1.87V0h2.59v.6L5.2 1.97v.77l-.87.5-.85.5h-.86z" fill="#e3dedb" fill-rule="evenodd" stroke="#f6d82a" stroke-width=".00000942"/><path d="M.04 0h5.2v.17H0V0h.04z" fill="#e1c41f"/><path d="M.04 1.37H5.2v.69H.04z" fill="#2525a2" fill-rule="evenodd" stroke="#f6d82a" stroke-width=".00043675"/><g fill="#ff0" fill-rule="evenodd"><path d="M2.39 1.25l.24-.8.25.8h.7l-.55.5.26.85-.66-.54L2 2.6l.24-.84-.58-.5zM4.23.68L4.34.3l.12.38h.34l-.27.24.13.4-.32-.26-.3.26.12-.4L3.88.7zM.8.68L.9.3l.13.38h.33L1.1.93l.12.4-.31-.26-.3.26.11-.4L.44.7z"/></g><path transform="matrix(1.24496 -.05372 .05388 1.24147 -149.24 -109.1)" d="M119.02 99.42l-.9.45-1-.07-.85-.56-.44-.9.07-1.01.56-.84.9-.45 1.01.07.84.56.44.9-.06 1.02z" fill="#2525a2" fill-rule="evenodd" stroke="#e1c41f" stroke-width=".13340025"/><g><path d="M63.53 118.77l-.46-.09-.13.43-.16-.43-.44.1.3-.36-.3-.33.45.08.14-.43.15.44.44-.1-.3.35z" transform="matrix(3.00092 0 0 3.24336 -186.23 -377.92)" fill="#ffe304" fill-rule="evenodd" stroke="#875b11" stroke-width=".00079375"/><path d="M62.34 118.35l2.57-1.57M62.34 116.8l2.58 1.53M63.62 116.02l.02 3.1M63 117.56l1.26.01M63.32 116.99l.62 1.15M63.3 118.13l.65-1.13" fill="none" stroke="#000" stroke-width=".00058389" transform="matrix(1.38798 0 0 1.43984 -85.7 -163.09)"/><path d="M63.32 117.56h-.3l-.03-.01-.32-.37c-.17-.2-.32-.36-.31-.37l.1.07c.07.04.19.1.27.16l.23.13.51.3.14.09h.01-.3z" fill="#d4aa00" fill-rule="evenodd" stroke="#875b11" stroke-width=".00001154" transform="matrix(1.38798 0 0 1.43984 -85.7 -163.09)"/><path d="M63.47 117.27l-.15-.28.15-.48.15-.47v1.52l-.15-.29zM63.66 117.52l.15-.28.14-.24a48.18 48.18 0 0 1 .91-.2c-.01.02-.08.06-.15.1l-.33.2a947.8 947.8 0 0 0-.72.42zM63.64 119.01a286.72 286.72 0 0 0 0-1.38v-.05l.14.28.15.28-.3.95v-.08z" fill="#d4aa00" fill-rule="evenodd" stroke="#875b11" stroke-width=".00001154" transform="matrix(1.38798 0 0 1.43984 -85.7 -163.09)"/><path d="M64.4 118.23l-.47-.1-.3-.55.04.01.15.1c.2.1.32.18.69.4a297.3 297.3 0 0 0 .38.23l-.48-.1zM62.37 118.32l.3-.37.32-.38v-.01h.32l.3.01-.02.02-.15.09-.33.2a815.09 815.09 0 0 0-.74.45z" fill="#d4aa00" fill-rule="evenodd" stroke="#875b11" stroke-width=".00001154" transform="matrix(1.38798 0 0 1.43984 -85.7 -163.09)"/></g></svg>